<svg width="104" height="24" viewBox="0 0 104 24" fill="none" xmlns="http://www.w3.org/2000/svg">
<path d="M7.32489 18.9229L8.56489 13.6099L4.44189 10.0379L9.87289 9.56788L11.9999 4.55688L14.1269 9.56688L19.5569 10.0369L15.4339 13.6089L16.6749 18.9219L11.9999 16.1019L7.32489 18.9229Z" fill="#E6ED66"/>
<path d="M27.3249 18.9229L28.5649 13.6099L24.4419 10.0379L29.8729 9.56788L31.9999 4.55688L34.1269 9.56688L39.5569 10.0369L35.4339 13.6089L36.6749 18.9219L31.9999 16.1019L27.3249 18.9229Z" fill="#E6ED66"/>
<path d="M47.3249 18.9229L48.5649 13.6099L44.4419 10.0379L49.8729 9.56788L51.9999 4.55688L54.1269 9.56688L59.5569 10.0369L55.4339 13.6089L56.6749 18.9219L51.9999 16.1019L47.3249 18.9229Z" fill="#E6ED66"/>
<path d="M67.3249 18.9229L68.5649 13.6099L64.4419 10.0379L69.8729 9.56788L71.9999 4.55688L74.1269 9.56688L79.5569 10.0369L75.4339 13.6089L76.6749 18.9219L71.9999 16.1019L67.3249 18.9229Z" fill="#E6ED66"/>
<path d="M87.3249 18.9229L88.5649 13.6099L84.4419 10.0379L89.8729 9.56788L91.9999 4.55688L94.1269 9.56688L99.5569 10.0369L95.4339 13.6089L96.6749 18.9219L91.9999 16.1019L87.3249 18.9229Z" fill="#E6ED66"/>
</svg>
