<svg width="60" height="18" viewBox="0 0 60 18" fill="#1B5083" xmlns="http://www.w3.org/2000/svg">
<path d="M29 1.61804L30.5451 6.37336L30.6574 6.71885H31.0206H36.0207L31.9755 9.6578L31.6817 9.87132L31.7939 10.2168L33.339 14.9721L29.2939 12.0332L29 11.8197L28.7061 12.0332L24.661 14.9721L26.2061 10.2168L26.3183 9.87132L26.0245 9.6578L21.9793 6.71885H26.9794H27.3426L27.4549 6.37336L29 1.61804Z" fill="#1B5083" stroke="white"/>
<path d="M49 1.61804L50.5451 6.37336L50.6574 6.71885H51.0206H56.0207L51.9755 9.6578L51.6817 9.87132L51.7939 10.2168L53.339 14.9721L49.2939 12.0332L49 11.8197L48.7061 12.0332L44.661 14.9721L46.2061 10.2168L46.3183 9.87132L46.0245 9.6578L41.9793 6.71885H46.9794H47.3426L47.4549 6.37336L49 1.61804Z" fill="#1B5083" stroke="white"/>
<path d="M67 1.61804L68.5451 6.37336L68.6574 6.71885H69.0206H74.0207L69.9755 9.6578L69.6817 9.87132L69.7939 10.2168L71.339 14.9721L67.2939 12.0332L67 11.8197L66.7061 12.0332L62.661 14.9721L64.2061 10.2168L64.3183 9.87132L64.0245 9.6578L59.9793 6.71885H64.9794H65.3426L65.4549 6.37336L67 1.61804Z" fill="#1B5083" stroke="white"/>
<path d="M87 1.61804L88.5451 6.37336L88.6574 6.71885H89.0206H94.0207L89.9755 9.6578L89.6817 9.87132L89.7939 10.2168L91.339 14.9721L87.2939 12.0332L87 11.8197L86.7061 12.0332L82.661 14.9721L84.2061 10.2168L84.3183 9.87132L84.0245 9.6578L79.9793 6.71885H84.9794H85.3426L85.4549 6.37336L87 1.61804Z" fill="#1B5083" stroke="white"/>
<path d="M9 1.61804L10.5451 6.37336L10.6574 6.71885H11.0206H16.0207L11.9755 9.6578L11.6817 9.87132L11.7939 10.2168L13.339 14.9721L9.29389 12.0332L9 11.8197L8.70611 12.0332L4.66099 14.9721L6.20609 10.2168L6.31834 9.87132L6.02445 9.6578L1.97933 6.71885H6.97937H7.34265L7.4549 6.37336L9 1.61804Z" fill="#1B5083" stroke="white"/>
</svg>
