<svg width="29" height="19" viewBox="0 0 29 19" fill="none" xmlns="http://www.w3.org/2000/svg">
<path d="M26.1333 18.9984H1.86667C1.3716 18.9984 0.896802 18.7982 0.546734 18.4419C0.196666 18.0856 0 17.6023 0 17.0984L0 9.10575H1.34478L1.64811 8.35842H2.32711L2.62967 9.10258H5.27567V8.53654L5.51211 9.10654H6.88567L7.12211 8.52704V9.10496H13.6967V7.88262H13.8211C13.9098 7.88579 13.9354 7.89371 13.9354 8.04412V9.10654H17.3367V8.82233C17.6843 9.00204 18.0942 9.10733 18.529 9.10733L18.6029 9.10654H18.599H20.0301L20.3366 8.36237H21.0156L21.315 9.10654H24.073V8.39879L24.4899 9.10654H26.6957V4.43254H24.5124V4.98433L24.2068 4.43254H21.9621V4.98433L21.6813 4.43254H18.6503C18.1912 4.40997 17.7339 4.50611 17.3211 4.712L17.3374 4.70488V4.43254H15.2468V4.70488C14.9936 4.50207 14.6741 4.40498 14.3531 4.43333H14.3578H6.71767L6.20511 5.64062L5.67856 4.43333H3.27211V4.98512L3.00689 4.43333H0.953556L0.00233333 6.65V1.9C0.00233333 1.39609 0.198999 0.912816 0.549067 0.556497C0.899135 0.200178 1.37393 0 1.869 0H26.1357C26.6307 0 27.1055 0.200178 27.4556 0.556497C27.8057 0.912816 28.0023 1.39609 28.0023 1.9V10.1967H26.5456C26.5212 10.1956 26.495 10.1951 26.467 10.1951C26.1294 10.1951 25.816 10.298 25.5547 10.4745L25.5609 10.4706V10.1967H23.4064C23.0698 10.1775 22.7368 10.2749 22.4614 10.473L22.4661 10.4698V10.1959H18.6192V10.4698C18.3041 10.2896 17.9486 10.1952 17.5871 10.1959H17.5568H17.5583H15.0204V10.4698C14.6889 10.2534 14.2954 10.1572 13.9036 10.1967L13.9106 10.1959H11.0709L10.4207 10.9115L9.81244 10.1959H5.57044V14.873H9.73311L10.4028 14.1463L11.0336 14.873H13.5994V13.7782H13.9572C14.3013 13.7925 14.6445 13.734 14.9652 13.6064L14.9481 13.6127V14.8746H17.0637V13.6562H17.1656C17.2947 13.6562 17.3079 13.661 17.3079 13.794V14.8754H23.737L23.8156 14.877C24.1842 14.877 24.528 14.7646 24.8142 14.5722L24.8072 14.5762V14.8754H26.8466L26.9438 14.877C27.3257 14.877 27.6889 14.797 28.0187 14.6522L28.0008 14.6593V17.0992C28.0008 17.6031 27.8041 18.0864 27.454 18.4427C27.104 18.799 26.6292 18.9992 26.1341 18.9992L26.1333 18.9984ZM16.415 14.2175H15.6232V10.8648H17.4401C17.7683 10.8339 18.0987 10.8901 18.3991 11.0279L18.3867 11.0232C18.6301 11.1593 18.7927 11.419 18.7927 11.7167L18.7911 11.7697V11.7673L18.7919 11.7974C18.7919 12.1822 18.564 12.5131 18.2373 12.6572L18.2311 12.6595C18.3874 12.7165 18.5181 12.8139 18.6153 12.9398L18.6169 12.9414C18.7265 13.1265 18.7724 13.3434 18.7476 13.5581L18.7483 13.5533V14.2167H17.9581V13.7972C17.9964 13.5687 17.9513 13.3339 17.8313 13.1369L17.8337 13.1409C17.7516 13.0774 17.6577 13.0316 17.5577 13.0062C17.4577 12.9807 17.3537 12.9762 17.2519 12.9928L17.2566 12.992H16.415V14.2167V14.2175ZM16.415 11.5575V12.3104H17.3717C17.5068 12.3231 17.6427 12.2985 17.7652 12.2392L17.7606 12.2415C17.8106 12.2086 17.8517 12.1635 17.8802 12.1102C17.9087 12.057 17.9237 11.9974 17.9239 11.9367L17.9231 11.9185C17.9274 11.858 17.9146 11.7982 17.886 11.7448C17.8575 11.6915 17.8145 11.6476 17.7621 11.6185L17.7606 11.6177C17.6422 11.5651 17.5128 11.5433 17.3841 11.5544H17.3872L16.415 11.5575ZM9.39556 14.2167H6.279V10.8648H9.44456L10.4129 11.9637L11.4139 10.8648H13.9284C14.8213 10.8648 15.2553 11.2266 15.2553 11.9692C15.2553 12.7252 14.8066 13.0926 13.8864 13.0926H12.9026V14.216H11.3727L10.4036 13.1084L9.39556 14.2167ZM12.1186 11.2242L10.9099 12.5463L12.1186 13.9112V11.2242ZM7.06378 12.8511V13.5177H8.99889L9.89333 12.5345L9.03311 11.5575H7.063V12.1671H8.79122V12.8503L7.06378 12.8511ZM12.9026 11.5583V12.4117H13.9191C14.2302 12.4117 14.4091 12.2502 14.4091 11.9684C14.4091 11.6992 14.2427 11.5575 13.9277 11.5575L12.9026 11.5583ZM26.9321 14.2183H25.4123V13.4979H26.9259C27.0391 13.5137 27.1539 13.4836 27.2456 13.414L27.2448 13.4148C27.2741 13.3873 27.2974 13.3538 27.3134 13.3166C27.3293 13.2794 27.3375 13.2393 27.3373 13.1987V13.186C27.3373 13.1459 27.3287 13.1064 27.3122 13.07C27.2957 13.0337 27.2716 13.0014 27.2417 12.9754C27.1616 12.9153 27.062 12.8886 26.9632 12.901H26.9648L26.8193 12.8962C26.1084 12.8772 25.3034 12.8551 25.3034 11.8631C25.3034 11.3802 25.6006 10.8648 26.432 10.8648H28.0008V11.5789H26.5658C26.455 11.5667 26.3431 11.5893 26.2453 11.6438L26.2484 11.6422C26.2101 11.668 26.1793 11.7038 26.1592 11.7459C26.139 11.7879 26.1304 11.8347 26.1341 11.8813V11.8805V11.8892C26.1341 11.9426 26.1506 11.9946 26.1814 12.0378C26.2121 12.081 26.2554 12.1132 26.3052 12.1299L26.3068 12.1307C26.4053 12.162 26.5086 12.1749 26.6117 12.1687H26.6093L27.0363 12.1798C27.3582 12.1468 27.6799 12.2444 27.9316 12.4513L27.9292 12.4497C27.9526 12.4687 27.973 12.4896 27.9907 12.5123L27.9914 12.5131L28.0008 13.7892C27.8698 13.9447 27.7034 14.065 27.5162 14.1397C27.3289 14.2143 27.1265 14.2411 26.9267 14.2175L26.9321 14.2183ZM23.8607 14.2183H22.3269V13.4979H23.8529C23.9671 13.5129 24.0825 13.4829 24.1757 13.414L24.1741 13.4148C24.2033 13.3872 24.2265 13.3537 24.2423 13.3165C24.2581 13.2793 24.2661 13.2392 24.2659 13.1987V13.1907C24.266 13.15 24.2575 13.1097 24.241 13.0725C24.2245 13.0354 24.2004 13.0023 24.1702 12.9754C24.0882 12.9164 23.9878 12.89 23.8879 12.901H23.8894L23.7448 12.8962C23.0362 12.8772 22.232 12.8551 22.232 11.8631C22.232 11.3802 22.5276 10.8648 23.3574 10.8648H24.9348V11.5789H23.4912C23.3812 11.5671 23.2702 11.5898 23.1731 11.6438L23.1762 11.6422C23.1354 11.6709 23.1029 11.7102 23.0821 11.7561C23.0614 11.8019 23.0533 11.8526 23.0585 11.9028C23.0638 11.953 23.0823 12.0008 23.112 12.0412C23.1418 12.0816 23.1817 12.1131 23.2276 12.1323L23.2291 12.1331C23.3289 12.1648 23.4335 12.1777 23.5379 12.1711H23.5356L23.9594 12.1822C24.2831 12.1497 24.6064 12.2474 24.8601 12.4545L24.8578 12.4521C24.9434 12.548 25.0084 12.6608 25.0489 12.7836C25.0893 12.9064 25.1042 13.0364 25.0927 13.1654V13.1615C25.095 13.8605 24.6789 14.2167 23.8583 14.2167L23.8607 14.2183ZM21.8556 14.2183H19.2267V10.864H21.8532V11.5567H20.0122V12.1663H21.8104V12.8495H20.0122V13.5161L21.8556 13.5193V14.216V14.2183ZM23.3878 8.45025H21.7848L21.4783 7.70292H19.8434L19.5463 8.45025H18.6254C18.2119 8.47244 17.8046 8.33981 17.4806 8.07737L17.4844 8.07975C17.3304 7.90684 17.2135 7.70311 17.1412 7.4816C17.0688 7.26009 17.0427 7.02566 17.0644 6.79329L17.0637 6.79962C17.043 6.56294 17.0702 6.32446 17.1435 6.09887C17.2168 5.87327 17.3347 5.66533 17.4899 5.48783L17.4883 5.48942C17.6516 5.34393 17.8426 5.23426 18.0493 5.16725C18.2561 5.10023 18.4742 5.07731 18.69 5.09992L18.6838 5.09912H19.446V5.814H18.6993C18.5901 5.79951 18.479 5.80981 18.3741 5.84416C18.2692 5.87852 18.1731 5.93608 18.0927 6.01271L18.0934 6.01192C17.9276 6.22893 17.847 6.50093 17.8671 6.77508V6.77113C17.8425 7.05283 17.9203 7.33393 18.0857 7.56121L18.0833 7.55804C18.2378 7.68689 18.4358 7.74886 18.6348 7.73062H18.6317H18.9848L20.0978 5.09437H21.28L22.6123 8.26104V5.09437H23.8109L25.1938 7.42821V5.09437H26.0027V8.44471H24.8796L23.3862 5.92879V8.44471L23.3878 8.45025ZM20.6663 5.66517L20.1242 7.0015H21.2108L20.6663 5.66517ZM13.0449 8.44867H12.2578V5.09675H14.0684C14.399 5.06196 14.7326 5.11915 15.0337 5.26221L15.022 5.25746C15.1428 5.32585 15.2436 5.4258 15.3138 5.547C15.3841 5.6682 15.4214 5.80627 15.4218 5.947L15.4202 6.00242V6.00004V6.02458C15.4203 6.20742 15.3685 6.38639 15.2711 6.54002C15.1737 6.69364 15.0348 6.8154 14.8711 6.89067L14.8649 6.89304C15.0212 6.95321 15.1527 7.04979 15.253 7.17329L15.2546 7.17487C15.3663 7.36027 15.4121 7.57908 15.3844 7.79475L15.3852 7.79V8.44787H14.5911L14.588 8.02512V7.96179C14.617 7.75506 14.572 7.54462 14.4612 7.36883L14.4636 7.37279C14.3811 7.31139 14.2875 7.26713 14.1882 7.24254C14.0889 7.21795 13.9859 7.21352 13.8849 7.2295L13.8896 7.22871H13.0457V8.44787L13.0449 8.44867ZM13.0449 5.79421V6.53837H14C14.1349 6.55391 14.2714 6.52915 14.3928 6.46712L14.3889 6.46871C14.4386 6.43771 14.4796 6.39432 14.5082 6.34264C14.5368 6.29097 14.5519 6.23272 14.5522 6.17342L14.5514 6.15125C14.5554 6.0911 14.542 6.03187 14.5128 5.9794C14.4836 5.92692 14.44 5.88429 14.3873 5.85675L14.3858 5.85596C14.2676 5.80349 14.1386 5.78173 14.0101 5.79262H14.0124L13.0449 5.79421ZM4.71022 8.44867H3.11111L2.80856 7.70133H1.169L0.864111 8.44867H0.00855556L1.41867 5.09675H2.58767L3.92622 8.26896V5.09675H5.21033L6.24011 7.36962L7.18667 5.09675H8.49722V8.44708H7.68833L7.68678 5.82508L6.54578 8.44787H5.85511L4.711 5.82112V8.44787L4.71022 8.44867ZM1.98489 5.66517L1.449 7.0015H2.52389L1.98489 5.66517ZM16.6756 8.44787H15.8729V5.09675H16.6763V8.44708L16.6756 8.44787ZM11.7087 8.44787H9.08444V5.09675H11.7133V5.79342H9.87156V6.39746H11.669V7.08542H9.87V7.75517H11.7118V8.44708L11.7087 8.44787Z" fill="#F8FDFF"/>
</svg>
