<svg width="78" height="86" viewBox="0 0 78 86" fill="none" xmlns="http://www.w3.org/2000/svg">
<path d="M36.7 85C19.8706 85 11.458 85 6.229 78.847C0.999999 72.7024 1 62.7988 1 43C1 23.2012 0.999999 13.3018 6.229 7.1488C11.458 0.9958 19.8706 1 36.7 1C53.5294 1 61.942 1 67.171 7.1488C71.3794 12.1048 72.2026 19.4842 72.3622 32.5M22 26.2H51.4M22 47.2H34.6" stroke="white" stroke-width="1.5" stroke-linecap="round" stroke-linejoin="round"/>
<path d="M70.762 68.641C73.1833 66.881 74.9853 64.3996 75.9097 61.5525C76.8342 58.7054 76.8335 55.6387 75.9079 52.792C74.9823 49.9452 73.1793 47.4646 70.7572 45.7056C68.3351 43.9465 65.4184 42.9994 62.4249 43H61.3708C58.3777 43.0003 55.4615 43.9481 53.0401 45.7074C50.6187 47.4668 48.8164 49.9474 47.8913 52.794C46.9663 55.6405 46.966 58.7068 47.8905 61.5535C48.815 64.4002 50.6169 66.8812 53.038 68.641M53.038 68.641C55.4578 70.4053 58.3761 71.354 61.3708 71.35H62.4208C65.4154 71.354 68.3337 70.4053 70.7535 68.641L73.2021 76.348C74.1345 79.288 74.6049 80.758 74.4747 81.6736C74.2101 83.5804 72.6562 84.9916 70.8208 85C69.9388 85 68.62 84.3112 65.9782 82.9252C64.8442 82.3288 64.2814 82.0348 63.7018 81.8584C62.5236 81.5059 61.2679 81.5059 60.0897 81.8584C59.5101 82.0348 58.9432 82.3288 57.8134 82.9252C55.1716 84.3112 53.8527 85.0042 52.9707 85C51.1353 84.9916 49.5813 83.5804 49.3167 81.6736C49.1907 80.758 49.6527 79.288 50.5893 76.348L53.038 68.641Z" stroke="white" stroke-width="1.5" stroke-linecap="round" stroke-linejoin="round"/>
</svg>
