<svg width="25" height="25" viewBox="0 0 76 72" fill="#1B5083" xmlns="http://www.w3.org/2000/svg">
<path d="M11.136 1.95032H54.2556V7.96H11.136C8.22017 7.66521 7.50086 8.85563 7.35241 12.6632V60.9366C7.51663 64.1977 8.4471 64.8544 11.136 64.5947H60.5833C63.4799 64.4667 64.1932 63.6422 63.9755 60.9366V18.281H70.3032V62.1778C68.9842 69.8332 66.6051 71.3196 60.5833 70.931H11.136C3.24807 71.4121 1.06134 69.4687 1.02472 62.1778V12.6632C0.754428 4.25274 2.61018 1.54766 11.136 1.95032Z" stroke="#1B5083"/>
<path d="M34.294 58.9116C48.3033 33.3595 57.2353 20.9267 75 1.95032C71.8785 -6.12941 34.294 39.9681 34.294 39.9681C34.294 39.9681 17.0113 24.1059 9.8313 29.8431C22.8028 39.9454 27.8229 46.4328 34.294 58.9116Z" stroke="#1B5083"/>
</svg>
