<svg width="47" height="40" viewBox="0 0 47 60" fill="#1B5083" xmlns="http://www.w3.org/2000/svg">
<rect x="0.5" y="0.5" width="46" height="59" stroke="#FFF"/>
<path d="M5.36973 4.12218H11.1967V4.89486H5.36973C4.9757 4.85696 4.87849 5.01001 4.85843 5.49956V11.7061C4.88063 12.1254 5.00636 12.2099 5.36973 12.1765H12.0518C12.4432 12.16 12.5396 12.054 12.5102 11.7061V6.22184H13.3653V11.8657C13.187 12.85 12.8656 13.0411 12.0518 12.9911H5.36973C4.30379 13.053 4.00829 12.8031 4.00334 11.8657V5.49956C3.96681 4.41821 4.21759 4.07041 5.36973 4.12218Z" stroke="#FFF" stroke-width="0.5"/>
<path d="M8.49919 11.4458C10.3923 8.1605 11.5994 6.562 14 4.12218C13.5782 3.08336 8.49919 9.01018 8.49919 9.01018C8.49919 9.01018 6.16369 6.97076 5.19342 7.7084C6.94632 9.00727 7.62472 9.84137 8.49919 11.4458Z" stroke="#FFF" stroke-width="0.5"/>
<path d="M5.36973 17.1222H11.1967V17.8949H5.36973C4.9757 17.857 4.87849 18.01 4.85843 18.4996V24.7061C4.88063 25.1254 5.00636 25.2099 5.36973 25.1765H12.0518C12.4432 25.16 12.5396 25.054 12.5102 24.7061V19.2218H13.3653V24.8657C13.187 25.85 12.8656 26.0411 12.0518 25.9911H5.36973C4.30379 26.053 4.00829 25.8031 4.00334 24.8657V18.4996C3.96681 17.4182 4.21759 17.0704 5.36973 17.1222Z" stroke="#FFF" stroke-width="0.5"/>
<path d="M8.49919 24.4458C10.3923 21.1605 11.5994 19.562 14 17.1222C13.5782 16.0834 8.49919 22.0102 8.49919 22.0102C8.49919 22.0102 6.16369 19.9708 5.19342 20.7084C6.94632 22.0073 7.62472 22.8414 8.49919 24.4458Z" stroke="#FFF" stroke-width="0.5"/>
<path d="M5.36973 30.1222H11.1967V30.8949H5.36973C4.9757 30.857 4.87849 31.01 4.85843 31.4996V37.7061C4.88063 38.1254 5.00636 38.2099 5.36973 38.1765H12.0518C12.4432 38.16 12.5396 38.054 12.5102 37.7061V32.2218H13.3653V37.8657C13.187 38.85 12.8656 39.0411 12.0518 38.9911H5.36973C4.30379 39.053 4.00829 38.8031 4.00334 37.8657V31.4996C3.96681 30.4182 4.21759 30.0704 5.36973 30.1222Z" stroke="#FFF" stroke-width="0.5"/>
<path d="M8.49919 37.4458C10.3923 34.1605 11.5994 32.562 14 30.1222C13.5782 29.0834 8.49919 35.0102 8.49919 35.0102C8.49919 35.0102 6.16369 32.9708 5.19342 33.7084C6.94632 35.0073 7.62472 35.8414 8.49919 37.4458Z" stroke="#FFF" stroke-width="0.5"/>
<path d="M5.36973 43.0049H11.1967V43.7776H5.36973C4.9757 43.7397 4.87849 43.8928 4.85843 44.3823V50.5889C4.88062 51.0082 5.00636 51.0926 5.36973 51.0592H12.0518C12.4432 51.0428 12.5396 50.9368 12.5102 50.5889V45.1046H13.3653V50.7485C13.187 51.7327 12.8656 51.9239 12.0518 51.8739H5.36973C4.30379 51.9357 4.00829 51.6859 4.00334 50.7485V44.3823C3.96681 43.301 4.21759 42.9532 5.36973 43.0049Z" stroke="#FFF" stroke-width="0.5"/>
</svg>
