<svg width="71" height="49" viewBox="0 0 71 49" fill="none" xmlns="http://www.w3.org/2000/svg">
<path d="M7.5 8.56935V2.56788C18.815 3.99816 25.2632 3.94514 36.5 2.56573V8.56813C25.2997 10.2036 18.8627 10.2598 7.5 8.56935Z" stroke="white"/>
<path d="M36.5249 1.90148C36.525 1.90149 36.5241 1.90296 36.5216 1.90586C36.5235 1.90291 36.5247 1.90146 36.5249 1.90148ZM35.6709 1.69838C36.0133 1.80633 36.2506 1.90984 36.3972 2C36.2506 2.09017 36.0133 2.19367 35.6709 2.30162C34.9526 2.52806 33.8874 2.73902 32.5405 2.9186C29.854 3.2768 26.1272 3.5 22 3.5C17.8728 3.5 14.1459 3.2768 11.4595 2.9186C10.1126 2.73902 9.04741 2.52806 8.3291 2.30162C7.98664 2.19367 7.74934 2.09017 7.60276 2C7.74934 1.90983 7.98664 1.80633 8.3291 1.69838C9.04741 1.47194 10.1126 1.26098 11.4595 1.0814C14.1459 0.723204 17.8728 0.5 22 0.5C26.1272 0.5 29.854 0.723204 32.5405 1.0814C33.8874 1.26098 34.9526 1.47194 35.6709 1.69838ZM7.47511 1.90148C7.47527 1.90146 7.47651 1.90291 7.47836 1.90586C7.47588 1.90296 7.47495 1.90149 7.47511 1.90148ZM7.47511 2.09852C7.47495 2.09851 7.47588 2.09704 7.47836 2.09414C7.47651 2.09709 7.47527 2.09854 7.47511 2.09852ZM36.5216 2.09414C36.5241 2.09704 36.525 2.09851 36.5249 2.09852C36.5247 2.09854 36.5235 2.09709 36.5216 2.09414Z" stroke="white"/>
<path d="M40.3065 17.6712L43.3073 12.4737C52.3912 19.3699 58.002 22.5481 68.4231 26.9719L65.4219 32.1701C54.9044 27.9863 49.3017 24.8165 40.3065 17.6712Z" stroke="white"/>
<path d="M68.7768 26.4092C68.7769 26.4093 68.7754 26.4101 68.7718 26.4113C68.7748 26.4097 68.7766 26.4091 68.7768 26.4092ZM68.1387 25.8063C68.3813 26.071 68.5351 26.2793 68.617 26.4307C68.4449 26.4355 68.1877 26.4064 67.8371 26.3287C67.1018 26.1657 66.0739 25.8158 64.8176 25.2978C62.312 24.2648 58.9728 22.5947 55.3986 20.5311C51.8243 18.4675 48.7084 16.4108 46.5609 14.7573C45.4843 13.9284 44.6673 13.2131 44.1584 12.6578C43.9158 12.3931 43.7621 12.1848 43.6802 12.0334C43.8522 12.0286 44.1095 12.0577 44.46 12.1354C45.1953 12.2984 46.2233 12.6483 47.4795 13.1663C49.9852 14.1993 53.3243 15.8694 56.8986 17.933C60.4728 19.9966 63.5888 22.0533 65.7362 23.7068C66.8129 24.5357 67.6299 25.251 68.1387 25.8063ZM43.6189 11.8843C43.6191 11.8844 43.6194 11.8862 43.6195 11.8897C43.6188 11.886 43.6188 11.8842 43.6189 11.8843ZM43.5204 12.0549C43.5203 12.0548 43.5218 12.054 43.5254 12.0528C43.5223 12.0544 43.5205 12.055 43.5204 12.0549ZM68.6776 26.5744C68.6783 26.5781 68.6784 26.5799 68.6782 26.5798C68.6781 26.5798 68.6777 26.5779 68.6776 26.5744Z" stroke="white"/>
<path d="M35.5 46.5694V40.5679C46.815 41.9982 53.2632 41.9451 64.5 40.5657V46.5681C53.2997 48.2036 46.8627 48.2598 35.5 46.5694Z" stroke="white"/>
<path d="M64.5249 39.9015C64.525 39.9015 64.5241 39.903 64.5216 39.9059C64.5235 39.9029 64.5247 39.9015 64.5249 39.9015ZM63.6709 39.6984C64.0133 39.8063 64.2506 39.9098 64.3972 40C64.2506 40.0902 64.0133 40.1937 63.6709 40.3016C62.9526 40.5281 61.8874 40.739 60.5405 40.9186C57.854 41.2768 54.1272 41.5 50 41.5C45.8728 41.5 42.1459 41.2768 39.4595 40.9186C38.1126 40.739 37.0474 40.5281 36.3291 40.3016C35.9866 40.1937 35.7493 40.0902 35.6028 40C35.7493 39.9098 35.9866 39.8063 36.3291 39.6984C37.0474 39.4719 38.1126 39.261 39.4595 39.0814C42.1459 38.7232 45.8728 38.5 50 38.5C54.1272 38.5 57.854 38.7232 60.5405 39.0814C61.8874 39.261 62.9526 39.4719 63.6709 39.6984ZM35.4751 39.9015C35.4753 39.9015 35.4765 39.9029 35.4784 39.9059C35.4759 39.903 35.475 39.9015 35.4751 39.9015ZM35.4751 40.0985C35.475 40.0985 35.4759 40.097 35.4784 40.0941C35.4765 40.0971 35.4753 40.0985 35.4751 40.0985ZM64.5216 40.0941C64.5241 40.097 64.525 40.0985 64.5249 40.0985C64.5247 40.0985 64.5235 40.0971 64.5216 40.0941Z" stroke="white"/>
<path d="M2.70081 39.9126L1.14752 34.1157C12.4471 32.5687 18.6619 30.8485 29.1588 26.6078L30.7123 32.4057C20.317 36.8843 14.1138 38.6046 2.70081 39.9126Z" stroke="white"/>
<path d="M29.011 25.9597C29.0111 25.9597 29.0106 25.9614 29.009 25.9648C29.01 25.9615 29.0108 25.9598 29.011 25.9597ZM28.1335 25.9846C28.4923 26.0002 28.7483 26.0388 28.9132 26.0879C28.7949 26.213 28.5925 26.3744 28.2897 26.5673C27.6544 26.9719 26.6801 27.4514 25.4256 27.9734C22.9234 29.0147 19.3813 30.1949 15.3948 31.2631C11.4082 32.3313 7.75055 33.0803 5.06292 33.4296C3.71545 33.6047 2.63196 33.6767 1.87952 33.6438C1.52079 33.6282 1.26479 33.5897 1.09985 33.5405C1.21811 33.4155 1.42054 33.2541 1.72338 33.0612C2.35861 32.6565 3.33291 32.1771 4.58741 31.655C7.08964 30.6137 10.6318 29.4335 14.6183 28.3653C18.6048 27.2971 22.2625 26.5481 24.9501 26.1988C26.2976 26.0237 27.3811 25.9518 28.1335 25.9846ZM0.951061 33.4784C0.95121 33.4783 0.952784 33.4794 0.955337 33.4818C0.952188 33.4796 0.950912 33.4784 0.951061 33.4784ZM1.00206 33.6687C1.0019 33.6687 1.00242 33.6671 1.00407 33.6636C1.00304 33.6669 1.00222 33.6687 1.00206 33.6687ZM29.0577 26.1467C29.0609 26.1488 29.0621 26.15 29.062 26.1501C29.0618 26.1501 29.0603 26.149 29.0577 26.1467Z" stroke="white"/>
</svg>
