<svg width="80" height="100" viewBox="0 0 80 100" fill="none" xmlns="http://www.w3.org/2000/svg">
<path d="M23.5 8.57525V2.56915C34.815 4.00038 41.2632 3.94732 52.5 2.567V8.57402C41.2997 10.2106 34.8627 10.2669 23.5 8.57525Z" stroke="white"/>
<path d="M52.5248 1.90307C52.5249 1.90308 52.524 1.90455 52.5215 1.90744C52.5234 1.9045 52.5246 1.90305 52.5248 1.90307ZM51.6708 1.69916C52.0137 1.80732 52.2512 1.91102 52.3977 2.00133C52.2512 2.09163 52.0137 2.19533 51.6708 2.30349C50.9525 2.53007 49.8873 2.74116 48.5405 2.92087C45.854 3.2793 42.1272 3.50265 38 3.50265C33.8728 3.50265 30.146 3.2793 27.4595 2.92087C26.1127 2.74116 25.0475 2.53007 24.3292 2.30349C23.9863 2.19533 23.7488 2.09163 23.6023 2.00132C23.7488 1.91102 23.9863 1.80732 24.3292 1.69916C25.0475 1.47258 26.1127 1.26148 27.4595 1.08178C30.146 0.723352 33.8728 0.5 38 0.5C42.1272 0.5 45.854 0.723352 48.5405 1.08178C49.8873 1.26148 50.9525 1.47258 51.6708 1.69916ZM23.4752 1.90307C23.4754 1.90305 23.4766 1.9045 23.4784 1.90744C23.476 1.90455 23.4751 1.90308 23.4752 1.90307ZM23.4752 2.09958C23.4751 2.09957 23.476 2.0981 23.4784 2.09521C23.4766 2.09815 23.4754 2.09959 23.4752 2.09958ZM52.5216 2.09521C52.524 2.0981 52.5249 2.09957 52.5248 2.09958C52.5246 2.09959 52.5234 2.09815 52.5216 2.09521Z" stroke="white"/>
<path d="M49.3064 26.6889L52.3073 21.4876C61.3913 28.3884 67.0021 31.5687 77.4233 35.9954L74.4218 41.1975C63.9043 37.011 58.3015 33.839 49.3064 26.6889Z" stroke="white"/>
<path d="M77.7767 35.4329C77.7768 35.433 77.7753 35.4338 77.7717 35.4351C77.7747 35.4335 77.7765 35.4328 77.7767 35.4329ZM77.1389 34.8292C77.3817 35.0943 77.5355 35.3029 77.6173 35.4544C77.4453 35.4593 77.1878 35.4303 76.837 35.3524C76.1017 35.1893 75.0737 34.8391 73.8175 34.3209C71.3119 33.2872 67.9727 31.6159 64.3985 29.551C60.8242 27.486 57.7083 25.4279 55.5608 23.7734C54.4842 22.9439 53.6672 22.2281 53.1583 21.6725C52.9155 21.4074 52.7617 21.1988 52.6799 21.0473C52.8519 21.0424 53.1093 21.0714 53.4602 21.1493C54.1955 21.3125 55.2234 21.6626 56.4797 22.1808C58.9853 23.2146 62.3245 24.8858 65.8987 26.9507C69.4729 29.0157 72.5889 31.0738 74.7364 32.7283C75.813 33.5578 76.63 34.2736 77.1389 34.8292ZM52.6188 20.8984C52.6189 20.8985 52.6193 20.9003 52.6194 20.9038C52.6187 20.9001 52.6187 20.8983 52.6188 20.8984ZM52.5205 21.0688C52.5204 21.0687 52.5219 21.0679 52.5255 21.0666C52.5224 21.0682 52.5206 21.0689 52.5205 21.0688ZM77.6777 35.5979C77.6784 35.6016 77.6785 35.6034 77.6784 35.6033C77.6782 35.6032 77.6779 35.6014 77.6777 35.5979Z" stroke="white"/>
<path d="M9.96074 54.9925L13.9886 50.54C21.4173 59.1998 26.2333 63.4907 35.4897 70.0136L31.4612 74.4668C22.0601 68.1584 17.2502 63.8773 9.96074 54.9925Z" stroke="white"/>
<path d="M35.9533 69.5378C35.9534 69.5379 35.9517 69.5384 35.9479 69.5389C35.9513 69.5379 35.9532 69.5377 35.9533 69.5378ZM35.4566 68.8134C35.6382 69.1236 35.7447 69.3599 35.7928 69.5253C35.6236 69.4937 35.3781 69.4111 35.0516 69.2612C34.3671 68.9468 33.4358 68.3879 32.3167 67.6166C30.0847 66.0783 27.1719 63.7411 24.1122 60.9694C21.0525 58.1978 18.4393 55.5295 16.6881 53.4596C15.8101 52.4219 15.1619 51.5501 14.7814 50.8997C14.5998 50.5894 14.4933 50.3532 14.4452 50.1878C14.6144 50.2193 14.8599 50.3019 15.1865 50.4519C15.871 50.7663 16.8022 51.3251 17.9213 52.0964C20.1533 53.6348 23.0661 55.972 26.1258 58.7436C29.1855 61.5152 31.7987 64.1836 33.5499 66.2535C34.4279 67.2912 35.0761 68.163 35.4566 68.8134ZM14.4168 50.0293C14.4169 50.0294 14.4169 50.0313 14.4163 50.0347C14.4164 50.0309 14.4167 50.0292 14.4168 50.0293ZM14.2847 50.1753C14.2846 50.1751 14.2863 50.1747 14.2901 50.1742C14.2867 50.1751 14.2848 50.1754 14.2847 50.1753ZM35.8218 69.6784C35.8216 69.6822 35.8213 69.6839 35.8212 69.6838C35.8211 69.6837 35.8211 69.6818 35.8218 69.6784Z" stroke="white"/>
<path d="M2.70087 41.9407L1.14742 36.1393C12.447 34.5913 18.6618 32.87 29.1588 28.6265L30.7124 34.4288C20.317 38.9104 14.1139 40.6319 2.70087 41.9407Z" stroke="white"/>
<path d="M29.011 27.9787C29.0112 27.9786 29.0106 27.9803 29.009 27.9837C29.01 27.9804 29.0108 27.9787 29.011 27.9787ZM28.1334 28.0029C28.4925 28.0186 28.7487 28.0573 28.9136 28.1065C28.7954 28.2317 28.5929 28.3934 28.2897 28.5866C27.6545 28.9915 26.6802 29.4713 25.4257 29.9937C22.9235 31.0357 19.3814 32.2166 15.3948 33.2855C11.4083 34.3544 7.75065 35.1039 5.06303 35.4535C3.71557 35.6287 2.63209 35.7007 1.87967 35.6678C1.52051 35.6522 1.26433 35.6135 1.09943 35.5642C1.21762 35.4391 1.42016 35.2774 1.72337 35.0842C2.35858 34.6793 3.33287 34.1995 4.58737 33.6771C7.08958 32.6351 10.6317 31.4541 14.6182 30.3852C18.6048 29.3163 22.2624 28.5669 24.95 28.2173C26.2975 28.0421 27.381 27.9701 28.1334 28.0029ZM0.951207 35.5022C0.951355 35.5022 0.952923 35.5033 0.955465 35.5056C0.952329 35.5035 0.951059 35.5023 0.951207 35.5022ZM1.00205 35.6921C1.0019 35.6921 1.00241 35.6905 1.00405 35.687C1.00303 35.6904 1.00221 35.6921 1.00205 35.6921ZM29.0576 28.1652C29.0607 28.1673 29.062 28.1685 29.0618 28.1685C29.0617 28.1686 29.0601 28.1675 29.0576 28.1652Z" stroke="white"/>
<path d="M45.7009 97.9778L44.1474 92.1764C55.447 90.6284 61.6618 88.9071 72.1588 84.6636L73.7124 90.4659C63.317 94.9475 57.1139 96.669 45.7009 97.9778Z" stroke="white"/>
<path d="M72.011 84.0155C72.0112 84.0155 72.0106 84.0172 72.009 84.0206C72.01 84.0173 72.0108 84.0156 72.011 84.0155ZM71.1334 84.0398C71.4925 84.0555 71.7487 84.0941 71.9136 84.1434C71.7954 84.2686 71.5929 84.4302 71.2897 84.6235C70.6545 85.0284 69.6802 85.5081 68.4257 86.0306C65.9235 87.0725 62.3814 88.2535 58.3948 89.3224C54.4083 90.3913 50.7507 91.1408 48.063 91.4903C46.7156 91.6656 45.6321 91.7375 44.8797 91.7047C44.5205 91.689 44.2643 91.6504 44.0994 91.6011C44.2176 91.4759 44.4202 91.3143 44.7234 91.121C45.3586 90.7161 46.3329 90.2364 47.5874 89.7139C50.0896 88.672 53.6317 87.491 57.6182 86.4221C61.6048 85.3532 65.2624 84.6037 67.95 84.2542C69.2975 84.0789 70.381 84.007 71.1334 84.0398ZM43.9512 91.5391C43.9514 91.539 43.9529 91.5401 43.9555 91.5425C43.9523 91.5403 43.9511 91.5392 43.9512 91.5391ZM44.0021 91.729C44.0019 91.729 44.0024 91.7273 44.004 91.7239C44.003 91.7272 44.0022 91.7289 44.0021 91.729ZM72.0576 84.202C72.0607 84.2042 72.062 84.2053 72.0618 84.2054C72.0617 84.2055 72.0601 84.2044 72.0576 84.202Z" stroke="white"/>
<path d="M1.30635 83.7268L4.30733 78.5255C13.3913 85.4262 19.0021 88.6065 29.4233 93.0333L26.4218 98.2354C15.9043 94.0488 10.3015 90.8769 1.30635 83.7268Z" stroke="white"/>
<path d="M29.7767 92.4705C29.7768 92.4706 29.7753 92.4714 29.7717 92.4727C29.7747 92.4711 29.7765 92.4704 29.7767 92.4705ZM29.1389 91.8668C29.3817 92.1319 29.5355 92.3405 29.6173 92.492C29.4453 92.4969 29.1878 92.4679 28.837 92.39C28.1017 92.2269 27.0737 91.8767 25.8175 91.3585C23.3119 90.3248 19.9727 88.6535 16.3985 86.5886C12.8242 84.5236 9.70826 82.4655 7.56081 80.811C6.48417 79.9815 5.66717 79.2657 5.15832 78.7101C4.9155 78.445 4.76168 78.2364 4.67987 78.0849C4.85191 78.08 5.10932 78.109 5.46019 78.1869C6.19548 78.35 7.22344 78.7002 8.47966 79.2184C10.9853 80.2521 14.3245 81.9234 17.8987 83.9883C21.4729 86.0533 24.5889 88.1114 26.7364 89.7659C27.813 90.5954 28.63 91.3112 29.1389 91.8668ZM4.6188 77.936C4.61895 77.9361 4.6193 77.9379 4.61942 77.9414C4.61872 77.9377 4.61866 77.9359 4.6188 77.936ZM4.5205 78.1064C4.52037 78.1063 4.5219 78.1055 4.52549 78.1042C4.52242 78.1058 4.52063 78.1065 4.5205 78.1064ZM29.6777 92.6355C29.6784 92.6392 29.6785 92.641 29.6784 92.6409C29.6782 92.6408 29.6779 92.639 29.6777 92.6355Z" stroke="white"/>
<path d="M59.9652 75.8266L54.3052 73.8297C59.4167 63.6272 61.5109 57.5242 63.9465 46.4605L69.6074 48.4578C67.4254 59.5722 65.338 65.6657 59.9652 75.8266Z" stroke="white"/>
<path d="M63.3278 46.216C63.3279 46.2158 63.329 46.2172 63.3309 46.2205C63.3287 46.2178 63.3278 46.2161 63.3278 46.216ZM62.8523 46.9545C63.068 46.6672 63.2445 46.4777 63.3783 46.3693C63.4146 46.5377 63.4333 46.7961 63.4213 47.1552C63.396 47.9085 63.2407 48.9839 62.9622 50.3148C62.4067 52.9693 61.3779 56.5607 60.0055 60.4556C58.6331 64.3505 57.1833 67.7934 55.9522 70.2095C55.335 71.4208 54.7818 72.3559 54.3294 72.9585C54.1137 73.2457 53.9372 73.4353 53.8033 73.5436C53.7671 73.3752 53.7484 73.1168 53.7604 72.7578C53.7857 72.0045 53.941 70.929 54.2195 69.5982C54.775 66.9437 55.8038 63.3523 57.1762 59.4573C58.5485 55.5624 59.9983 52.1196 61.2295 49.7034C61.8467 48.4921 62.3999 47.557 62.8523 46.9545ZM53.6679 73.6314C53.6679 73.6312 53.6697 73.6305 53.6731 73.6298C53.6695 73.6311 53.6678 73.6315 53.6679 73.6314ZM53.8539 73.697C53.8538 73.6971 53.8527 73.6958 53.8508 73.6925C53.853 73.6952 53.8539 73.6968 53.8539 73.697ZM63.5086 46.2832C63.5121 46.2818 63.5138 46.2814 63.5138 46.2816C63.5138 46.2817 63.512 46.2824 63.5086 46.2832Z" stroke="white"/>
</svg>
