<svg width="446" height="456" viewBox="0 0 446 456" fill="none" xmlns="http://www.w3.org/2000/svg">
<path d="M64.2816 102.255L64.5573 102.073C75.8627 94.5848 78.9355 79.4587 71.4478 68.1533L45.2524 85.5028L45.3619 85.6683C23.5081 102.144 8.76653 126.339 4.14701 153.314C-0.472517 180.29 5.37833 208.012 20.505 230.82L23.8415 228.61C24.5772 232.512 26.7198 236.008 29.8627 238.435C33.0055 240.861 36.9299 242.05 40.891 241.774C39.9463 243.967 39.5619 246.36 39.7725 248.737C39.9831 251.115 40.7821 253.403 42.0974 255.395C51.5027 269.596 65.8407 278.487 81.3114 281.391C82.8417 288.972 85.8036 296.888 90.197 305.139L14.342 289.646C4.12001 287.689 -3.11563 299.225 3.05073 307.637C15.1543 324.414 33.4172 336.715 55.1897 341.138C74.0367 345.013 93.6407 342.378 110.796 333.665C113.484 336.526 116.255 339.252 119.109 341.845L55.9786 383.657C47.2927 389.41 50.3256 402.674 60.5941 404.402C77.7724 407.131 95.3743 404.544 111.042 396.989C126.709 389.435 139.693 377.272 148.255 362.132C151.766 363.959 155.338 365.639 158.972 367.173C152.161 379.786 148.637 393.912 148.726 408.246C148.815 422.581 152.514 436.662 159.481 449.19C164.545 458.332 178.034 456.538 180.541 446.547L197.124 377.429C202.201 378.086 207.309 378.471 212.448 378.585C214.114 382.591 216.093 386.46 218.367 390.156C230.096 409.363 247.99 422.305 268.061 428.053C278.097 430.927 286.615 420.129 281.047 411.122L257.67 372.773C272.662 368.432 286.905 361.834 299.911 353.206C312.905 344.611 324.516 334.091 334.349 322.007L359.364 356.871C365.484 365.512 378.75 361.883 380.02 351.522C382.559 330.798 377.625 309.273 364.517 290.979C362.371 287.959 360.024 285.086 357.493 282.381C359.271 277.858 360.828 273.27 362.163 268.617L431.741 280.174C442.01 281.902 448.972 269.953 442.53 261.723C429.737 245.403 410.876 233.696 388.734 229.914C381.812 228.729 374.771 228.397 367.768 228.924C367.771 224.836 367.605 220.741 367.268 216.64C380.352 214.97 392.877 210.313 403.873 203.028C422.623 190.609 434.971 172.117 439.893 151.997C442.447 141.777 431.188 133.763 422.503 139.515L359.606 181.173C358.293 177.484 356.816 173.856 355.181 170.298C369.644 157.866 379.535 140.954 383.281 122.253C387.75 100.251 383.459 78.498 372.642 60.6698C367.303 51.71 353.629 53.8243 351.534 64.1376L336.17 139.768C330.806 133.181 324.477 127.442 317.399 122.746C320.065 107.568 316.791 91.946 308.257 79.1148C306.943 77.139 305.161 75.5189 303.069 74.3987C300.977 73.2784 298.641 72.6929 296.269 72.6942C298.1 69.1507 298.561 65.0562 297.562 61.1943C296.563 57.3324 294.176 53.9745 290.855 51.7634L296.246 48.1931C281.306 25.6053 258.385 9.49408 232.073 3.08468C205.76 -3.32472 177.998 0.440717 154.344 13.6272L154.17 13.3653L126.596 31.6279C134.084 42.9333 149.21 46.0061 160.515 38.5184L160.791 38.3358L163.804 42.8855L163.529 43.0681C152.223 50.5558 149.15 65.682 156.638 76.9874L178.877 62.2585C190.257 72.8552 204.872 79.3156 220.369 80.6003C235.866 81.885 251.345 77.9193 264.315 69.3413L265.942 68.2638C266.683 72.1834 268.843 75.6923 272.009 78.1187C275.175 80.5451 279.125 81.7186 283.102 81.4146C282.175 83.5987 281.802 85.9782 282.018 88.3412C282.233 90.7041 283.029 92.9771 284.336 94.9577C287.97 100.445 289.658 106.646 289.584 112.765C270.791 110.653 250.446 116.412 228.817 126.73C227.961 124.546 226.65 122.57 224.971 120.931C223.292 119.293 221.284 118.031 219.079 117.228C216.875 116.425 214.526 116.101 212.186 116.276C209.847 116.451 207.572 117.122 205.512 118.244C203.452 119.366 201.654 120.913 200.238 122.783C198.822 124.653 197.82 126.803 197.298 129.09C196.777 131.377 196.748 133.749 197.213 136.048C197.679 138.348 198.628 140.521 199.998 142.425C190.562 148.143 181.251 154.065 172.073 160.187C162.557 166.463 153.478 172.721 144.836 178.96L144.499 178.45C143.216 176.52 141.543 174.881 139.587 173.639C137.631 172.397 135.436 171.581 133.144 171.242C130.852 170.903 128.514 171.049 126.282 171.671C124.05 172.294 121.974 173.378 120.188 174.854C118.403 176.331 116.947 178.166 115.916 180.24C114.884 182.315 114.301 184.584 114.202 186.898C114.104 189.213 114.493 191.523 115.345 193.678C116.196 195.833 117.491 197.785 119.145 199.407C100.548 215.89 87.0071 233.03 82.0148 251.966C75.4588 249.707 69.8343 245.342 66.0179 239.552C63.2785 235.416 58.7402 233.146 54.1262 233.128C55.983 229.579 56.4602 225.469 55.4658 221.59C54.4714 217.71 52.0758 214.336 48.7409 212.119L52.4359 209.672C65.3948 201.076 75.0857 188.372 79.9496 173.602C84.8135 158.832 84.5675 142.855 79.2514 128.242L101.49 113.513C94.0022 102.207 78.8761 99.1346 67.5707 106.622L67.2949 106.805L64.2816 102.255Z" fill="#1B5083" fill-opacity="0.25"/>
</svg>
