<svg width="19" height="18" viewBox="0 0 19 18" fill="none" xmlns="http://www.w3.org/2000/svg">
<path d="M14.2893 7.75441C15.2901 8.97406 14.7537 11.1991 14.2786 12.5588C14.0168 13.3105 13.3752 13.837 12.5869 13.947C11.161 14.148 8.87408 14.2396 7.87287 13.0194C6.36358 11.18 7.03198 9.06579 8.80398 7.61179C10.576 6.15778 12.78 5.91504 14.2893 7.75441Z" fill="#1B5083"/>
<path d="M8.40626 1.67515C9.62912 0.671737 11.6658 -0.999449 13.0999 2.2705M13.0999 2.2705C12.4604 2.94465 11.6342 3.94735 10.2658 2.83349M13.0999 2.2705L13.4694 2.62047C13.8234 2.95748 14.0811 3.38289 14.2158 3.85276C14.3505 4.32263 14.3573 4.81993 14.2355 5.29332L13.7757 7.11109M3.05925 6.06262C1.83639 7.06603 -0.20029 8.73721 2.72672 10.7822M2.72672 10.7822C3.51275 10.2866 4.65747 9.67212 3.83223 8.11248M2.72672 10.7822L2.99781 11.2129C3.25922 11.6259 3.62612 11.9617 4.06066 12.1855C4.49519 12.4093 4.98159 12.5131 5.46964 12.4861L7.3422 12.3901M10.6139 14.1791C9.8359 14.8175 9.05791 15.4558 9.35258 17.0035M14.8915 10.6691C15.669 10.0312 16.4475 9.39236 17.9078 9.98353M8.44762 13.7198C7.91292 14.1586 6.62415 14.7687 5.43133 14.4054M14.864 8.45487C15.3987 8.01612 16.2488 6.87128 16.1253 5.63048M9.87338 6.7343L9.48261 5.71287M7.73457 8.48928L6.8091 7.9066M14.2893 7.75441C15.2901 8.97406 14.7537 11.1991 14.2786 12.5588C14.0168 13.3105 13.3752 13.837 12.5869 13.947C11.161 14.148 8.87408 14.2396 7.87287 13.0194C6.36358 11.18 7.03198 9.06579 8.80398 7.61179C10.576 6.15778 12.78 5.91504 14.2893 7.75441Z" stroke="#1B5083" stroke-width="0.5" stroke-linecap="round" stroke-linejoin="round"/>
</svg>
