<svg width="24" height="5" viewBox="0 0 24 5" fill="none" xmlns="http://www.w3.org/2000/svg">
<path d="M14.579 2.023C14.579 2.42303 14.4604 2.81407 14.2382 3.14671C14.016 3.47935 13.7002 3.73864 13.3306 3.89182C12.9611 4.04499 12.5544 4.08517 12.1621 4.00727C11.7697 3.92938 11.4092 3.7369 11.1262 3.45418C10.8432 3.17146 10.6504 2.81118 10.5721 2.41889C10.4938 2.0266 10.5336 1.61991 10.6864 1.25022C10.8392 0.880526 11.0982 0.564439 11.4306 0.341908C11.763 0.119378 12.154 0.000395478 12.554 0H12.556C13.674 0 14.579 0.906 14.579 2.023ZM9.379 0.0219994C8.255 0.0219994 7.354 0.906 7.354 2.012C7.354 3.13 8.232 3.996 9.361 3.996C9.68 3.996 9.954 3.933 10.291 3.775V2.902C9.995 3.199 9.732 3.318 9.396 3.318C8.649 3.318 8.119 2.776 8.119 2.006C8.119 1.276 8.666 0.7 9.362 0.7C9.716 0.7 9.984 0.825999 10.292 1.128V0.255C10.0121 0.101905 9.69807 0.0217733 9.379 0.0219994ZM6.027 1.567C5.582 1.402 5.451 1.294 5.451 1.088C5.451 0.848999 5.684 0.665999 6.004 0.665999C6.226 0.665999 6.409 0.757 6.602 0.974L6.99 0.466C6.6824 0.192481 6.28462 0.0422006 5.873 0.0439997C5.2 0.0439997 4.687 0.510999 4.687 1.133C4.687 1.657 4.926 1.925 5.623 2.176C5.914 2.279 6.061 2.347 6.136 2.393C6.2038 2.43399 6.25987 2.49181 6.29876 2.56083C6.33766 2.62986 6.35806 2.70777 6.358 2.787C6.358 3.095 6.113 3.323 5.782 3.323C5.428 3.323 5.143 3.146 4.973 2.816L4.494 3.277C4.836 3.779 5.246 4.001 5.811 4.001C6.582 4.001 7.122 3.488 7.122 2.752C7.12 2.149 6.87 1.876 6.027 1.567ZM23.999 0.323C23.9993 0.399741 23.9691 0.473458 23.9151 0.528003C23.8611 0.582547 23.7877 0.613471 23.711 0.613999C23.6727 0.614131 23.6348 0.606696 23.5995 0.592118C23.5641 0.577541 23.532 0.55611 23.5049 0.529062C23.4779 0.502014 23.4565 0.469882 23.4419 0.434517C23.4273 0.399152 23.4199 0.361252 23.42 0.323V0.32C23.4179 0.280544 23.4239 0.241075 23.4376 0.204014C23.4513 0.166952 23.4724 0.133081 23.4997 0.104478C23.5269 0.0758748 23.5597 0.0531431 23.5961 0.0376787C23.6324 0.0222143 23.6716 0.0143436 23.7111 0.0145483C23.7506 0.014753 23.7897 0.0230295 23.8259 0.0388699C23.862 0.0547102 23.8946 0.0777797 23.9216 0.106664C23.9485 0.135548 23.9693 0.169636 23.9826 0.206838C23.9959 0.244039 24.0015 0.283569 23.999 0.323ZM23.94 0.323999C23.9405 0.293138 23.935 0.262474 23.9237 0.23376C23.9123 0.205045 23.8955 0.178843 23.874 0.156649C23.8526 0.134455 23.8269 0.116704 23.7986 0.10441C23.7703 0.0921166 23.7399 0.0855209 23.709 0.085C23.678 0.0852578 23.6474 0.0916669 23.6189 0.103856C23.5904 0.116045 23.5646 0.133772 23.543 0.156006C23.5215 0.17824 23.5045 0.20454 23.4932 0.233378C23.4818 0.262217 23.4763 0.29302 23.477 0.323999C23.477 0.455999 23.581 0.563 23.709 0.563C23.7399 0.562479 23.7703 0.555883 23.7986 0.54359C23.8269 0.531296 23.8526 0.513545 23.874 0.491351C23.8955 0.469157 23.9123 0.442954 23.9237 0.41424C23.935 0.385525 23.9405 0.354861 23.94 0.323999ZM3.471 3.91H4.213V0.106999H3.471V3.91ZM16.173 2.662L15.159 0.108H14.349L15.963 4.008H16.362L18.005 0.108H17.201L16.173 2.662ZM18.339 3.91H20.443V3.266H19.081V2.239H20.393V1.595H19.081V0.750999H20.443V0.106999H18.339V3.91ZM23.748 0.353L23.858 0.491H23.761L23.667 0.361V0.491H23.587V0.157H23.694C23.775 0.157 23.82 0.193 23.82 0.26C23.821 0.306 23.795 0.34 23.748 0.353ZM23.742 0.261C23.742 0.232333 23.722 0.217999 23.682 0.217999H23.668V0.304999H23.682C23.722 0.304999 23.742 0.290333 23.742 0.261ZM22.514 2.308L23.711 3.91H22.799L21.772 2.382H21.675V3.91H20.934V0.106999H22.034C22.889 0.106999 23.38 0.518 23.38 1.23C23.38 1.813 23.072 2.195 22.514 2.308ZM22.617 1.27C22.617 0.899999 22.366 0.707 21.904 0.707H21.676V1.859H21.893C22.366 1.858 22.617 1.652 22.617 1.27ZM3.13 2.012C3.1286 2.29098 3.06609 2.56627 2.94689 2.81851C2.82768 3.07074 2.65466 3.2938 2.44 3.472C2.075 3.775 1.659 3.911 1.083 3.911H0V0.108H1.089C2.291 0.108 3.13 0.889 3.13 2.012ZM2.366 2.006C2.366 1.642 2.212 1.288 1.955 1.059C1.71 0.837 1.419 0.750999 0.94 0.750999H0.741V3.266H0.94C1.419 3.266 1.722 3.174 1.955 2.964C2.211 2.736 2.366 2.371 2.366 2.006Z" fill="white"/>
</svg>
