<svg width="24" height="18" viewBox="0 0 42 36" fill="none" xmlns="http://www.w3.org/2000/svg">
<path d="M4.2 35.8329C3.045 35.8329 2.0566 35.4057 1.2348 34.5513C0.413 33.6968 0.0014 32.6685 0 31.4662V5.26567C0 4.06482 0.4116 3.03718 1.2348 2.18275C2.058 1.32832 3.0464 0.900381 4.2 0.898926H37.8C38.955 0.898926 39.9441 1.32687 40.7673 2.18275C41.5905 3.03863 42.0014 4.06627 42 5.26567V31.4662C42 32.667 41.5891 33.6954 40.7673 34.5513C39.9455 35.4072 38.9564 35.8344 37.8 35.8329H4.2ZM21 20.5493L4.2 9.63242V31.4662H37.8V9.63242L21 20.5493ZM21 16.1825L37.8 5.26567H4.2L21 16.1825ZM4.2 9.63242V5.26567V31.4662V9.63242Z" fill="white"/>
</svg>
