<svg width="21" height="21" viewBox="0 0 21 21" fill="none" xmlns="http://www.w3.org/2000/svg">
<path d="M20.8381 20.0561C20.9417 20.1598 21 20.3004 21 20.4471C21 20.5937 20.9417 20.7344 20.8381 20.8381C20.7344 20.9417 20.5937 21 20.4471 21C20.3004 21 20.1598 20.9417 20.0561 20.8381L10.5 11.282L0.943898 20.8381C0.840205 20.9417 0.699567 21 0.552923 21C0.406278 21 0.265641 20.9417 0.161948 20.8381C0.0582544 20.7344 2.89071e-09 20.5937 0 20.4471C-2.89071e-09 20.3004 0.0582539 20.1598 0.161947 20.0561L9.71805 10.5L0.161947 0.943898C0.0582539 0.840205 0 0.699567 0 0.552923C0 0.406278 0.0582539 0.26564 0.161947 0.161947C0.26564 0.0582539 0.406278 0 0.552923 0C0.699567 0 0.840205 0.0582539 0.943898 0.161947L10.5 9.71805L20.0561 0.161947C20.1074 0.110603 20.1684 0.0698754 20.2355 0.0420885C20.3026 0.0143015 20.3745 1.43133e-09 20.4471 0C20.5197 -1.43133e-09 20.5916 0.0143015 20.6587 0.0420885C20.7258 0.0698754 20.7867 0.110603 20.8381 0.161947C20.8894 0.213291 20.9301 0.274245 20.9579 0.341328C20.9857 0.408412 21 0.480312 21 0.552923C21 0.625534 20.9857 0.697433 20.9579 0.764517C20.9301 0.831601 20.8894 0.892555 20.8381 0.943898L11.282 10.5L20.8381 20.0561Z" fill="white"/>
</svg>
