<svg width="123" height="96" viewBox="0 0 123 96" fill="none" xmlns="http://www.w3.org/2000/svg">
<path d="M82.2547 69.8201C82.2631 65.4591 80.8758 61.2288 78.3237 57.7273H112.426H112.427C113.685 57.7268 114.93 57.9724 116.092 58.4501C117.254 58.9278 118.309 59.628 119.198 60.5104C120.087 61.3928 120.792 62.4401 121.272 63.5924C121.753 64.7446 122 65.9794 122 67.2262L122 67.2285L121.999 67.259C121.999 67.2884 121.997 67.3359 121.994 67.4002C121.987 67.529 121.974 67.725 121.946 67.9786C121.89 68.4862 121.778 69.2224 121.551 70.1108C121.096 71.8883 120.186 74.2638 118.363 76.6409C114.75 81.3516 107.389 86.2727 92.25 86.2727C86.5621 86.2727 81.9794 85.5797 78.2828 84.4663C79.8462 81.7091 80.7904 79.0815 81.3527 76.9078C81.8166 75.1378 82.1106 73.3279 82.2306 71.5027L82.2315 71.4887L82.232 71.4747L82.2496 71.0078H82.2497L82.25 70.9942L82.2544 70.8109L82.2547 70.7989V70.7869V69.8201ZM53.7188 40.2611C49.3758 44.5752 43.484 47 37.3393 47C31.1945 47 25.3028 44.5752 20.9598 40.2611C16.6171 35.9472 14.1786 30.0978 14.1786 24C14.1786 17.9022 16.6171 12.0528 20.9598 7.7389C25.3028 3.42482 31.1945 1 37.3393 1C43.484 1 49.3758 3.42482 53.7188 7.7389C58.0615 12.0528 60.5 17.9022 60.5 24C60.5 30.0978 58.0615 35.9472 53.7188 40.2611ZM103.97 42.1782C100.863 45.2648 96.6472 47 92.25 47C87.8528 47 83.6371 45.2648 80.5299 42.1782C77.4229 39.0919 75.6786 34.9073 75.6786 30.5455C75.6786 26.1836 77.4229 21.999 80.5299 18.9127C83.6371 15.8261 87.8528 14.0909 92.25 14.0909C96.6472 14.0909 100.863 15.8261 103.97 18.9127C107.077 21.999 108.821 26.1836 108.821 30.5455C108.821 34.9073 107.077 39.0919 103.97 42.1782ZM73.6786 70.4727L73.6785 70.4796C73.6784 70.488 73.6782 70.5023 73.6777 70.5224C73.6768 70.5626 73.6748 70.6259 73.6706 70.7107C73.6624 70.8804 73.6455 71.1362 73.6111 71.4657C73.5422 72.125 73.4033 73.0772 73.1236 74.2245C72.5639 76.5206 71.4437 79.5836 69.204 82.646C64.7604 88.7218 55.7554 95 37.3393 95C18.9232 95 9.91813 88.7218 5.47457 82.646C3.23484 79.5836 2.11472 76.5206 1.55497 74.2245C1.27527 73.0772 1.1364 72.125 1.06751 71.4657C1.03309 71.1362 1.01621 70.8804 1.00793 70.7107C1.00379 70.6259 1.00181 70.5626 1.00086 70.5224C1.00039 70.5023 1.00017 70.488 1.00008 70.4796L1 70.4716L1 70.4714V69.8182C1 66.6136 2.28146 63.539 4.56466 61.271C6.84808 59.0027 9.94647 57.7273 13.1786 57.7273H61.5C64.7321 57.7273 67.8305 59.0027 70.1139 61.271C72.3971 63.539 73.6786 66.6136 73.6786 69.8182V70.471V70.4716V70.4727Z" stroke="white" stroke-width="2"/>
</svg>
