<svg width="24" height="19" viewBox="0 0 24 19" fill="none" xmlns="http://www.w3.org/2000/svg">
<path fill-rule="evenodd" clip-rule="evenodd" d="M24 1.23913C24 1.56777 23.8916 1.88295 23.6987 2.11533C23.5058 2.34771 23.2442 2.47826 22.9714 2.47826H1.02857C0.755777 2.47826 0.494156 2.34771 0.301261 2.11533C0.108367 1.88295 0 1.56777 0 1.23913C0 0.910493 0.108367 0.595315 0.301261 0.362933C0.494156 0.130551 0.755777 0 1.02857 0H22.9714C23.2442 0 23.5058 0.130551 23.6987 0.362933C23.8916 0.595315 24 0.910493 24 1.23913ZM24 9.5C24 9.82864 23.8916 10.1438 23.6987 10.3762C23.5058 10.6086 23.2442 10.7391 22.9714 10.7391H1.02857C0.755777 10.7391 0.494156 10.6086 0.301261 10.3762C0.108367 10.1438 0 9.82864 0 9.5C0 9.17136 0.108367 8.85619 0.301261 8.6238C0.494156 8.39142 0.755777 8.26087 1.02857 8.26087H22.9714C23.2442 8.26087 23.5058 8.39142 23.6987 8.6238C23.8916 8.85619 24 9.17136 24 9.5ZM24 17.7609C24 18.0895 23.8916 18.4047 23.6987 18.6371C23.5058 18.8695 23.2442 19 22.9714 19H1.02857C0.755777 19 0.494156 18.8695 0.301261 18.6371C0.108367 18.4047 0 18.0895 0 17.7609C0 17.4322 0.108367 17.1171 0.301261 16.8847C0.494156 16.6523 0.755777 16.5217 1.02857 16.5217H22.9714C23.2442 16.5217 23.5058 16.6523 23.6987 16.8847C23.8916 17.1171 24 17.4322 24 17.7609Z" fill="white"/>
</svg>
