<svg width="434" height="434" viewBox="0 0 434 434" fill="none" xmlns="http://www.w3.org/2000/svg">
<circle cx="79.0599" cy="409.938" r="24.0617" fill="white"/>
<circle cx="79.0599" cy="189.437" r="24.0617" fill="white"/>
<circle cx="299.053" cy="189.437" r="24.0617" fill="white"/>
<circle cx="299.053" cy="409.938" r="24.0617" fill="white"/>
<circle cx="79.0599" cy="299.688" r="24.0617" fill="white"/>
<circle cx="79.0599" cy="79.1872" r="24.0617" fill="white"/>
<circle cx="299.053" cy="79.1872" r="24.0617" fill="white"/>
<circle cx="299.053" cy="299.688" r="24.0617" fill="white"/>
<circle cx="24.0617" cy="409.938" r="24.0617" fill="white"/>
<circle cx="24.0617" cy="189.437" r="24.0617" fill="white"/>
<circle cx="244.055" cy="189.437" r="24.0617" fill="white"/>
<circle cx="244.055" cy="409.938" r="24.0617" fill="white"/>
<circle cx="24.0617" cy="299.688" r="24.0617" fill="white"/>
<circle cx="24.0617" cy="79.1872" r="24.0617" fill="white"/>
<circle cx="244.055" cy="79.1872" r="24.0617" fill="white"/>
<circle cx="244.055" cy="299.688" r="24.0617" fill="white"/>
<circle cx="79.0599" cy="354.813" r="24.0617" fill="white"/>
<circle cx="79.0599" cy="134.312" r="24.0617" fill="white"/>
<circle cx="299.053" cy="134.312" r="24.0617" fill="white"/>
<circle cx="299.053" cy="354.813" r="24.0617" fill="white"/>
<circle cx="79.0599" cy="244.563" r="24.0617" fill="white"/>
<circle cx="79.0599" cy="24.0617" r="24.0617" fill="white"/>
<circle cx="299.053" cy="24.0617" r="24.0617" fill="white"/>
<circle cx="299.053" cy="244.563" r="24.0617" fill="white"/>
<circle cx="24.0617" cy="354.813" r="24.0617" fill="white"/>
<circle cx="24.0617" cy="134.312" r="24.0617" fill="white"/>
<circle cx="244.055" cy="134.312" r="24.0617" fill="white"/>
<circle cx="244.055" cy="354.813" r="24.0617" fill="white"/>
<circle cx="24.0617" cy="244.563" r="24.0617" fill="white"/>
<circle cx="24.0617" cy="24.0617" r="24.0617" fill="white"/>
<circle cx="244.055" cy="24.0617" r="24.0617" fill="white"/>
<circle cx="244.055" cy="244.563" r="24.0617" fill="white"/>
<circle cx="189.056" cy="299.688" r="24.0617" fill="white"/>
<circle cx="189.056" cy="79.1872" r="24.0617" fill="white"/>
<circle cx="409.049" cy="79.1872" r="24.0617" fill="white"/>
<circle cx="409.049" cy="299.688" r="24.0617" fill="white"/>
<circle cx="189.056" cy="409.938" r="24.0617" fill="white"/>
<circle cx="189.056" cy="189.437" r="24.0617" fill="white"/>
<circle cx="409.049" cy="189.437" r="24.0617" fill="white"/>
<circle cx="134.058" cy="299.688" r="24.0617" fill="white"/>
<circle cx="134.058" cy="79.1872" r="24.0617" fill="white"/>
<circle cx="354.051" cy="79.1872" r="24.0617" fill="white"/>
<circle cx="354.051" cy="299.688" r="24.0617" fill="white"/>
<circle cx="134.058" cy="409.938" r="24.0617" fill="white"/>
<circle cx="134.058" cy="189.437" r="24.0617" fill="white"/>
<circle cx="354.051" cy="189.437" r="24.0617" fill="white"/>
<circle cx="354.051" cy="409.938" r="24.0617" fill="white"/>
<circle cx="189.056" cy="244.563" r="24.0617" fill="white"/>
<circle cx="189.056" cy="24.0617" r="24.0617" fill="white"/>
<circle cx="409.049" cy="24.0617" r="24.0617" fill="white"/>
<circle cx="409.049" cy="244.563" r="24.0617" fill="white"/>
<circle cx="189.056" cy="354.813" r="24.0617" fill="white"/>
<circle cx="189.056" cy="134.312" r="24.0617" fill="white"/>
<circle cx="409.049" cy="134.312" r="24.0617" fill="white"/>
<circle cx="409.049" cy="354.813" r="24.0617" fill="white"/>
<circle cx="134.058" cy="244.563" r="24.0617" fill="white"/>
<circle cx="134.058" cy="24.0617" r="24.0617" fill="white"/>
<circle cx="354.051" cy="24.0617" r="24.0617" fill="white"/>
<circle cx="354.051" cy="244.563" r="24.0617" fill="white"/>
<circle cx="134.058" cy="354.813" r="24.0617" fill="white"/>
<circle cx="134.058" cy="134.312" r="24.0617" fill="white"/>
<circle cx="354.051" cy="134.312" r="24.0617" fill="white"/>
<circle cx="354.051" cy="354.813" r="24.0617" fill="white"/>
</svg>
