<svg width="92" height="90" viewBox="0 0 92 90" fill="none" xmlns="http://www.w3.org/2000/svg">
<path d="M62.3636 59.6667C62.3636 55.0362 49.5427 51.2857 33.7273 51.2857M62.3636 59.6667C62.3636 64.2971 49.5427 68.0476 33.7273 68.0476C17.9118 68.0476 5.09091 64.2971 5.09091 59.6667M62.3636 59.6667V80.3551C62.3636 85.128 49.5427 89 33.7273 89C17.9118 89 5.09091 85.1322 5.09091 80.3551V59.6667M62.3636 59.6667C78.0073 59.6667 91 55.5307 91 51.2857V9.38095M33.7273 51.2857C17.9118 51.2857 5.09091 55.0362 5.09091 59.6667M33.7273 51.2857C15.6536 51.2857 1 47.1497 1 42.9048V21.9524M33.7273 13.5714C15.6536 13.5714 1 17.3219 1 21.9524M1 21.9524C1 26.5829 15.6536 30.3333 33.7273 30.3333C33.7273 34.5783 47.035 38.7143 62.6786 38.7143C78.3223 38.7143 91 34.5783 91 30.3333M91 9.38095C91 4.75048 78.3182 1 62.6786 1C47.0391 1 34.3573 4.75048 34.3573 9.38095M91 9.38095C91 14.0114 78.3182 17.7619 62.6786 17.7619C47.0391 17.7619 34.3573 14.0114 34.3573 9.38095M34.3573 9.38095V51.9813" stroke="white" stroke-width="1.5"/>
</svg>
