<svg width="404" height="344" viewBox="0 0 404 344" fill="none" xmlns="http://www.w3.org/2000/svg">
<path d="M211.808 23.842L256.586 0L301.001 23.842L256.586 44.9145L211.808 23.842Z" fill="white"/>
<path d="M256.586 44.9145L211.808 23.842V125.111L256.586 218.462V44.9145Z" fill="white"/>
<path d="M301.001 23.842L256.586 44.9145V218.462L301.001 209.05L287.532 195.427L301.001 191.629V116.446V23.842Z" fill="white"/>
<path d="M275.26 107.167L262.291 113.138V127.313L275.26 120.56V107.167Z" fill="#1B5083"/>
<path d="M275.26 87.1868L262.291 93.2068V107.497L275.26 100.69V87.1868Z" fill="#1B5083"/>
<path d="M275.26 66.8763L262.291 72.8964V87.1869L275.26 80.3792V66.8763Z" fill="#1B5083"/>
<path d="M275.26 126.322L262.291 132.31V146.302L275.26 139.754V126.322Z" fill="#1B5083"/>
<path d="M275.26 166.447L262.291 172.467V186.758L275.26 179.95V166.447Z" fill="#1B5083"/>
<path d="M275.26 146.137L262.291 152.157V166.448L275.26 159.64V146.137Z" fill="#1B5083"/>
<path d="M142.568 80.3341L204.025 47.6391L264.983 80.3341L204.025 109.231L142.568 80.3341Z" fill="#1B5083"/>
<path d="M204.025 109.231L142.568 80.3341V219.206L204.025 262.716V109.231Z" fill="#1B5083"/>
<path d="M264.983 80.3341L204.025 109.231V262.716L264.983 219.206V80.3341Z" fill="#1B5083"/>
<path d="M147.356 88.1776L166.312 97.0119V117.983L147.356 107.993V88.1776Z" fill="white"/>
<path d="M179.881 103.204L198.837 112.038V132.679L179.881 123.019V103.204Z" fill="white"/>
<path d="M147.356 176.685L166.312 185.52V206.491L147.356 196.501V176.685Z" fill="white"/>
<path d="M179.881 191.712L198.837 200.546V221.517L179.881 211.527V191.712Z" fill="white"/>
<path d="M147.356 147.293L166.312 156.127V177.098L147.356 167.108V147.293Z" fill="white"/>
<path d="M179.881 162.319L198.837 171.154V192.125L179.881 182.135V162.319Z" fill="white"/>
<path d="M147.356 117.405L166.312 126.239V147.21L147.356 137.22V117.405Z" fill="white"/>
<path d="M179.881 132.431L198.837 141.266V162.237L179.881 152.247V132.431Z" fill="white"/>
<path d="M259.695 88.1776L240.739 97.0119V117.983L259.695 107.993V88.1776Z" fill="white"/>
<path d="M227.172 103.204L208.216 112.038V132.679L227.172 123.019V103.204Z" fill="white"/>
<path d="M259.695 176.685L240.739 185.52V206.491L259.695 196.501V176.685Z" fill="white"/>
<path d="M227.172 191.712L208.216 200.546V221.517L227.172 211.527V191.712Z" fill="white"/>
<path d="M259.695 147.293L240.739 156.127V177.098L259.695 167.108V147.293Z" fill="white"/>
<path d="M227.172 162.319L208.216 171.154V192.125L227.172 182.135V162.319Z" fill="white"/>
<path d="M259.695 117.405L240.739 126.239V147.21L259.695 137.22V117.405Z" fill="white"/>
<path d="M227.172 132.431L208.216 141.266V162.237L227.172 152.247V132.431Z" fill="white"/>
<path d="M297.209 36.8232L284.438 42.8432V57.1338L297.209 50.3261V36.8232Z" fill="#1B5083"/>
<path d="M275.26 47.0611L262.291 53.0496V67.0414L275.26 60.4932V47.0611Z" fill="#1B5083"/>
<path d="M297.209 96.9294L284.438 102.949V117.24L297.209 110.432V96.9294Z" fill="#1B5083"/>
<path d="M297.209 76.949L284.438 82.969V97.2596L297.209 90.4519V76.949Z" fill="#1B5083"/>
<path d="M297.209 56.6383L284.438 62.6583V76.9489L297.209 70.1412V56.6383Z" fill="#1B5083"/>
<path d="M297.209 116.084L284.438 122.104V136.395L297.209 129.587V116.084Z" fill="#1B5083"/>
<path d="M297.209 156.21L284.438 162.23V176.52L297.209 169.713V156.21Z" fill="#1B5083"/>
<path d="M297.209 135.899L284.438 141.919V156.21L297.209 149.402V135.899Z" fill="#1B5083"/>
<path d="M119.323 170.204L210.511 262.18L207.019 272.624L119.323 201.413L32.4245 285.793H-0.00012207V272.624H25.4408L119.323 170.204Z" fill="black"/>
<path d="M276.957 183.125L368.145 275.101H394.783V285.545H364.653L276.957 215.573L195.346 285.545L156.437 285.545V275.101H190.059L276.957 183.125Z" fill="black"/>
<path d="M276.856 183.208L393.186 145.724L403.462 157.943L289.127 196.418L276.856 183.208Z" fill="black"/>
<path d="M350.286 206.573H330.931V225.15C335.72 230.682 342.704 237.947 350.286 245.708V206.573Z" fill="black"/>
<path d="M323.548 198.647H357.868V208.225H323.548V198.647Z" fill="black"/>
<path d="M63.0434 188.327H82.3984V206.904C77.3192 211.692 70.7345 217.472 63.0434 224.985V188.327Z" fill="black"/>
<rect x="55.5704" y="188.244" width="34.3203" height="9.57734" fill="black"/>
<path d="M119.023 169.915L142.768 164.549V178.089L131.295 183.125L119.023 169.915Z" fill="black"/>
<rect x="106.652" y="240.92" width="15.1648" height="12.5496" fill="#1B5083"/>
<rect x="125.009" y="240.92" width="15.1648" height="12.5496" fill="#1B5083"/>
<rect x="125.009" y="256.111" width="15.1648" height="12.5496" fill="#1B5083"/>
<rect x="106.652" y="256.111" width="15.1648" height="12.5496" fill="#1B5083"/>
<rect x="263.687" y="248.516" width="15.1648" height="12.5496" fill="#1B5083"/>
<rect x="282.045" y="248.516" width="15.1648" height="12.5496" fill="#1B5083"/>
<rect x="282.045" y="263.707" width="15.1648" height="12.5496" fill="#1B5083"/>
<rect x="263.687" y="263.707" width="15.1648" height="12.5496" fill="#1B5083"/>
<path d="M3.49207 327.977C157.469 293.974 243.018 294.072 394.184 327.977V343.912C241.61 308.757 156.066 296.909 3.49207 333.014V327.977Z" fill="#1B5083"/>
<path d="M218.192 36.8232L230.962 42.8432V57.1338L218.192 50.3261V36.8232Z" fill="#1B5083"/>
<path d="M240.142 47.0611L253.111 53.0496V67.0414L240.142 60.4932V47.0611Z" fill="#1B5083"/>
</svg>
