<svg width="1262" height="599" viewBox="0 0 1262 599" fill="none" xmlns="http://www.w3.org/2000/svg">
<path d="M617.49 29.9913L664.104 0L710.339 29.9913L664.104 56.4987L617.49 29.9913Z" fill="white"/>
<path d="M664.104 56.4987L617.49 29.9913V157.378L664.104 274.807V56.4987Z" fill="white"/>
<path d="M710.339 29.9913L664.104 56.4987V274.807L710.339 262.967L696.318 245.831L710.339 241.054V146.479V29.9913Z" fill="white"/>
<path d="M683.543 134.807L670.042 142.318V160.148L683.543 151.655V134.807Z" fill="#1B5083"/>
<path d="M683.543 109.674L670.042 117.246V135.223L683.543 126.659V109.674Z" fill="#1B5083"/>
<path d="M683.543 84.1248L670.042 91.6974V109.674L683.543 101.11V84.1248Z" fill="#1B5083"/>
<path d="M683.543 158.902L670.042 166.435V184.036L683.543 175.799V158.902Z" fill="#1B5083"/>
<path d="M683.543 209.377L670.042 216.95V234.926L683.543 226.362V209.377Z" fill="#1B5083"/>
<path d="M683.543 183.828L670.042 191.401V209.377L683.543 200.813V183.828Z" fill="#1B5083"/>
<path d="M545.412 101.054L609.388 59.9259L672.845 101.054L609.388 137.404L545.412 101.054Z" fill="#1B5083"/>
<path d="M609.388 137.404L545.412 101.054V275.742L609.388 330.475V137.404Z" fill="#1B5083"/>
<path d="M672.845 101.054L609.388 137.404V330.475L672.845 275.742V101.054Z" fill="#1B5083"/>
<path d="M550.396 110.92L570.129 122.033V148.413L550.396 135.846V110.92Z" fill="white"/>
<path d="M584.254 129.822L603.987 140.935V166.899L584.254 154.748V129.822Z" fill="white"/>
<path d="M550.396 222.255L570.129 233.368V259.748L550.396 247.181V222.255Z" fill="white"/>
<path d="M584.254 241.158L603.987 252.27V278.65L584.254 266.083V241.158Z" fill="white"/>
<path d="M550.396 185.282L570.129 196.395V222.775L550.396 210.208V185.282Z" fill="white"/>
<path d="M584.254 204.184L603.987 215.297V241.677L584.254 229.11V204.184Z" fill="white"/>
<path d="M550.396 147.685L570.129 158.798V185.178L550.396 172.611V147.685Z" fill="white"/>
<path d="M584.254 166.588L603.987 177.7V204.08L584.254 191.513V166.588Z" fill="white"/>
<path d="M667.34 110.92L647.607 122.033V148.413L667.34 135.846V110.92Z" fill="white"/>
<path d="M633.483 129.822L613.75 140.935V166.899L633.483 154.748V129.822Z" fill="white"/>
<path d="M667.34 222.255L647.607 233.368V259.748L667.34 247.181V222.255Z" fill="white"/>
<path d="M633.483 241.158L613.75 252.27V278.65L633.483 266.083V241.158Z" fill="white"/>
<path d="M667.34 185.282L647.607 196.395V222.775L667.34 210.208V185.282Z" fill="white"/>
<path d="M633.483 204.184L613.75 215.297V241.677L633.483 229.11V204.184Z" fill="white"/>
<path d="M667.34 147.685L647.607 158.798V185.178L667.34 172.611V147.685Z" fill="white"/>
<path d="M633.483 166.588L613.75 177.7V204.08L633.483 191.513V166.588Z" fill="white"/>
<path d="M706.392 46.3205L693.098 53.8932V71.8695L706.392 63.306V46.3205Z" fill="#1B5083"/>
<path d="M683.543 59.1989L670.042 66.7319V84.3324L683.543 76.0954V59.1989Z" fill="#1B5083"/>
<path d="M706.392 121.929L693.098 129.502V147.478L706.392 138.914V121.929Z" fill="#1B5083"/>
<path d="M706.392 96.7953L693.098 104.368V122.344L706.392 113.781V96.7953Z" fill="#1B5083"/>
<path d="M706.392 71.2462L693.098 78.8189V96.7952L706.392 88.2317V71.2462Z" fill="#1B5083"/>
<path d="M706.392 146.024L693.098 153.596V171.573L706.392 163.009V146.024Z" fill="#1B5083"/>
<path d="M706.392 196.499L693.098 204.071V222.048L706.392 213.484V196.499Z" fill="#1B5083"/>
<path d="M706.392 170.95L693.098 178.522V196.499L706.392 187.935V170.95Z" fill="#1B5083"/>
<path d="M521.214 214.103L616.14 329.8L612.505 342.938L521.214 253.361L430.754 359.503H397V342.938H423.484L521.214 214.103Z" fill="black"/>
<path d="M685.309 230.356L780.235 346.054H807.965V359.192H776.6L685.309 271.172L600.354 359.192L559.849 359.192V346.054H594.849L685.309 230.356Z" fill="black"/>
<path d="M685.205 230.46L806.303 183.309L817 198.68L697.979 247.077L685.205 230.46Z" fill="black"/>
<path d="M761.645 259.852H741.496V283.22C746.481 290.178 753.751 299.318 761.645 309.08V259.852Z" fill="black"/>
<path d="M733.811 249.881H769.538V261.929H733.811V249.881Z" fill="black"/>
<path d="M462.628 236.899H482.776V260.267C477.489 266.291 470.634 273.561 462.628 283.012V236.899Z" fill="black"/>
<rect x="454.849" y="236.795" width="35.727" height="12.0475" fill="black"/>
<path d="M520.902 213.739L545.62 206.988V224.021L533.677 230.356L520.902 213.739Z" fill="black"/>
<rect x="508.024" y="303.057" width="15.7864" height="15.7864" fill="#1B5083"/>
<rect x="527.133" y="303.057" width="15.7864" height="15.7864" fill="#1B5083"/>
<rect x="527.133" y="322.166" width="15.7864" height="15.7864" fill="#1B5083"/>
<rect x="508.024" y="322.166" width="15.7864" height="15.7864" fill="#1B5083"/>
<rect x="671.496" y="312.612" width="15.7864" height="15.7864" fill="#1B5083"/>
<rect x="690.606" y="312.612" width="15.7864" height="15.7864" fill="#1B5083"/>
<rect x="690.606" y="331.721" width="15.7864" height="15.7864" fill="#1B5083"/>
<rect x="671.496" y="331.721" width="15.7864" height="15.7864" fill="#1B5083"/>
<path d="M400.635 412.568C560.924 369.795 649.979 369.918 807.342 412.568V432.612C648.513 388.391 559.463 373.486 400.635 418.903V412.568Z" fill="#1B5083"/>
<path d="M624.136 46.3205L637.43 53.8932V71.8695L624.136 63.306V46.3205Z" fill="#1B5083"/>
<path d="M646.985 59.1989L660.487 66.7319V84.3324L646.985 76.0954V59.1989Z" fill="#1B5083"/>
<path d="M64.896 454.768C65.728 454.768 66.144 455.248 66.144 456.208V524.464C66.144 524.912 65.984 525.296 65.664 525.616C65.344 525.872 64.896 526 64.32 526H54.624C54.112 526 53.696 525.936 53.376 525.808C53.056 525.68 52.672 525.36 52.224 524.848L21.6 481.84C21.344 481.52 21.088 481.392 20.832 481.456C20.64 481.52 20.544 481.712 20.544 482.032V524.272C20.608 525.424 19.968 526 18.624 526H8.64C7.36 526 6.72 525.456 6.72 524.368V456.592C6.72 455.376 7.296 454.768 8.448 454.768H20.064C20.768 454.768 21.28 454.864 21.6 455.056C21.984 455.248 22.4 455.632 22.848 456.208L51.072 496.432C51.456 496.944 51.776 497.168 52.032 497.104C52.352 497.04 52.512 496.72 52.512 496.144V456.496C52.512 455.344 53.088 454.768 54.24 454.768H64.896ZM91.0838 504.88C91.0838 507.248 91.6278 509.36 92.7158 511.216C93.8678 513.008 95.3718 514.416 97.2278 515.44C99.1478 516.4 101.292 516.88 103.66 516.88C105.964 516.88 108.076 516.4 109.996 515.44C111.98 514.416 113.964 512.752 115.948 510.448C116.204 510.192 116.428 510.064 116.62 510.064C116.812 510 117.164 510.096 117.676 510.352L124.588 513.232C125.484 513.616 125.58 514.256 124.876 515.152C122.828 518.096 120.684 520.432 118.444 522.16C116.204 523.888 113.708 525.136 110.956 525.904C108.268 526.608 105.228 526.96 101.836 526.96C96.8438 526.96 92.3958 525.872 88.4918 523.696C84.5878 521.52 81.4838 518.512 79.1797 514.672C76.9398 510.768 75.8198 506.32 75.8198 501.328C75.8198 495.824 76.9718 491.056 79.2758 487.024C81.6438 482.928 84.7798 479.76 88.6838 477.52C92.5878 475.28 96.8758 474.16 101.548 474.16C106.476 474.16 110.796 475.248 114.508 477.424C118.22 479.536 121.132 482.576 123.244 486.544C125.42 490.512 126.508 495.344 126.508 501.04C126.508 501.744 126.444 502.288 126.316 502.672C126.188 503.056 125.708 503.28 124.876 503.344H92.2358C91.8518 503.344 91.5638 503.472 91.3718 503.728C91.1798 503.984 91.0838 504.368 91.0838 504.88ZM110.38 495.28C111.084 495.28 111.532 495.216 111.724 495.088C111.916 494.896 112.012 494.512 112.012 493.936C112.012 492.336 111.628 490.704 110.86 489.04C110.156 487.376 109.068 486 107.596 484.912C106.188 483.76 104.364 483.184 102.124 483.184C100.012 483.184 98.1238 483.696 96.4598 484.72C94.7958 485.744 93.5158 487.184 92.6198 489.04C91.7238 490.832 91.2758 492.88 91.2758 495.184L110.38 495.28ZM202.476 475.12C203.116 475.12 203.564 475.344 203.82 475.792C204.076 476.24 204.076 476.752 203.82 477.328L188.172 524.464C187.98 525.04 187.724 525.456 187.404 525.712C187.148 525.904 186.732 526 186.156 526H178.284C177.004 526 176.172 525.392 175.788 524.176L167.532 497.776C167.276 497.136 167.02 496.816 166.764 496.816C166.508 496.816 166.316 497.136 166.188 497.776L157.74 524.464C157.612 525.04 157.388 525.456 157.068 525.712C156.812 525.904 156.364 526 155.724 526H147.564C146.348 526 145.548 525.392 145.164 524.176L129.708 477.424C129.516 476.784 129.548 476.24 129.804 475.792C130.124 475.344 130.604 475.12 131.244 475.12H142.476C142.924 475.12 143.34 475.28 143.724 475.6C144.172 475.856 144.46 476.24 144.588 476.752L153.132 503.92C153.26 504.496 153.452 504.784 153.708 504.784C154.028 504.784 154.284 504.464 154.476 503.824L162.732 476.656C162.86 476.208 163.116 475.856 163.5 475.6C163.884 475.28 164.332 475.12 164.844 475.12H172.908C173.356 475.12 173.772 475.28 174.156 475.6C174.604 475.856 174.86 476.24 174.924 476.752L183.276 503.92C183.468 504.496 183.692 504.784 183.948 504.784C184.204 504.784 184.46 504.464 184.716 503.824L192.972 476.656C193.228 476.208 193.516 475.856 193.836 475.6C194.22 475.28 194.668 475.12 195.18 475.12H202.476ZM232.564 456.592C232.564 455.376 233.076 454.768 234.1 454.768H247.828C248.852 454.768 249.364 455.344 249.364 456.496V512.464C249.364 513.296 249.716 513.712 250.42 513.712H281.044C282.196 513.712 282.772 514.192 282.772 515.152V524.272C282.772 524.784 282.612 525.2 282.292 525.52C282.036 525.84 281.588 526 280.948 526H234.676C233.844 526 233.268 525.84 232.948 525.52C232.692 525.2 232.564 524.688 232.564 523.984V456.592ZM306.095 523.696C306.095 524.528 305.903 525.136 305.519 525.52C305.135 525.84 304.463 526 303.503 526H293.423C292.591 526 292.015 525.84 291.695 525.52C291.439 525.2 291.311 524.688 291.311 523.984V476.944C291.311 475.728 291.823 475.12 292.847 475.12H304.655C305.615 475.12 306.095 475.664 306.095 476.752V523.696ZM306.287 466.576C306.287 468.176 305.423 468.976 303.695 468.976H293.327C292.495 468.976 291.919 468.784 291.599 468.4C291.343 468.016 291.215 467.472 291.215 466.768V456.688C291.215 455.408 291.759 454.768 292.847 454.768H304.751C305.775 454.768 306.287 455.376 306.287 456.592V466.576ZM346.286 475.12C346.926 475.12 347.374 475.28 347.63 475.6C347.95 475.92 348.11 476.304 348.11 476.752V483.856C348.11 484.816 347.566 485.296 346.478 485.296H338.51C337.87 485.296 337.55 485.648 337.55 486.352V524.176C337.55 525.392 337.038 526 336.014 526H324.206C323.246 526 322.766 525.456 322.766 524.368V486.16C322.766 485.584 322.51 485.296 321.998 485.296H315.086C313.934 485.296 313.358 484.816 313.358 483.856V476.752C313.358 476.304 313.486 475.92 313.742 475.6C314.062 475.28 314.542 475.12 315.182 475.12H321.614C322.382 475.12 322.766 474.64 322.766 473.68V467.824C322.766 463.728 323.982 460.528 326.414 458.224C328.846 455.92 332.27 454.768 336.686 454.768H346.382C347.79 454.768 348.494 455.44 348.494 456.784L348.59 463.024C348.59 463.472 348.462 463.856 348.206 464.176C348.014 464.496 347.662 464.656 347.15 464.656H341.966C340.558 464.656 339.406 465.2 338.51 466.288C337.614 467.312 337.166 468.656 337.166 470.32V474.064C337.166 474.768 337.55 475.12 338.318 475.12H346.286ZM366.428 504.88C366.428 507.248 366.972 509.36 368.06 511.216C369.212 513.008 370.716 514.416 372.572 515.44C374.492 516.4 376.636 516.88 379.004 516.88C381.308 516.88 383.42 516.4 385.34 515.44C387.324 514.416 389.308 512.752 391.292 510.448C391.548 510.192 391.772 510.064 391.964 510.064C392.156 510 392.508 510.096 393.02 510.352L399.932 513.232C400.828 513.616 400.924 514.256 400.22 515.152C398.172 518.096 396.028 520.432 393.788 522.16C391.548 523.888 389.052 525.136 386.3 525.904C383.612 526.608 380.572 526.96 377.18 526.96C372.188 526.96 367.74 525.872 363.836 523.696C359.932 521.52 356.828 518.512 354.523 514.672C352.284 510.768 351.164 506.32 351.164 501.328C351.164 495.824 352.316 491.056 354.62 487.024C356.988 482.928 360.124 479.76 364.028 477.52C367.932 475.28 372.22 474.16 376.892 474.16C381.82 474.16 386.14 475.248 389.852 477.424C393.564 479.536 396.476 482.576 398.588 486.544C400.764 490.512 401.852 495.344 401.852 501.04C401.852 501.744 401.788 502.288 401.66 502.672C401.532 503.056 401.052 503.28 400.22 503.344H367.58C367.196 503.344 366.908 503.472 366.716 503.728C366.524 503.984 366.428 504.368 366.428 504.88ZM385.724 495.28C386.428 495.28 386.876 495.216 387.068 495.088C387.26 494.896 387.356 494.512 387.356 493.936C387.356 492.336 386.972 490.704 386.204 489.04C385.5 487.376 384.412 486 382.94 484.912C381.532 483.76 379.708 483.184 377.468 483.184C375.356 483.184 373.468 483.696 371.804 484.72C370.14 485.744 368.86 487.184 367.964 489.04C367.068 490.832 366.62 492.88 366.62 495.184L385.724 495.28ZM489.211 476.944C489.211 481.68 488.091 485.68 485.851 488.944C483.611 492.144 480.539 494.576 476.635 496.24C472.795 497.904 468.315 498.736 463.195 498.736H448.795C448.091 498.736 447.739 499.088 447.739 499.792V523.792C447.739 525.264 446.907 526 445.243 526H432.955C432.187 526 431.643 525.84 431.323 525.52C431.067 525.2 430.939 524.72 430.939 524.08V456.592C430.939 455.376 431.451 454.768 432.475 454.768H461.275C466.395 454.768 471.067 455.568 475.291 457.168C479.579 458.768 482.971 461.2 485.467 464.464C487.963 467.728 489.211 471.888 489.211 476.944ZM471.931 476.656C471.931 474.416 471.451 472.592 470.491 471.184C469.531 469.712 468.155 468.624 466.363 467.92C464.571 467.216 462.523 466.864 460.219 466.864H449.563C448.347 466.864 447.739 467.408 447.739 468.496V484.912C447.739 486.128 448.187 486.736 449.083 486.736H460.891C464.283 486.736 466.971 485.84 468.955 484.048C470.939 482.256 471.931 479.792 471.931 476.656ZM523.609 521.104C521.625 522.896 519.385 524.336 516.889 525.424C514.457 526.448 511.641 526.96 508.441 526.96C503.577 526.96 499.737 525.648 496.921 523.024C494.169 520.4 492.793 517.04 492.793 512.944C492.793 509.36 493.913 506.224 496.153 503.536C498.393 500.848 501.593 498.768 505.753 497.296C509.913 495.76 514.873 494.928 520.633 494.8L523.993 494.512C524.377 494.512 524.729 494.416 525.049 494.224C525.369 494.032 525.529 493.68 525.529 493.168V491.152C525.529 488.72 524.825 486.832 523.417 485.488C522.009 484.08 519.993 483.376 517.369 483.376C515.449 483.376 513.593 483.824 511.801 484.72C510.073 485.552 508.601 487.024 507.385 489.136C507.193 489.584 506.969 489.872 506.713 490C506.457 490.128 505.977 490.128 505.273 490L495.673 487.792C495.289 487.664 495.001 487.472 494.809 487.216C494.681 486.896 494.809 486.256 495.193 485.296C496.793 481.52 499.545 478.736 503.449 476.944C507.417 475.088 512.281 474.16 518.041 474.16C523.353 474.16 527.577 474.832 530.713 476.176C533.849 477.52 536.121 479.408 537.529 481.84C538.937 484.208 539.641 486.992 539.641 490.192V523.888C539.641 524.656 539.513 525.2 539.257 525.52C539.001 525.84 538.521 526 537.817 526H527.929C527.225 526 526.713 525.744 526.393 525.232C526.137 524.72 525.977 524.08 525.913 523.312L525.721 521.2C525.593 520.048 524.889 520.016 523.609 521.104ZM525.529 503.344C525.529 502.256 525.049 501.712 524.089 501.712L521.401 501.904C519.737 501.968 518.073 502.224 516.409 502.672C514.745 503.056 513.241 503.632 511.897 504.4C510.553 505.104 509.433 506.032 508.537 507.184C507.705 508.272 507.289 509.552 507.289 511.024C507.289 512.944 507.961 514.48 509.305 515.632C510.649 516.72 512.505 517.264 514.873 517.264C516.473 517.264 517.881 517.008 519.097 516.496C520.377 515.984 521.465 515.376 522.361 514.672C523.321 513.84 524.089 513.008 524.665 512.176C525.241 511.344 525.529 510.48 525.529 509.584V503.344ZM565.127 523.696C565.127 524.528 564.935 525.136 564.551 525.52C564.167 525.84 563.495 526 562.535 526H552.455C551.623 526 551.047 525.84 550.727 525.52C550.471 525.2 550.343 524.688 550.343 523.984V476.944C550.343 475.728 550.855 475.12 551.879 475.12H563.687C564.647 475.12 565.127 475.664 565.127 476.752V523.696ZM565.319 466.576C565.319 468.176 564.455 468.976 562.727 468.976H552.359C551.527 468.976 550.951 468.784 550.631 468.4C550.375 468.016 550.247 467.472 550.247 466.768V456.688C550.247 455.408 550.791 454.768 551.879 454.768H563.783C564.807 454.768 565.319 455.376 565.319 456.592V466.576ZM577.765 526C576.421 526 575.749 525.36 575.749 524.08V476.944C575.749 475.728 576.261 475.12 577.285 475.12H588.901C589.861 475.12 590.341 475.664 590.341 476.752V481.456C590.341 481.84 590.437 482.096 590.629 482.224C590.821 482.352 591.109 482.224 591.493 481.84C593.157 480.304 594.821 478.96 596.485 477.808C598.149 476.656 599.909 475.76 601.765 475.12C603.621 474.48 605.605 474.16 607.717 474.16C612.389 474.16 616.069 475.536 618.757 478.288C621.509 481.04 622.885 484.72 622.885 489.328V523.696C622.885 525.232 622.117 526 620.581 526H609.925C609.285 526 608.805 525.872 608.485 525.616C608.229 525.296 608.101 524.784 608.101 524.08V491.632C608.101 489.456 607.493 487.792 606.277 486.64C605.125 485.424 603.397 484.816 601.093 484.816C599.749 484.816 598.501 485.04 597.349 485.488C596.197 485.936 595.077 486.608 593.989 487.504C592.901 488.336 591.749 489.424 590.533 490.768V523.792C590.533 525.264 589.701 526 588.037 526H577.765ZM652.751 485.296C652.047 485.296 651.695 485.68 651.695 486.448V509.584C651.695 511.76 652.207 513.328 653.231 514.288C654.255 515.184 655.887 515.632 658.127 515.632H663.311C663.759 515.632 664.111 515.792 664.367 516.112C664.623 516.432 664.751 516.816 664.751 517.264L664.655 523.12C664.655 524.336 663.951 525.104 662.543 525.424C661.391 525.552 660.143 525.68 658.799 525.808C657.519 525.872 656.207 525.936 654.863 526C653.583 526 652.335 526 651.119 526C646.767 526 643.311 524.976 640.751 522.928C638.191 520.816 636.911 517.712 636.911 513.616V486.736C636.911 485.776 636.495 485.296 635.663 485.296H629.807C628.591 485.296 627.983 484.752 627.983 483.664V476.56C627.983 475.6 628.559 475.12 629.711 475.12H636.335C636.911 475.12 637.231 474.768 637.295 474.064L638.639 459.472C638.703 458.384 639.183 457.84 640.079 457.84H650.543C651.567 457.84 652.079 458.448 652.079 459.664V474.064C652.079 474.704 652.399 475.024 653.039 475.024H663.119C664.271 475.024 664.847 475.536 664.847 476.56V483.664C664.847 484.752 664.207 485.296 662.927 485.296H652.751ZM687.564 523.696C687.564 524.528 687.372 525.136 686.988 525.52C686.604 525.84 685.932 526 684.972 526H674.892C674.06 526 673.484 525.84 673.164 525.52C672.908 525.2 672.78 524.688 672.78 523.984V476.944C672.78 475.728 673.292 475.12 674.316 475.12H686.124C687.084 475.12 687.564 475.664 687.564 476.752V523.696ZM687.756 466.576C687.756 468.176 686.892 468.976 685.164 468.976H674.796C673.964 468.976 673.388 468.784 673.068 468.4C672.812 468.016 672.684 467.472 672.684 466.768V456.688C672.684 455.408 673.228 454.768 674.316 454.768H686.22C687.244 454.768 687.756 455.376 687.756 456.592V466.576ZM700.202 526C698.858 526 698.186 525.36 698.186 524.08V476.944C698.186 475.728 698.698 475.12 699.722 475.12H711.338C712.298 475.12 712.778 475.664 712.778 476.752V481.456C712.778 481.84 712.874 482.096 713.066 482.224C713.258 482.352 713.546 482.224 713.93 481.84C715.594 480.304 717.258 478.96 718.922 477.808C720.586 476.656 722.346 475.76 724.202 475.12C726.058 474.48 728.042 474.16 730.154 474.16C734.826 474.16 738.506 475.536 741.194 478.288C743.946 481.04 745.322 484.72 745.322 489.328V523.696C745.322 525.232 744.554 526 743.018 526H732.362C731.722 526 731.242 525.872 730.922 525.616C730.666 525.296 730.538 524.784 730.538 524.08V491.632C730.538 489.456 729.93 487.792 728.714 486.64C727.562 485.424 725.834 484.816 723.53 484.816C722.186 484.816 720.938 485.04 719.786 485.488C718.634 485.936 717.514 486.608 716.426 487.504C715.338 488.336 714.186 489.424 712.97 490.768V523.792C712.97 525.264 712.138 526 710.474 526H700.202ZM806.83 472.912C807.406 472.912 807.854 473.072 808.174 473.392C808.558 473.712 808.75 474.256 808.75 475.024V481.552C808.75 482.448 808.558 483.088 808.174 483.472C807.79 483.792 807.246 483.888 806.542 483.76C805.71 483.632 804.878 483.568 804.046 483.568C803.278 483.504 802.606 483.536 802.03 483.664C800.302 483.92 799.662 484.656 800.11 485.872C800.238 486.448 800.398 487.088 800.59 487.792C800.846 488.496 800.974 489.296 800.974 490.192C800.974 493.072 800.11 495.728 798.382 498.16C796.718 500.528 794.158 502.416 790.702 503.824C787.246 505.232 782.958 505.936 777.838 505.936C775.278 505.936 773.23 506.096 771.694 506.416C770.158 506.672 769.038 507.056 768.334 507.568C767.694 508.016 767.374 508.528 767.374 509.104C767.374 509.936 767.854 510.544 768.814 510.928C769.838 511.248 771.374 511.472 773.422 511.6L787.15 512.368C793.678 512.752 798.446 514.192 801.454 516.688C804.462 519.184 805.966 522.384 805.966 526.288C805.966 531.152 803.662 535.12 799.054 538.192C794.446 541.264 787.662 542.8 778.702 542.8C769.422 542.8 762.446 541.776 757.774 539.728C753.102 537.68 750.766 534.576 750.766 530.416C750.766 528.176 751.63 526.352 753.358 524.944C755.086 523.536 757.294 522.352 759.982 521.392C760.814 521.072 760.814 520.72 759.982 520.336C758.382 519.568 757.038 518.64 755.95 517.552C754.926 516.4 754.414 514.96 754.414 513.232C754.414 511.952 754.83 510.8 755.662 509.776C756.494 508.688 757.614 507.696 759.022 506.8C760.43 505.904 761.998 505.136 763.726 504.496C764.046 504.368 764.27 504.208 764.398 504.016C764.526 503.76 764.366 503.536 763.918 503.344C760.91 501.936 758.606 500.144 757.006 497.968C755.406 495.792 754.606 493.232 754.606 490.288C754.606 485.552 756.654 481.712 760.75 478.768C764.91 475.824 770.958 474.352 778.894 474.352C782.414 474.352 785.454 474.736 788.014 475.504C790.574 476.272 792.654 477.328 794.254 478.672C794.702 478.992 795.15 479.152 795.598 479.152C796.11 479.088 796.526 478.864 796.846 478.48C797.678 477.456 798.67 476.528 799.822 475.696C800.974 474.864 802.19 474.192 803.47 473.68C804.75 473.168 805.87 472.912 806.83 472.912ZM777.742 498.64C781.134 498.64 783.598 497.872 785.134 496.336C786.734 494.736 787.534 492.784 787.534 490.48C787.534 487.92 786.734 485.84 785.134 484.24C783.598 482.576 781.134 481.744 777.742 481.744C774.606 481.744 772.174 482.576 770.446 484.24C768.718 485.84 767.854 487.92 767.854 490.48C767.854 492.784 768.718 494.736 770.446 496.336C772.174 497.872 774.606 498.64 777.742 498.64ZM770.638 523.12C769.358 523.056 768.142 523.248 766.99 523.696C765.838 524.144 764.878 524.784 764.11 525.616C763.342 526.448 762.958 527.408 762.958 528.496C762.958 529.968 763.502 531.248 764.59 532.336C765.678 533.424 767.438 534.256 769.87 534.832C772.302 535.408 775.566 535.696 779.662 535.696C784.014 535.696 787.31 535.088 789.55 533.872C791.854 532.72 793.006 531.056 793.006 528.88C793.006 527.536 792.366 526.384 791.086 525.424C789.87 524.464 787.982 523.92 785.422 523.792L770.638 523.12ZM878.241 471.568C876.833 470.032 875.073 468.656 872.961 467.44C870.913 466.224 867.969 465.616 864.129 465.616C860.097 465.616 857.089 466.352 855.105 467.824C853.121 469.232 852.129 471.056 852.129 473.296C852.129 474.064 852.321 474.896 852.705 475.792C853.089 476.688 853.857 477.552 855.009 478.384C856.161 479.216 857.793 479.952 859.905 480.592L875.073 484.912C880.961 486.512 885.249 489.104 887.937 492.688C890.625 496.208 891.969 500.304 891.969 504.976C891.969 509.456 890.817 513.36 888.513 516.688C886.209 519.952 882.913 522.48 878.625 524.272C874.337 526.064 869.249 526.96 863.361 526.96C859.009 526.96 854.913 526.48 851.073 525.52C847.297 524.496 843.937 523.056 840.993 521.2C838.113 519.28 835.841 517.072 834.177 514.576C833.857 513.936 833.729 513.424 833.793 513.04C833.857 512.592 834.177 512.144 834.753 511.696L842.145 506.608C842.913 506.16 843.521 505.968 843.969 506.032C844.481 506.096 844.929 506.352 845.313 506.8C846.849 508.72 848.353 510.32 849.825 511.6C851.361 512.88 853.121 513.808 855.105 514.384C857.089 514.96 859.457 515.248 862.209 515.248C866.369 515.248 869.697 514.608 872.193 513.328C874.689 511.984 875.937 509.936 875.937 507.184C875.937 506.096 875.681 505.104 875.169 504.208C874.657 503.248 873.825 502.416 872.673 501.712C871.585 500.944 870.017 500.24 867.969 499.6L853.473 495.472C849.697 494.384 846.529 492.848 843.969 490.864C841.409 488.88 839.457 486.544 838.113 483.856C836.833 481.168 836.193 478.352 836.193 475.408C836.193 471.312 837.313 467.632 839.553 464.368C841.857 461.104 845.057 458.544 849.153 456.688C853.313 454.768 858.145 453.808 863.649 453.808C867.297 453.808 870.689 454.224 873.825 455.056C877.025 455.888 879.905 457.04 882.465 458.512C885.025 459.984 887.105 461.776 888.705 463.888C888.961 464.208 889.153 464.592 889.281 465.04C889.409 465.424 889.217 465.84 888.705 466.288L880.641 472.24C880.257 472.496 879.905 472.592 879.585 472.528C879.265 472.4 878.817 472.08 878.241 471.568ZM913.834 504.88C913.834 507.248 914.378 509.36 915.466 511.216C916.618 513.008 918.122 514.416 919.978 515.44C921.898 516.4 924.042 516.88 926.41 516.88C928.714 516.88 930.826 516.4 932.746 515.44C934.73 514.416 936.714 512.752 938.698 510.448C938.954 510.192 939.178 510.064 939.37 510.064C939.562 510 939.914 510.096 940.426 510.352L947.338 513.232C948.234 513.616 948.33 514.256 947.626 515.152C945.578 518.096 943.434 520.432 941.194 522.16C938.954 523.888 936.458 525.136 933.706 525.904C931.018 526.608 927.978 526.96 924.586 526.96C919.594 526.96 915.146 525.872 911.242 523.696C907.338 521.52 904.234 518.512 901.93 514.672C899.69 510.768 898.57 506.32 898.57 501.328C898.57 495.824 899.722 491.056 902.026 487.024C904.394 482.928 907.53 479.76 911.434 477.52C915.338 475.28 919.626 474.16 924.298 474.16C929.226 474.16 933.546 475.248 937.258 477.424C940.97 479.536 943.882 482.576 945.994 486.544C948.17 490.512 949.258 495.344 949.258 501.04C949.258 501.744 949.194 502.288 949.066 502.672C948.938 503.056 948.458 503.28 947.626 503.344H914.986C914.602 503.344 914.314 503.472 914.122 503.728C913.93 503.984 913.834 504.368 913.834 504.88ZM933.13 495.28C933.834 495.28 934.282 495.216 934.474 495.088C934.666 494.896 934.762 494.512 934.762 493.936C934.762 492.336 934.378 490.704 933.61 489.04C932.906 487.376 931.818 486 930.346 484.912C928.938 483.76 927.114 483.184 924.874 483.184C922.762 483.184 920.874 483.696 919.21 484.72C917.546 485.744 916.266 487.184 915.37 489.04C914.474 490.832 914.026 492.88 914.026 495.184L933.13 495.28ZM959.14 526C958.436 526 957.924 525.84 957.604 525.52C957.284 525.2 957.124 524.72 957.124 524.08V476.944C957.124 475.728 957.636 475.12 958.66 475.12H969.892C970.916 475.12 971.428 475.664 971.428 476.752V482.416C971.428 482.8 971.556 483.056 971.812 483.184C972.132 483.248 972.452 483.088 972.772 482.704C974.052 480.976 975.492 479.472 977.092 478.192C978.756 476.912 980.452 475.92 982.18 475.216C983.908 474.512 985.54 474.16 987.076 474.16C989.38 474.16 990.532 474.704 990.532 475.792V486.928C990.532 487.952 990.052 488.368 989.092 488.176C987.94 487.856 986.756 487.664 985.54 487.6C984.324 487.472 983.268 487.408 982.372 487.408C981.22 487.408 980.004 487.632 978.724 488.08C977.508 488.528 976.388 489.168 975.364 490C974.34 490.832 973.508 491.728 972.868 492.688C972.228 493.648 971.908 494.672 971.908 495.76V523.792C971.908 525.264 971.076 526 969.412 526H959.14ZM1044.37 475.12C1045.01 475.12 1045.42 475.344 1045.61 475.792C1045.87 476.24 1045.9 476.752 1045.71 477.328L1026.7 523.984C1026.13 525.328 1025.1 526 1023.63 526H1016.81C1015.28 526 1014.25 525.328 1013.74 523.984L994.831 477.424C994.575 476.784 994.575 476.24 994.831 475.792C995.151 475.344 995.631 475.12 996.271 475.12H1008.46C1008.97 475.12 1009.42 475.28 1009.81 475.6C1010.19 475.856 1010.45 476.24 1010.57 476.752L1021.61 505.072C1022.06 506.288 1022.57 506.256 1023.15 504.976L1034 476.656C1034.19 476.208 1034.45 475.856 1034.77 475.6C1035.15 475.28 1035.6 475.12 1036.11 475.12H1044.37ZM1067.81 523.696C1067.81 524.528 1067.62 525.136 1067.24 525.52C1066.85 525.84 1066.18 526 1065.22 526H1055.14C1054.31 526 1053.73 525.84 1053.41 525.52C1053.16 525.2 1053.03 524.688 1053.03 523.984V476.944C1053.03 475.728 1053.54 475.12 1054.57 475.12H1066.37C1067.33 475.12 1067.81 475.664 1067.81 476.752V523.696ZM1068.01 466.576C1068.01 468.176 1067.14 468.976 1065.41 468.976H1055.05C1054.21 468.976 1053.64 468.784 1053.32 468.4C1053.06 468.016 1052.93 467.472 1052.93 466.768V456.688C1052.93 455.408 1053.48 454.768 1054.57 454.768H1066.47C1067.49 454.768 1068.01 455.376 1068.01 456.592V466.576ZM1101.67 474.16C1105.83 474.16 1109.35 474.896 1112.23 476.368C1115.17 477.776 1117.57 479.6 1119.43 481.84C1121.28 484.08 1122.6 486.384 1123.36 488.752C1123.81 490.032 1123.43 490.704 1122.21 490.768L1112.13 491.728C1111.43 491.792 1110.95 491.44 1110.69 490.672C1110.12 489.456 1109.48 488.336 1108.77 487.312C1108.07 486.288 1107.2 485.456 1106.18 484.816C1105.16 484.176 1103.81 483.856 1102.15 483.856C1099.97 483.856 1098.05 484.464 1096.39 485.68C1094.72 486.896 1093.41 488.752 1092.45 491.248C1091.56 493.68 1091.11 496.784 1091.11 500.56C1091.11 504.4 1091.59 507.568 1092.55 510.064C1093.51 512.56 1094.85 514.416 1096.58 515.632C1098.37 516.848 1100.48 517.456 1102.92 517.456C1105.73 517.456 1107.94 516.72 1109.54 515.248C1111.2 513.776 1112.77 511.792 1114.24 509.296C1114.44 508.976 1114.63 508.784 1114.82 508.72C1115.01 508.656 1115.36 508.688 1115.88 508.816L1122.98 510.448C1123.68 510.64 1123.91 511.248 1123.65 512.272C1123.14 513.68 1122.34 515.248 1121.25 516.976C1120.16 518.704 1118.72 520.304 1116.93 521.776C1115.2 523.248 1113.06 524.496 1110.5 525.52C1108 526.48 1105.06 526.96 1101.67 526.96C1096.74 526.96 1092.36 525.872 1088.52 523.696C1084.68 521.456 1081.64 518.384 1079.4 514.48C1077.22 510.512 1076.13 505.936 1076.13 500.752C1076.13 495.504 1077.25 490.896 1079.49 486.928C1081.73 482.896 1084.77 479.76 1088.61 477.52C1092.45 475.28 1096.8 474.16 1101.67 474.16ZM1143.99 504.88C1143.99 507.248 1144.53 509.36 1145.62 511.216C1146.77 513.008 1148.28 514.416 1150.13 515.44C1152.05 516.4 1154.2 516.88 1156.57 516.88C1158.87 516.88 1160.98 516.4 1162.9 515.44C1164.89 514.416 1166.87 512.752 1168.85 510.448C1169.11 510.192 1169.33 510.064 1169.53 510.064C1169.72 510 1170.07 510.096 1170.58 510.352L1177.49 513.232C1178.39 513.616 1178.49 514.256 1177.78 515.152C1175.73 518.096 1173.59 520.432 1171.35 522.16C1169.11 523.888 1166.61 525.136 1163.86 525.904C1161.17 526.608 1158.13 526.96 1154.74 526.96C1149.75 526.96 1145.3 525.872 1141.4 523.696C1137.49 521.52 1134.39 518.512 1132.09 514.672C1129.85 510.768 1128.73 506.32 1128.73 501.328C1128.73 495.824 1129.88 491.056 1132.18 487.024C1134.55 482.928 1137.69 479.76 1141.59 477.52C1145.49 475.28 1149.78 474.16 1154.45 474.16C1159.38 474.16 1163.7 475.248 1167.41 477.424C1171.13 479.536 1174.04 482.576 1176.15 486.544C1178.33 490.512 1179.41 495.344 1179.41 501.04C1179.41 501.744 1179.35 502.288 1179.22 502.672C1179.09 503.056 1178.61 503.28 1177.78 503.344H1145.14C1144.76 503.344 1144.47 503.472 1144.28 503.728C1144.09 503.984 1143.99 504.368 1143.99 504.88ZM1163.29 495.28C1163.99 495.28 1164.44 495.216 1164.63 495.088C1164.82 494.896 1164.92 494.512 1164.92 493.936C1164.92 492.336 1164.53 490.704 1163.77 489.04C1163.06 487.376 1161.97 486 1160.5 484.912C1159.09 483.76 1157.27 483.184 1155.03 483.184C1152.92 483.184 1151.03 483.696 1149.37 484.72C1147.7 485.744 1146.42 487.184 1145.53 489.04C1144.63 490.832 1144.18 492.88 1144.18 495.184L1163.29 495.28ZM1218.67 488.368C1217.58 486.96 1216.11 485.744 1214.26 484.72C1212.4 483.696 1210.13 483.184 1207.44 483.184C1205.07 483.184 1203.06 483.664 1201.39 484.624C1199.79 485.52 1198.99 486.768 1198.99 488.368C1198.99 489.2 1199.31 490 1199.95 490.768C1200.59 491.472 1202.06 492.112 1204.37 492.688L1215.41 495.376C1220.72 496.592 1224.5 498.576 1226.74 501.328C1228.98 504.08 1230.1 507.152 1230.1 510.544C1230.1 514 1229.1 516.944 1227.12 519.376C1225.2 521.808 1222.51 523.696 1219.06 525.04C1215.6 526.32 1211.63 526.96 1207.15 526.96C1201.46 526.96 1196.62 525.968 1192.66 523.984C1188.69 521.936 1185.9 519.408 1184.3 516.4C1184.05 515.952 1183.92 515.536 1183.92 515.152C1183.92 514.704 1184.11 514.384 1184.5 514.192L1191.02 510.832C1191.66 510.512 1192.14 510.384 1192.46 510.448C1192.85 510.448 1193.17 510.608 1193.42 510.928C1194.26 512.08 1195.25 513.168 1196.4 514.192C1197.55 515.216 1198.99 516.048 1200.72 516.688C1202.45 517.264 1204.62 517.52 1207.25 517.456C1209.04 517.456 1210.64 517.264 1212.05 516.88C1213.52 516.432 1214.67 515.824 1215.5 515.056C1216.34 514.224 1216.75 513.264 1216.75 512.176C1216.75 511.088 1216.3 510.16 1215.41 509.392C1214.51 508.56 1212.85 507.856 1210.42 507.28L1200.53 505.168C1195.73 504.08 1192.08 502.384 1189.58 500.08C1187.15 497.712 1185.94 494.64 1185.94 490.864C1185.94 487.6 1186.77 484.72 1188.43 482.224C1190.16 479.728 1192.66 477.776 1195.92 476.368C1199.18 474.896 1203.09 474.16 1207.63 474.16C1212.5 474.16 1216.69 475.056 1220.21 476.848C1223.79 478.64 1226.35 480.784 1227.89 483.28C1228.14 483.664 1228.34 484.08 1228.46 484.528C1228.59 484.912 1228.37 485.264 1227.79 485.584L1220.88 488.944C1220.43 489.136 1220.02 489.2 1219.63 489.136C1219.31 489.008 1218.99 488.752 1218.67 488.368Z" fill="black"/>
<path d="M302.8 559.384C303.024 559.384 303.168 559.448 303.232 559.576C303.328 559.704 303.36 559.864 303.328 560.056L293.392 594.376C293.264 594.792 292.96 595 292.48 595H290.128C289.584 595 289.248 594.808 289.12 594.424L281.008 565.624C280.976 565.464 280.928 565.384 280.864 565.384C280.832 565.384 280.784 565.464 280.72 565.624L272.512 594.376C272.384 594.792 272.08 595 271.6 595H269.2C268.656 595 268.32 594.808 268.192 594.424L258.448 560.104C258.416 559.88 258.448 559.704 258.544 559.576C258.64 559.448 258.8 559.384 259.024 559.384H261.328C261.552 559.384 261.712 559.416 261.808 559.48C261.936 559.544 262.016 559.672 262.048 559.864L270.304 589.432C270.4 589.752 270.496 589.912 270.592 589.912C270.688 589.88 270.784 589.704 270.88 589.384L279.28 559.816C279.344 559.72 279.424 559.624 279.52 559.528C279.616 559.432 279.792 559.384 280.048 559.384H282.16C282.416 559.384 282.592 559.416 282.688 559.48C282.784 559.544 282.848 559.672 282.88 559.864L291.184 589.48C291.28 589.768 291.376 589.912 291.472 589.912C291.568 589.912 291.664 589.768 291.76 589.48L300.16 559.816C300.192 559.656 300.272 559.544 300.4 559.48C300.528 559.416 300.688 559.384 300.88 559.384H302.8ZM308.4 583.72C308.4 585.352 308.8 586.872 309.6 588.28C310.4 589.688 311.456 590.824 312.768 591.688C314.112 592.52 315.616 592.936 317.28 592.936C319.04 592.936 320.56 592.584 321.84 591.88C323.152 591.176 324.256 590.136 325.152 588.76C325.248 588.6 325.344 588.52 325.44 588.52C325.536 588.488 325.648 588.504 325.776 588.568L327.408 589.48C327.664 589.608 327.68 589.8 327.456 590.056C326.656 591.272 325.744 592.28 324.72 593.08C323.728 593.88 322.592 594.488 321.312 594.904C320.032 595.288 318.624 595.48 317.088 595.48C314.72 595.48 312.64 594.936 310.848 593.848C309.056 592.76 307.648 591.24 306.624 589.288C305.6 587.304 305.088 585.048 305.088 582.52C305.088 579.704 305.616 577.304 306.672 575.32C307.728 573.336 309.152 571.8 310.944 570.712C312.736 569.624 314.768 569.08 317.04 569.08C319.344 569.08 321.344 569.592 323.04 570.616C324.736 571.64 326.048 573.112 326.976 575.032C327.904 576.952 328.368 579.272 328.368 581.992C328.368 582.216 328.336 582.44 328.272 582.664C328.24 582.888 328.048 583 327.696 583H308.736C308.64 583 308.56 583.08 308.496 583.24C308.432 583.368 308.4 583.528 308.4 583.72ZM324.336 580.744C324.688 580.744 324.912 580.696 325.008 580.6C325.104 580.504 325.152 580.328 325.152 580.072C325.152 578.536 324.816 577.128 324.144 575.848C323.504 574.536 322.576 573.496 321.36 572.728C320.176 571.928 318.752 571.528 317.088 571.528C315.2 571.528 313.616 571.992 312.336 572.92C311.056 573.816 310.08 574.968 309.408 576.376C308.768 577.784 308.448 579.24 308.448 580.744H324.336ZM358.843 595.48C355.835 595.48 353.227 594.76 351.019 593.32C348.843 591.88 347.163 589.816 345.979 587.128C344.827 584.408 344.251 581.144 344.251 577.336C344.251 573.432 344.859 570.104 346.075 567.352C347.291 564.6 349.003 562.504 351.211 561.064C353.419 559.624 356.011 558.904 358.987 558.904C361.131 558.904 363.115 559.352 364.939 560.248C366.763 561.112 368.283 562.264 369.499 563.704C370.715 565.144 371.435 566.696 371.659 568.36C371.691 568.552 371.691 568.696 371.659 568.792C371.627 568.856 371.531 568.92 371.371 568.984L368.635 569.416C368.507 569.448 368.411 569.432 368.347 569.368C368.283 569.304 368.235 569.192 368.203 569.032C367.947 567.656 367.387 566.424 366.523 565.336C365.691 564.248 364.619 563.384 363.307 562.744C362.027 562.104 360.571 561.784 358.939 561.784C356.603 561.784 354.619 562.376 352.987 563.56C351.387 564.744 350.155 566.472 349.291 568.744C348.459 571.016 348.043 573.784 348.043 577.048C348.043 580.472 348.459 583.336 349.291 585.64C350.123 587.944 351.355 589.672 352.987 590.824C354.651 591.976 356.667 592.552 359.035 592.552C360.699 592.552 362.155 592.264 363.403 591.688C364.683 591.112 365.723 590.344 366.523 589.384C367.355 588.424 367.979 587.384 368.395 586.264C368.843 585.144 369.083 584.072 369.115 583.048V579.832C369.147 579.512 368.987 579.352 368.635 579.352H360.283C360.123 579.352 360.011 579.32 359.947 579.256C359.883 579.192 359.851 579.096 359.851 578.968V577.288C359.851 577.032 359.963 576.904 360.187 576.904H371.899C372.059 576.904 372.187 576.952 372.283 577.048C372.379 577.144 372.427 577.256 372.427 577.384V594.424C372.427 594.648 372.379 594.808 372.283 594.904C372.187 594.968 372.059 595 371.899 595H370.891C370.699 595 370.523 594.984 370.363 594.952C370.235 594.888 370.155 594.728 370.123 594.472L369.835 589.768C369.803 589.608 369.739 589.528 369.643 589.528C369.579 589.528 369.499 589.608 369.403 589.768C368.795 590.824 368.011 591.784 367.051 592.648C366.091 593.512 364.939 594.2 363.595 594.712C362.251 595.224 360.667 595.48 358.843 595.48ZM383.34 594.28C383.34 594.568 383.292 594.76 383.196 594.856C383.1 594.952 382.892 595 382.572 595H380.796C380.54 595 380.364 594.968 380.268 594.904C380.204 594.808 380.172 594.648 380.172 594.424V570.136C380.172 569.752 380.348 569.56 380.7 569.56H382.812C383.164 569.56 383.34 569.752 383.34 570.136V594.28ZM383.532 563.752C383.532 564.328 383.292 564.616 382.812 564.616H380.604C380.348 564.616 380.172 564.552 380.076 564.424C380.012 564.296 379.98 564.104 379.98 563.848V560.104C379.98 559.624 380.188 559.384 380.604 559.384H382.908C383.324 559.384 383.532 559.608 383.532 560.056V563.752ZM411.392 569.56C411.584 569.56 411.712 569.624 411.776 569.752C411.872 569.848 411.888 569.976 411.824 570.136L401.984 594.376C401.824 594.792 401.488 595 400.976 595H399.68C399.104 595 398.736 594.808 398.576 594.424L388.784 570.184C388.752 569.992 388.768 569.848 388.832 569.752C388.928 569.624 389.072 569.56 389.264 569.56H391.472C391.664 569.56 391.808 569.592 391.904 569.656C392.032 569.72 392.112 569.848 392.144 570.04L400.208 590.104C400.432 590.712 400.688 590.696 400.976 590.056L408.992 569.992C409.056 569.832 409.136 569.72 409.232 569.656C409.328 569.592 409.456 569.56 409.616 569.56H411.392ZM417.9 583.72C417.9 585.352 418.3 586.872 419.1 588.28C419.9 589.688 420.956 590.824 422.268 591.688C423.612 592.52 425.116 592.936 426.78 592.936C428.54 592.936 430.06 592.584 431.34 591.88C432.652 591.176 433.756 590.136 434.652 588.76C434.748 588.6 434.844 588.52 434.94 588.52C435.036 588.488 435.148 588.504 435.276 588.568L436.908 589.48C437.164 589.608 437.18 589.8 436.956 590.056C436.156 591.272 435.244 592.28 434.22 593.08C433.228 593.88 432.092 594.488 430.812 594.904C429.532 595.288 428.124 595.48 426.588 595.48C424.22 595.48 422.14 594.936 420.348 593.848C418.556 592.76 417.148 591.24 416.124 589.288C415.1 587.304 414.588 585.048 414.588 582.52C414.588 579.704 415.116 577.304 416.172 575.32C417.228 573.336 418.652 571.8 420.444 570.712C422.236 569.624 424.268 569.08 426.54 569.08C428.844 569.08 430.844 569.592 432.54 570.616C434.236 571.64 435.548 573.112 436.476 575.032C437.404 576.952 437.868 579.272 437.868 581.992C437.868 582.216 437.836 582.44 437.772 582.664C437.74 582.888 437.548 583 437.196 583H418.236C418.14 583 418.06 583.08 417.996 583.24C417.932 583.368 417.9 583.528 417.9 583.72ZM433.836 580.744C434.188 580.744 434.412 580.696 434.508 580.6C434.604 580.504 434.652 580.328 434.652 580.072C434.652 578.536 434.316 577.128 433.644 575.848C433.004 574.536 432.076 573.496 430.86 572.728C429.676 571.928 428.252 571.528 426.588 571.528C424.7 571.528 423.116 571.992 421.836 572.92C420.556 573.816 419.58 574.968 418.908 576.376C418.268 577.784 417.948 579.24 417.948 580.744H433.836ZM481.207 559.384C481.527 559.384 481.687 559.56 481.687 559.912V594.472C481.687 594.632 481.639 594.76 481.543 594.856C481.479 594.952 481.351 595 481.159 595H479.479C479.287 595 479.111 594.984 478.951 594.952C478.791 594.92 478.647 594.824 478.519 594.664L459.175 566.344C459.015 566.12 458.871 566.024 458.743 566.056C458.647 566.088 458.599 566.2 458.599 566.392V594.472C458.599 594.824 458.407 595 458.023 595H455.959C455.575 595 455.383 594.808 455.383 594.424V559.96C455.383 559.576 455.559 559.384 455.911 559.384H457.927C458.151 559.384 458.311 559.416 458.407 559.48C458.535 559.512 458.663 559.624 458.791 559.816L477.799 587.752C477.991 587.976 478.151 588.056 478.279 587.992C478.439 587.928 478.519 587.8 478.519 587.608V559.912C478.519 559.56 478.679 559.384 478.999 559.384H481.207ZM492.384 583.72C492.384 585.352 492.784 586.872 493.584 588.28C494.384 589.688 495.44 590.824 496.752 591.688C498.096 592.52 499.6 592.936 501.264 592.936C503.024 592.936 504.544 592.584 505.824 591.88C507.136 591.176 508.24 590.136 509.136 588.76C509.232 588.6 509.328 588.52 509.424 588.52C509.52 588.488 509.632 588.504 509.76 588.568L511.392 589.48C511.648 589.608 511.664 589.8 511.44 590.056C510.64 591.272 509.728 592.28 508.704 593.08C507.712 593.88 506.576 594.488 505.296 594.904C504.016 595.288 502.608 595.48 501.072 595.48C498.704 595.48 496.624 594.936 494.832 593.848C493.04 592.76 491.632 591.24 490.608 589.288C489.584 587.304 489.072 585.048 489.072 582.52C489.072 579.704 489.6 577.304 490.656 575.32C491.712 573.336 493.136 571.8 494.928 570.712C496.72 569.624 498.752 569.08 501.024 569.08C503.328 569.08 505.328 569.592 507.024 570.616C508.72 571.64 510.032 573.112 510.96 575.032C511.888 576.952 512.352 579.272 512.352 581.992C512.352 582.216 512.32 582.44 512.256 582.664C512.224 582.888 512.032 583 511.68 583H492.72C492.624 583 492.544 583.08 492.48 583.24C492.416 583.368 492.384 583.528 492.384 583.72ZM508.32 580.744C508.672 580.744 508.896 580.696 508.992 580.6C509.088 580.504 509.136 580.328 509.136 580.072C509.136 578.536 508.8 577.128 508.128 575.848C507.488 574.536 506.56 573.496 505.344 572.728C504.16 571.928 502.736 571.528 501.072 571.528C499.184 571.528 497.6 571.992 496.32 572.92C495.04 573.816 494.064 574.968 493.392 576.376C492.752 577.784 492.432 579.24 492.432 580.744H508.32ZM549.81 569.56C550.002 569.56 550.13 569.624 550.194 569.752C550.29 569.848 550.306 569.976 550.242 570.136L542.994 594.424C542.962 594.648 542.866 594.808 542.706 594.904C542.578 594.968 542.386 595 542.13 595H540.258C539.746 595 539.426 594.808 539.298 594.424L533.202 575.272C533.074 574.984 532.962 574.84 532.866 574.84C532.802 574.84 532.738 574.984 532.674 575.272L526.866 594.424C526.834 594.648 526.754 594.808 526.626 594.904C526.498 594.968 526.306 595 526.05 595H524.034C523.522 595 523.202 594.808 523.074 594.424L515.538 570.184C515.474 569.992 515.474 569.848 515.538 569.752C515.634 569.624 515.794 569.56 516.018 569.56H518.13C518.322 569.56 518.466 569.592 518.562 569.656C518.69 569.72 518.77 569.848 518.802 570.04L524.946 590.008C525.042 590.328 525.154 590.488 525.282 590.488C525.41 590.456 525.522 590.28 525.618 589.96L531.666 569.944C531.73 569.816 531.81 569.72 531.906 569.656C532.002 569.592 532.13 569.56 532.29 569.56H534.066C534.226 569.56 534.37 569.592 534.498 569.656C534.626 569.72 534.706 569.848 534.738 570.04L541.074 590.008C541.17 590.328 541.282 590.488 541.41 590.488C541.538 590.456 541.65 590.28 541.746 589.96L547.602 569.992C547.666 569.832 547.762 569.72 547.89 569.656C548.018 569.592 548.162 569.56 548.322 569.56H549.81ZM567.273 559.96C567.273 559.576 567.449 559.384 567.801 559.384H570.393C570.713 559.384 570.873 559.576 570.873 559.96V591.64C570.873 591.96 571.033 592.12 571.353 592.12H588.297C588.617 592.12 588.777 592.264 588.777 592.552V594.568C588.777 594.696 588.745 594.808 588.681 594.904C588.617 594.968 588.489 595 588.297 595H567.849C567.625 595 567.465 594.952 567.369 594.856C567.305 594.76 567.273 594.616 567.273 594.424V559.96ZM598.027 594.28C598.027 594.568 597.979 594.76 597.883 594.856C597.787 594.952 597.579 595 597.259 595H595.483C595.227 595 595.051 594.968 594.955 594.904C594.891 594.808 594.859 594.648 594.859 594.424V570.136C594.859 569.752 595.035 569.56 595.387 569.56H597.499C597.851 569.56 598.027 569.752 598.027 570.136V594.28ZM598.219 563.752C598.219 564.328 597.979 564.616 597.499 564.616H595.291C595.035 564.616 594.859 564.552 594.763 564.424C594.699 564.296 594.667 564.104 594.667 563.848V560.104C594.667 559.624 594.875 559.384 595.291 559.384H597.595C598.011 559.384 598.219 559.608 598.219 560.056V563.752ZM618.351 569.56C618.479 569.56 618.575 569.608 618.639 569.704C618.703 569.768 618.735 569.864 618.735 569.992V571.624C618.735 571.88 618.591 572.008 618.303 572.008H612.495C612.239 572.008 612.111 572.136 612.111 572.392V594.376C612.111 594.792 611.951 595 611.631 595H609.423C609.103 595 608.943 594.808 608.943 594.424V572.392C608.943 572.136 608.847 572.008 608.655 572.008H603.615C603.359 572.008 603.231 571.88 603.231 571.624V569.992C603.231 569.864 603.263 569.768 603.327 569.704C603.391 569.608 603.503 569.56 603.663 569.56H608.559C608.815 569.56 608.943 569.416 608.943 569.128V565.48C608.943 563.464 609.407 561.944 610.335 560.92C611.263 559.896 612.735 559.384 614.751 559.384H618.495C618.815 559.384 618.975 559.544 618.975 559.864V561.352C618.975 561.512 618.927 561.624 618.831 561.688C618.767 561.752 618.655 561.784 618.495 561.784H614.943C613.887 561.784 613.135 562.104 612.687 562.744C612.271 563.384 612.063 564.28 612.063 565.432V569.176C612.063 569.432 612.191 569.56 612.447 569.56H618.351ZM624.712 583.72C624.712 585.352 625.112 586.872 625.912 588.28C626.712 589.688 627.768 590.824 629.08 591.688C630.424 592.52 631.928 592.936 633.592 592.936C635.352 592.936 636.872 592.584 638.152 591.88C639.464 591.176 640.568 590.136 641.464 588.76C641.56 588.6 641.656 588.52 641.752 588.52C641.848 588.488 641.96 588.504 642.088 588.568L643.72 589.48C643.976 589.608 643.992 589.8 643.768 590.056C642.968 591.272 642.056 592.28 641.032 593.08C640.04 593.88 638.904 594.488 637.624 594.904C636.344 595.288 634.936 595.48 633.4 595.48C631.032 595.48 628.952 594.936 627.16 593.848C625.368 592.76 623.96 591.24 622.936 589.288C621.912 587.304 621.4 585.048 621.4 582.52C621.4 579.704 621.928 577.304 622.984 575.32C624.04 573.336 625.464 571.8 627.256 570.712C629.048 569.624 631.08 569.08 633.352 569.08C635.656 569.08 637.656 569.592 639.352 570.616C641.048 571.64 642.36 573.112 643.288 575.032C644.216 576.952 644.68 579.272 644.68 581.992C644.68 582.216 644.648 582.44 644.584 582.664C644.552 582.888 644.36 583 644.008 583H625.048C624.952 583 624.872 583.08 624.808 583.24C624.744 583.368 624.712 583.528 624.712 583.72ZM640.648 580.744C641 580.744 641.224 580.696 641.32 580.6C641.416 580.504 641.464 580.328 641.464 580.072C641.464 578.536 641.128 577.128 640.456 575.848C639.816 574.536 638.888 573.496 637.672 572.728C636.488 571.928 635.064 571.528 633.4 571.528C631.512 571.528 629.928 571.992 628.648 572.92C627.368 573.816 626.392 574.968 625.72 576.376C625.08 577.784 624.76 579.24 624.76 580.744H640.648ZM659.315 559.864C659.315 559.704 659.347 559.592 659.411 559.528C659.475 559.432 659.603 559.384 659.795 559.384H685.139C685.331 559.384 685.459 559.432 685.523 559.528C685.587 559.592 685.619 559.704 685.619 559.864V561.832C685.619 562.12 685.459 562.264 685.139 562.264H675.203C674.851 562.264 674.675 562.408 674.675 562.696V594.424C674.675 594.808 674.515 595 674.195 595H671.603C671.251 595 671.075 594.808 671.075 594.424V562.696C671.075 562.408 670.915 562.264 670.595 562.264H659.795C659.475 562.264 659.315 562.12 659.315 561.832V559.864ZM697.149 595.48C694.781 595.48 692.685 594.936 690.861 593.848C689.069 592.728 687.677 591.192 686.685 589.24C685.693 587.256 685.197 584.984 685.197 582.424C685.197 579.8 685.693 577.496 686.685 575.512C687.709 573.496 689.117 571.928 690.909 570.808C692.733 569.656 694.829 569.08 697.197 569.08C699.597 569.08 701.677 569.64 703.437 570.76C705.229 571.88 706.621 573.448 707.613 575.464C708.605 577.448 709.101 579.736 709.101 582.328C709.101 584.92 708.589 587.208 707.565 589.192C706.573 591.144 705.181 592.68 703.389 593.8C701.629 594.92 699.549 595.48 697.149 595.48ZM697.245 592.936C699.037 592.936 700.573 592.504 701.853 591.64C703.133 590.776 704.109 589.544 704.781 587.944C705.485 586.344 705.837 584.472 705.837 582.328C705.837 580.152 705.485 578.264 704.781 576.664C704.077 575.032 703.069 573.784 701.757 572.92C700.477 572.024 698.957 571.576 697.197 571.576C695.437 571.576 693.901 572.024 692.589 572.92C691.277 573.784 690.253 575.032 689.517 576.664C688.813 578.264 688.461 580.152 688.461 582.328C688.461 584.472 688.813 586.344 689.517 587.944C690.253 589.544 691.277 590.776 692.589 591.64C693.901 592.504 695.453 592.936 697.245 592.936ZM751.027 559.384C751.219 559.384 751.347 559.448 751.411 559.576C751.475 559.672 751.459 559.816 751.363 560.008L739.939 579.256C739.811 579.416 739.731 579.576 739.699 579.736C739.699 579.896 739.699 580.168 739.699 580.552V594.232C739.699 594.744 739.411 595 738.835 595H736.771C736.483 595 736.291 594.952 736.195 594.856C736.099 594.728 736.051 594.568 736.051 594.376V580.888C736.051 580.6 736.019 580.392 735.955 580.264C735.923 580.104 735.859 579.928 735.763 579.736L724.099 560.104C724.003 559.88 723.987 559.704 724.051 559.576C724.147 559.448 724.323 559.384 724.579 559.384H727.075C727.331 559.384 727.507 559.432 727.603 559.528C727.731 559.592 727.859 559.72 727.987 559.912L737.395 575.992C737.587 576.376 737.763 576.568 737.923 576.568C738.115 576.568 738.307 576.408 738.499 576.088L747.811 559.912C747.971 559.688 748.099 559.544 748.195 559.48C748.291 559.416 748.467 559.384 748.723 559.384H751.027ZM763.008 595.48C760.64 595.48 758.544 594.936 756.72 593.848C754.928 592.728 753.536 591.192 752.544 589.24C751.552 587.256 751.056 584.984 751.056 582.424C751.056 579.8 751.552 577.496 752.544 575.512C753.568 573.496 754.976 571.928 756.768 570.808C758.592 569.656 760.688 569.08 763.056 569.08C765.456 569.08 767.536 569.64 769.296 570.76C771.088 571.88 772.48 573.448 773.472 575.464C774.464 577.448 774.96 579.736 774.96 582.328C774.96 584.92 774.448 587.208 773.424 589.192C772.432 591.144 771.04 592.68 769.248 593.8C767.488 594.92 765.408 595.48 763.008 595.48ZM763.104 592.936C764.896 592.936 766.432 592.504 767.712 591.64C768.992 590.776 769.968 589.544 770.64 587.944C771.344 586.344 771.696 584.472 771.696 582.328C771.696 580.152 771.344 578.264 770.64 576.664C769.936 575.032 768.928 573.784 767.616 572.92C766.336 572.024 764.816 571.576 763.056 571.576C761.296 571.576 759.76 572.024 758.448 572.92C757.136 573.784 756.112 575.032 755.376 576.664C754.672 578.264 754.32 580.152 754.32 582.328C754.32 584.472 754.672 586.344 755.376 587.944C756.112 589.544 757.136 590.776 758.448 591.64C759.76 592.504 761.312 592.936 763.104 592.936ZM789.44 592.84C790.944 592.84 792.368 592.44 793.712 591.64C795.088 590.84 796.464 589.736 797.84 588.328V570.136C797.84 569.752 798.048 569.56 798.464 569.56H800.48C800.832 569.56 801.008 569.752 801.008 570.136V594.472C801.008 594.824 800.848 595 800.528 595H798.464C798.144 595 797.984 594.84 797.984 594.52V591.592C797.984 591.432 797.952 591.336 797.888 591.304C797.824 591.272 797.712 591.32 797.552 591.448C795.696 593.016 794.08 594.088 792.704 594.664C791.36 595.208 790.032 595.48 788.72 595.48C787.248 595.48 785.92 595.192 784.736 594.616C783.584 594.008 782.656 593.16 781.952 592.072C781.28 590.952 780.944 589.688 780.944 588.28V570.184C780.944 569.768 781.152 569.56 781.568 569.56H783.584C783.936 569.56 784.112 569.752 784.112 570.136V587.224C784.112 588.888 784.576 590.248 785.504 591.304C786.464 592.328 787.776 592.84 789.44 592.84ZM809.56 595C809.368 595 809.224 594.952 809.128 594.856C809.032 594.76 808.984 594.616 808.984 594.424V570.088C808.984 569.736 809.144 569.56 809.464 569.56H811.528C811.816 569.56 811.96 569.72 811.96 570.04V573.208C811.96 573.368 812.008 573.464 812.104 573.496C812.2 573.528 812.312 573.48 812.44 573.352C813.304 572.328 814.152 571.512 814.984 570.904C815.816 570.264 816.632 569.8 817.432 569.512C818.264 569.224 819.096 569.08 819.928 569.08C821.08 569.08 821.656 569.272 821.656 569.656V571.864C821.656 572.12 821.528 572.232 821.272 572.2C821.048 572.168 820.776 572.136 820.456 572.104C820.168 572.072 819.816 572.056 819.4 572.056C818.664 572.056 817.88 572.232 817.048 572.584C816.216 572.904 815.432 573.352 814.696 573.928C813.96 574.504 813.352 575.144 812.872 575.848C812.392 576.552 812.152 577.272 812.152 578.008V594.424C812.152 594.808 811.944 595 811.528 595H809.56ZM842.242 577.96C841.986 577.96 841.858 578.088 841.858 578.344V594.424C841.858 594.808 841.65 595 841.234 595H838.834C838.61 595 838.45 594.952 838.354 594.856C838.29 594.76 838.258 594.616 838.258 594.424V559.96C838.258 559.576 838.434 559.384 838.786 559.384H841.378C841.698 559.384 841.858 559.576 841.858 559.96V574.504C841.858 574.856 842.034 575.032 842.386 575.032H859.282C859.602 575.032 859.762 574.872 859.762 574.552V559.912C859.762 559.56 859.906 559.384 860.194 559.384H862.834C863.186 559.384 863.362 559.576 863.362 559.96V594.424C863.362 594.616 863.314 594.76 863.218 594.856C863.154 594.952 863.01 595 862.786 595H860.386C859.97 595 859.762 594.808 859.762 594.424V578.392C859.762 578.104 859.618 577.96 859.33 577.96H842.242ZM882.727 595.48C880.359 595.48 878.263 594.936 876.439 593.848C874.647 592.728 873.255 591.192 872.263 589.24C871.271 587.256 870.775 584.984 870.775 582.424C870.775 579.8 871.271 577.496 872.263 575.512C873.287 573.496 874.695 571.928 876.487 570.808C878.311 569.656 880.407 569.08 882.775 569.08C885.175 569.08 887.255 569.64 889.015 570.76C890.807 571.88 892.199 573.448 893.191 575.464C894.183 577.448 894.679 579.736 894.679 582.328C894.679 584.92 894.167 587.208 893.143 589.192C892.151 591.144 890.759 592.68 888.967 593.8C887.207 594.92 885.127 595.48 882.727 595.48ZM882.823 592.936C884.615 592.936 886.151 592.504 887.431 591.64C888.711 590.776 889.687 589.544 890.359 587.944C891.063 586.344 891.415 584.472 891.415 582.328C891.415 580.152 891.063 578.264 890.359 576.664C889.655 575.032 888.647 573.784 887.335 572.92C886.055 572.024 884.535 571.576 882.775 571.576C881.015 571.576 879.479 572.024 878.167 572.92C876.855 573.784 875.831 575.032 875.095 576.664C874.391 578.264 874.039 580.152 874.039 582.328C874.039 584.472 874.391 586.344 875.095 587.944C875.831 589.544 876.855 590.776 878.167 591.64C879.479 592.504 881.031 592.936 882.823 592.936ZM901.623 595C901.239 595 901.047 594.808 901.047 594.424V570.088C901.047 569.736 901.207 569.56 901.527 569.56H903.591C903.911 569.56 904.071 569.72 904.071 570.04V572.872C904.071 573.032 904.103 573.144 904.167 573.208C904.231 573.24 904.343 573.176 904.503 573.016C905.559 572.184 906.535 571.48 907.431 570.904C908.327 570.296 909.223 569.848 910.119 569.56C911.047 569.24 912.055 569.08 913.143 569.08C915.095 569.08 916.631 569.528 917.751 570.424C918.871 571.288 919.607 572.232 919.959 573.256C920.023 573.384 920.119 573.432 920.247 573.4C920.375 573.368 920.503 573.288 920.631 573.16C921.719 572.296 922.711 571.56 923.607 570.952C924.535 570.344 925.463 569.88 926.391 569.56C927.319 569.24 928.327 569.08 929.415 569.08C931.751 569.08 933.543 569.752 934.791 571.096C936.071 572.408 936.711 574.136 936.711 576.28V594.376C936.711 594.792 936.503 595 936.087 595H934.071C933.911 595 933.783 594.952 933.687 594.856C933.591 594.76 933.543 594.616 933.543 594.424V577.096C933.543 575.4 933.143 574.088 932.343 573.16C931.575 572.2 930.327 571.72 928.599 571.72C927.575 571.72 926.599 571.912 925.671 572.296C924.743 572.648 923.911 573.096 923.175 573.64C922.439 574.184 921.783 574.696 921.207 575.176C920.919 575.4 920.711 575.608 920.583 575.8C920.487 575.992 920.439 576.264 920.439 576.616V594.376C920.439 594.792 920.247 595 919.863 595H917.847C917.655 595 917.511 594.952 917.415 594.856C917.319 594.76 917.271 594.616 917.271 594.424V577.096C917.271 575.4 916.887 574.088 916.119 573.16C915.351 572.2 914.087 571.72 912.327 571.72C910.887 571.72 909.575 572.056 908.391 572.728C907.207 573.4 905.815 574.424 904.215 575.8V594.424C904.215 594.808 904.007 595 903.591 595H901.623ZM946.087 583.72C946.087 585.352 946.487 586.872 947.287 588.28C948.087 589.688 949.143 590.824 950.455 591.688C951.799 592.52 953.303 592.936 954.967 592.936C956.727 592.936 958.247 592.584 959.527 591.88C960.839 591.176 961.943 590.136 962.839 588.76C962.935 588.6 963.031 588.52 963.127 588.52C963.223 588.488 963.335 588.504 963.463 588.568L965.095 589.48C965.351 589.608 965.367 589.8 965.143 590.056C964.343 591.272 963.431 592.28 962.407 593.08C961.415 593.88 960.279 594.488 958.999 594.904C957.719 595.288 956.311 595.48 954.775 595.48C952.407 595.48 950.327 594.936 948.535 593.848C946.743 592.76 945.335 591.24 944.311 589.288C943.287 587.304 942.775 585.048 942.775 582.52C942.775 579.704 943.303 577.304 944.359 575.32C945.415 573.336 946.839 571.8 948.631 570.712C950.423 569.624 952.455 569.08 954.727 569.08C957.031 569.08 959.031 569.592 960.727 570.616C962.423 571.64 963.735 573.112 964.663 575.032C965.591 576.952 966.055 579.272 966.055 581.992C966.055 582.216 966.023 582.44 965.959 582.664C965.927 582.888 965.735 583 965.383 583H946.423C946.327 583 946.247 583.08 946.183 583.24C946.119 583.368 946.087 583.528 946.087 583.72ZM962.023 580.744C962.375 580.744 962.599 580.696 962.695 580.6C962.791 580.504 962.839 580.328 962.839 580.072C962.839 578.536 962.503 577.128 961.831 575.848C961.191 574.536 960.263 573.496 959.047 572.728C957.863 571.928 956.439 571.528 954.775 571.528C952.887 571.528 951.303 571.992 950.023 572.92C948.743 573.816 947.767 574.968 947.095 576.376C946.455 577.784 946.135 579.24 946.135 580.744H962.023Z" fill="black"/>
</svg>
