<svg width="919" height="947" viewBox="0 0 919 947" fill="none" xmlns="http://www.w3.org/2000/svg">
<path d="M482.222 65.5923L584.168 0L685.286 65.5923L584.168 123.565L482.222 65.5923Z" fill="white"/>
<path d="M584.168 123.565L482.222 65.5923V344.194L584.168 601.016V123.565Z" fill="white"/>
<path d="M685.286 65.5923L584.168 123.565V601.016L685.286 575.122L654.622 537.644L685.286 527.195V320.357V65.5923Z" fill="white"/>
<path d="M626.684 294.83L597.155 311.257V350.252L626.684 331.676V294.83Z" fill="#1B5083"/>
<path d="M626.684 239.861L597.155 256.423V295.738L626.684 277.009V239.861Z" fill="#1B5083"/>
<path d="M626.684 183.985L597.155 200.546V239.861L626.684 221.133V183.985Z" fill="#1B5083"/>
<path d="M626.684 347.526L597.155 364.001V402.495L626.684 384.48V347.526Z" fill="#1B5083"/>
<path d="M626.684 457.917L597.155 474.479V513.794L626.684 495.065V457.917Z" fill="#1B5083"/>
<path d="M626.684 402.04L597.155 418.602V457.917L626.684 439.188V402.04Z" fill="#1B5083"/>
<path d="M324.583 221.009L464.503 131.061L603.286 221.009L464.503 300.508L324.583 221.009Z" fill="#1B5083"/>
<path d="M464.503 300.508L324.583 221.009V603.06L464.503 722.764V300.508Z" fill="#1B5083"/>
<path d="M603.286 221.009L464.503 300.508V722.764L603.286 603.06V221.009Z" fill="#1B5083"/>
<path d="M335.486 242.587L378.643 266.891V324.585L335.486 297.101V242.587Z" fill="white"/>
<path d="M409.534 283.927L452.691 308.231V365.016L409.534 338.441V283.927Z" fill="white"/>
<path d="M335.486 486.083L378.643 510.387V568.081L335.486 540.597V486.083Z" fill="white"/>
<path d="M409.534 527.423L452.691 551.727V609.421L409.534 581.937V527.423Z" fill="white"/>
<path d="M335.486 405.22L378.643 429.524V487.218L335.486 459.734V405.22Z" fill="white"/>
<path d="M409.534 446.56L452.691 470.864V528.558L409.534 501.074V446.56Z" fill="white"/>
<path d="M335.486 322.995L378.643 347.299V404.993L335.486 377.509V322.995Z" fill="white"/>
<path d="M409.534 364.335L452.691 388.639V446.333L409.534 418.849V364.335Z" fill="white"/>
<path d="M591.247 242.587L548.09 266.891V324.585L591.247 297.101V242.587Z" fill="white"/>
<path d="M517.2 283.927L474.043 308.231V365.016L517.2 338.441V283.927Z" fill="white"/>
<path d="M591.247 486.083L548.09 510.387V568.081L591.247 540.597V486.083Z" fill="white"/>
<path d="M517.2 527.423L474.043 551.727V609.421L517.2 581.937V527.423Z" fill="white"/>
<path d="M591.247 405.22L548.09 429.524V487.218L591.247 459.734V405.22Z" fill="white"/>
<path d="M517.2 446.56L474.043 470.864V528.558L517.2 501.074V446.56Z" fill="white"/>
<path d="M591.247 322.995L548.09 347.299V404.993L591.247 377.509V322.995Z" fill="white"/>
<path d="M517.2 364.335L474.043 388.639V446.333L517.2 418.849V364.335Z" fill="white"/>
<path d="M676.653 101.305L647.579 117.867V157.182L676.653 138.453V101.305Z" fill="#1B5083"/>
<path d="M626.684 129.471L597.155 145.946V184.439L626.684 166.424V129.471Z" fill="#1B5083"/>
<path d="M676.653 266.664L647.579 283.226V322.541L676.653 303.812V266.664Z" fill="#1B5083"/>
<path d="M676.653 211.696L647.579 228.258V267.573L676.653 248.844V211.696Z" fill="#1B5083"/>
<path d="M676.653 155.819L647.579 172.381V211.696L676.653 192.967V155.819Z" fill="#1B5083"/>
<path d="M676.653 319.361L647.579 335.923V375.238L676.653 356.509V319.361Z" fill="#1B5083"/>
<path d="M676.653 429.751L647.579 446.313V485.628L676.653 466.899V429.751Z" fill="#1B5083"/>
<path d="M676.653 373.875L647.579 390.436V429.751L676.653 411.023V373.875Z" fill="#1B5083"/>
<path d="M271.661 468.252L479.268 721.288L471.318 750.021L271.661 554.112L73.821 786.25H0V750.021H57.9211L271.661 468.252Z" fill="black"/>
<path d="M630.545 503.8L838.152 756.835H898.799V785.569H830.202L630.545 593.066L444.743 785.569L356.158 785.569V756.835H432.705L630.545 503.8Z" fill="black"/>
<path d="M630.317 504.027L895.164 400.904L918.559 434.521L658.255 540.369L630.317 504.027Z" fill="black"/>
<path d="M797.494 568.308H753.429V619.415C764.332 634.633 780.231 654.621 797.494 675.973V568.308Z" fill="black"/>
<path d="M736.62 546.502H814.756V572.851H736.62V546.502Z" fill="black"/>
<path d="M143.532 518.109H187.597V569.216C176.033 582.39 161.042 598.29 143.532 618.96V518.109Z" fill="black"/>
<rect x="126.518" y="517.883" width="78.1366" height="26.3484" fill="black"/>
<path d="M270.98 467.457L325.04 452.693V489.944L298.918 503.8L270.98 467.457Z" fill="black"/>
<rect x="242.814" y="662.799" width="34.5255" height="34.5255" fill="#1B5083"/>
<rect x="284.607" y="662.799" width="34.5255" height="34.5255" fill="#1B5083"/>
<rect x="284.607" y="704.593" width="34.5255" height="34.5255" fill="#1B5083"/>
<rect x="242.814" y="704.593" width="34.5255" height="34.5255" fill="#1B5083"/>
<rect x="600.335" y="683.696" width="34.5255" height="34.5255" fill="#1B5083"/>
<rect x="642.13" y="683.696" width="34.5255" height="34.5255" fill="#1B5083"/>
<rect x="642.13" y="725.49" width="34.5255" height="34.5255" fill="#1B5083"/>
<rect x="600.335" y="725.49" width="34.5255" height="34.5255" fill="#1B5083"/>
<path d="M7.9502 902.305C358.508 808.759 553.277 809.028 897.436 902.305V946.143C550.07 849.428 355.314 816.832 7.9502 916.16V902.305Z" fill="#1B5083"/>
<path d="M496.757 101.305L525.831 117.867V157.182L496.757 138.453V101.305Z" fill="#1B5083"/>
<path d="M546.729 129.471L576.258 145.946V184.439L546.729 166.424V129.471Z" fill="#1B5083"/>
</svg>
