<svg width="545" height="542" viewBox="0 0 545 542" fill="none" xmlns="http://www.w3.org/2000/svg">
<path d="M281.49 29.9913L328.104 0L374.339 29.9913L328.104 56.4987L281.49 29.9913Z" fill="white"/>
<path d="M328.104 56.4987L281.49 29.9913V157.378L328.104 274.807V56.4987Z" fill="white"/>
<path d="M374.339 29.9913L328.104 56.4987V274.807L374.339 262.967L360.318 245.831L374.339 241.054V146.479V29.9913Z" fill="white"/>
<path d="M347.543 134.807L334.042 142.318V160.148L347.543 151.655V134.807Z" fill="#1B5083"/>
<path d="M347.543 109.674L334.042 117.246V135.223L347.543 126.659V109.674Z" fill="#1B5083"/>
<path d="M347.543 84.1248L334.042 91.6974V109.674L347.543 101.11V84.1248Z" fill="#1B5083"/>
<path d="M347.543 158.902L334.042 166.435V184.036L347.543 175.799V158.902Z" fill="#1B5083"/>
<path d="M347.543 209.377L334.042 216.95V234.926L347.543 226.362V209.377Z" fill="#1B5083"/>
<path d="M347.543 183.828L334.042 191.401V209.377L347.543 200.813V183.828Z" fill="#1B5083"/>
<path d="M209.412 101.054L273.388 59.9259L336.845 101.054L273.388 137.404L209.412 101.054Z" fill="#1B5083"/>
<path d="M273.388 137.404L209.412 101.054V275.742L273.388 330.475V137.404Z" fill="#1B5083"/>
<path d="M336.845 101.054L273.388 137.404V330.475L336.845 275.742V101.054Z" fill="#1B5083"/>
<path d="M214.396 110.92L234.129 122.033V148.413L214.396 135.846V110.92Z" fill="white"/>
<path d="M248.254 129.822L267.987 140.935V166.899L248.254 154.748V129.822Z" fill="white"/>
<path d="M214.396 222.255L234.129 233.368V259.748L214.396 247.181V222.255Z" fill="white"/>
<path d="M248.254 241.158L267.987 252.27V278.65L248.254 266.083V241.158Z" fill="white"/>
<path d="M214.396 185.282L234.129 196.395V222.775L214.396 210.208V185.282Z" fill="white"/>
<path d="M248.254 204.184L267.987 215.297V241.677L248.254 229.11V204.184Z" fill="white"/>
<path d="M214.396 147.685L234.129 158.798V185.178L214.396 172.611V147.685Z" fill="white"/>
<path d="M248.254 166.588L267.987 177.7V204.08L248.254 191.513V166.588Z" fill="white"/>
<path d="M331.34 110.92L311.607 122.033V148.413L331.34 135.846V110.92Z" fill="white"/>
<path d="M297.483 129.822L277.75 140.935V166.899L297.483 154.748V129.822Z" fill="white"/>
<path d="M331.34 222.255L311.607 233.368V259.748L331.34 247.181V222.255Z" fill="white"/>
<path d="M297.483 241.158L277.75 252.27V278.65L297.483 266.083V241.158Z" fill="white"/>
<path d="M331.34 185.282L311.607 196.395V222.775L331.34 210.208V185.282Z" fill="white"/>
<path d="M297.483 204.184L277.75 215.297V241.677L297.483 229.11V204.184Z" fill="white"/>
<path d="M331.34 147.685L311.607 158.798V185.178L331.34 172.611V147.685Z" fill="white"/>
<path d="M297.483 166.588L277.75 177.7V204.08L297.483 191.513V166.588Z" fill="white"/>
<path d="M370.392 46.3205L357.098 53.8932V71.8695L370.392 63.306V46.3205Z" fill="#1B5083"/>
<path d="M347.543 59.1989L334.042 66.7319V84.3324L347.543 76.0954V59.1989Z" fill="#1B5083"/>
<path d="M370.392 121.929L357.098 129.502V147.478L370.392 138.914V121.929Z" fill="#1B5083"/>
<path d="M370.392 96.7953L357.098 104.368V122.344L370.392 113.781V96.7953Z" fill="#1B5083"/>
<path d="M370.392 71.2462L357.098 78.8189V96.7952L370.392 88.2317V71.2462Z" fill="#1B5083"/>
<path d="M370.392 146.024L357.098 153.596V171.573L370.392 163.009V146.024Z" fill="#1B5083"/>
<path d="M370.392 196.499L357.098 204.071V222.048L370.392 213.484V196.499Z" fill="#1B5083"/>
<path d="M370.392 170.95L357.098 178.522V196.499L370.392 187.935V170.95Z" fill="#1B5083"/>
<path d="M185.214 214.103L280.14 329.8L276.505 342.938L185.214 253.361L94.7537 359.503H61V342.938H87.4837L185.214 214.103Z" fill="black"/>
<path d="M349.309 230.356L444.235 346.054H471.965V359.192H440.6L349.309 271.172L264.354 359.192L223.849 359.192V346.054H258.849L349.309 230.356Z" fill="black"/>
<path d="M349.205 230.46L470.303 183.309L481 198.68L361.979 247.077L349.205 230.46Z" fill="black"/>
<path d="M425.645 259.852H405.496V283.22C410.481 290.178 417.751 299.318 425.645 309.08V259.852Z" fill="black"/>
<path d="M397.811 249.881H433.538V261.929H397.811V249.881Z" fill="black"/>
<path d="M126.628 236.899H146.776V260.267C141.489 266.291 134.634 273.561 126.628 283.012V236.899Z" fill="black"/>
<rect x="118.849" y="236.795" width="35.727" height="12.0475" fill="black"/>
<path d="M184.902 213.739L209.62 206.988V224.021L197.677 230.356L184.902 213.739Z" fill="black"/>
<rect x="172.024" y="303.057" width="15.7864" height="15.7864" fill="#1B5083"/>
<rect x="191.133" y="303.057" width="15.7864" height="15.7864" fill="#1B5083"/>
<rect x="191.133" y="322.166" width="15.7864" height="15.7864" fill="#1B5083"/>
<rect x="172.024" y="322.166" width="15.7864" height="15.7864" fill="#1B5083"/>
<rect x="335.496" y="312.612" width="15.7864" height="15.7864" fill="#1B5083"/>
<rect x="354.606" y="312.612" width="15.7864" height="15.7864" fill="#1B5083"/>
<rect x="354.606" y="331.721" width="15.7864" height="15.7864" fill="#1B5083"/>
<rect x="335.496" y="331.721" width="15.7864" height="15.7864" fill="#1B5083"/>
<path d="M64.6353 412.568C224.924 369.795 313.979 369.918 471.342 412.568V432.612C312.513 388.391 223.463 373.486 64.6353 418.903V412.568Z" fill="#1B5083"/>
<path d="M288.136 46.3205L301.43 53.8932V71.8695L288.136 63.306V46.3205Z" fill="#1B5083"/>
<path d="M310.985 59.1989L324.487 66.7319V84.3324L310.985 76.0954V59.1989Z" fill="#1B5083"/>
<path d="M28.392 448.836C28.756 448.836 28.938 449.046 28.938 449.466V479.328C28.938 479.524 28.868 479.692 28.728 479.832C28.588 479.944 28.392 480 28.14 480H23.898C23.674 480 23.492 479.972 23.352 479.916C23.212 479.86 23.044 479.72 22.848 479.496L9.45 460.68C9.338 460.54 9.226 460.484 9.114 460.512C9.03 460.54 8.988 460.624 8.988 460.764V479.244C9.016 479.748 8.736 480 8.148 480H3.78C3.22 480 2.94 479.762 2.94 479.286V449.634C2.94 449.102 3.192 448.836 3.696 448.836H8.778C9.086 448.836 9.31 448.878 9.45 448.962C9.618 449.046 9.8 449.214 9.996 449.466L22.344 467.064C22.512 467.288 22.652 467.386 22.764 467.358C22.904 467.33 22.974 467.19 22.974 466.938V449.592C22.974 449.088 23.226 448.836 23.73 448.836H28.392ZM39.8491 470.76C39.8491 471.796 40.0871 472.72 40.5631 473.532C41.0671 474.316 41.7251 474.932 42.5371 475.38C43.3771 475.8 44.3151 476.01 45.3511 476.01C46.3591 476.01 47.2831 475.8 48.1231 475.38C48.9911 474.932 49.8591 474.204 50.7271 473.196C50.8391 473.084 50.9371 473.028 51.0211 473.028C51.1051 473 51.2591 473.042 51.4831 473.154L54.5071 474.414C54.8991 474.582 54.9411 474.862 54.6331 475.254C53.7371 476.542 52.7991 477.564 51.8191 478.32C50.8391 479.076 49.7471 479.622 48.5431 479.958C47.3671 480.266 46.0371 480.42 44.5531 480.42C42.3691 480.42 40.4231 479.944 38.7151 478.992C37.0071 478.04 35.6491 476.724 34.6411 475.044C33.6611 473.336 33.1711 471.39 33.1711 469.206C33.1711 466.798 33.6751 464.712 34.6831 462.948C35.7191 461.156 37.0911 459.77 38.7991 458.79C40.5071 457.81 42.3831 457.32 44.4271 457.32C46.5831 457.32 48.4731 457.796 50.0971 458.748C51.7211 459.672 52.9951 461.002 53.9191 462.738C54.8711 464.474 55.3471 466.588 55.3471 469.08C55.3471 469.388 55.3191 469.626 55.2631 469.794C55.2071 469.962 54.9971 470.06 54.6331 470.088H40.3531C40.1851 470.088 40.0591 470.144 39.9751 470.256C39.8911 470.368 39.8491 470.536 39.8491 470.76ZM48.2911 466.56C48.5991 466.56 48.7951 466.532 48.8791 466.476C48.9631 466.392 49.0051 466.224 49.0051 465.972C49.0051 465.272 48.8371 464.558 48.5011 463.83C48.1931 463.102 47.7171 462.5 47.0731 462.024C46.4571 461.52 45.6591 461.268 44.6791 461.268C43.7551 461.268 42.9291 461.492 42.2011 461.94C41.4731 462.388 40.9131 463.018 40.5211 463.83C40.1291 464.614 39.9331 465.51 39.9331 466.518L48.2911 466.56ZM88.5833 457.74C88.8633 457.74 89.0593 457.838 89.1713 458.034C89.2833 458.23 89.2833 458.454 89.1713 458.706L82.3253 479.328C82.2413 479.58 82.1293 479.762 81.9893 479.874C81.8773 479.958 81.6953 480 81.4433 480H77.9993C77.4393 480 77.0753 479.734 76.9073 479.202L73.2953 467.652C73.1833 467.372 73.0713 467.232 72.9593 467.232C72.8473 467.232 72.7633 467.372 72.7073 467.652L69.0113 479.328C68.9553 479.58 68.8573 479.762 68.7173 479.874C68.6053 479.958 68.4093 480 68.1292 480H64.5593C64.0273 480 63.6773 479.734 63.5093 479.202L56.7473 458.748C56.6633 458.468 56.6773 458.23 56.7893 458.034C56.9293 457.838 57.1393 457.74 57.4193 457.74H62.3333C62.5293 457.74 62.7113 457.81 62.8793 457.95C63.0753 458.062 63.2013 458.23 63.2573 458.454L66.9953 470.34C67.0513 470.592 67.1353 470.718 67.2473 470.718C67.3873 470.718 67.4993 470.578 67.5833 470.298L71.1953 458.412C71.2513 458.216 71.3633 458.062 71.5313 457.95C71.6993 457.81 71.8953 457.74 72.1193 457.74H75.6473C75.8433 457.74 76.0253 457.81 76.1933 457.95C76.3893 458.062 76.5013 458.23 76.5293 458.454L80.1833 470.34C80.2673 470.592 80.3653 470.718 80.4772 470.718C80.5893 470.718 80.7013 470.578 80.8133 470.298L84.4253 458.412C84.5373 458.216 84.6633 458.062 84.8033 457.95C84.9713 457.81 85.1673 457.74 85.3913 457.74H88.5833ZM101.747 449.634C101.747 449.102 101.971 448.836 102.419 448.836H108.425C108.873 448.836 109.097 449.088 109.097 449.592V474.078C109.097 474.442 109.251 474.624 109.559 474.624H122.957C123.461 474.624 123.713 474.834 123.713 475.254V479.244C123.713 479.468 123.643 479.65 123.503 479.79C123.391 479.93 123.195 480 122.915 480H102.671C102.307 480 102.055 479.93 101.915 479.79C101.803 479.65 101.747 479.426 101.747 479.118V449.634ZM133.917 478.992C133.917 479.356 133.833 479.622 133.665 479.79C133.497 479.93 133.203 480 132.783 480H128.373C128.009 480 127.757 479.93 127.617 479.79C127.505 479.65 127.449 479.426 127.449 479.118V458.538C127.449 458.006 127.673 457.74 128.121 457.74H133.287C133.707 457.74 133.917 457.978 133.917 458.454V478.992ZM134.001 454.002C134.001 454.702 133.623 455.052 132.867 455.052H128.331C127.967 455.052 127.715 454.968 127.575 454.8C127.463 454.632 127.407 454.394 127.407 454.086V449.676C127.407 449.116 127.645 448.836 128.121 448.836H133.329C133.777 448.836 134.001 449.102 134.001 449.634V454.002ZM151.5 457.74C151.78 457.74 151.976 457.81 152.088 457.95C152.228 458.09 152.298 458.258 152.298 458.454V461.562C152.298 461.982 152.06 462.192 151.584 462.192H148.098C147.818 462.192 147.678 462.346 147.678 462.654V479.202C147.678 479.734 147.454 480 147.006 480H141.84C141.42 480 141.21 479.762 141.21 479.286V462.57C141.21 462.318 141.098 462.192 140.874 462.192H137.85C137.346 462.192 137.094 461.982 137.094 461.562V458.454C137.094 458.258 137.15 458.09 137.262 457.95C137.402 457.81 137.612 457.74 137.892 457.74H140.706C141.042 457.74 141.21 457.53 141.21 457.11V454.548C141.21 452.756 141.742 451.356 142.806 450.348C143.87 449.34 145.368 448.836 147.3 448.836H151.542C152.158 448.836 152.466 449.13 152.466 449.718L152.508 452.448C152.508 452.644 152.452 452.812 152.34 452.952C152.256 453.092 152.102 453.162 151.878 453.162H149.61C148.994 453.162 148.49 453.4 148.098 453.876C147.706 454.324 147.51 454.912 147.51 455.64V457.278C147.51 457.586 147.678 457.74 148.014 457.74H151.5ZM160.312 470.76C160.312 471.796 160.55 472.72 161.026 473.532C161.53 474.316 162.188 474.932 163 475.38C163.84 475.8 164.778 476.01 165.814 476.01C166.822 476.01 167.746 475.8 168.586 475.38C169.454 474.932 170.322 474.204 171.19 473.196C171.302 473.084 171.4 473.028 171.484 473.028C171.568 473 171.722 473.042 171.946 473.154L174.97 474.414C175.362 474.582 175.404 474.862 175.096 475.254C174.2 476.542 173.262 477.564 172.282 478.32C171.302 479.076 170.21 479.622 169.006 479.958C167.83 480.266 166.5 480.42 165.016 480.42C162.832 480.42 160.886 479.944 159.178 478.992C157.47 478.04 156.112 476.724 155.104 475.044C154.124 473.336 153.634 471.39 153.634 469.206C153.634 466.798 154.138 464.712 155.146 462.948C156.182 461.156 157.554 459.77 159.262 458.79C160.97 457.81 162.846 457.32 164.89 457.32C167.046 457.32 168.936 457.796 170.56 458.748C172.184 459.672 173.458 461.002 174.382 462.738C175.334 464.474 175.81 466.588 175.81 469.08C175.81 469.388 175.782 469.626 175.726 469.794C175.67 469.962 175.46 470.06 175.096 470.088H160.816C160.648 470.088 160.522 470.144 160.438 470.256C160.354 470.368 160.312 470.536 160.312 470.76ZM168.754 466.56C169.062 466.56 169.258 466.532 169.342 466.476C169.426 466.392 169.468 466.224 169.468 465.972C169.468 465.272 169.3 464.558 168.964 463.83C168.656 463.102 168.18 462.5 167.536 462.024C166.92 461.52 166.122 461.268 165.142 461.268C164.218 461.268 163.392 461.492 162.664 461.94C161.936 462.388 161.376 463.018 160.984 463.83C160.592 464.614 160.396 465.51 160.396 466.518L168.754 466.56ZM214.03 458.538C214.03 460.61 213.54 462.36 212.56 463.788C211.58 465.188 210.236 466.252 208.528 466.98C206.848 467.708 204.888 468.072 202.648 468.072H196.348C196.04 468.072 195.886 468.226 195.886 468.534V479.034C195.886 479.678 195.522 480 194.794 480H189.418C189.082 480 188.844 479.93 188.704 479.79C188.592 479.65 188.536 479.44 188.536 479.16V449.634C188.536 449.102 188.76 448.836 189.208 448.836H201.808C204.048 448.836 206.092 449.186 207.94 449.886C209.816 450.586 211.3 451.65 212.392 453.078C213.484 454.506 214.03 456.326 214.03 458.538ZM206.47 458.412C206.47 457.432 206.26 456.634 205.84 456.018C205.42 455.374 204.818 454.898 204.034 454.59C203.25 454.282 202.354 454.128 201.346 454.128H196.684C196.152 454.128 195.886 454.366 195.886 454.842V462.024C195.886 462.556 196.082 462.822 196.474 462.822H201.64C203.124 462.822 204.3 462.43 205.168 461.646C206.036 460.862 206.47 459.784 206.47 458.412ZM229.079 477.858C228.211 478.642 227.231 479.272 226.139 479.748C225.075 480.196 223.843 480.42 222.443 480.42C220.315 480.42 218.635 479.846 217.403 478.698C216.199 477.55 215.597 476.08 215.597 474.288C215.597 472.72 216.087 471.348 217.067 470.172C218.047 468.996 219.447 468.086 221.267 467.442C223.087 466.77 225.257 466.406 227.777 466.35L229.247 466.224C229.415 466.224 229.569 466.182 229.709 466.098C229.849 466.014 229.919 465.86 229.919 465.636V464.754C229.919 463.69 229.611 462.864 228.995 462.276C228.379 461.66 227.497 461.352 226.349 461.352C225.509 461.352 224.697 461.548 223.913 461.94C223.157 462.304 222.513 462.948 221.981 463.872C221.897 464.068 221.799 464.194 221.687 464.25C221.575 464.306 221.365 464.306 221.057 464.25L216.857 463.284C216.689 463.228 216.563 463.144 216.479 463.032C216.423 462.892 216.479 462.612 216.647 462.192C217.347 460.54 218.551 459.322 220.259 458.538C221.995 457.726 224.123 457.32 226.643 457.32C228.967 457.32 230.815 457.614 232.187 458.202C233.559 458.79 234.553 459.616 235.169 460.68C235.785 461.716 236.093 462.934 236.093 464.334V479.076C236.093 479.412 236.037 479.65 235.925 479.79C235.813 479.93 235.603 480 235.295 480H230.969C230.661 480 230.437 479.888 230.297 479.664C230.185 479.44 230.115 479.16 230.087 478.824L230.003 477.9C229.947 477.396 229.639 477.382 229.079 477.858ZM229.919 470.088C229.919 469.612 229.709 469.374 229.289 469.374L228.113 469.458C227.385 469.486 226.657 469.598 225.929 469.794C225.201 469.962 224.543 470.214 223.955 470.55C223.367 470.858 222.877 471.264 222.485 471.768C222.121 472.244 221.939 472.804 221.939 473.448C221.939 474.288 222.233 474.96 222.821 475.464C223.409 475.94 224.221 476.178 225.257 476.178C225.957 476.178 226.573 476.066 227.105 475.842C227.665 475.618 228.141 475.352 228.533 475.044C228.953 474.68 229.289 474.316 229.541 473.952C229.793 473.588 229.919 473.21 229.919 472.818V470.088ZM247.243 478.992C247.243 479.356 247.159 479.622 246.991 479.79C246.823 479.93 246.529 480 246.109 480H241.699C241.335 480 241.083 479.93 240.943 479.79C240.831 479.65 240.775 479.426 240.775 479.118V458.538C240.775 458.006 240.999 457.74 241.447 457.74H246.613C247.033 457.74 247.243 457.978 247.243 458.454V478.992ZM247.327 454.002C247.327 454.702 246.949 455.052 246.193 455.052H241.657C241.293 455.052 241.041 454.968 240.901 454.8C240.789 454.632 240.733 454.394 240.733 454.086V449.676C240.733 449.116 240.971 448.836 241.447 448.836H246.655C247.103 448.836 247.327 449.102 247.327 449.634V454.002ZM252.772 480C252.184 480 251.89 479.72 251.89 479.16V458.538C251.89 458.006 252.114 457.74 252.562 457.74H257.644C258.064 457.74 258.274 457.978 258.274 458.454V460.512C258.274 460.68 258.316 460.792 258.4 460.848C258.484 460.904 258.61 460.848 258.778 460.68C259.506 460.008 260.234 459.42 260.962 458.916C261.69 458.412 262.46 458.02 263.272 457.74C264.084 457.46 264.952 457.32 265.876 457.32C267.92 457.32 269.53 457.922 270.706 459.126C271.91 460.33 272.512 461.94 272.512 463.956V478.992C272.512 479.664 272.176 480 271.504 480H266.842C266.562 480 266.352 479.944 266.212 479.832C266.1 479.692 266.044 479.468 266.044 479.16V464.964C266.044 464.012 265.778 463.284 265.246 462.78C264.742 462.248 263.986 461.982 262.978 461.982C262.39 461.982 261.844 462.08 261.34 462.276C260.836 462.472 260.346 462.766 259.87 463.158C259.394 463.522 258.89 463.998 258.358 464.586V479.034C258.358 479.678 257.994 480 257.266 480H252.772ZM285.578 462.192C285.27 462.192 285.116 462.36 285.116 462.696V472.818C285.116 473.77 285.34 474.456 285.788 474.876C286.236 475.268 286.95 475.464 287.93 475.464H290.198C290.394 475.464 290.548 475.534 290.66 475.674C290.772 475.814 290.828 475.982 290.828 476.178L290.786 478.74C290.786 479.272 290.478 479.608 289.862 479.748C289.358 479.804 288.812 479.86 288.224 479.916C287.664 479.944 287.09 479.972 286.502 480C285.942 480 285.396 480 284.864 480C282.96 480 281.448 479.552 280.328 478.656C279.208 477.732 278.648 476.374 278.648 474.582V462.822C278.648 462.402 278.466 462.192 278.102 462.192H275.54C275.008 462.192 274.742 461.954 274.742 461.478V458.37C274.742 457.95 274.994 457.74 275.498 457.74H278.396C278.648 457.74 278.788 457.586 278.816 457.278L279.404 450.894C279.432 450.418 279.642 450.18 280.034 450.18H284.612C285.06 450.18 285.284 450.446 285.284 450.978V457.278C285.284 457.558 285.424 457.698 285.704 457.698H290.114C290.618 457.698 290.87 457.922 290.87 458.37V461.478C290.87 461.954 290.59 462.192 290.03 462.192H285.578ZM300.809 478.992C300.809 479.356 300.725 479.622 300.557 479.79C300.389 479.93 300.095 480 299.675 480H295.265C294.901 480 294.649 479.93 294.509 479.79C294.397 479.65 294.341 479.426 294.341 479.118V458.538C294.341 458.006 294.565 457.74 295.013 457.74H300.179C300.599 457.74 300.809 457.978 300.809 458.454V478.992ZM300.893 454.002C300.893 454.702 300.515 455.052 299.759 455.052H295.223C294.859 455.052 294.607 454.968 294.467 454.8C294.355 454.632 294.299 454.394 294.299 454.086V449.676C294.299 449.116 294.537 448.836 295.013 448.836H300.221C300.669 448.836 300.893 449.102 300.893 449.634V454.002ZM306.338 480C305.75 480 305.456 479.72 305.456 479.16V458.538C305.456 458.006 305.68 457.74 306.128 457.74H311.21C311.63 457.74 311.84 457.978 311.84 458.454V460.512C311.84 460.68 311.882 460.792 311.966 460.848C312.05 460.904 312.176 460.848 312.344 460.68C313.072 460.008 313.8 459.42 314.528 458.916C315.256 458.412 316.026 458.02 316.838 457.74C317.65 457.46 318.518 457.32 319.442 457.32C321.486 457.32 323.096 457.922 324.272 459.126C325.476 460.33 326.078 461.94 326.078 463.956V478.992C326.078 479.664 325.742 480 325.07 480H320.408C320.128 480 319.918 479.944 319.778 479.832C319.666 479.692 319.61 479.468 319.61 479.16V464.964C319.61 464.012 319.344 463.284 318.812 462.78C318.308 462.248 317.552 461.982 316.544 461.982C315.956 461.982 315.41 462.08 314.906 462.276C314.402 462.472 313.912 462.766 313.436 463.158C312.96 463.522 312.456 463.998 311.924 464.586V479.034C311.924 479.678 311.56 480 310.832 480H306.338ZM352.988 456.774C353.24 456.774 353.436 456.844 353.576 456.984C353.744 457.124 353.828 457.362 353.828 457.698V460.554C353.828 460.946 353.744 461.226 353.576 461.394C353.408 461.534 353.17 461.576 352.862 461.52C352.498 461.464 352.134 461.436 351.77 461.436C351.434 461.408 351.14 461.422 350.888 461.478C350.132 461.59 349.852 461.912 350.048 462.444C350.104 462.696 350.174 462.976 350.258 463.284C350.37 463.592 350.426 463.942 350.426 464.334C350.426 465.594 350.048 466.756 349.292 467.82C348.564 468.856 347.444 469.682 345.932 470.298C344.42 470.914 342.544 471.222 340.304 471.222C339.184 471.222 338.288 471.292 337.616 471.432C336.944 471.544 336.454 471.712 336.146 471.936C335.866 472.132 335.726 472.356 335.726 472.608C335.726 472.972 335.936 473.238 336.356 473.406C336.804 473.546 337.476 473.644 338.372 473.7L344.378 474.036C347.234 474.204 349.32 474.834 350.636 475.926C351.952 477.018 352.61 478.418 352.61 480.126C352.61 482.254 351.602 483.99 349.586 485.334C347.57 486.678 344.602 487.35 340.682 487.35C336.622 487.35 333.57 486.902 331.526 486.006C329.482 485.11 328.46 483.752 328.46 481.932C328.46 480.952 328.838 480.154 329.594 479.538C330.35 478.922 331.316 478.404 332.492 477.984C332.856 477.844 332.856 477.69 332.492 477.522C331.792 477.186 331.204 476.78 330.728 476.304C330.28 475.8 330.056 475.17 330.056 474.414C330.056 473.854 330.238 473.35 330.602 472.902C330.966 472.426 331.456 471.992 332.072 471.6C332.688 471.208 333.374 470.872 334.13 470.592C334.27 470.536 334.368 470.466 334.424 470.382C334.48 470.27 334.41 470.172 334.214 470.088C332.898 469.472 331.89 468.688 331.19 467.736C330.49 466.784 330.14 465.664 330.14 464.376C330.14 462.304 331.036 460.624 332.828 459.336C334.648 458.048 337.294 457.404 340.766 457.404C342.306 457.404 343.636 457.572 344.756 457.908C345.876 458.244 346.786 458.706 347.486 459.294C347.682 459.434 347.878 459.504 348.074 459.504C348.298 459.476 348.48 459.378 348.62 459.21C348.984 458.762 349.418 458.356 349.922 457.992C350.426 457.628 350.958 457.334 351.518 457.11C352.078 456.886 352.568 456.774 352.988 456.774ZM340.262 468.03C341.746 468.03 342.824 467.694 343.496 467.022C344.196 466.322 344.546 465.468 344.546 464.46C344.546 463.34 344.196 462.43 343.496 461.73C342.824 461.002 341.746 460.638 340.262 460.638C338.89 460.638 337.826 461.002 337.07 461.73C336.314 462.43 335.936 463.34 335.936 464.46C335.936 465.468 336.314 466.322 337.07 467.022C337.826 467.694 338.89 468.03 340.262 468.03ZM337.154 478.74C336.594 478.712 336.062 478.796 335.558 478.992C335.054 479.188 334.634 479.468 334.298 479.832C333.962 480.196 333.794 480.616 333.794 481.092C333.794 481.736 334.032 482.296 334.508 482.772C334.984 483.248 335.754 483.612 336.818 483.864C337.882 484.116 339.31 484.242 341.102 484.242C343.006 484.242 344.448 483.976 345.428 483.444C346.436 482.94 346.94 482.212 346.94 481.26C346.94 480.672 346.66 480.168 346.1 479.748C345.568 479.328 344.742 479.09 343.622 479.034L337.154 478.74ZM384.23 456.186C383.614 455.514 382.844 454.912 381.92 454.38C381.024 453.848 379.736 453.582 378.056 453.582C376.292 453.582 374.976 453.904 374.108 454.548C373.24 455.164 372.806 455.962 372.806 456.942C372.806 457.278 372.89 457.642 373.058 458.034C373.226 458.426 373.562 458.804 374.066 459.168C374.57 459.532 375.284 459.854 376.208 460.134L382.844 462.024C385.42 462.724 387.296 463.858 388.472 465.426C389.648 466.966 390.236 468.758 390.236 470.802C390.236 472.762 389.732 474.47 388.724 475.926C387.716 477.354 386.274 478.46 384.398 479.244C382.522 480.028 380.296 480.42 377.72 480.42C375.816 480.42 374.024 480.21 372.344 479.79C370.692 479.342 369.222 478.712 367.934 477.9C366.674 477.06 365.68 476.094 364.952 475.002C364.812 474.722 364.756 474.498 364.784 474.33C364.812 474.134 364.952 473.938 365.204 473.742L368.438 471.516C368.774 471.32 369.04 471.236 369.236 471.264C369.46 471.292 369.656 471.404 369.824 471.6C370.496 472.44 371.154 473.14 371.798 473.7C372.47 474.26 373.24 474.666 374.108 474.918C374.976 475.17 376.012 475.296 377.216 475.296C379.036 475.296 380.492 475.016 381.584 474.456C382.676 473.868 383.222 472.972 383.222 471.768C383.222 471.292 383.11 470.858 382.886 470.466C382.662 470.046 382.298 469.682 381.794 469.374C381.318 469.038 380.632 468.73 379.736 468.45L373.394 466.644C371.742 466.168 370.356 465.496 369.236 464.628C368.116 463.76 367.262 462.738 366.674 461.562C366.114 460.386 365.834 459.154 365.834 457.866C365.834 456.074 366.324 454.464 367.304 453.036C368.312 451.608 369.712 450.488 371.504 449.676C373.324 448.836 375.438 448.416 377.846 448.416C379.442 448.416 380.926 448.598 382.298 448.962C383.698 449.326 384.958 449.83 386.078 450.474C387.198 451.118 388.108 451.902 388.808 452.826C388.92 452.966 389.004 453.134 389.06 453.33C389.116 453.498 389.032 453.68 388.808 453.876L385.28 456.48C385.112 456.592 384.958 456.634 384.818 456.606C384.678 456.55 384.482 456.41 384.23 456.186ZM399.802 470.76C399.802 471.796 400.04 472.72 400.516 473.532C401.02 474.316 401.678 474.932 402.49 475.38C403.33 475.8 404.268 476.01 405.304 476.01C406.312 476.01 407.236 475.8 408.076 475.38C408.944 474.932 409.812 474.204 410.68 473.196C410.792 473.084 410.89 473.028 410.974 473.028C411.058 473 411.212 473.042 411.436 473.154L414.46 474.414C414.852 474.582 414.894 474.862 414.586 475.254C413.69 476.542 412.752 477.564 411.772 478.32C410.792 479.076 409.7 479.622 408.496 479.958C407.32 480.266 405.99 480.42 404.506 480.42C402.322 480.42 400.376 479.944 398.668 478.992C396.96 478.04 395.602 476.724 394.594 475.044C393.614 473.336 393.124 471.39 393.124 469.206C393.124 466.798 393.628 464.712 394.636 462.948C395.672 461.156 397.044 459.77 398.752 458.79C400.46 457.81 402.336 457.32 404.38 457.32C406.536 457.32 408.426 457.796 410.05 458.748C411.674 459.672 412.948 461.002 413.872 462.738C414.824 464.474 415.3 466.588 415.3 469.08C415.3 469.388 415.272 469.626 415.216 469.794C415.16 469.962 414.95 470.06 414.586 470.088H400.306C400.138 470.088 400.012 470.144 399.928 470.256C399.844 470.368 399.802 470.536 399.802 470.76ZM408.244 466.56C408.552 466.56 408.748 466.532 408.832 466.476C408.916 466.392 408.958 466.224 408.958 465.972C408.958 465.272 408.79 464.558 408.454 463.83C408.146 463.102 407.67 462.5 407.026 462.024C406.41 461.52 405.612 461.268 404.632 461.268C403.708 461.268 402.882 461.492 402.154 461.94C401.426 462.388 400.866 463.018 400.474 463.83C400.082 464.614 399.886 465.51 399.886 466.518L408.244 466.56ZM419.624 480C419.316 480 419.092 479.93 418.952 479.79C418.812 479.65 418.742 479.44 418.742 479.16V458.538C418.742 458.006 418.966 457.74 419.414 457.74H424.328C424.776 457.74 425 457.978 425 458.454V460.932C425 461.1 425.056 461.212 425.168 461.268C425.308 461.296 425.448 461.226 425.588 461.058C426.148 460.302 426.778 459.644 427.478 459.084C428.206 458.524 428.948 458.09 429.704 457.782C430.46 457.474 431.174 457.32 431.846 457.32C432.854 457.32 433.358 457.558 433.358 458.034V462.906C433.358 463.354 433.148 463.536 432.728 463.452C432.224 463.312 431.706 463.228 431.174 463.2C430.642 463.144 430.18 463.116 429.788 463.116C429.284 463.116 428.752 463.214 428.192 463.41C427.66 463.606 427.17 463.886 426.722 464.25C426.274 464.614 425.91 465.006 425.63 465.426C425.35 465.846 425.21 466.294 425.21 466.77V479.034C425.21 479.678 424.846 480 424.118 480H419.624ZM456.91 457.74C457.19 457.74 457.372 457.838 457.456 458.034C457.568 458.23 457.582 458.454 457.498 458.706L449.182 479.118C448.93 479.706 448.482 480 447.838 480H444.856C444.184 480 443.736 479.706 443.512 479.118L435.238 458.748C435.126 458.468 435.126 458.23 435.238 458.034C435.378 457.838 435.588 457.74 435.868 457.74H441.202C441.426 457.74 441.622 457.81 441.79 457.95C441.958 458.062 442.07 458.23 442.126 458.454L446.956 470.844C447.152 471.376 447.376 471.362 447.628 470.802L452.374 458.412C452.458 458.216 452.57 458.062 452.71 457.95C452.878 457.81 453.074 457.74 453.298 457.74H456.91ZM467.169 478.992C467.169 479.356 467.085 479.622 466.917 479.79C466.749 479.93 466.455 480 466.035 480H461.625C461.261 480 461.009 479.93 460.869 479.79C460.757 479.65 460.701 479.426 460.701 479.118V458.538C460.701 458.006 460.925 457.74 461.373 457.74H466.539C466.959 457.74 467.169 457.978 467.169 458.454V478.992ZM467.253 454.002C467.253 454.702 466.875 455.052 466.119 455.052H461.583C461.219 455.052 460.967 454.968 460.827 454.8C460.715 454.632 460.659 454.394 460.659 454.086V449.676C460.659 449.116 460.897 448.836 461.373 448.836H466.581C467.029 448.836 467.253 449.102 467.253 449.634V454.002ZM481.98 457.32C483.8 457.32 485.34 457.642 486.6 458.286C487.888 458.902 488.938 459.7 489.75 460.68C490.562 461.66 491.136 462.668 491.472 463.704C491.668 464.264 491.5 464.558 490.968 464.586L486.558 465.006C486.25 465.034 486.04 464.88 485.928 464.544C485.676 464.012 485.396 463.522 485.088 463.074C484.78 462.626 484.402 462.262 483.954 461.982C483.506 461.702 482.918 461.562 482.19 461.562C481.238 461.562 480.398 461.828 479.67 462.36C478.942 462.892 478.368 463.704 477.948 464.796C477.556 465.86 477.36 467.218 477.36 468.87C477.36 470.55 477.57 471.936 477.99 473.028C478.41 474.12 478.998 474.932 479.754 475.464C480.538 475.996 481.462 476.262 482.526 476.262C483.758 476.262 484.724 475.94 485.424 475.296C486.152 474.652 486.838 473.784 487.482 472.692C487.566 472.552 487.65 472.468 487.734 472.44C487.818 472.412 487.972 472.426 488.196 472.482L491.304 473.196C491.612 473.28 491.71 473.546 491.598 473.994C491.374 474.61 491.024 475.296 490.548 476.052C490.072 476.808 489.442 477.508 488.658 478.152C487.902 478.796 486.964 479.342 485.844 479.79C484.752 480.21 483.464 480.42 481.98 480.42C479.824 480.42 477.906 479.944 476.226 478.992C474.546 478.012 473.216 476.668 472.236 474.96C471.284 473.224 470.808 471.222 470.808 468.954C470.808 466.658 471.298 464.642 472.278 462.906C473.258 461.142 474.588 459.77 476.268 458.79C477.948 457.81 479.852 457.32 481.98 457.32ZM500.496 470.76C500.496 471.796 500.734 472.72 501.21 473.532C501.714 474.316 502.372 474.932 503.184 475.38C504.024 475.8 504.962 476.01 505.998 476.01C507.006 476.01 507.93 475.8 508.77 475.38C509.638 474.932 510.506 474.204 511.374 473.196C511.486 473.084 511.584 473.028 511.668 473.028C511.752 473 511.906 473.042 512.13 473.154L515.154 474.414C515.546 474.582 515.588 474.862 515.28 475.254C514.384 476.542 513.446 477.564 512.466 478.32C511.486 479.076 510.394 479.622 509.19 479.958C508.014 480.266 506.684 480.42 505.2 480.42C503.016 480.42 501.07 479.944 499.362 478.992C497.654 478.04 496.296 476.724 495.288 475.044C494.308 473.336 493.818 471.39 493.818 469.206C493.818 466.798 494.322 464.712 495.33 462.948C496.366 461.156 497.738 459.77 499.446 458.79C501.154 457.81 503.03 457.32 505.074 457.32C507.23 457.32 509.12 457.796 510.744 458.748C512.368 459.672 513.642 461.002 514.566 462.738C515.518 464.474 515.994 466.588 515.994 469.08C515.994 469.388 515.966 469.626 515.91 469.794C515.854 469.962 515.644 470.06 515.28 470.088H501C500.832 470.088 500.706 470.144 500.622 470.256C500.538 470.368 500.496 470.536 500.496 470.76ZM508.938 466.56C509.246 466.56 509.442 466.532 509.526 466.476C509.61 466.392 509.652 466.224 509.652 465.972C509.652 465.272 509.484 464.558 509.148 463.83C508.84 463.102 508.364 462.5 507.72 462.024C507.104 461.52 506.306 461.268 505.326 461.268C504.402 461.268 503.576 461.492 502.848 461.94C502.12 462.388 501.56 463.018 501.168 463.83C500.776 464.614 500.58 465.51 500.58 466.518L508.938 466.56ZM533.169 463.536C532.693 462.92 532.049 462.388 531.237 461.94C530.425 461.492 529.431 461.268 528.255 461.268C527.219 461.268 526.337 461.478 525.609 461.898C524.909 462.29 524.559 462.836 524.559 463.536C524.559 463.9 524.699 464.25 524.979 464.586C525.259 464.894 525.903 465.174 526.911 465.426L531.741 466.602C534.065 467.134 535.717 468.002 536.697 469.206C537.677 470.41 538.167 471.754 538.167 473.238C538.167 474.75 537.733 476.038 536.865 477.102C536.025 478.166 534.849 478.992 533.337 479.58C531.825 480.14 530.089 480.42 528.129 480.42C525.637 480.42 523.523 479.986 521.787 479.118C520.051 478.222 518.833 477.116 518.133 475.8C518.021 475.604 517.965 475.422 517.965 475.254C517.965 475.058 518.049 474.918 518.217 474.834L521.073 473.364C521.353 473.224 521.563 473.168 521.703 473.196C521.871 473.196 522.011 473.266 522.123 473.406C522.487 473.91 522.921 474.386 523.425 474.834C523.929 475.282 524.559 475.646 525.315 475.926C526.071 476.178 527.023 476.29 528.171 476.262C528.955 476.262 529.655 476.178 530.271 476.01C530.915 475.814 531.419 475.548 531.783 475.212C532.147 474.848 532.329 474.428 532.329 473.952C532.329 473.476 532.133 473.07 531.741 472.734C531.349 472.37 530.621 472.062 529.557 471.81L525.231 470.886C523.131 470.41 521.535 469.668 520.443 468.66C519.379 467.624 518.847 466.28 518.847 464.628C518.847 463.2 519.211 461.94 519.939 460.848C520.695 459.756 521.787 458.902 523.215 458.286C524.643 457.642 526.351 457.32 528.339 457.32C530.467 457.32 532.301 457.712 533.841 458.496C535.409 459.28 536.529 460.218 537.201 461.31C537.313 461.478 537.397 461.66 537.453 461.856C537.509 462.024 537.411 462.178 537.159 462.318L534.135 463.788C533.939 463.872 533.757 463.9 533.589 463.872C533.449 463.816 533.309 463.704 533.169 463.536Z" fill="black"/>
<path d="M71.2 499.256C71.3493 499.256 71.4453 499.299 71.488 499.384C71.552 499.469 71.5733 499.576 71.552 499.704L64.928 522.584C64.8427 522.861 64.64 523 64.32 523H62.752C62.3893 523 62.1653 522.872 62.08 522.616L56.672 503.416C56.6507 503.309 56.6187 503.256 56.576 503.256C56.5547 503.256 56.5227 503.309 56.48 503.416L51.008 522.584C50.9227 522.861 50.72 523 50.4 523H48.8C48.4373 523 48.2133 522.872 48.128 522.616L41.632 499.736C41.6107 499.587 41.632 499.469 41.696 499.384C41.76 499.299 41.8667 499.256 42.016 499.256H43.552C43.7013 499.256 43.808 499.277 43.872 499.32C43.9573 499.363 44.0107 499.448 44.032 499.576L49.536 519.288C49.6 519.501 49.664 519.608 49.728 519.608C49.792 519.587 49.856 519.469 49.92 519.256L55.52 499.544C55.5627 499.48 55.616 499.416 55.68 499.352C55.744 499.288 55.8613 499.256 56.032 499.256H57.44C57.6107 499.256 57.728 499.277 57.792 499.32C57.856 499.363 57.8987 499.448 57.92 499.576L63.456 519.32C63.52 519.512 63.584 519.608 63.648 519.608C63.712 519.608 63.776 519.512 63.84 519.32L69.44 499.544C69.4613 499.437 69.5147 499.363 69.6 499.32C69.6853 499.277 69.792 499.256 69.92 499.256H71.2ZM74.933 515.48C74.933 516.568 75.1997 517.581 75.733 518.52C76.2663 519.459 76.9703 520.216 77.845 520.792C78.741 521.347 79.7437 521.624 80.853 521.624C82.0263 521.624 83.0397 521.389 83.893 520.92C84.7677 520.451 85.5037 519.757 86.101 518.84C86.165 518.733 86.229 518.68 86.293 518.68C86.357 518.659 86.4317 518.669 86.517 518.712L87.605 519.32C87.7757 519.405 87.7863 519.533 87.637 519.704C87.1037 520.515 86.4957 521.187 85.813 521.72C85.1517 522.253 84.3943 522.659 83.541 522.936C82.6877 523.192 81.749 523.32 80.725 523.32C79.1463 523.32 77.7597 522.957 76.565 522.232C75.3703 521.507 74.4317 520.493 73.749 519.192C73.0663 517.869 72.725 516.365 72.725 514.68C72.725 512.803 73.077 511.203 73.781 509.88C74.485 508.557 75.4343 507.533 76.629 506.808C77.8237 506.083 79.1783 505.72 80.693 505.72C82.229 505.72 83.5623 506.061 84.693 506.744C85.8237 507.427 86.6983 508.408 87.317 509.688C87.9357 510.968 88.245 512.515 88.245 514.328C88.245 514.477 88.2237 514.627 88.181 514.776C88.1597 514.925 88.0317 515 87.797 515H75.157C75.093 515 75.0397 515.053 74.997 515.16C74.9543 515.245 74.933 515.352 74.933 515.48ZM85.557 513.496C85.7917 513.496 85.941 513.464 86.005 513.4C86.069 513.336 86.101 513.219 86.101 513.048C86.101 512.024 85.877 511.085 85.429 510.232C85.0023 509.357 84.3837 508.664 83.573 508.152C82.7837 507.619 81.8343 507.352 80.725 507.352C79.4663 507.352 78.4103 507.661 77.557 508.28C76.7037 508.877 76.053 509.645 75.605 510.584C75.1783 511.523 74.965 512.493 74.965 513.496H85.557ZM108.562 523.32C106.556 523.32 104.818 522.84 103.346 521.88C101.895 520.92 100.775 519.544 99.9858 517.752C99.2178 515.939 98.8338 513.763 98.8338 511.224C98.8338 508.621 99.2391 506.403 100.05 504.568C100.86 502.733 102.002 501.336 103.474 500.376C104.946 499.416 106.674 498.936 108.658 498.936C110.087 498.936 111.41 499.235 112.626 499.832C113.842 500.408 114.855 501.176 115.666 502.136C116.476 503.096 116.956 504.131 117.106 505.24C117.127 505.368 117.127 505.464 117.106 505.528C117.084 505.571 117.02 505.613 116.914 505.656L115.09 505.944C115.004 505.965 114.94 505.955 114.898 505.912C114.855 505.869 114.823 505.795 114.802 505.688C114.631 504.771 114.258 503.949 113.682 503.224C113.127 502.499 112.412 501.923 111.538 501.496C110.684 501.069 109.714 500.856 108.626 500.856C107.068 500.856 105.746 501.251 104.658 502.04C103.591 502.829 102.77 503.981 102.194 505.496C101.639 507.011 101.362 508.856 101.362 511.032C101.362 513.315 101.639 515.224 102.194 516.76C102.748 518.296 103.57 519.448 104.658 520.216C105.767 520.984 107.111 521.368 108.69 521.368C109.799 521.368 110.77 521.176 111.602 520.792C112.455 520.408 113.148 519.896 113.682 519.256C114.236 518.616 114.652 517.923 114.93 517.176C115.228 516.429 115.388 515.715 115.41 515.032V512.888C115.431 512.675 115.324 512.568 115.09 512.568H109.522C109.415 512.568 109.34 512.547 109.298 512.504C109.255 512.461 109.234 512.397 109.234 512.312V511.192C109.234 511.021 109.308 510.936 109.458 510.936H117.266C117.372 510.936 117.458 510.968 117.522 511.032C117.586 511.096 117.618 511.171 117.618 511.256V522.616C117.618 522.765 117.586 522.872 117.522 522.936C117.458 522.979 117.372 523 117.266 523H116.594C116.466 523 116.348 522.989 116.242 522.968C116.156 522.925 116.103 522.819 116.082 522.648L115.89 519.512C115.868 519.405 115.826 519.352 115.762 519.352C115.719 519.352 115.666 519.405 115.602 519.512C115.196 520.216 114.674 520.856 114.034 521.432C113.394 522.008 112.626 522.467 111.73 522.808C110.834 523.149 109.778 523.32 108.562 523.32ZM124.893 522.52C124.893 522.712 124.861 522.84 124.797 522.904C124.733 522.968 124.594 523 124.381 523H123.197C123.026 523 122.909 522.979 122.845 522.936C122.802 522.872 122.781 522.765 122.781 522.616V506.424C122.781 506.168 122.898 506.04 123.133 506.04H124.541C124.776 506.04 124.893 506.168 124.893 506.424V522.52ZM125.021 502.168C125.021 502.552 124.861 502.744 124.541 502.744H123.069C122.898 502.744 122.781 502.701 122.717 502.616C122.674 502.531 122.653 502.403 122.653 502.232V499.736C122.653 499.416 122.792 499.256 123.069 499.256H124.605C124.882 499.256 125.021 499.405 125.021 499.704V502.168ZM143.595 506.04C143.723 506.04 143.808 506.083 143.851 506.168C143.915 506.232 143.925 506.317 143.883 506.424L137.323 522.584C137.216 522.861 136.992 523 136.651 523H135.786C135.403 523 135.157 522.872 135.051 522.616L128.523 506.456C128.501 506.328 128.512 506.232 128.555 506.168C128.619 506.083 128.715 506.04 128.843 506.04H130.315C130.443 506.04 130.539 506.061 130.603 506.104C130.688 506.147 130.741 506.232 130.763 506.36L136.139 519.736C136.288 520.141 136.459 520.131 136.651 519.704L141.995 506.328C142.037 506.221 142.091 506.147 142.155 506.104C142.219 506.061 142.304 506.04 142.411 506.04H143.595ZM147.933 515.48C147.933 516.568 148.2 517.581 148.733 518.52C149.266 519.459 149.97 520.216 150.845 520.792C151.741 521.347 152.744 521.624 153.853 521.624C155.026 521.624 156.04 521.389 156.893 520.92C157.768 520.451 158.504 519.757 159.101 518.84C159.165 518.733 159.229 518.68 159.293 518.68C159.357 518.659 159.432 518.669 159.517 518.712L160.605 519.32C160.776 519.405 160.786 519.533 160.637 519.704C160.104 520.515 159.496 521.187 158.813 521.72C158.152 522.253 157.394 522.659 156.541 522.936C155.688 523.192 154.749 523.32 153.725 523.32C152.146 523.32 150.76 522.957 149.565 522.232C148.37 521.507 147.432 520.493 146.749 519.192C146.066 517.869 145.725 516.365 145.725 514.68C145.725 512.803 146.077 511.203 146.781 509.88C147.485 508.557 148.434 507.533 149.629 506.808C150.824 506.083 152.178 505.72 153.693 505.72C155.229 505.72 156.562 506.061 157.693 506.744C158.824 507.427 159.698 508.408 160.317 509.688C160.936 510.968 161.245 512.515 161.245 514.328C161.245 514.477 161.224 514.627 161.181 514.776C161.16 514.925 161.032 515 160.797 515H148.157C148.093 515 148.04 515.053 147.997 515.16C147.954 515.245 147.933 515.352 147.933 515.48ZM158.557 513.496C158.792 513.496 158.941 513.464 159.005 513.4C159.069 513.336 159.101 513.219 159.101 513.048C159.101 512.024 158.877 511.085 158.429 510.232C158.002 509.357 157.384 508.664 156.573 508.152C155.784 507.619 154.834 507.352 153.725 507.352C152.466 507.352 151.41 507.661 150.557 508.28C149.704 508.877 149.053 509.645 148.605 510.584C148.178 511.523 147.965 512.493 147.965 513.496H158.557ZM190.138 499.256C190.351 499.256 190.458 499.373 190.458 499.608V522.648C190.458 522.755 190.426 522.84 190.362 522.904C190.319 522.968 190.234 523 190.106 523H188.986C188.858 523 188.74 522.989 188.634 522.968C188.527 522.947 188.431 522.883 188.346 522.776L175.45 503.896C175.343 503.747 175.247 503.683 175.162 503.704C175.098 503.725 175.066 503.8 175.066 503.928V522.648C175.066 522.883 174.938 523 174.682 523H173.306C173.05 523 172.922 522.872 172.922 522.616V499.64C172.922 499.384 173.039 499.256 173.274 499.256H174.618C174.767 499.256 174.874 499.277 174.938 499.32C175.023 499.341 175.108 499.416 175.194 499.544L187.866 518.168C187.994 518.317 188.1 518.371 188.186 518.328C188.292 518.285 188.346 518.2 188.346 518.072V499.608C188.346 499.373 188.452 499.256 188.666 499.256H190.138ZM197.589 515.48C197.589 516.568 197.856 517.581 198.389 518.52C198.923 519.459 199.627 520.216 200.501 520.792C201.397 521.347 202.4 521.624 203.509 521.624C204.683 521.624 205.696 521.389 206.549 520.92C207.424 520.451 208.16 519.757 208.757 518.84C208.821 518.733 208.885 518.68 208.949 518.68C209.013 518.659 209.088 518.669 209.173 518.712L210.261 519.32C210.432 519.405 210.443 519.533 210.293 519.704C209.76 520.515 209.152 521.187 208.469 521.72C207.808 522.253 207.051 522.659 206.197 522.936C205.344 523.192 204.405 523.32 203.381 523.32C201.803 523.32 200.416 522.957 199.221 522.232C198.027 521.507 197.088 520.493 196.405 519.192C195.723 517.869 195.381 516.365 195.381 514.68C195.381 512.803 195.733 511.203 196.437 509.88C197.141 508.557 198.091 507.533 199.285 506.808C200.48 506.083 201.835 505.72 203.349 505.72C204.885 505.72 206.219 506.061 207.349 506.744C208.48 507.427 209.355 508.408 209.973 509.688C210.592 510.968 210.901 512.515 210.901 514.328C210.901 514.477 210.88 514.627 210.837 514.776C210.816 514.925 210.688 515 210.453 515H197.813C197.749 515 197.696 515.053 197.653 515.16C197.611 515.245 197.589 515.352 197.589 515.48ZM208.213 513.496C208.448 513.496 208.597 513.464 208.661 513.4C208.725 513.336 208.757 513.219 208.757 513.048C208.757 512.024 208.533 511.085 208.085 510.232C207.659 509.357 207.04 508.664 206.229 508.152C205.44 507.619 204.491 507.352 203.381 507.352C202.123 507.352 201.067 507.661 200.213 508.28C199.36 508.877 198.709 509.645 198.261 510.584C197.835 511.523 197.621 512.493 197.621 513.496H208.213ZM235.874 506.04C236.002 506.04 236.087 506.083 236.13 506.168C236.194 506.232 236.204 506.317 236.162 506.424L231.33 522.616C231.308 522.765 231.244 522.872 231.138 522.936C231.052 522.979 230.924 523 230.753 523H229.506C229.164 523 228.951 522.872 228.866 522.616L224.802 509.848C224.716 509.656 224.642 509.56 224.578 509.56C224.535 509.56 224.492 509.656 224.45 509.848L220.578 522.616C220.556 522.765 220.503 522.872 220.418 522.936C220.332 522.979 220.204 523 220.034 523H218.69C218.348 523 218.135 522.872 218.05 522.616L213.026 506.456C212.983 506.328 212.983 506.232 213.026 506.168C213.09 506.083 213.196 506.04 213.346 506.04H214.754C214.882 506.04 214.978 506.061 215.042 506.104C215.127 506.147 215.18 506.232 215.202 506.36L219.298 519.672C219.362 519.885 219.436 519.992 219.522 519.992C219.607 519.971 219.682 519.853 219.746 519.64L223.778 506.296C223.82 506.211 223.874 506.147 223.938 506.104C224.002 506.061 224.087 506.04 224.194 506.04H225.378C225.484 506.04 225.58 506.061 225.666 506.104C225.751 506.147 225.804 506.232 225.826 506.36L230.05 519.672C230.114 519.885 230.188 519.992 230.274 519.992C230.359 519.971 230.434 519.853 230.498 519.64L234.402 506.328C234.444 506.221 234.508 506.147 234.594 506.104C234.679 506.061 234.775 506.04 234.882 506.04H235.874ZM247.516 499.64C247.516 499.384 247.633 499.256 247.868 499.256H249.596C249.809 499.256 249.916 499.384 249.916 499.64V520.76C249.916 520.973 250.022 521.08 250.236 521.08H261.532C261.745 521.08 261.852 521.176 261.852 521.368V522.712C261.852 522.797 261.83 522.872 261.788 522.936C261.745 522.979 261.66 523 261.532 523H247.9C247.75 523 247.644 522.968 247.58 522.904C247.537 522.84 247.516 522.744 247.516 522.616V499.64ZM268.018 522.52C268.018 522.712 267.986 522.84 267.922 522.904C267.858 522.968 267.719 523 267.506 523H266.322C266.151 523 266.034 522.979 265.97 522.936C265.927 522.872 265.906 522.765 265.906 522.616V506.424C265.906 506.168 266.023 506.04 266.258 506.04H267.666C267.901 506.04 268.018 506.168 268.018 506.424V522.52ZM268.146 502.168C268.146 502.552 267.986 502.744 267.666 502.744H266.194C266.023 502.744 265.906 502.701 265.842 502.616C265.799 502.531 265.778 502.403 265.778 502.232V499.736C265.778 499.416 265.917 499.256 266.194 499.256H267.73C268.007 499.256 268.146 499.405 268.146 499.704V502.168ZM281.568 506.04C281.653 506.04 281.717 506.072 281.76 506.136C281.802 506.179 281.824 506.243 281.824 506.328V507.416C281.824 507.587 281.728 507.672 281.536 507.672H277.664C277.493 507.672 277.408 507.757 277.408 507.928V522.584C277.408 522.861 277.301 523 277.088 523H275.616C275.402 523 275.296 522.872 275.296 522.616V507.928C275.296 507.757 275.232 507.672 275.104 507.672H271.743C271.573 507.672 271.488 507.587 271.488 507.416V506.328C271.488 506.243 271.509 506.179 271.552 506.136C271.594 506.072 271.669 506.04 271.776 506.04H275.04C275.21 506.04 275.296 505.944 275.296 505.752V503.32C275.296 501.976 275.605 500.963 276.224 500.28C276.842 499.597 277.824 499.256 279.168 499.256H281.664C281.877 499.256 281.984 499.363 281.984 499.576V500.568C281.984 500.675 281.952 500.749 281.888 500.792C281.845 500.835 281.77 500.856 281.664 500.856H279.296C278.592 500.856 278.09 501.069 277.792 501.496C277.514 501.923 277.376 502.52 277.376 503.288V505.784C277.376 505.955 277.461 506.04 277.632 506.04H281.568ZM285.808 515.48C285.808 516.568 286.075 517.581 286.608 518.52C287.141 519.459 287.845 520.216 288.72 520.792C289.616 521.347 290.619 521.624 291.728 521.624C292.901 521.624 293.915 521.389 294.768 520.92C295.643 520.451 296.379 519.757 296.976 518.84C297.04 518.733 297.104 518.68 297.168 518.68C297.232 518.659 297.307 518.669 297.392 518.712L298.48 519.32C298.651 519.405 298.661 519.533 298.512 519.704C297.979 520.515 297.371 521.187 296.688 521.72C296.027 522.253 295.269 522.659 294.416 522.936C293.563 523.192 292.624 523.32 291.6 523.32C290.021 523.32 288.635 522.957 287.44 522.232C286.245 521.507 285.307 520.493 284.624 519.192C283.941 517.869 283.6 516.365 283.6 514.68C283.6 512.803 283.952 511.203 284.656 509.88C285.36 508.557 286.309 507.533 287.504 506.808C288.699 506.083 290.053 505.72 291.568 505.72C293.104 505.72 294.437 506.061 295.568 506.744C296.699 507.427 297.573 508.408 298.192 509.688C298.811 510.968 299.12 512.515 299.12 514.328C299.12 514.477 299.099 514.627 299.056 514.776C299.035 514.925 298.907 515 298.672 515H286.032C285.968 515 285.915 515.053 285.872 515.16C285.829 515.245 285.808 515.352 285.808 515.48ZM296.432 513.496C296.667 513.496 296.816 513.464 296.88 513.4C296.944 513.336 296.976 513.219 296.976 513.048C296.976 512.024 296.752 511.085 296.304 510.232C295.877 509.357 295.259 508.664 294.448 508.152C293.659 507.619 292.709 507.352 291.6 507.352C290.341 507.352 289.285 507.661 288.432 508.28C287.579 508.877 286.928 509.645 286.48 510.584C286.053 511.523 285.84 512.493 285.84 513.496H296.432ZM308.877 499.576C308.877 499.469 308.898 499.395 308.941 499.352C308.983 499.288 309.069 499.256 309.197 499.256H326.093C326.221 499.256 326.306 499.288 326.349 499.352C326.391 499.395 326.413 499.469 326.413 499.576V500.888C326.413 501.08 326.306 501.176 326.093 501.176H319.469C319.234 501.176 319.117 501.272 319.117 501.464V522.616C319.117 522.872 319.01 523 318.797 523H317.069C316.834 523 316.717 522.872 316.717 522.616V501.464C316.717 501.272 316.61 501.176 316.397 501.176H309.197C308.983 501.176 308.877 501.08 308.877 500.888V499.576ZM334.099 523.32C332.521 523.32 331.123 522.957 329.907 522.232C328.713 521.485 327.785 520.461 327.123 519.16C326.462 517.837 326.131 516.323 326.131 514.616C326.131 512.867 326.462 511.331 327.123 510.008C327.806 508.664 328.745 507.619 329.939 506.872C331.155 506.104 332.553 505.72 334.131 505.72C335.731 505.72 337.118 506.093 338.291 506.84C339.486 507.587 340.414 508.632 341.075 509.976C341.737 511.299 342.067 512.824 342.067 514.552C342.067 516.28 341.726 517.805 341.043 519.128C340.382 520.429 339.454 521.453 338.259 522.2C337.086 522.947 335.699 523.32 334.099 523.32ZM334.163 521.624C335.358 521.624 336.382 521.336 337.235 520.76C338.089 520.184 338.739 519.363 339.187 518.296C339.657 517.229 339.891 515.981 339.891 514.552C339.891 513.101 339.657 511.843 339.187 510.776C338.718 509.688 338.046 508.856 337.171 508.28C336.318 507.683 335.305 507.384 334.131 507.384C332.958 507.384 331.934 507.683 331.059 508.28C330.185 508.856 329.502 509.688 329.011 510.776C328.542 511.843 328.307 513.101 328.307 514.552C328.307 515.981 328.542 517.229 329.011 518.296C329.502 519.363 330.185 520.184 331.059 520.76C331.934 521.336 332.969 521.624 334.163 521.624ZM370.018 499.256C370.146 499.256 370.231 499.299 370.274 499.384C370.316 499.448 370.306 499.544 370.242 499.672L362.626 512.504C362.54 512.611 362.487 512.717 362.466 512.824C362.466 512.931 362.466 513.112 362.466 513.368V522.488C362.466 522.829 362.274 523 361.89 523H360.514C360.322 523 360.194 522.968 360.13 522.904C360.066 522.819 360.034 522.712 360.034 522.584V513.592C360.034 513.4 360.012 513.261 359.97 513.176C359.948 513.069 359.906 512.952 359.842 512.824L352.066 499.736C352.002 499.587 351.991 499.469 352.034 499.384C352.098 499.299 352.215 499.256 352.386 499.256H354.05C354.22 499.256 354.338 499.288 354.402 499.352C354.487 499.395 354.572 499.48 354.658 499.608L360.93 510.328C361.058 510.584 361.175 510.712 361.282 510.712C361.41 510.712 361.538 510.605 361.666 510.392L367.874 499.608C367.98 499.459 368.066 499.363 368.13 499.32C368.194 499.277 368.311 499.256 368.482 499.256H370.018ZM378.006 523.32C376.427 523.32 375.03 522.957 373.814 522.232C372.619 521.485 371.691 520.461 371.03 519.16C370.368 517.837 370.038 516.323 370.038 514.616C370.038 512.867 370.368 511.331 371.03 510.008C371.712 508.664 372.651 507.619 373.846 506.872C375.062 506.104 376.459 505.72 378.038 505.72C379.638 505.72 381.024 506.093 382.198 506.84C383.392 507.587 384.32 508.632 384.982 509.976C385.643 511.299 385.974 512.824 385.974 514.552C385.974 516.28 385.632 517.805 384.95 519.128C384.288 520.429 383.36 521.453 382.166 522.2C380.992 522.947 379.606 523.32 378.006 523.32ZM378.07 521.624C379.264 521.624 380.288 521.336 381.142 520.76C381.995 520.184 382.646 519.363 383.094 518.296C383.563 517.229 383.798 515.981 383.798 514.552C383.798 513.101 383.563 511.843 383.094 510.776C382.624 509.688 381.952 508.856 381.078 508.28C380.224 507.683 379.211 507.384 378.038 507.384C376.864 507.384 375.84 507.683 374.966 508.28C374.091 508.856 373.408 509.688 372.918 510.776C372.448 511.843 372.214 513.101 372.214 514.552C372.214 515.981 372.448 517.229 372.918 518.296C373.408 519.363 374.091 520.184 374.966 520.76C375.84 521.336 376.875 521.624 378.07 521.624ZM395.627 521.56C396.629 521.56 397.579 521.293 398.475 520.76C399.392 520.227 400.309 519.491 401.227 518.552V506.424C401.227 506.168 401.365 506.04 401.643 506.04H402.987C403.221 506.04 403.339 506.168 403.339 506.424V522.648C403.339 522.883 403.232 523 403.019 523H401.643C401.429 523 401.323 522.893 401.323 522.68V520.728C401.323 520.621 401.301 520.557 401.259 520.536C401.216 520.515 401.141 520.547 401.035 520.632C399.797 521.677 398.72 522.392 397.803 522.776C396.907 523.139 396.021 523.32 395.147 523.32C394.165 523.32 393.28 523.128 392.491 522.744C391.723 522.339 391.104 521.773 390.635 521.048C390.187 520.301 389.963 519.459 389.963 518.52V506.456C389.963 506.179 390.101 506.04 390.379 506.04H391.723C391.957 506.04 392.075 506.168 392.075 506.424V517.816C392.075 518.925 392.384 519.832 393.003 520.536C393.643 521.219 394.517 521.56 395.627 521.56ZM409.04 523C408.912 523 408.816 522.968 408.752 522.904C408.688 522.84 408.656 522.744 408.656 522.616V506.392C408.656 506.157 408.763 506.04 408.976 506.04H410.352C410.544 506.04 410.64 506.147 410.64 506.36V508.472C410.64 508.579 410.672 508.643 410.736 508.664C410.8 508.685 410.875 508.653 410.96 508.568C411.536 507.885 412.101 507.341 412.656 506.936C413.211 506.509 413.755 506.2 414.288 506.008C414.843 505.816 415.397 505.72 415.952 505.72C416.72 505.72 417.104 505.848 417.104 506.104V507.576C417.104 507.747 417.019 507.821 416.848 507.8C416.699 507.779 416.517 507.757 416.304 507.736C416.112 507.715 415.877 507.704 415.6 507.704C415.109 507.704 414.587 507.821 414.032 508.056C413.477 508.269 412.955 508.568 412.464 508.952C411.973 509.336 411.568 509.763 411.248 510.232C410.928 510.701 410.768 511.181 410.768 511.672V522.616C410.768 522.872 410.629 523 410.352 523H409.04ZM430.828 511.64C430.657 511.64 430.572 511.725 430.572 511.896V522.616C430.572 522.872 430.433 523 430.156 523H428.556C428.406 523 428.3 522.968 428.236 522.904C428.193 522.84 428.172 522.744 428.172 522.616V499.64C428.172 499.384 428.289 499.256 428.524 499.256H430.252C430.465 499.256 430.572 499.384 430.572 499.64V509.336C430.572 509.571 430.689 509.688 430.924 509.688H442.188C442.401 509.688 442.508 509.581 442.508 509.368V499.608C442.508 499.373 442.604 499.256 442.796 499.256H444.556C444.79 499.256 444.908 499.384 444.908 499.64V522.616C444.908 522.744 444.876 522.84 444.812 522.904C444.769 522.968 444.673 523 444.524 523H442.924C442.646 523 442.508 522.872 442.508 522.616V511.928C442.508 511.736 442.412 511.64 442.22 511.64H430.828ZM457.818 523.32C456.239 523.32 454.842 522.957 453.626 522.232C452.431 521.485 451.503 520.461 450.842 519.16C450.181 517.837 449.85 516.323 449.85 514.616C449.85 512.867 450.181 511.331 450.842 510.008C451.525 508.664 452.463 507.619 453.658 506.872C454.874 506.104 456.271 505.72 457.85 505.72C459.45 505.72 460.837 506.093 462.01 506.84C463.205 507.587 464.133 508.632 464.794 509.976C465.455 511.299 465.786 512.824 465.786 514.552C465.786 516.28 465.445 517.805 464.762 519.128C464.101 520.429 463.173 521.453 461.978 522.2C460.805 522.947 459.418 523.32 457.818 523.32ZM457.882 521.624C459.077 521.624 460.101 521.336 460.954 520.76C461.807 520.184 462.458 519.363 462.906 518.296C463.375 517.229 463.61 515.981 463.61 514.552C463.61 513.101 463.375 511.843 462.906 510.776C462.437 509.688 461.765 508.856 460.89 508.28C460.037 507.683 459.023 507.384 457.85 507.384C456.677 507.384 455.653 507.683 454.778 508.28C453.903 508.856 453.221 509.688 452.73 510.776C452.261 511.843 452.026 513.101 452.026 514.552C452.026 515.981 452.261 517.229 452.73 518.296C453.221 519.363 453.903 520.184 454.778 520.76C455.653 521.336 456.687 521.624 457.882 521.624ZM470.415 523C470.159 523 470.031 522.872 470.031 522.616V506.392C470.031 506.157 470.138 506.04 470.351 506.04H471.727C471.94 506.04 472.047 506.147 472.047 506.36V508.248C472.047 508.355 472.068 508.429 472.111 508.472C472.154 508.493 472.228 508.451 472.335 508.344C473.039 507.789 473.69 507.32 474.287 506.936C474.884 506.531 475.482 506.232 476.079 506.04C476.698 505.827 477.37 505.72 478.095 505.72C479.396 505.72 480.42 506.019 481.167 506.616C481.914 507.192 482.404 507.821 482.639 508.504C482.682 508.589 482.746 508.621 482.831 508.6C482.916 508.579 483.002 508.525 483.087 508.44C483.812 507.864 484.474 507.373 485.071 506.968C485.69 506.563 486.308 506.253 486.927 506.04C487.546 505.827 488.218 505.72 488.943 505.72C490.5 505.72 491.695 506.168 492.527 507.064C493.38 507.939 493.807 509.091 493.807 510.52V522.584C493.807 522.861 493.668 523 493.391 523H492.047C491.94 523 491.855 522.968 491.791 522.904C491.727 522.84 491.695 522.744 491.695 522.616V511.064C491.695 509.933 491.428 509.059 490.895 508.44C490.383 507.8 489.551 507.48 488.399 507.48C487.716 507.48 487.066 507.608 486.447 507.864C485.828 508.099 485.274 508.397 484.783 508.76C484.292 509.123 483.855 509.464 483.471 509.784C483.279 509.933 483.14 510.072 483.055 510.2C482.991 510.328 482.959 510.509 482.959 510.744V522.584C482.959 522.861 482.831 523 482.575 523H481.231C481.103 523 481.007 522.968 480.943 522.904C480.879 522.84 480.847 522.744 480.847 522.616V511.064C480.847 509.933 480.591 509.059 480.079 508.44C479.567 507.8 478.724 507.48 477.551 507.48C476.591 507.48 475.716 507.704 474.927 508.152C474.138 508.6 473.21 509.283 472.143 510.2V522.616C472.143 522.872 472.004 523 471.727 523H470.415ZM500.058 515.48C500.058 516.568 500.325 517.581 500.858 518.52C501.391 519.459 502.095 520.216 502.97 520.792C503.866 521.347 504.869 521.624 505.978 521.624C507.151 521.624 508.165 521.389 509.018 520.92C509.893 520.451 510.629 519.757 511.226 518.84C511.29 518.733 511.354 518.68 511.418 518.68C511.482 518.659 511.557 518.669 511.642 518.712L512.73 519.32C512.901 519.405 512.911 519.533 512.762 519.704C512.229 520.515 511.621 521.187 510.938 521.72C510.277 522.253 509.519 522.659 508.666 522.936C507.813 523.192 506.874 523.32 505.85 523.32C504.271 523.32 502.885 522.957 501.69 522.232C500.495 521.507 499.557 520.493 498.874 519.192C498.191 517.869 497.85 516.365 497.85 514.68C497.85 512.803 498.202 511.203 498.906 509.88C499.61 508.557 500.559 507.533 501.754 506.808C502.949 506.083 504.303 505.72 505.818 505.72C507.354 505.72 508.687 506.061 509.818 506.744C510.949 507.427 511.823 508.408 512.442 509.688C513.061 510.968 513.37 512.515 513.37 514.328C513.37 514.477 513.349 514.627 513.306 514.776C513.285 514.925 513.157 515 512.922 515H500.282C500.218 515 500.165 515.053 500.122 515.16C500.079 515.245 500.058 515.352 500.058 515.48ZM510.682 513.496C510.917 513.496 511.066 513.464 511.13 513.4C511.194 513.336 511.226 513.219 511.226 513.048C511.226 512.024 511.002 511.085 510.554 510.232C510.127 509.357 509.509 508.664 508.698 508.152C507.909 507.619 506.959 507.352 505.85 507.352C504.591 507.352 503.535 507.661 502.682 508.28C501.829 508.877 501.178 509.645 500.73 510.584C500.303 511.523 500.09 512.493 500.09 513.496H510.682Z" fill="black"/>
</svg>
