<svg width="1885" height="2214" viewBox="0 0 1885 2214" fill="none" xmlns="http://www.w3.org/2000/svg">
<path d="M989.129 134.542L1198.24 0L1405.65 134.542L1198.24 253.456L989.129 134.542Z" fill="white"/>
<path d="M1198.24 253.456L989.129 134.542V706.008L1198.24 1232.8V253.456Z" fill="white"/>
<path d="M1405.65 134.542L1198.24 253.456V1232.8L1405.65 1179.69L1342.76 1102.81L1405.65 1081.38V657.114V134.542Z" fill="white"/>
<path d="M1285.45 604.752L1224.88 638.447V718.434L1285.45 680.33V604.752Z" fill="#1B5083"/>
<path d="M1285.45 492.001L1224.88 525.973V606.615L1285.45 568.199V492.001Z" fill="#1B5083"/>
<path d="M1285.45 377.388L1224.88 411.359V492.002L1285.45 453.586V377.388Z" fill="#1B5083"/>
<path d="M1285.45 712.843L1224.88 746.637V825.594L1285.45 788.642V712.843Z" fill="#1B5083"/>
<path d="M1285.45 939.275L1224.88 973.247V1053.89L1285.45 1015.47V939.275Z" fill="#1B5083"/>
<path d="M1285.45 824.662L1224.88 858.633V939.276L1285.45 900.859V824.662Z" fill="#1B5083"/>
<path d="M665.783 453.331L952.784 268.831L1237.46 453.331L952.784 616.4L665.783 453.331Z" fill="#1B5083"/>
<path d="M952.784 616.4L665.783 453.331V1236.99L952.784 1482.53V616.4Z" fill="#1B5083"/>
<path d="M1237.46 453.331L952.784 616.4V1482.53L1237.46 1236.99V453.331Z" fill="#1B5083"/>
<g filter="url(#filter0_i_111_57)">
<path d="M688.146 497.593L776.669 547.445V665.786L688.146 609.411V497.593Z" fill="white"/>
</g>
<path d="M840.033 582.389L928.556 632.241V748.719L840.033 694.207V582.389Z" fill="white"/>
<g filter="url(#filter1_i_111_57)">
<path d="M688.146 997.049L776.669 1046.9V1165.24L688.146 1108.87V997.049Z" fill="white"/>
</g>
<g filter="url(#filter2_i_111_57)">
<path d="M840.033 1081.85L928.556 1131.7V1250.04L840.033 1193.66V1081.85Z" fill="white"/>
</g>
<g filter="url(#filter3_i_111_57)">
<path d="M688.146 831.184L776.669 881.037V999.378L688.146 943.003V831.184Z" fill="white"/>
</g>
<g filter="url(#filter4_i_111_57)">
<path d="M840.033 915.98L928.556 965.833V1084.17L840.033 1027.8V915.98Z" fill="white"/>
</g>
<g filter="url(#filter5_i_111_57)">
<path d="M688.146 662.525L776.669 712.377V830.719L688.146 774.343V662.525Z" fill="white"/>
</g>
<g filter="url(#filter6_i_111_57)">
<path d="M840.033 747.321L928.556 797.173V915.514L840.033 859.139V747.321Z" fill="white"/>
</g>
<path d="M1212.76 497.593L1124.24 547.445V665.786L1212.76 609.411V497.593Z" fill="white"/>
<path d="M1060.88 582.389L972.354 632.241V748.719L1060.88 694.207V582.389Z" fill="white"/>
<path d="M1212.76 997.049L1124.24 1046.9V1165.24L1212.76 1108.87V997.049Z" fill="white"/>
<path d="M1060.88 1081.85L972.354 1131.7V1250.04L1060.88 1193.66V1081.85Z" fill="white"/>
<path d="M1212.76 831.184L1124.24 881.037V999.378L1212.76 943.003V831.184Z" fill="white"/>
<path d="M1060.88 915.98L972.354 965.833V1084.17L1060.88 1027.8V915.98Z" fill="white"/>
<path d="M1212.76 662.525L1124.24 712.377V830.719L1212.76 774.343V662.525Z" fill="white"/>
<path d="M1060.88 747.321L972.354 797.173V915.514L1060.88 859.139V747.321Z" fill="white"/>
<path d="M1387.95 207.796L1328.31 241.768V322.41L1387.95 283.994V207.796Z" fill="#1B5083"/>
<path d="M1285.45 265.569L1224.88 299.363V378.319L1285.45 341.368V265.569Z" fill="#1B5083"/>
<path d="M1387.95 546.98L1328.31 580.951V661.594L1387.95 623.177V546.98Z" fill="#1B5083"/>
<path d="M1387.95 434.229L1328.31 468.2V548.843L1387.95 510.426V434.229Z" fill="#1B5083"/>
<path d="M1387.95 319.614L1328.31 353.586V434.228L1387.95 395.812V319.614Z" fill="#1B5083"/>
<path d="M1387.95 655.07L1328.31 689.042V769.684L1387.95 731.268V655.07Z" fill="#1B5083"/>
<path d="M1387.95 881.503L1328.31 915.474V996.117L1387.95 957.701V881.503Z" fill="#1B5083"/>
<path d="M1387.95 766.889L1328.31 800.86V881.503L1387.95 843.086V766.889Z" fill="#1B5083"/>
<path d="M557.229 960.475L983.071 1479.5L966.765 1538.44L557.229 1136.59L151.421 1612.75H0V1538.44H118.807L557.229 960.475Z" fill="black"/>
<path d="M1293.37 1033.39L1719.21 1552.41H1843.61V1611.35H1702.9L1293.37 1216.49L912.254 1611.35L730.549 1611.35V1552.41H887.561L1293.37 1033.39Z" fill="black"/>
<path d="M1292.9 1033.86L1836.15 822.332L1884.14 891.287L1350.21 1108.4L1292.9 1033.86Z" fill="black"/>
<path d="M1635.81 1165.71H1545.43V1270.54C1567.79 1301.75 1600.4 1342.75 1635.81 1386.55V1165.71Z" fill="black"/>
<path d="M1510.95 1120.98H1671.22V1175.03H1510.95V1120.98Z" fill="black"/>
<path d="M294.411 1062.74H384.798V1167.57C361.078 1194.59 330.328 1227.21 294.411 1269.61V1062.74Z" fill="black"/>
<rect x="259.513" y="1062.28" width="160.273" height="54.0456" fill="black"/>
<path d="M555.832 958.844L666.719 928.56V1004.97L613.139 1033.39L555.832 958.844Z" fill="black"/>
<rect x="498.059" y="1359.53" width="70.8184" height="70.8184" fill="#1B5083"/>
<rect x="583.784" y="1359.53" width="70.8184" height="70.8184" fill="#1B5083"/>
<rect x="583.784" y="1445.25" width="70.8184" height="70.8184" fill="#1B5083"/>
<rect x="498.059" y="1445.25" width="70.8184" height="70.8184" fill="#1B5083"/>
<rect x="1231.4" y="1402.39" width="70.8184" height="70.8184" fill="#1B5083"/>
<rect x="1317.13" y="1402.39" width="70.8184" height="70.8184" fill="#1B5083"/>
<rect x="1317.13" y="1488.12" width="70.8184" height="70.8184" fill="#1B5083"/>
<rect x="1231.4" y="1488.12" width="70.8184" height="70.8184" fill="#1B5083"/>
<path d="M16.3071 1850.8C735.369 1658.92 1134.88 1659.47 1840.81 1850.8V1940.72C1128.3 1742.34 728.816 1675.48 16.3071 1879.22V1850.8Z" fill="#1B5083"/>
<path d="M1018.94 207.796L1078.58 241.768V322.41L1018.94 283.994V207.796Z" fill="#1B5083"/>
<path d="M1121.45 265.569L1182.02 299.363V378.319L1121.45 341.368V265.569Z" fill="#1B5083"/>
<path d="M157.528 1970.02C158.637 1970.02 159.192 1970.66 159.192 1971.94V2062.95C159.192 2063.55 158.979 2064.06 158.552 2064.49C158.125 2064.83 157.528 2065 156.76 2065H143.832C143.149 2065 142.595 2064.91 142.168 2064.74C141.741 2064.57 141.229 2064.15 140.632 2063.46L99.8 2006.12C99.4587 2005.69 99.1173 2005.52 98.776 2005.61C98.52 2005.69 98.392 2005.95 98.392 2006.38V2062.7C98.4773 2064.23 97.624 2065 95.832 2065H82.52C80.8133 2065 79.96 2064.27 79.96 2062.82V1972.46C79.96 1970.83 80.728 1970.02 82.264 1970.02H97.752C98.6907 1970.02 99.3733 1970.15 99.8 1970.41C100.312 1970.66 100.867 1971.18 101.464 1971.94L139.096 2025.58C139.608 2026.26 140.035 2026.56 140.376 2026.47C140.803 2026.39 141.016 2025.96 141.016 2025.19V1972.33C141.016 1970.79 141.784 1970.02 143.32 1970.02H157.528ZM177.085 1972.46C177.085 1970.83 177.768 1970.02 179.133 1970.02H243.645C244.925 1970.02 245.565 1970.75 245.565 1972.2L245.437 1983.72C245.437 1985.51 244.541 1986.41 242.749 1986.41H201.917C200.296 1986.41 199.485 1987.09 199.485 1988.46V2007.02C199.485 2008.47 200.125 2009.19 201.405 2009.19H228.541C229.992 2009.19 230.717 2009.87 230.717 2011.24V2023.53C230.717 2024.04 230.546 2024.47 230.205 2024.81C229.949 2025.15 229.437 2025.32 228.669 2025.32H201.277C200.082 2025.32 199.485 2025.83 199.485 2026.86V2046.95C199.485 2048.06 199.954 2048.62 200.893 2048.62H244.669C246.205 2048.62 246.973 2049.26 246.973 2050.54V2062.7C246.973 2063.38 246.76 2063.93 246.333 2064.36C245.992 2064.79 245.352 2065 244.413 2065H179.901C178.024 2065 177.085 2064.1 177.085 2062.31V1972.46ZM383.203 1970.02C384.483 1970.02 385.379 1970.41 385.891 1971.18C386.403 1971.94 386.488 1972.88 386.147 1973.99L360.035 2062.31C359.438 2064.1 358.158 2065 356.195 2065H342.371C340.238 2065 338.915 2064.1 338.403 2062.31L322.275 2006.38C322.104 2005.61 321.848 2005.22 321.507 2005.22C321.251 2005.14 320.995 2005.61 320.739 2006.63L304.483 2062.31C303.971 2064.1 302.691 2065 300.643 2065H286.435C284.387 2065 283.064 2064.1 282.467 2062.31L256.355 1973.99C256.099 1972.88 256.227 1971.94 256.739 1971.18C257.251 1970.41 258.147 1970.02 259.427 1970.02H275.427C276.536 1970.02 277.304 1970.24 277.731 1970.66C278.243 1971.01 278.584 1971.52 278.755 1972.2L295.267 2030.44C295.523 2031.38 295.779 2031.85 296.035 2031.85C296.291 2031.85 296.547 2031.51 296.803 2030.82L313.315 1972.2C313.486 1971.52 313.784 1971.01 314.211 1970.66C314.723 1970.24 315.534 1970.02 316.643 1970.02H330.339C331.448 1970.02 332.216 1970.24 332.643 1970.66C333.155 1971.01 333.539 1971.52 333.795 1972.2L350.563 2031.34C350.734 2031.93 350.99 2032.27 351.331 2032.36C351.672 2032.36 351.886 2032.06 351.971 2031.46L368.227 1972.2C368.398 1971.52 368.739 1971.01 369.251 1970.66C369.763 1970.24 370.574 1970.02 371.683 1970.02H383.203ZM425.96 1972.46C425.96 1970.83 426.643 1970.02 428.008 1970.02H446.312C447.677 1970.02 448.36 1970.79 448.36 1972.33V2046.95C448.36 2048.06 448.829 2048.62 449.768 2048.62H490.6C492.136 2048.62 492.904 2049.26 492.904 2050.54V2062.7C492.904 2063.38 492.691 2063.93 492.264 2064.36C491.923 2064.79 491.325 2065 490.472 2065H428.776C427.667 2065 426.899 2064.79 426.472 2064.36C426.131 2063.93 425.96 2063.25 425.96 2062.31V1972.46ZM526.562 1970.02C527.927 1970.02 528.61 1970.79 528.61 1972.33V2061.93C528.61 2063.04 528.311 2063.85 527.714 2064.36C527.202 2064.79 526.349 2065 525.154 2065H509.026C507.917 2065 507.149 2064.79 506.722 2064.36C506.381 2063.93 506.21 2063.25 506.21 2062.31V1972.46C506.21 1970.83 506.893 1970.02 508.258 1970.02H526.562ZM546.585 1972.46C546.585 1970.83 547.268 1970.02 548.633 1970.02H612.121C613.401 1970.02 614.041 1970.75 614.041 1972.2L613.913 1983.72C613.913 1985.51 613.06 1986.41 611.353 1986.41H571.417C569.796 1986.41 568.985 1987.09 568.985 1988.46V2008.3C568.985 2009.66 569.625 2010.34 570.905 2010.34H598.681C600.046 2010.34 600.729 2011.03 600.729 2012.39V2024.55C600.729 2025.75 600.089 2026.34 598.809 2026.34H570.777C569.582 2026.34 568.985 2026.9 568.985 2028.01V2062.06C568.985 2064.02 567.876 2065 565.657 2065H549.401C548.292 2065 547.524 2064.79 547.097 2064.36C546.756 2063.93 546.585 2063.25 546.585 2062.31V1972.46ZM627.335 1972.46C627.335 1970.83 628.018 1970.02 629.383 1970.02H693.895C695.175 1970.02 695.815 1970.75 695.815 1972.2L695.687 1983.72C695.687 1985.51 694.791 1986.41 692.999 1986.41H652.167C650.546 1986.41 649.735 1987.09 649.735 1988.46V2007.02C649.735 2008.47 650.375 2009.19 651.655 2009.19H678.791C680.242 2009.19 680.967 2009.87 680.967 2011.24V2023.53C680.967 2024.04 680.796 2024.47 680.455 2024.81C680.199 2025.15 679.687 2025.32 678.919 2025.32H651.527C650.332 2025.32 649.735 2025.83 649.735 2026.86V2046.95C649.735 2048.06 650.204 2048.62 651.143 2048.62H694.919C696.455 2048.62 697.223 2049.26 697.223 2050.54V2062.7C697.223 2063.38 697.01 2063.93 696.583 2064.36C696.242 2064.79 695.602 2065 694.663 2065H630.151C628.274 2065 627.335 2064.1 627.335 2062.31V1972.46ZM815.156 1999.59C815.156 2005.91 813.663 2011.24 810.676 2015.59C807.689 2019.86 803.593 2023.1 798.388 2025.32C793.268 2027.54 787.295 2028.65 780.468 2028.65H761.268C760.329 2028.65 759.86 2029.12 759.86 2030.06V2062.06C759.86 2064.02 758.751 2065 756.532 2065H740.148C739.124 2065 738.399 2064.79 737.972 2064.36C737.631 2063.93 737.46 2063.29 737.46 2062.44V1972.46C737.46 1970.83 738.143 1970.02 739.508 1970.02H777.908C784.735 1970.02 790.964 1971.09 796.596 1973.22C802.313 1975.36 806.836 1978.6 810.164 1982.95C813.492 1987.3 815.156 1992.85 815.156 1999.59ZM792.116 1999.21C792.116 1996.22 791.476 1993.79 790.196 1991.91C788.916 1989.95 787.081 1988.5 784.692 1987.56C782.303 1986.62 779.572 1986.15 776.5 1986.15H762.292C760.671 1986.15 759.86 1986.88 759.86 1988.33V2010.22C759.86 2011.84 760.457 2012.65 761.652 2012.65H777.396C781.919 2012.65 785.503 2011.45 788.148 2009.06C790.793 2006.67 792.116 2003.39 792.116 1999.21ZM812.269 2065C811.501 2065 810.946 2064.66 810.605 2063.98C810.264 2063.29 810.264 2062.4 810.605 2061.29L842.477 1972.58C842.818 1971.65 843.202 1971.01 843.629 1970.66C844.056 1970.24 844.781 1970.02 845.805 1970.02H865.005C866.882 1970.02 868.162 1970.96 868.845 1972.84L900.461 2061.54C900.717 2062.23 900.717 2062.99 900.461 2063.85C900.205 2064.62 899.693 2065 898.925 2065H880.109C878.829 2065 878.018 2064.4 877.677 2063.21L871.021 2044.52C870.936 2044.09 870.765 2043.75 870.509 2043.5C870.338 2043.24 869.954 2043.11 869.357 2043.11H838.125C837.272 2043.11 836.717 2043.54 836.461 2044.39L829.677 2063.34C829.506 2063.85 829.208 2064.27 828.781 2064.62C828.44 2064.87 827.842 2065 826.989 2065H812.269ZM864.109 2026.09C865.304 2026.09 865.688 2025.36 865.261 2023.91L854.509 1993.96C854.253 1993.45 853.954 1993.19 853.613 1993.19C853.357 1993.19 853.101 1993.49 852.845 1994.09L841.965 2023.91C841.368 2025.36 841.752 2026.09 843.117 2026.09H864.109ZM934.187 1970.02C935.552 1970.02 936.235 1970.79 936.235 1972.33V2061.93C936.235 2063.04 935.936 2063.85 935.339 2064.36C934.827 2064.79 933.974 2065 932.779 2065H916.651C915.542 2065 914.774 2064.79 914.347 2064.36C914.006 2063.93 913.835 2063.25 913.835 2062.31V1972.46C913.835 1970.83 914.518 1970.02 915.883 1970.02H934.187ZM1031.78 1970.02C1032.89 1970.02 1033.44 1970.66 1033.44 1971.94V2062.95C1033.44 2063.55 1033.23 2064.06 1032.8 2064.49C1032.38 2064.83 1031.78 2065 1031.01 2065H1018.08C1017.4 2065 1016.84 2064.91 1016.42 2064.74C1015.99 2064.57 1015.48 2064.15 1014.88 2063.46L974.05 2006.12C973.709 2005.69 973.367 2005.52 973.026 2005.61C972.77 2005.69 972.642 2005.95 972.642 2006.38V2062.7C972.727 2064.23 971.874 2065 970.082 2065H956.77C955.063 2065 954.21 2064.27 954.21 2062.82V1972.46C954.21 1970.83 954.978 1970.02 956.514 1970.02H972.002C972.941 1970.02 973.623 1970.15 974.05 1970.41C974.562 1970.66 975.117 1971.18 975.714 1971.94L1013.35 2025.58C1013.86 2026.26 1014.28 2026.56 1014.63 2026.47C1015.05 2026.39 1015.27 2025.96 1015.27 2025.19V1972.33C1015.27 1970.79 1016.03 1970.02 1017.57 1970.02H1031.78ZM1046.6 1972.33C1046.6 1971.65 1046.81 1971.09 1047.24 1970.66C1047.67 1970.24 1048.31 1970.02 1049.16 1970.02H1122.63C1123.57 1970.02 1124.21 1970.24 1124.55 1970.66C1124.98 1971.09 1125.19 1971.65 1125.19 1972.33V1984.23C1125.19 1985.51 1124.42 1986.15 1122.89 1986.15H1098.95C1098.01 1986.15 1097.54 1986.58 1097.54 1987.43V2062.57C1097.54 2064.19 1096.82 2065 1095.37 2065H1077.06C1075.78 2065 1075.14 2064.27 1075.14 2062.82V1987.82C1075.14 1986.71 1074.67 1986.15 1073.74 1986.15H1049.03C1047.41 1986.15 1046.6 1985.51 1046.6 1984.23V1972.33ZM1158.81 1970.02C1160.18 1970.02 1160.86 1970.79 1160.86 1972.33V2061.93C1160.86 2063.04 1160.56 2063.85 1159.96 2064.36C1159.45 2064.79 1158.6 2065 1157.4 2065H1141.28C1140.17 2065 1139.4 2064.79 1138.97 2064.36C1138.63 2063.93 1138.46 2063.25 1138.46 2062.31V1972.46C1138.46 1970.83 1139.14 1970.02 1140.51 1970.02H1158.81ZM1256.4 1970.02C1257.51 1970.02 1258.07 1970.66 1258.07 1971.94V2062.95C1258.07 2063.55 1257.85 2064.06 1257.43 2064.49C1257 2064.83 1256.4 2065 1255.64 2065H1242.71C1242.02 2065 1241.47 2064.91 1241.04 2064.74C1240.62 2064.57 1240.1 2064.15 1239.51 2063.46L1198.68 2006.12C1198.33 2005.69 1197.99 2005.52 1197.65 2005.61C1197.4 2005.69 1197.27 2005.95 1197.27 2006.38V2062.7C1197.35 2064.23 1196.5 2065 1194.71 2065H1181.4C1179.69 2065 1178.84 2064.27 1178.84 2062.82V1972.46C1178.84 1970.83 1179.6 1970.02 1181.14 1970.02H1196.63C1197.57 1970.02 1198.25 1970.15 1198.68 1970.41C1199.19 1970.66 1199.74 1971.18 1200.34 1971.94L1237.97 2025.58C1238.48 2026.26 1238.91 2026.56 1239.25 2026.47C1239.68 2026.39 1239.89 2025.96 1239.89 2025.19V1972.33C1239.89 1970.79 1240.66 1970.02 1242.19 1970.02H1256.4ZM1315.38 2066.28C1306.77 2066.28 1299.21 2064.27 1292.73 2060.26C1286.33 2056.25 1281.38 2050.62 1277.88 2043.37C1274.38 2036.11 1272.63 2027.62 1272.63 2017.9C1272.63 2007.83 1274.47 1999.12 1278.14 1991.78C1281.81 1984.45 1286.93 1978.77 1293.5 1974.76C1300.15 1970.75 1307.87 1968.74 1316.66 1968.74C1323.58 1968.74 1329.76 1970.07 1335.22 1972.71C1340.69 1975.36 1345.08 1978.73 1348.41 1982.82C1351.82 1986.92 1353.95 1991.27 1354.81 1995.88C1355.15 1997.16 1355.19 1998.01 1354.94 1998.44C1354.77 1998.87 1354.25 1999.17 1353.4 1999.34L1336.5 2001.9C1335.74 2001.9 1335.22 2001.73 1334.97 2001.38C1334.8 2001.04 1334.63 2000.53 1334.46 1999.85C1333.94 1997.03 1332.88 1994.47 1331.26 1992.17C1329.72 1989.86 1327.67 1988.03 1325.11 1986.66C1322.64 1985.21 1319.65 1984.49 1316.15 1984.49C1311.97 1984.49 1308.34 1985.6 1305.27 1987.82C1302.29 1990.03 1299.98 1993.53 1298.36 1998.31C1296.82 2003.09 1296.06 2009.36 1296.06 2017.13C1296.06 2025.32 1296.87 2031.85 1298.49 2036.71C1300.19 2041.58 1302.58 2045.12 1305.66 2047.34C1308.81 2049.47 1312.57 2050.54 1316.92 2050.54C1319.65 2050.54 1322.04 2050.15 1324.09 2049.38C1326.22 2048.53 1328.01 2047.42 1329.46 2046.06C1331 2044.69 1332.24 2043.15 1333.18 2041.45C1334.11 2039.66 1334.8 2037.82 1335.22 2035.94L1335.48 2032.23C1335.82 2030.95 1335.39 2030.31 1334.2 2030.31H1318.71C1318.03 2030.31 1317.52 2030.18 1317.18 2029.93C1316.83 2029.59 1316.66 2028.99 1316.66 2028.14V2018.54C1316.66 2017.34 1317.35 2016.74 1318.71 2016.74L1352.89 2016.87C1354.17 2016.87 1355.11 2017.17 1355.7 2017.77C1356.3 2018.28 1356.6 2019.01 1356.6 2019.94V2063.08C1356.6 2063.68 1356.43 2064.15 1356.09 2064.49C1355.75 2064.83 1355.28 2065 1354.68 2065H1350.58C1349.9 2065 1349.3 2064.87 1348.79 2064.62C1348.28 2064.27 1347.77 2063.72 1347.26 2062.95L1343.54 2053.74C1343.46 2053.48 1343.29 2053.35 1343.03 2053.35C1342.86 2053.35 1342.61 2053.57 1342.26 2053.99C1340.73 2055.87 1338.81 2057.79 1336.5 2059.75C1334.2 2061.63 1331.34 2063.21 1327.93 2064.49C1324.51 2065.68 1320.33 2066.28 1315.38 2066.28ZM1398.59 1972.46C1398.59 1970.83 1399.27 1970.02 1400.63 1970.02H1418.94C1420.3 1970.02 1420.99 1970.79 1420.99 1972.33V2046.95C1420.99 2048.06 1421.45 2048.62 1422.39 2048.62H1463.23C1464.76 2048.62 1465.53 2049.26 1465.53 2050.54V2062.7C1465.53 2063.38 1465.32 2063.93 1464.89 2064.36C1464.55 2064.79 1463.95 2065 1463.1 2065H1401.4C1400.29 2065 1399.52 2064.79 1399.1 2064.36C1398.76 2063.93 1398.59 2063.25 1398.59 2062.31V1972.46ZM1478.84 1972.46C1478.84 1970.83 1479.52 1970.02 1480.88 1970.02H1499.19C1500.55 1970.02 1501.24 1970.79 1501.24 1972.33V2046.95C1501.24 2048.06 1501.7 2048.62 1502.64 2048.62H1543.48C1545.01 2048.62 1545.78 2049.26 1545.78 2050.54V2062.7C1545.78 2063.38 1545.57 2063.93 1545.14 2064.36C1544.8 2064.79 1544.2 2065 1543.35 2065H1481.65C1480.54 2065 1479.77 2064.79 1479.35 2064.36C1479.01 2063.93 1478.84 2063.25 1478.84 2062.31V1972.46ZM1590.9 1968.74C1595.85 1968.74 1600.45 1969.47 1604.72 1970.92C1609.07 1972.29 1612.95 1974.25 1616.37 1976.81C1619.78 1979.37 1622.55 1982.35 1624.69 1985.77C1626.91 1989.18 1628.36 1992.89 1629.04 1996.9C1629.38 1998.27 1629.42 1999.17 1629.17 1999.59C1629 2000.02 1628.53 2000.27 1627.76 2000.36L1610.48 2001.51C1609.71 2001.51 1609.2 2001.38 1608.94 2001.13C1608.77 2000.79 1608.6 2000.27 1608.43 1999.59C1607.49 1995.15 1605.66 1991.53 1602.93 1988.71C1600.2 1985.81 1596.4 1984.36 1591.54 1984.36C1585.14 1984.36 1580.1 1986.96 1576.43 1992.17C1572.85 1997.29 1571.06 2005.61 1571.06 2017.13C1571.06 2028.56 1572.76 2036.88 1576.18 2042.09C1579.67 2047.21 1584.88 2049.77 1591.79 2049.77C1596.74 2049.77 1601.01 2048.53 1604.59 2046.06C1608.18 2043.58 1611.12 2039.36 1613.42 2033.38C1613.77 2032.62 1614.7 2032.36 1616.24 2032.62L1628.78 2035.3C1629.21 2035.39 1629.59 2035.65 1629.94 2036.07C1630.28 2036.41 1630.36 2037.22 1630.19 2038.5C1629.77 2040.3 1628.91 2042.39 1627.63 2044.78C1626.44 2047.17 1624.82 2049.64 1622.77 2052.2C1620.72 2054.67 1618.16 2056.98 1615.09 2059.11C1612.1 2061.25 1608.6 2062.99 1604.59 2064.36C1600.58 2065.64 1596.02 2066.28 1590.9 2066.28C1582.11 2066.28 1574.43 2064.19 1567.86 2060.01C1561.37 2055.83 1556.38 2050.02 1552.88 2042.6C1549.38 2035.18 1547.63 2026.56 1547.63 2016.74C1547.63 2006.85 1549.38 1998.35 1552.88 1991.27C1556.38 1984.1 1561.37 1978.56 1567.86 1974.63C1574.34 1970.71 1582.02 1968.74 1590.9 1968.74Z" fill="black"/>
<path d="M226.496 2131.77C227.456 2131.77 228.128 2132.06 228.512 2132.63C228.896 2133.21 228.96 2133.91 228.704 2134.74L209.12 2200.98C208.672 2202.33 207.712 2203 206.24 2203H195.872C194.272 2203 193.28 2202.33 192.896 2200.98L180.8 2159.03C180.672 2158.46 180.48 2158.17 180.224 2158.17C180.032 2158.1 179.84 2158.46 179.648 2159.22L167.456 2200.98C167.072 2202.33 166.112 2203 164.576 2203H153.92C152.384 2203 151.392 2202.33 150.944 2200.98L131.36 2134.74C131.168 2133.91 131.264 2133.21 131.648 2132.63C132.032 2132.06 132.704 2131.77 133.664 2131.77H145.664C146.496 2131.77 147.072 2131.93 147.392 2132.25C147.776 2132.5 148.032 2132.89 148.16 2133.4L160.544 2177.08C160.736 2177.78 160.928 2178.14 161.12 2178.14C161.312 2178.14 161.504 2177.88 161.696 2177.37L174.08 2133.4C174.208 2132.89 174.432 2132.5 174.752 2132.25C175.136 2131.93 175.744 2131.77 176.576 2131.77H186.848C187.68 2131.77 188.256 2131.93 188.576 2132.25C188.96 2132.5 189.248 2132.89 189.44 2133.4L202.016 2177.75C202.144 2178.2 202.336 2178.46 202.592 2178.52C202.848 2178.52 203.008 2178.3 203.072 2177.85L215.264 2133.4C215.392 2132.89 215.648 2132.5 216.032 2132.25C216.416 2131.93 217.024 2131.77 217.856 2131.77H226.496ZM243.178 2181.88C243.178 2184.25 243.722 2186.36 244.81 2188.22C245.962 2190.01 247.466 2191.42 249.322 2192.44C251.242 2193.4 253.386 2193.88 255.754 2193.88C258.058 2193.88 260.17 2193.4 262.09 2192.44C264.074 2191.42 266.058 2189.75 268.042 2187.45C268.298 2187.19 268.522 2187.06 268.714 2187.06C268.906 2187 269.258 2187.1 269.77 2187.35L276.682 2190.23C277.578 2190.62 277.674 2191.26 276.97 2192.15C274.922 2195.1 272.778 2197.43 270.538 2199.16C268.298 2200.89 265.802 2202.14 263.05 2202.9C260.362 2203.61 257.322 2203.96 253.93 2203.96C248.938 2203.96 244.49 2202.87 240.586 2200.7C236.682 2198.52 233.578 2195.51 231.273 2191.67C229.034 2187.77 227.914 2183.32 227.914 2178.33C227.914 2172.82 229.066 2168.06 231.37 2164.02C233.738 2159.93 236.874 2156.76 240.778 2154.52C244.682 2152.28 248.97 2151.16 253.642 2151.16C258.57 2151.16 262.89 2152.25 266.602 2154.42C270.314 2156.54 273.226 2159.58 275.338 2163.54C277.514 2167.51 278.602 2172.34 278.602 2178.04C278.602 2178.74 278.538 2179.29 278.41 2179.67C278.282 2180.06 277.802 2180.28 276.97 2180.34H244.33C243.946 2180.34 243.658 2180.47 243.466 2180.73C243.274 2180.98 243.178 2181.37 243.178 2181.88ZM262.474 2172.28C263.178 2172.28 263.626 2172.22 263.818 2172.09C264.01 2171.9 264.106 2171.51 264.106 2170.94C264.106 2169.34 263.722 2167.7 262.954 2166.04C262.25 2164.38 261.162 2163 259.69 2161.91C258.282 2160.76 256.458 2160.18 254.218 2160.18C252.106 2160.18 250.218 2160.7 248.554 2161.72C246.89 2162.74 245.61 2164.18 244.714 2166.04C243.818 2167.83 243.37 2169.88 243.37 2172.18L262.474 2172.28ZM337.257 2203.96C330.793 2203.96 325.129 2202.46 320.265 2199.45C315.465 2196.44 311.753 2192.22 309.129 2186.78C306.505 2181.34 305.193 2174.97 305.193 2167.67C305.193 2160.12 306.569 2153.59 309.321 2148.09C312.073 2142.58 315.913 2138.33 320.841 2135.32C325.833 2132.31 331.625 2130.81 338.217 2130.81C343.401 2130.81 348.041 2131.8 352.137 2133.78C356.233 2135.77 359.529 2138.3 362.025 2141.37C364.585 2144.44 366.185 2147.7 366.825 2151.16C367.081 2152.12 367.113 2152.76 366.921 2153.08C366.793 2153.4 366.409 2153.62 365.769 2153.75L353.097 2155.67C352.521 2155.67 352.137 2155.54 351.945 2155.29C351.817 2155.03 351.689 2154.65 351.561 2154.14C351.177 2152.02 350.377 2150.1 349.161 2148.38C348.009 2146.65 346.473 2145.27 344.553 2144.25C342.697 2143.16 340.457 2142.62 337.833 2142.62C334.697 2142.62 331.977 2143.45 329.673 2145.11C327.433 2146.78 325.705 2149.4 324.489 2152.98C323.337 2156.57 322.761 2161.27 322.761 2167.1C322.761 2173.24 323.369 2178.14 324.585 2181.78C325.865 2185.43 327.657 2188.09 329.961 2189.75C332.329 2191.35 335.145 2192.15 338.409 2192.15C340.457 2192.15 342.249 2191.86 343.785 2191.29C345.385 2190.65 346.729 2189.82 347.817 2188.79C348.969 2187.77 349.897 2186.62 350.601 2185.34C351.305 2183.99 351.817 2182.62 352.137 2181.21L352.329 2178.42C352.585 2177.46 352.265 2176.98 351.369 2176.98H339.753C339.241 2176.98 338.857 2176.89 338.601 2176.7C338.345 2176.44 338.217 2175.99 338.217 2175.35V2168.15C338.217 2167.26 338.729 2166.81 339.753 2166.81L365.385 2166.9C366.345 2166.9 367.049 2167.13 367.497 2167.58C367.945 2167.96 368.169 2168.5 368.169 2169.21V2201.56C368.169 2202.01 368.041 2202.36 367.785 2202.62C367.529 2202.87 367.177 2203 366.729 2203H363.657C363.145 2203 362.697 2202.9 362.313 2202.71C361.929 2202.46 361.545 2202.04 361.161 2201.46L358.377 2194.55C358.313 2194.36 358.185 2194.26 357.993 2194.26C357.865 2194.26 357.673 2194.42 357.417 2194.74C356.265 2196.15 354.825 2197.59 353.097 2199.06C351.369 2200.47 349.225 2201.66 346.665 2202.62C344.105 2203.51 340.969 2203.96 337.257 2203.96ZM393.22 2200.7C393.22 2201.53 393.028 2202.14 392.644 2202.52C392.26 2202.84 391.588 2203 390.628 2203H380.548C379.716 2203 379.14 2202.84 378.82 2202.52C378.564 2202.2 378.436 2201.69 378.436 2200.98V2153.94C378.436 2152.73 378.948 2152.12 379.972 2152.12H391.78C392.74 2152.12 393.22 2152.66 393.22 2153.75V2200.7ZM393.412 2143.58C393.412 2145.18 392.548 2145.98 390.82 2145.98H380.452C379.62 2145.98 379.044 2145.78 378.724 2145.4C378.468 2145.02 378.34 2144.47 378.34 2143.77V2133.69C378.34 2132.41 378.884 2131.77 379.972 2131.77H391.876C392.9 2131.77 393.412 2132.38 393.412 2133.59V2143.58ZM450.211 2152.12C450.851 2152.12 451.267 2152.34 451.458 2152.79C451.715 2153.24 451.747 2153.75 451.555 2154.33L432.547 2200.98C431.971 2202.33 430.947 2203 429.475 2203H422.659C421.123 2203 420.099 2202.33 419.587 2200.98L400.675 2154.42C400.419 2153.78 400.419 2153.24 400.675 2152.79C400.995 2152.34 401.475 2152.12 402.115 2152.12H414.307C414.819 2152.12 415.267 2152.28 415.651 2152.6C416.035 2152.86 416.291 2153.24 416.419 2153.75L427.459 2182.07C427.907 2183.29 428.419 2183.26 428.995 2181.98L439.843 2153.66C440.035 2153.21 440.291 2152.86 440.611 2152.6C440.995 2152.28 441.443 2152.12 441.955 2152.12H450.211ZM468.553 2181.88C468.553 2184.25 469.097 2186.36 470.185 2188.22C471.337 2190.01 472.841 2191.42 474.697 2192.44C476.617 2193.4 478.761 2193.88 481.129 2193.88C483.433 2193.88 485.545 2193.4 487.465 2192.44C489.449 2191.42 491.433 2189.75 493.417 2187.45C493.673 2187.19 493.897 2187.06 494.089 2187.06C494.281 2187 494.633 2187.1 495.145 2187.35L502.057 2190.23C502.953 2190.62 503.049 2191.26 502.345 2192.15C500.297 2195.1 498.153 2197.43 495.913 2199.16C493.673 2200.89 491.177 2202.14 488.425 2202.9C485.737 2203.61 482.697 2203.96 479.305 2203.96C474.313 2203.96 469.865 2202.87 465.961 2200.7C462.057 2198.52 458.953 2195.51 456.648 2191.67C454.409 2187.77 453.289 2183.32 453.289 2178.33C453.289 2172.82 454.441 2168.06 456.745 2164.02C459.113 2159.93 462.249 2156.76 466.153 2154.52C470.057 2152.28 474.345 2151.16 479.017 2151.16C483.945 2151.16 488.265 2152.25 491.977 2154.42C495.689 2156.54 498.601 2159.58 500.713 2163.54C502.889 2167.51 503.977 2172.34 503.977 2178.04C503.977 2178.74 503.913 2179.29 503.785 2179.67C503.657 2180.06 503.177 2180.28 502.345 2180.34H469.705C469.321 2180.34 469.033 2180.47 468.841 2180.73C468.649 2180.98 468.553 2181.37 468.553 2181.88ZM487.849 2172.28C488.553 2172.28 489.001 2172.22 489.193 2172.09C489.385 2171.9 489.481 2171.51 489.481 2170.94C489.481 2169.34 489.097 2167.7 488.329 2166.04C487.625 2164.38 486.537 2163 485.065 2161.91C483.657 2160.76 481.833 2160.18 479.593 2160.18C477.481 2160.18 475.593 2160.7 473.929 2161.72C472.265 2162.74 470.985 2164.18 470.089 2166.04C469.193 2167.83 468.745 2169.88 468.745 2172.18L487.849 2172.28ZM591.24 2131.77C592.072 2131.77 592.488 2132.25 592.488 2133.21V2201.46C592.488 2201.91 592.328 2202.3 592.008 2202.62C591.688 2202.87 591.24 2203 590.664 2203H580.968C580.456 2203 580.04 2202.94 579.72 2202.81C579.4 2202.68 579.016 2202.36 578.568 2201.85L547.944 2158.84C547.688 2158.52 547.432 2158.39 547.176 2158.46C546.984 2158.52 546.888 2158.71 546.888 2159.03V2201.27C546.952 2202.42 546.312 2203 544.968 2203H534.984C533.704 2203 533.064 2202.46 533.064 2201.37V2133.59C533.064 2132.38 533.64 2131.77 534.792 2131.77H546.408C547.112 2131.77 547.624 2131.86 547.944 2132.06C548.328 2132.25 548.744 2132.63 549.192 2133.21L577.416 2173.43C577.8 2173.94 578.12 2174.17 578.376 2174.1C578.696 2174.04 578.856 2173.72 578.856 2173.14V2133.5C578.856 2132.34 579.432 2131.77 580.584 2131.77H591.24ZM617.428 2181.88C617.428 2184.25 617.972 2186.36 619.06 2188.22C620.212 2190.01 621.716 2191.42 623.572 2192.44C625.492 2193.4 627.636 2193.88 630.004 2193.88C632.308 2193.88 634.42 2193.4 636.34 2192.44C638.324 2191.42 640.308 2189.75 642.292 2187.45C642.548 2187.19 642.772 2187.06 642.964 2187.06C643.156 2187 643.508 2187.1 644.02 2187.35L650.932 2190.23C651.828 2190.62 651.924 2191.26 651.22 2192.15C649.172 2195.1 647.028 2197.43 644.788 2199.16C642.548 2200.89 640.052 2202.14 637.3 2202.9C634.612 2203.61 631.572 2203.96 628.18 2203.96C623.188 2203.96 618.74 2202.87 614.836 2200.7C610.932 2198.52 607.828 2195.51 605.523 2191.67C603.284 2187.77 602.164 2183.32 602.164 2178.33C602.164 2172.82 603.316 2168.06 605.62 2164.02C607.988 2159.93 611.124 2156.76 615.028 2154.52C618.932 2152.28 623.22 2151.16 627.892 2151.16C632.82 2151.16 637.14 2152.25 640.852 2154.42C644.564 2156.54 647.476 2159.58 649.588 2163.54C651.764 2167.51 652.852 2172.34 652.852 2178.04C652.852 2178.74 652.788 2179.29 652.66 2179.67C652.532 2180.06 652.052 2180.28 651.22 2180.34H618.58C618.196 2180.34 617.908 2180.47 617.716 2180.73C617.524 2180.98 617.428 2181.37 617.428 2181.88ZM636.724 2172.28C637.428 2172.28 637.876 2172.22 638.068 2172.09C638.26 2171.9 638.356 2171.51 638.356 2170.94C638.356 2169.34 637.972 2167.7 637.204 2166.04C636.5 2164.38 635.412 2163 633.94 2161.91C632.532 2160.76 630.708 2160.18 628.468 2160.18C626.356 2160.18 624.468 2160.7 622.804 2161.72C621.14 2162.74 619.86 2164.18 618.964 2166.04C618.068 2167.83 617.62 2169.88 617.62 2172.18L636.724 2172.28ZM728.82 2152.12C729.46 2152.12 729.908 2152.34 730.164 2152.79C730.42 2153.24 730.42 2153.75 730.164 2154.33L714.516 2201.46C714.324 2202.04 714.068 2202.46 713.748 2202.71C713.492 2202.9 713.076 2203 712.5 2203H704.628C703.348 2203 702.516 2202.39 702.132 2201.18L693.876 2174.78C693.62 2174.14 693.364 2173.82 693.108 2173.82C692.852 2173.82 692.66 2174.14 692.532 2174.78L684.084 2201.46C683.956 2202.04 683.732 2202.46 683.412 2202.71C683.156 2202.9 682.708 2203 682.068 2203H673.908C672.692 2203 671.892 2202.39 671.508 2201.18L656.052 2154.42C655.86 2153.78 655.892 2153.24 656.148 2152.79C656.468 2152.34 656.948 2152.12 657.588 2152.12H668.82C669.268 2152.12 669.684 2152.28 670.068 2152.6C670.516 2152.86 670.804 2153.24 670.932 2153.75L679.476 2180.92C679.604 2181.5 679.796 2181.78 680.052 2181.78C680.372 2181.78 680.628 2181.46 680.82 2180.82L689.076 2153.66C689.204 2153.21 689.46 2152.86 689.844 2152.6C690.228 2152.28 690.676 2152.12 691.188 2152.12H699.252C699.7 2152.12 700.116 2152.28 700.5 2152.6C700.948 2152.86 701.204 2153.24 701.268 2153.75L709.62 2180.92C709.812 2181.5 710.036 2181.78 710.292 2181.78C710.548 2181.78 710.804 2181.46 711.06 2180.82L719.316 2153.66C719.572 2153.21 719.86 2152.86 720.18 2152.6C720.564 2152.28 721.012 2152.12 721.524 2152.12H728.82ZM758.908 2133.59C758.908 2132.38 759.42 2131.77 760.444 2131.77H774.172C775.196 2131.77 775.708 2132.34 775.708 2133.5V2189.46C775.708 2190.3 776.06 2190.71 776.764 2190.71H807.388C808.54 2190.71 809.116 2191.19 809.116 2192.15V2201.27C809.116 2201.78 808.956 2202.2 808.635 2202.52C808.38 2202.84 807.932 2203 807.292 2203H761.02C760.188 2203 759.612 2202.84 759.292 2202.52C759.036 2202.2 758.908 2201.69 758.908 2200.98V2133.59ZM832.439 2200.7C832.439 2201.53 832.247 2202.14 831.863 2202.52C831.479 2202.84 830.807 2203 829.847 2203H819.767C818.935 2203 818.359 2202.84 818.039 2202.52C817.783 2202.2 817.655 2201.69 817.655 2200.98V2153.94C817.655 2152.73 818.167 2152.12 819.191 2152.12H830.999C831.959 2152.12 832.439 2152.66 832.439 2153.75V2200.7ZM832.631 2143.58C832.631 2145.18 831.767 2145.98 830.039 2145.98H819.671C818.839 2145.98 818.263 2145.78 817.943 2145.4C817.687 2145.02 817.559 2144.47 817.559 2143.77V2133.69C817.559 2132.41 818.103 2131.77 819.191 2131.77H831.095C832.119 2131.77 832.631 2132.38 832.631 2133.59V2143.58ZM872.629 2152.12C873.269 2152.12 873.717 2152.28 873.973 2152.6C874.293 2152.92 874.453 2153.3 874.453 2153.75V2160.86C874.453 2161.82 873.909 2162.3 872.821 2162.3H864.853C864.213 2162.3 863.893 2162.65 863.893 2163.35V2201.18C863.893 2202.39 863.381 2203 862.357 2203H850.549C849.589 2203 849.109 2202.46 849.109 2201.37V2163.16C849.109 2162.58 848.853 2162.3 848.341 2162.3H841.429C840.277 2162.3 839.701 2161.82 839.701 2160.86V2153.75C839.701 2153.3 839.829 2152.92 840.085 2152.6C840.405 2152.28 840.885 2152.12 841.525 2152.12H847.957C848.725 2152.12 849.109 2151.64 849.109 2150.68V2144.82C849.109 2140.73 850.325 2137.53 852.757 2135.22C855.189 2132.92 858.613 2131.77 863.029 2131.77H872.725C874.133 2131.77 874.837 2132.44 874.837 2133.78L874.933 2140.02C874.933 2140.47 874.805 2140.86 874.549 2141.18C874.357 2141.5 874.005 2141.66 873.493 2141.66H868.309C866.901 2141.66 865.749 2142.2 864.853 2143.29C863.957 2144.31 863.509 2145.66 863.509 2147.32V2151.06C863.509 2151.77 863.893 2152.12 864.661 2152.12H872.629ZM892.771 2181.88C892.771 2184.25 893.315 2186.36 894.403 2188.22C895.555 2190.01 897.059 2191.42 898.915 2192.44C900.835 2193.4 902.979 2193.88 905.347 2193.88C907.651 2193.88 909.763 2193.4 911.683 2192.44C913.667 2191.42 915.651 2189.75 917.635 2187.45C917.891 2187.19 918.115 2187.06 918.307 2187.06C918.499 2187 918.851 2187.1 919.363 2187.35L926.275 2190.23C927.171 2190.62 927.267 2191.26 926.563 2192.15C924.515 2195.1 922.371 2197.43 920.131 2199.16C917.891 2200.89 915.395 2202.14 912.643 2202.9C909.955 2203.61 906.915 2203.96 903.523 2203.96C898.531 2203.96 894.083 2202.87 890.179 2200.7C886.275 2198.52 883.171 2195.51 880.867 2191.67C878.627 2187.77 877.507 2183.32 877.507 2178.33C877.507 2172.82 878.659 2168.06 880.963 2164.02C883.331 2159.93 886.467 2156.76 890.371 2154.52C894.275 2152.28 898.563 2151.16 903.235 2151.16C908.163 2151.16 912.483 2152.25 916.195 2154.42C919.907 2156.54 922.819 2159.58 924.931 2163.54C927.107 2167.51 928.195 2172.34 928.195 2178.04C928.195 2178.74 928.131 2179.29 928.003 2179.67C927.875 2180.06 927.395 2180.28 926.563 2180.34H893.923C893.539 2180.34 893.251 2180.47 893.059 2180.73C892.867 2180.98 892.771 2181.37 892.771 2181.88ZM912.067 2172.28C912.771 2172.28 913.219 2172.22 913.411 2172.09C913.603 2171.9 913.699 2171.51 913.699 2170.94C913.699 2169.34 913.315 2167.7 912.547 2166.04C911.843 2164.38 910.755 2163 909.283 2161.91C907.875 2160.76 906.051 2160.18 903.811 2160.18C901.699 2160.18 899.811 2160.7 898.147 2161.72C896.483 2162.74 895.203 2164.18 894.307 2166.04C893.411 2167.83 892.963 2169.88 892.963 2172.18L912.067 2172.28ZM953.73 2133.5C953.73 2132.98 953.891 2132.57 954.211 2132.25C954.531 2131.93 955.011 2131.77 955.651 2131.77H1010.75C1011.46 2131.77 1011.94 2131.93 1012.19 2132.25C1012.51 2132.57 1012.67 2132.98 1012.67 2133.5V2142.42C1012.67 2143.38 1012.1 2143.86 1010.95 2143.86H992.995C992.291 2143.86 991.939 2144.18 991.939 2144.82V2201.18C991.939 2202.39 991.395 2203 990.307 2203H976.579C975.619 2203 975.139 2202.46 975.139 2201.37V2145.11C975.139 2144.28 974.787 2143.86 974.083 2143.86H955.555C954.339 2143.86 953.73 2143.38 953.73 2142.42V2133.5ZM1033.64 2203.96C1028.59 2203.96 1024.11 2202.84 1020.2 2200.6C1016.36 2198.36 1013.35 2195.29 1011.18 2191.38C1009 2187.42 1007.91 2182.9 1007.91 2177.85C1007.91 2172.54 1009.03 2167.9 1011.27 2163.93C1013.51 2159.9 1016.59 2156.76 1020.49 2154.52C1024.39 2152.28 1028.81 2151.16 1033.74 2151.16C1038.92 2151.16 1043.43 2152.31 1047.27 2154.62C1051.11 2156.86 1054.09 2159.99 1056.2 2164.02C1058.38 2167.99 1059.47 2172.57 1059.47 2177.75C1059.47 2182.87 1058.38 2187.42 1056.2 2191.38C1054.03 2195.29 1050.99 2198.36 1047.08 2200.6C1043.24 2202.84 1038.76 2203.96 1033.64 2203.96ZM1033.74 2194.17C1036.11 2194.17 1038.09 2193.56 1039.69 2192.34C1041.29 2191.06 1042.47 2189.18 1043.24 2186.68C1044.07 2184.18 1044.49 2181.14 1044.49 2177.56C1044.49 2173.78 1044.07 2170.68 1043.24 2168.25C1042.47 2165.75 1041.29 2163.86 1039.69 2162.58C1038.09 2161.3 1036.11 2160.66 1033.74 2160.66C1031.43 2160.66 1029.45 2161.3 1027.79 2162.58C1026.19 2163.86 1024.97 2165.75 1024.14 2168.25C1023.31 2170.68 1022.89 2173.78 1022.89 2177.56C1022.89 2181.21 1023.31 2184.28 1024.14 2186.78C1024.97 2189.21 1026.19 2191.06 1027.79 2192.34C1029.45 2193.56 1031.43 2194.17 1033.74 2194.17ZM1148.43 2131.77C1149.07 2131.77 1149.48 2131.96 1149.68 2132.34C1149.87 2132.66 1149.8 2133.11 1149.48 2133.69L1126.92 2170.65C1126.54 2171.22 1126.32 2171.83 1126.25 2172.47C1126.19 2173.05 1126.16 2174.14 1126.16 2175.74V2200.7C1126.16 2202.23 1125.26 2203 1123.47 2203H1111.47C1110.64 2203 1110.06 2202.84 1109.74 2202.52C1109.48 2202.2 1109.36 2201.69 1109.36 2200.98V2175.16C1109.36 2174.26 1109.26 2173.59 1109.07 2173.14C1108.88 2172.7 1108.59 2172.18 1108.2 2171.61L1085.45 2133.98C1085.07 2133.34 1085 2132.82 1085.26 2132.44C1085.52 2131.99 1086.06 2131.77 1086.89 2131.77H1101.29C1102.12 2131.77 1102.7 2131.9 1103.02 2132.15C1103.34 2132.41 1103.69 2132.86 1104.08 2133.5L1118.28 2158.46C1118.67 2159.1 1118.99 2159.45 1119.24 2159.51C1119.5 2159.51 1119.79 2159.22 1120.11 2158.65L1134.12 2133.5C1134.51 2132.79 1134.86 2132.34 1135.18 2132.15C1135.56 2131.9 1136.14 2131.77 1136.91 2131.77H1148.43ZM1170.52 2203.96C1165.46 2203.96 1160.98 2202.84 1157.08 2200.6C1153.24 2198.36 1150.23 2195.29 1148.05 2191.38C1145.88 2187.42 1144.79 2182.9 1144.79 2177.85C1144.79 2172.54 1145.91 2167.9 1148.15 2163.93C1150.39 2159.9 1153.46 2156.76 1157.36 2154.52C1161.27 2152.28 1165.68 2151.16 1170.61 2151.16C1175.8 2151.16 1180.31 2152.31 1184.15 2154.62C1187.99 2156.86 1190.96 2159.99 1193.08 2164.02C1195.25 2167.99 1196.34 2172.57 1196.34 2177.75C1196.34 2182.87 1195.25 2187.42 1193.08 2191.38C1190.9 2195.29 1187.86 2198.36 1183.96 2200.6C1180.12 2202.84 1175.64 2203.96 1170.52 2203.96ZM1170.61 2194.17C1172.98 2194.17 1174.96 2193.56 1176.56 2192.34C1178.16 2191.06 1179.35 2189.18 1180.12 2186.68C1180.95 2184.18 1181.36 2181.14 1181.36 2177.56C1181.36 2173.78 1180.95 2170.68 1180.12 2168.25C1179.35 2165.75 1178.16 2163.86 1176.56 2162.58C1174.96 2161.3 1172.98 2160.66 1170.61 2160.66C1168.31 2160.66 1166.32 2161.3 1164.66 2162.58C1163.06 2163.86 1161.84 2165.75 1161.01 2168.25C1160.18 2170.68 1159.76 2173.78 1159.76 2177.56C1159.76 2181.21 1160.18 2184.28 1161.01 2186.78C1161.84 2189.21 1163.06 2191.06 1164.66 2192.34C1166.32 2193.56 1168.31 2194.17 1170.61 2194.17ZM1225.59 2193.3C1227.57 2193.3 1229.43 2192.79 1231.15 2191.77C1232.95 2190.68 1234.58 2189.3 1236.05 2187.64V2154.33C1236.05 2152.86 1236.88 2152.12 1238.55 2152.12H1248.91C1250.26 2152.12 1250.93 2152.79 1250.93 2154.14L1250.74 2201.27C1250.74 2202.42 1250.23 2203 1249.2 2203H1237.78C1236.82 2203 1236.34 2202.46 1236.34 2201.37V2196.66C1236.34 2196.28 1236.24 2196.06 1236.05 2195.99C1235.86 2195.86 1235.6 2195.96 1235.28 2196.28C1232.59 2199.03 1229.91 2201.02 1227.22 2202.23C1224.59 2203.38 1221.78 2203.96 1218.77 2203.96C1215.95 2203.96 1213.43 2203.35 1211.19 2202.14C1209.01 2200.92 1207.28 2199.16 1206 2196.86C1204.72 2194.49 1204.08 2191.7 1204.08 2188.5V2154.42C1204.08 2152.89 1204.85 2152.12 1206.39 2152.12H1217.04C1218.26 2152.12 1218.87 2152.79 1218.87 2154.14V2186.39C1218.87 2188.5 1219.44 2190.2 1220.59 2191.48C1221.81 2192.7 1223.47 2193.3 1225.59 2193.3ZM1263.39 2203C1262.69 2203 1262.17 2202.84 1261.85 2202.52C1261.53 2202.2 1261.37 2201.72 1261.37 2201.08V2153.94C1261.37 2152.73 1261.89 2152.12 1262.91 2152.12H1274.14C1275.17 2152.12 1275.68 2152.66 1275.68 2153.75V2159.42C1275.68 2159.8 1275.81 2160.06 1276.06 2160.18C1276.38 2160.25 1276.7 2160.09 1277.02 2159.7C1278.3 2157.98 1279.74 2156.47 1281.34 2155.19C1283.01 2153.91 1284.7 2152.92 1286.43 2152.22C1288.16 2151.51 1289.79 2151.16 1291.33 2151.16C1293.63 2151.16 1294.78 2151.7 1294.78 2152.79V2163.93C1294.78 2164.95 1294.3 2165.37 1293.34 2165.18C1292.19 2164.86 1291.01 2164.66 1289.79 2164.6C1288.57 2164.47 1287.52 2164.41 1286.62 2164.41C1285.47 2164.41 1284.25 2164.63 1282.97 2165.08C1281.76 2165.53 1280.64 2166.17 1279.61 2167C1278.59 2167.83 1277.76 2168.73 1277.12 2169.69C1276.48 2170.65 1276.16 2171.67 1276.16 2172.76V2200.79C1276.16 2202.26 1275.33 2203 1273.66 2203H1263.39ZM1341.52 2172.57C1340.69 2172.57 1340.27 2172.98 1340.27 2173.82V2200.79C1340.27 2202.26 1339.41 2203 1337.68 2203H1325.58C1324.75 2203 1324.17 2202.84 1323.85 2202.52C1323.6 2202.2 1323.47 2201.69 1323.47 2200.98V2133.59C1323.47 2132.38 1323.98 2131.77 1325.01 2131.77H1338.73C1339.76 2131.77 1340.27 2132.34 1340.27 2133.5V2158.07C1340.27 2159.16 1340.75 2159.7 1341.71 2159.7H1363.89C1364.91 2159.7 1365.42 2159.19 1365.42 2158.17V2133.5C1365.42 2132.34 1365.9 2131.77 1366.86 2131.77H1380.59C1381.68 2131.77 1382.22 2132.38 1382.22 2133.59V2200.98C1382.22 2201.69 1382.06 2202.2 1381.74 2202.52C1381.49 2202.84 1380.94 2203 1380.11 2203H1367.92C1366.25 2203 1365.42 2202.26 1365.42 2200.79V2173.82C1365.42 2172.98 1364.97 2172.57 1364.08 2172.57H1341.52ZM1417.55 2203.96C1412.49 2203.96 1408.01 2202.84 1404.11 2200.6C1400.27 2198.36 1397.26 2195.29 1395.08 2191.38C1392.91 2187.42 1391.82 2182.9 1391.82 2177.85C1391.82 2172.54 1392.94 2167.9 1395.18 2163.93C1397.42 2159.9 1400.49 2156.76 1404.4 2154.52C1408.3 2152.28 1412.72 2151.16 1417.64 2151.16C1422.83 2151.16 1427.34 2152.31 1431.18 2154.62C1435.02 2156.86 1438 2159.99 1440.11 2164.02C1442.28 2167.99 1443.37 2172.57 1443.37 2177.75C1443.37 2182.87 1442.28 2187.42 1440.11 2191.38C1437.93 2195.29 1434.89 2198.36 1430.99 2200.6C1427.15 2202.84 1422.67 2203.96 1417.55 2203.96ZM1417.64 2194.17C1420.01 2194.17 1422 2193.56 1423.6 2192.34C1425.2 2191.06 1426.38 2189.18 1427.15 2186.68C1427.98 2184.18 1428.4 2181.14 1428.4 2177.56C1428.4 2173.78 1427.98 2170.68 1427.15 2168.25C1426.38 2165.75 1425.2 2163.86 1423.6 2162.58C1422 2161.3 1420.01 2160.66 1417.64 2160.66C1415.34 2160.66 1413.36 2161.3 1411.69 2162.58C1410.09 2163.86 1408.88 2165.75 1408.04 2168.25C1407.21 2170.68 1406.8 2173.78 1406.8 2177.56C1406.8 2181.21 1407.21 2184.28 1408.04 2186.78C1408.88 2189.21 1410.09 2191.06 1411.69 2192.34C1413.36 2193.56 1415.34 2194.17 1417.64 2194.17ZM1453.61 2203C1452.26 2203 1451.59 2202.36 1451.59 2201.08V2153.94C1451.59 2152.73 1452.1 2152.12 1453.13 2152.12H1464.65C1465.61 2152.12 1466.09 2152.66 1466.09 2153.75V2158.46C1466.09 2158.84 1466.18 2159.1 1466.38 2159.22C1466.63 2159.35 1466.92 2159.22 1467.24 2158.84C1468.9 2157.3 1470.57 2155.96 1472.23 2154.81C1473.9 2153.66 1475.66 2152.76 1477.51 2152.12C1479.37 2151.42 1481.29 2151.06 1483.27 2151.06C1486.73 2151.06 1489.61 2151.9 1491.91 2153.56C1494.28 2155.16 1495.94 2157.3 1496.9 2159.99C1497.03 2160.25 1497.19 2160.38 1497.38 2160.38C1497.64 2160.31 1497.9 2160.15 1498.15 2159.9C1499.69 2158.23 1501.35 2156.76 1503.14 2155.48C1505 2154.14 1506.95 2153.08 1509 2152.31C1511.05 2151.54 1513.06 2151.16 1515.05 2151.16C1519.53 2151.16 1523.08 2152.54 1525.7 2155.29C1528.39 2158.04 1529.74 2161.82 1529.74 2166.62V2200.7C1529.74 2202.23 1528.97 2203 1527.43 2203H1516.78C1516.14 2203 1515.66 2202.87 1515.34 2202.62C1515.08 2202.3 1514.95 2201.78 1514.95 2201.08V2168.63C1514.95 2166.46 1514.38 2164.79 1513.22 2163.64C1512.07 2162.42 1510.44 2161.82 1508.33 2161.82C1507.11 2161.82 1505.93 2162.07 1504.78 2162.58C1503.62 2163.1 1502.57 2163.7 1501.61 2164.41C1500.65 2165.11 1499.82 2165.88 1499.11 2166.71C1498.66 2167.16 1498.38 2167.61 1498.25 2168.06C1498.12 2168.44 1498.06 2168.89 1498.06 2169.4V2200.7C1498.06 2202.23 1497.29 2203 1495.75 2203H1485.19C1484.55 2203 1484.07 2202.87 1483.75 2202.62C1483.5 2202.3 1483.37 2201.78 1483.37 2201.08V2168.63C1483.37 2166.46 1482.79 2164.79 1481.64 2163.64C1480.49 2162.42 1478.82 2161.82 1476.65 2161.82C1474.73 2161.82 1472.97 2162.33 1471.37 2163.35C1469.77 2164.31 1468.1 2165.78 1466.38 2167.77V2200.79C1466.38 2202.26 1465.54 2203 1463.88 2203H1453.61ZM1552.77 2181.88C1552.77 2184.25 1553.32 2186.36 1554.4 2188.22C1555.56 2190.01 1557.06 2191.42 1558.92 2192.44C1560.84 2193.4 1562.98 2193.88 1565.35 2193.88C1567.65 2193.88 1569.76 2193.4 1571.68 2192.44C1573.67 2191.42 1575.65 2189.75 1577.64 2187.45C1577.89 2187.19 1578.12 2187.06 1578.31 2187.06C1578.5 2187 1578.85 2187.1 1579.36 2187.35L1586.28 2190.23C1587.17 2190.62 1587.27 2191.26 1586.56 2192.15C1584.52 2195.1 1582.37 2197.43 1580.13 2199.16C1577.89 2200.89 1575.4 2202.14 1572.64 2202.9C1569.96 2203.61 1566.92 2203.96 1563.52 2203.96C1558.53 2203.96 1554.08 2202.87 1550.18 2200.7C1546.28 2198.52 1543.17 2195.51 1540.87 2191.67C1538.63 2187.77 1537.51 2183.32 1537.51 2178.33C1537.51 2172.82 1538.66 2168.06 1540.96 2164.02C1543.33 2159.93 1546.47 2156.76 1550.37 2154.52C1554.28 2152.28 1558.56 2151.16 1563.24 2151.16C1568.16 2151.16 1572.48 2152.25 1576.2 2154.42C1579.91 2156.54 1582.82 2159.58 1584.93 2163.54C1587.11 2167.51 1588.2 2172.34 1588.2 2178.04C1588.2 2178.74 1588.13 2179.29 1588 2179.67C1587.88 2180.06 1587.4 2180.28 1586.56 2180.34H1553.92C1553.54 2180.34 1553.25 2180.47 1553.06 2180.73C1552.87 2180.98 1552.77 2181.37 1552.77 2181.88ZM1572.07 2172.28C1572.77 2172.28 1573.22 2172.22 1573.41 2172.09C1573.6 2171.9 1573.7 2171.51 1573.7 2170.94C1573.7 2169.34 1573.32 2167.7 1572.55 2166.04C1571.84 2164.38 1570.76 2163 1569.28 2161.91C1567.88 2160.76 1566.05 2160.18 1563.81 2160.18C1561.7 2160.18 1559.81 2160.7 1558.15 2161.72C1556.48 2162.74 1555.2 2164.18 1554.31 2166.04C1553.41 2167.83 1552.96 2169.88 1552.96 2172.18L1572.07 2172.28Z" fill="black"/>
<defs>
<filter id="filter0_i_111_57" x="688.146" y="495.593" width="92.5229" height="170.194" filterUnits="userSpaceOnUse" color-interpolation-filters="sRGB">
<feFlood flood-opacity="0" result="BackgroundImageFix"/>
<feBlend mode="normal" in="SourceGraphic" in2="BackgroundImageFix" result="shape"/>
<feColorMatrix in="SourceAlpha" type="matrix" values="0 0 0 0 0 0 0 0 0 0 0 0 0 0 0 0 0 0 127 0" result="hardAlpha"/>
<feOffset dx="5" dy="-2"/>
<feGaussianBlur stdDeviation="2"/>
<feComposite in2="hardAlpha" operator="arithmetic" k2="-1" k3="1"/>
<feColorMatrix type="matrix" values="0 0 0 0 0 0 0 0 0 0 0 0 0 0 0 0 0 0 0.25 0"/>
<feBlend mode="normal" in2="shape" result="effect1_innerShadow_111_57"/>
</filter>
<filter id="filter1_i_111_57" x="688.146" y="995.049" width="92.5229" height="170.194" filterUnits="userSpaceOnUse" color-interpolation-filters="sRGB">
<feFlood flood-opacity="0" result="BackgroundImageFix"/>
<feBlend mode="normal" in="SourceGraphic" in2="BackgroundImageFix" result="shape"/>
<feColorMatrix in="SourceAlpha" type="matrix" values="0 0 0 0 0 0 0 0 0 0 0 0 0 0 0 0 0 0 127 0" result="hardAlpha"/>
<feOffset dx="5" dy="-2"/>
<feGaussianBlur stdDeviation="2"/>
<feComposite in2="hardAlpha" operator="arithmetic" k2="-1" k3="1"/>
<feColorMatrix type="matrix" values="0 0 0 0 0 0 0 0 0 0 0 0 0 0 0 0 0 0 0.25 0"/>
<feBlend mode="normal" in2="shape" result="effect1_innerShadow_111_57"/>
</filter>
<filter id="filter2_i_111_57" x="840.033" y="1079.85" width="92.5229" height="170.194" filterUnits="userSpaceOnUse" color-interpolation-filters="sRGB">
<feFlood flood-opacity="0" result="BackgroundImageFix"/>
<feBlend mode="normal" in="SourceGraphic" in2="BackgroundImageFix" result="shape"/>
<feColorMatrix in="SourceAlpha" type="matrix" values="0 0 0 0 0 0 0 0 0 0 0 0 0 0 0 0 0 0 127 0" result="hardAlpha"/>
<feOffset dx="5" dy="-2"/>
<feGaussianBlur stdDeviation="2"/>
<feComposite in2="hardAlpha" operator="arithmetic" k2="-1" k3="1"/>
<feColorMatrix type="matrix" values="0 0 0 0 0 0 0 0 0 0 0 0 0 0 0 0 0 0 0.25 0"/>
<feBlend mode="normal" in2="shape" result="effect1_innerShadow_111_57"/>
</filter>
<filter id="filter3_i_111_57" x="688.146" y="829.184" width="92.5229" height="170.194" filterUnits="userSpaceOnUse" color-interpolation-filters="sRGB">
<feFlood flood-opacity="0" result="BackgroundImageFix"/>
<feBlend mode="normal" in="SourceGraphic" in2="BackgroundImageFix" result="shape"/>
<feColorMatrix in="SourceAlpha" type="matrix" values="0 0 0 0 0 0 0 0 0 0 0 0 0 0 0 0 0 0 127 0" result="hardAlpha"/>
<feOffset dx="5" dy="-2"/>
<feGaussianBlur stdDeviation="2"/>
<feComposite in2="hardAlpha" operator="arithmetic" k2="-1" k3="1"/>
<feColorMatrix type="matrix" values="0 0 0 0 0 0 0 0 0 0 0 0 0 0 0 0 0 0 0.25 0"/>
<feBlend mode="normal" in2="shape" result="effect1_innerShadow_111_57"/>
</filter>
<filter id="filter4_i_111_57" x="840.033" y="913.98" width="92.5229" height="170.194" filterUnits="userSpaceOnUse" color-interpolation-filters="sRGB">
<feFlood flood-opacity="0" result="BackgroundImageFix"/>
<feBlend mode="normal" in="SourceGraphic" in2="BackgroundImageFix" result="shape"/>
<feColorMatrix in="SourceAlpha" type="matrix" values="0 0 0 0 0 0 0 0 0 0 0 0 0 0 0 0 0 0 127 0" result="hardAlpha"/>
<feOffset dx="5" dy="-2"/>
<feGaussianBlur stdDeviation="2"/>
<feComposite in2="hardAlpha" operator="arithmetic" k2="-1" k3="1"/>
<feColorMatrix type="matrix" values="0 0 0 0 0 0 0 0 0 0 0 0 0 0 0 0 0 0 0.25 0"/>
<feBlend mode="normal" in2="shape" result="effect1_innerShadow_111_57"/>
</filter>
<filter id="filter5_i_111_57" x="688.146" y="660.525" width="92.5229" height="170.194" filterUnits="userSpaceOnUse" color-interpolation-filters="sRGB">
<feFlood flood-opacity="0" result="BackgroundImageFix"/>
<feBlend mode="normal" in="SourceGraphic" in2="BackgroundImageFix" result="shape"/>
<feColorMatrix in="SourceAlpha" type="matrix" values="0 0 0 0 0 0 0 0 0 0 0 0 0 0 0 0 0 0 127 0" result="hardAlpha"/>
<feOffset dx="5" dy="-2"/>
<feGaussianBlur stdDeviation="2"/>
<feComposite in2="hardAlpha" operator="arithmetic" k2="-1" k3="1"/>
<feColorMatrix type="matrix" values="0 0 0 0 0 0 0 0 0 0 0 0 0 0 0 0 0 0 0.25 0"/>
<feBlend mode="normal" in2="shape" result="effect1_innerShadow_111_57"/>
</filter>
<filter id="filter6_i_111_57" x="840.033" y="745.321" width="92.5229" height="170.194" filterUnits="userSpaceOnUse" color-interpolation-filters="sRGB">
<feFlood flood-opacity="0" result="BackgroundImageFix"/>
<feBlend mode="normal" in="SourceGraphic" in2="BackgroundImageFix" result="shape"/>
<feColorMatrix in="SourceAlpha" type="matrix" values="0 0 0 0 0 0 0 0 0 0 0 0 0 0 0 0 0 0 127 0" result="hardAlpha"/>
<feOffset dx="5" dy="-2"/>
<feGaussianBlur stdDeviation="2"/>
<feComposite in2="hardAlpha" operator="arithmetic" k2="-1" k3="1"/>
<feColorMatrix type="matrix" values="0 0 0 0 0 0 0 0 0 0 0 0 0 0 0 0 0 0 0.25 0"/>
<feBlend mode="normal" in2="shape" result="effect1_innerShadow_111_57"/>
</filter>
</defs>
</svg>
