<svg width="1369" height="702" viewBox="0 0 1369 702" fill="none" xmlns="http://www.w3.org/2000/svg">
<path d="M696.914 35.4897L752.073 0L806.785 35.4897L752.073 66.8568L696.914 35.4897Z" fill="white"/>
<path d="M752.073 66.8568L696.914 35.4897V186.231L752.073 325.189V66.8568Z" fill="white"/>
<path d="M806.785 35.4897L752.073 66.8568V325.189L806.785 311.178L790.193 290.9L806.785 285.247V173.334V35.4897Z" fill="white"/>
<path d="M775.077 159.522L759.1 168.41V189.509L775.077 179.458V159.522Z" fill="#1B5083"/>
<path d="M775.077 129.78L759.1 138.741V160.013L775.077 149.88V129.78Z" fill="#1B5083"/>
<path d="M775.077 99.5477L759.1 108.509V129.781L775.077 119.647V99.5477Z" fill="#1B5083"/>
<path d="M775.077 188.034L759.1 196.948V217.776L775.077 208.029V188.034Z" fill="#1B5083"/>
<path d="M775.077 247.763L759.1 256.724V277.996L775.077 267.862V247.763Z" fill="#1B5083"/>
<path d="M775.077 217.53L759.1 226.491V247.763L775.077 237.629V217.53Z" fill="#1B5083"/>
<path d="M611.621 119.58L687.326 70.9124L762.417 119.58L687.326 162.594L611.621 119.58Z" fill="#1B5083"/>
<path d="M687.326 162.594L611.621 119.58V326.295L687.326 391.062V162.594Z" fill="#1B5083"/>
<path d="M762.417 119.58L687.326 162.594V391.062L762.417 326.295V119.58Z" fill="#1B5083"/>
<path d="M617.519 131.255L640.87 144.406V175.622L617.519 160.751V131.255Z" fill="white"/>
<path d="M657.584 153.623L680.935 166.773V197.497L657.584 183.118V153.623Z" fill="white"/>
<path d="M617.519 263.002L640.87 276.152V307.369L617.519 292.498V263.002Z" fill="white"/>
<path d="M657.584 285.37L680.935 298.52V329.736L657.584 314.865V285.37Z" fill="white"/>
<path d="M617.519 219.25L640.87 232.4V263.617L617.519 248.746V219.25Z" fill="white"/>
<path d="M657.584 241.618L680.935 254.768V285.984L657.584 271.114V241.618Z" fill="white"/>
<path d="M617.519 174.761L640.87 187.911V219.127L617.519 204.257V174.761Z" fill="white"/>
<path d="M657.584 197.129L680.935 210.279V241.495L657.584 226.624V197.129Z" fill="white"/>
<path d="M755.903 131.255L732.552 144.406V175.622L755.903 160.751V131.255Z" fill="white"/>
<path d="M715.839 153.623L692.488 166.773V197.497L715.839 183.118V153.623Z" fill="white"/>
<path d="M755.903 263.002L732.552 276.152V307.369L755.903 292.498V263.002Z" fill="white"/>
<path d="M715.839 285.37L692.488 298.52V329.736L715.839 314.865V285.37Z" fill="white"/>
<path d="M755.903 219.25L732.552 232.4V263.617L755.903 248.746V219.25Z" fill="white"/>
<path d="M715.839 241.618L692.488 254.768V285.984L715.839 271.114V241.618Z" fill="white"/>
<path d="M755.903 174.761L732.552 187.911V219.127L755.903 204.257V174.761Z" fill="white"/>
<path d="M715.839 197.129L692.488 210.279V241.495L715.839 226.624V197.129Z" fill="white"/>
<path d="M802.113 54.8126L786.382 63.7736V85.0456L802.113 74.9121V54.8126Z" fill="#1B5083"/>
<path d="M775.077 70.052L759.1 78.9661V99.7934L775.077 90.0462V70.052Z" fill="#1B5083"/>
<path d="M802.113 144.283L786.382 153.244V174.516L802.113 164.382V144.283Z" fill="#1B5083"/>
<path d="M802.113 114.541L786.382 123.502V144.774L802.113 134.641V114.541Z" fill="#1B5083"/>
<path d="M802.113 84.308L786.382 93.2691V114.541L802.113 104.408V84.308Z" fill="#1B5083"/>
<path d="M802.113 172.795L786.382 181.756V203.028L802.113 192.894V172.795Z" fill="#1B5083"/>
<path d="M802.113 232.523L786.382 241.484V262.756L802.113 252.623V232.523Z" fill="#1B5083"/>
<path d="M802.113 202.29L786.382 211.251V232.523L802.113 222.39V202.29Z" fill="#1B5083"/>
<path d="M582.986 253.355L695.315 390.263L691.014 405.81L582.986 299.81L475.942 425.412H436V405.81H467.339L582.986 253.355Z" fill="black"/>
<path d="M777.166 272.588L889.495 409.497H922.309V425.043H885.194L777.166 320.887L676.635 425.043L628.705 425.044V409.497H670.122L777.166 272.588Z" fill="black"/>
<path d="M777.042 272.711L920.341 216.915L933 235.104L792.158 292.375L777.042 272.711Z" fill="black"/>
<path d="M867.496 307.491H843.654V335.143C849.553 343.378 858.156 354.193 867.496 365.745V307.491Z" fill="black"/>
<path d="M834.559 295.693H876.836V309.949H834.559V295.693Z" fill="black"/>
<path d="M513.66 280.331H537.502V307.983C531.245 315.111 523.134 323.714 513.66 334.898V280.331Z" fill="black"/>
<rect x="504.454" y="280.208" width="42.277" height="14.2562" fill="black"/>
<path d="M582.618 252.924L611.867 244.936V265.091L597.734 272.588L582.618 252.924Z" fill="black"/>
<rect x="567.378" y="358.617" width="18.6805" height="18.6805" fill="#1B5083"/>
<rect x="589.991" y="358.617" width="18.6805" height="18.6805" fill="#1B5083"/>
<rect x="589.991" y="381.23" width="18.6805" height="18.6805" fill="#1B5083"/>
<rect x="567.378" y="381.23" width="18.6805" height="18.6805" fill="#1B5083"/>
<rect x="760.82" y="369.924" width="18.6805" height="18.6805" fill="#1B5083"/>
<rect x="783.434" y="369.924" width="18.6805" height="18.6805" fill="#1B5083"/>
<rect x="783.434" y="392.537" width="18.6805" height="18.6805" fill="#1B5083"/>
<rect x="760.82" y="392.537" width="18.6805" height="18.6805" fill="#1B5083"/>
<path d="M440.302 488.205C629.976 437.591 735.359 437.736 921.571 488.205V511.925C733.624 459.596 628.248 441.959 440.302 495.702V488.205Z" fill="#1B5083"/>
<path d="M704.778 54.8126L720.509 63.7736V85.0456L704.778 74.9121V54.8126Z" fill="#1B5083"/>
<path d="M731.816 70.052L747.793 78.9661V99.7934L731.816 90.0462V70.052Z" fill="#1B5083"/>
<path d="M70.98 518.09C71.89 518.09 72.345 518.615 72.345 519.665V594.32C72.345 594.81 72.17 595.23 71.82 595.58C71.47 595.86 70.98 596 70.35 596H59.745C59.185 596 58.73 595.93 58.38 595.79C58.03 595.65 57.61 595.3 57.12 594.74L23.625 547.7C23.345 547.35 23.065 547.21 22.785 547.28C22.575 547.35 22.47 547.56 22.47 547.91V594.11C22.54 595.37 21.84 596 20.37 596H9.45C8.05 596 7.35 595.405 7.35 594.215V520.085C7.35 518.755 7.98 518.09 9.24 518.09H21.945C22.715 518.09 23.275 518.195 23.625 518.405C24.045 518.615 24.5 519.035 24.99 519.665L55.86 563.66C56.28 564.22 56.63 564.465 56.91 564.395C57.26 564.325 57.435 563.975 57.435 563.345V519.98C57.435 518.72 58.065 518.09 59.325 518.09H70.98ZM99.6229 572.9C99.6229 575.49 100.218 577.8 101.408 579.83C102.668 581.79 104.313 583.33 106.343 584.45C108.443 585.5 110.788 586.025 113.378 586.025C115.898 586.025 118.208 585.5 120.308 584.45C122.478 583.33 124.648 581.51 126.818 578.99C127.098 578.71 127.343 578.57 127.553 578.57C127.763 578.5 128.148 578.605 128.708 578.885L136.268 582.035C137.248 582.455 137.353 583.155 136.583 584.135C134.343 587.355 131.998 589.91 129.548 591.8C127.098 593.69 124.368 595.055 121.358 595.895C118.418 596.665 115.093 597.05 111.383 597.05C105.923 597.05 101.058 595.86 96.7879 593.48C92.5179 591.1 89.1229 587.81 86.6029 583.61C84.1529 579.34 82.9279 574.475 82.9279 569.015C82.9279 562.995 84.1879 557.78 86.7079 553.37C89.2979 548.89 92.7279 545.425 96.9979 542.975C101.268 540.525 105.958 539.3 111.068 539.3C116.458 539.3 121.183 540.49 125.243 542.87C129.303 545.18 132.488 548.505 134.798 552.845C137.178 557.185 138.368 562.47 138.368 568.7C138.368 569.47 138.298 570.065 138.158 570.485C138.018 570.905 137.493 571.15 136.583 571.22H100.883C100.463 571.22 100.148 571.36 99.9379 571.64C99.7279 571.92 99.6229 572.34 99.6229 572.9ZM120.728 562.4C121.498 562.4 121.988 562.33 122.198 562.19C122.408 561.98 122.513 561.56 122.513 560.93C122.513 559.18 122.093 557.395 121.253 555.575C120.483 553.755 119.293 552.25 117.683 551.06C116.143 549.8 114.148 549.17 111.698 549.17C109.388 549.17 107.323 549.73 105.503 550.85C103.683 551.97 102.283 553.545 101.303 555.575C100.323 557.535 99.8329 559.775 99.8329 562.295L120.728 562.4ZM221.458 540.35C222.158 540.35 222.648 540.595 222.928 541.085C223.208 541.575 223.208 542.135 222.928 542.765L205.813 594.32C205.603 594.95 205.323 595.405 204.973 595.685C204.693 595.895 204.238 596 203.608 596H194.998C193.598 596 192.688 595.335 192.268 594.005L183.238 565.13C182.958 564.43 182.678 564.08 182.398 564.08C182.118 564.08 181.908 564.43 181.768 565.13L172.528 594.32C172.388 594.95 172.143 595.405 171.793 595.685C171.513 595.895 171.023 596 170.323 596H161.398C160.068 596 159.193 595.335 158.773 594.005L141.868 542.87C141.658 542.17 141.693 541.575 141.973 541.085C142.323 540.595 142.848 540.35 143.548 540.35H155.833C156.323 540.35 156.778 540.525 157.198 540.875C157.688 541.155 158.003 541.575 158.143 542.135L167.488 571.85C167.628 572.48 167.838 572.795 168.118 572.795C168.468 572.795 168.748 572.445 168.958 571.745L177.988 542.03C178.128 541.54 178.408 541.155 178.828 540.875C179.248 540.525 179.738 540.35 180.298 540.35H189.118C189.608 540.35 190.063 540.525 190.483 540.875C190.973 541.155 191.253 541.575 191.323 542.135L200.458 571.85C200.668 572.48 200.913 572.795 201.193 572.795C201.473 572.795 201.753 572.445 202.033 571.745L211.063 542.03C211.343 541.54 211.658 541.155 212.008 540.875C212.428 540.525 212.918 540.35 213.478 540.35H221.458ZM254.367 520.085C254.367 518.755 254.927 518.09 256.047 518.09H271.062C272.182 518.09 272.742 518.72 272.742 519.98V581.195C272.742 582.105 273.127 582.56 273.897 582.56H307.392C308.652 582.56 309.282 583.085 309.282 584.135V594.11C309.282 594.67 309.107 595.125 308.757 595.475C308.477 595.825 307.987 596 307.287 596H256.677C255.767 596 255.137 595.825 254.787 595.475C254.507 595.125 254.367 594.565 254.367 593.795V520.085ZM334.792 593.48C334.792 594.39 334.582 595.055 334.162 595.475C333.742 595.825 333.007 596 331.957 596H320.932C320.022 596 319.392 595.825 319.042 595.475C318.762 595.125 318.622 594.565 318.622 593.795V542.345C318.622 541.015 319.182 540.35 320.302 540.35H333.217C334.267 540.35 334.792 540.945 334.792 542.135V593.48ZM335.002 531.005C335.002 532.755 334.057 533.63 332.167 533.63H320.827C319.917 533.63 319.287 533.42 318.937 533C318.657 532.58 318.517 531.985 318.517 531.215V520.19C318.517 518.79 319.112 518.09 320.302 518.09H333.322C334.442 518.09 335.002 518.755 335.002 520.085V531.005ZM378.75 540.35C379.45 540.35 379.94 540.525 380.22 540.875C380.57 541.225 380.745 541.645 380.745 542.135V549.905C380.745 550.955 380.15 551.48 378.96 551.48H370.245C369.545 551.48 369.195 551.865 369.195 552.635V594.005C369.195 595.335 368.635 596 367.515 596H354.6C353.55 596 353.025 595.405 353.025 594.215V552.425C353.025 551.795 352.745 551.48 352.185 551.48H344.625C343.365 551.48 342.735 550.955 342.735 549.905V542.135C342.735 541.645 342.875 541.225 343.155 540.875C343.505 540.525 344.03 540.35 344.73 540.35H351.765C352.605 540.35 353.025 539.825 353.025 538.775V532.37C353.025 527.89 354.355 524.39 357.015 521.87C359.675 519.35 363.42 518.09 368.25 518.09H378.855C380.395 518.09 381.165 518.825 381.165 520.295L381.27 527.12C381.27 527.61 381.13 528.03 380.85 528.38C380.64 528.73 380.255 528.905 379.695 528.905H374.025C372.485 528.905 371.225 529.5 370.245 530.69C369.265 531.81 368.775 533.28 368.775 535.1V539.195C368.775 539.965 369.195 540.35 370.035 540.35H378.75ZM400.78 572.9C400.78 575.49 401.375 577.8 402.565 579.83C403.825 581.79 405.47 583.33 407.5 584.45C409.6 585.5 411.945 586.025 414.535 586.025C417.055 586.025 419.365 585.5 421.465 584.45C423.635 583.33 425.805 581.51 427.975 578.99C428.255 578.71 428.5 578.57 428.71 578.57C428.92 578.5 429.305 578.605 429.865 578.885L437.425 582.035C438.405 582.455 438.51 583.155 437.74 584.135C435.5 587.355 433.155 589.91 430.705 591.8C428.255 593.69 425.525 595.055 422.515 595.895C419.575 596.665 416.25 597.05 412.54 597.05C407.08 597.05 402.215 595.86 397.945 593.48C393.675 591.1 390.28 587.81 387.76 583.61C385.31 579.34 384.085 574.475 384.085 569.015C384.085 562.995 385.345 557.78 387.865 553.37C390.455 548.89 393.885 545.425 398.155 542.975C402.425 540.525 407.115 539.3 412.225 539.3C417.615 539.3 422.34 540.49 426.4 542.87C430.46 545.18 433.645 548.505 435.955 552.845C438.335 557.185 439.525 562.47 439.525 568.7C439.525 569.47 439.455 570.065 439.315 570.485C439.175 570.905 438.65 571.15 437.74 571.22H402.04C401.62 571.22 401.305 571.36 401.095 571.64C400.885 571.92 400.78 572.34 400.78 572.9ZM421.885 562.4C422.655 562.4 423.145 562.33 423.355 562.19C423.565 561.98 423.67 561.56 423.67 560.93C423.67 559.18 423.25 557.395 422.41 555.575C421.64 553.755 420.45 552.25 418.84 551.06C417.3 549.8 415.305 549.17 412.855 549.17C410.545 549.17 408.48 549.73 406.66 550.85C404.84 551.97 403.44 553.545 402.46 555.575C401.48 557.535 400.99 559.775 400.99 562.295L421.885 562.4ZM535.074 542.345C535.074 547.525 533.849 551.9 531.399 555.47C528.949 558.97 525.589 561.63 521.319 563.45C517.119 565.27 512.219 566.18 506.619 566.18H490.869C490.099 566.18 489.714 566.565 489.714 567.335V593.585C489.714 595.195 488.804 596 486.984 596H473.544C472.704 596 472.109 595.825 471.759 595.475C471.479 595.125 471.339 594.6 471.339 593.9V520.085C471.339 518.755 471.899 518.09 473.019 518.09H504.519C510.119 518.09 515.229 518.965 519.849 520.715C524.539 522.465 528.249 525.125 530.979 528.695C533.709 532.265 535.074 536.815 535.074 542.345ZM516.174 542.03C516.174 539.58 515.649 537.585 514.599 536.045C513.549 534.435 512.044 533.245 510.084 532.475C508.124 531.705 505.884 531.32 503.364 531.32H491.709C490.379 531.32 489.714 531.915 489.714 533.105V551.06C489.714 552.39 490.204 553.055 491.184 553.055H504.099C507.809 553.055 510.749 552.075 512.919 550.115C515.089 548.155 516.174 545.46 516.174 542.03ZM572.697 590.645C570.527 592.605 568.077 594.18 565.347 595.37C562.687 596.49 559.607 597.05 556.107 597.05C550.787 597.05 546.587 595.615 543.507 592.745C540.497 589.875 538.992 586.2 538.992 581.72C538.992 577.8 540.217 574.37 542.667 571.43C545.117 568.49 548.617 566.215 553.167 564.605C557.717 562.925 563.142 562.015 569.442 561.875L573.117 561.56C573.537 561.56 573.922 561.455 574.272 561.245C574.622 561.035 574.797 560.65 574.797 560.09V557.885C574.797 555.225 574.027 553.16 572.487 551.69C570.947 550.15 568.742 549.38 565.872 549.38C563.772 549.38 561.742 549.87 559.782 550.85C557.892 551.76 556.282 553.37 554.952 555.68C554.742 556.17 554.497 556.485 554.217 556.625C553.937 556.765 553.412 556.765 552.642 556.625L542.142 554.21C541.722 554.07 541.407 553.86 541.197 553.58C541.057 553.23 541.197 552.53 541.617 551.48C543.367 547.35 546.377 544.305 550.647 542.345C554.987 540.315 560.307 539.3 566.607 539.3C572.417 539.3 577.037 540.035 580.467 541.505C583.897 542.975 586.382 545.04 587.922 547.7C589.462 550.29 590.232 553.335 590.232 556.835V593.69C590.232 594.53 590.092 595.125 589.812 595.475C589.532 595.825 589.007 596 588.237 596H577.422C576.652 596 576.092 595.72 575.742 595.16C575.462 594.6 575.287 593.9 575.217 593.06L575.007 590.75C574.867 589.49 574.097 589.455 572.697 590.645ZM574.797 571.22C574.797 570.03 574.272 569.435 573.222 569.435L570.282 569.645C568.462 569.715 566.642 569.995 564.822 570.485C563.002 570.905 561.357 571.535 559.887 572.375C558.417 573.145 557.192 574.16 556.212 575.42C555.302 576.61 554.847 578.01 554.847 579.62C554.847 581.72 555.582 583.4 557.052 584.66C558.522 585.85 560.552 586.445 563.142 586.445C564.892 586.445 566.432 586.165 567.762 585.605C569.162 585.045 570.352 584.38 571.332 583.61C572.382 582.7 573.222 581.79 573.852 580.88C574.482 579.97 574.797 579.025 574.797 578.045V571.22ZM618.107 593.48C618.107 594.39 617.897 595.055 617.477 595.475C617.057 595.825 616.322 596 615.272 596H604.247C603.337 596 602.707 595.825 602.357 595.475C602.077 595.125 601.937 594.565 601.937 593.795V542.345C601.937 541.015 602.497 540.35 603.617 540.35H616.532C617.582 540.35 618.107 540.945 618.107 542.135V593.48ZM618.317 531.005C618.317 532.755 617.372 533.63 615.482 533.63H604.142C603.232 533.63 602.602 533.42 602.252 533C601.972 532.58 601.832 531.985 601.832 531.215V520.19C601.832 518.79 602.427 518.09 603.617 518.09H616.637C617.757 518.09 618.317 518.755 618.317 520.085V531.005ZM631.93 596C630.46 596 629.725 595.3 629.725 593.9V542.345C629.725 541.015 630.285 540.35 631.405 540.35H644.11C645.16 540.35 645.685 540.945 645.685 542.135V547.28C645.685 547.7 645.79 547.98 646 548.12C646.21 548.26 646.525 548.12 646.945 547.7C648.765 546.02 650.585 544.55 652.405 543.29C654.225 542.03 656.15 541.05 658.18 540.35C660.21 539.65 662.38 539.3 664.69 539.3C669.8 539.3 673.825 540.805 676.765 543.815C679.775 546.825 681.28 550.85 681.28 555.89V593.48C681.28 595.16 680.44 596 678.76 596H667.105C666.405 596 665.88 595.86 665.53 595.58C665.25 595.23 665.11 594.67 665.11 593.9V558.41C665.11 556.03 664.445 554.21 663.115 552.95C661.855 551.62 659.965 550.955 657.445 550.955C655.975 550.955 654.61 551.2 653.35 551.69C652.09 552.18 650.865 552.915 649.675 553.895C648.485 554.805 647.225 555.995 645.895 557.465V593.585C645.895 595.195 644.985 596 643.165 596H631.93ZM713.946 551.48C713.176 551.48 712.791 551.9 712.791 552.74V578.045C712.791 580.425 713.351 582.14 714.471 583.19C715.591 584.17 717.376 584.66 719.826 584.66H725.496C725.986 584.66 726.371 584.835 726.651 585.185C726.931 585.535 727.071 585.955 727.071 586.445L726.966 592.85C726.966 594.18 726.196 595.02 724.656 595.37C723.396 595.51 722.031 595.65 720.561 595.79C719.161 595.86 717.726 595.93 716.256 596C714.856 596 713.491 596 712.161 596C707.401 596 703.621 594.88 700.821 592.64C698.021 590.33 696.621 586.935 696.621 582.455V553.055C696.621 552.005 696.166 551.48 695.256 551.48H688.851C687.521 551.48 686.856 550.885 686.856 549.695V541.925C686.856 540.875 687.486 540.35 688.746 540.35H695.991C696.621 540.35 696.971 539.965 697.041 539.195L698.511 523.235C698.581 522.045 699.106 521.45 700.086 521.45H711.531C712.651 521.45 713.211 522.115 713.211 523.445V539.195C713.211 539.895 713.561 540.245 714.261 540.245H725.286C726.546 540.245 727.176 540.805 727.176 541.925V549.695C727.176 550.885 726.476 551.48 725.076 551.48H713.946ZM752.023 593.48C752.023 594.39 751.813 595.055 751.393 595.475C750.973 595.825 750.238 596 749.188 596H738.163C737.253 596 736.623 595.825 736.273 595.475C735.993 595.125 735.853 594.565 735.853 593.795V542.345C735.853 541.015 736.413 540.35 737.533 540.35H750.448C751.498 540.35 752.023 540.945 752.023 542.135V593.48ZM752.233 531.005C752.233 532.755 751.288 533.63 749.398 533.63H738.058C737.148 533.63 736.518 533.42 736.168 533C735.888 532.58 735.748 531.985 735.748 531.215V520.19C735.748 518.79 736.343 518.09 737.533 518.09H750.553C751.673 518.09 752.233 518.755 752.233 520.085V531.005ZM765.846 596C764.376 596 763.641 595.3 763.641 593.9V542.345C763.641 541.015 764.201 540.35 765.321 540.35H778.026C779.076 540.35 779.601 540.945 779.601 542.135V547.28C779.601 547.7 779.706 547.98 779.916 548.12C780.126 548.26 780.441 548.12 780.861 547.7C782.681 546.02 784.501 544.55 786.321 543.29C788.141 542.03 790.066 541.05 792.096 540.35C794.126 539.65 796.296 539.3 798.606 539.3C803.716 539.3 807.741 540.805 810.681 543.815C813.691 546.825 815.196 550.85 815.196 555.89V593.48C815.196 595.16 814.356 596 812.676 596H801.021C800.321 596 799.796 595.86 799.446 595.58C799.166 595.23 799.026 594.67 799.026 593.9V558.41C799.026 556.03 798.361 554.21 797.031 552.95C795.771 551.62 793.881 550.955 791.361 550.955C789.891 550.955 788.526 551.2 787.266 551.69C786.006 552.18 784.781 552.915 783.591 553.895C782.401 554.805 781.141 555.995 779.811 557.465V593.585C779.811 595.195 778.901 596 777.081 596H765.846ZM882.47 537.935C883.1 537.935 883.59 538.11 883.94 538.46C884.36 538.81 884.57 539.405 884.57 540.245V547.385C884.57 548.365 884.36 549.065 883.94 549.485C883.52 549.835 882.925 549.94 882.155 549.8C881.245 549.66 880.335 549.59 879.425 549.59C878.585 549.52 877.85 549.555 877.22 549.695C875.33 549.975 874.63 550.78 875.12 552.11C875.26 552.74 875.435 553.44 875.645 554.21C875.925 554.98 876.065 555.855 876.065 556.835C876.065 559.985 875.12 562.89 873.23 565.55C871.41 568.14 868.61 570.205 864.83 571.745C861.05 573.285 856.36 574.055 850.76 574.055C847.96 574.055 845.72 574.23 844.04 574.58C842.36 574.86 841.135 575.28 840.365 575.84C839.665 576.33 839.315 576.89 839.315 577.52C839.315 578.43 839.84 579.095 840.89 579.515C842.01 579.865 843.69 580.11 845.93 580.25L860.945 581.09C868.085 581.51 873.3 583.085 876.59 585.815C879.88 588.545 881.525 592.045 881.525 596.315C881.525 601.635 879.005 605.975 873.965 609.335C868.925 612.695 861.505 614.375 851.705 614.375C841.555 614.375 833.925 613.255 828.815 611.015C823.705 608.775 821.15 605.38 821.15 600.83C821.15 598.38 822.095 596.385 823.985 594.845C825.875 593.305 828.29 592.01 831.23 590.96C832.14 590.61 832.14 590.225 831.23 589.805C829.48 588.965 828.01 587.95 826.82 586.76C825.7 585.5 825.14 583.925 825.14 582.035C825.14 580.635 825.595 579.375 826.505 578.255C827.415 577.065 828.64 575.98 830.18 575C831.72 574.02 833.435 573.18 835.325 572.48C835.675 572.34 835.92 572.165 836.06 571.955C836.2 571.675 836.025 571.43 835.535 571.22C832.245 569.68 829.725 567.72 827.975 565.34C826.225 562.96 825.35 560.16 825.35 556.94C825.35 551.76 827.59 547.56 832.07 544.34C836.62 541.12 843.235 539.51 851.915 539.51C855.765 539.51 859.09 539.93 861.89 540.77C864.69 541.61 866.965 542.765 868.715 544.235C869.205 544.585 869.695 544.76 870.185 544.76C870.745 544.69 871.2 544.445 871.55 544.025C872.46 542.905 873.545 541.89 874.805 540.98C876.065 540.07 877.395 539.335 878.795 538.775C880.195 538.215 881.42 537.935 882.47 537.935ZM850.655 566.075C854.365 566.075 857.06 565.235 858.74 563.555C860.49 561.805 861.365 559.67 861.365 557.15C861.365 554.35 860.49 552.075 858.74 550.325C857.06 548.505 854.365 547.595 850.655 547.595C847.225 547.595 844.565 548.505 842.675 550.325C840.785 552.075 839.84 554.35 839.84 557.15C839.84 559.67 840.785 561.805 842.675 563.555C844.565 565.235 847.225 566.075 850.655 566.075ZM842.885 592.85C841.485 592.78 840.155 592.99 838.895 593.48C837.635 593.97 836.585 594.67 835.745 595.58C834.905 596.49 834.485 597.54 834.485 598.73C834.485 600.34 835.08 601.74 836.27 602.93C837.46 604.12 839.385 605.03 842.045 605.66C844.705 606.29 848.275 606.605 852.755 606.605C857.515 606.605 861.12 605.94 863.57 604.61C866.09 603.35 867.35 601.53 867.35 599.15C867.35 597.68 866.65 596.42 865.25 595.37C863.92 594.32 861.855 593.725 859.055 593.585L842.885 592.85ZM960.576 536.465C959.036 534.785 957.111 533.28 954.801 531.95C952.561 530.62 949.341 529.955 945.141 529.955C940.731 529.955 937.441 530.76 935.271 532.37C933.101 533.91 932.016 535.905 932.016 538.355C932.016 539.195 932.226 540.105 932.646 541.085C933.066 542.065 933.906 543.01 935.166 543.92C936.426 544.83 938.211 545.635 940.521 546.335L957.111 551.06C963.551 552.81 968.241 555.645 971.181 559.565C974.121 563.415 975.591 567.895 975.591 573.005C975.591 577.905 974.331 582.175 971.811 585.815C969.291 589.385 965.686 592.15 960.996 594.11C956.306 596.07 950.741 597.05 944.301 597.05C939.541 597.05 935.061 596.525 930.861 595.475C926.731 594.355 923.056 592.78 919.836 590.75C916.686 588.65 914.201 586.235 912.381 583.505C912.031 582.805 911.891 582.245 911.961 581.825C912.031 581.335 912.381 580.845 913.011 580.355L921.096 574.79C921.936 574.3 922.601 574.09 923.091 574.16C923.651 574.23 924.141 574.51 924.561 575C926.241 577.1 927.886 578.85 929.496 580.25C931.176 581.65 933.101 582.665 935.271 583.295C937.441 583.925 940.031 584.24 943.041 584.24C947.591 584.24 951.231 583.54 953.961 582.14C956.691 580.67 958.056 578.43 958.056 575.42C958.056 574.23 957.776 573.145 957.216 572.165C956.656 571.115 955.746 570.205 954.486 569.435C953.296 568.595 951.581 567.825 949.341 567.125L933.486 562.61C929.356 561.42 925.891 559.74 923.091 557.57C920.291 555.4 918.156 552.845 916.686 549.905C915.286 546.965 914.586 543.885 914.586 540.665C914.586 536.185 915.811 532.16 918.261 528.59C920.781 525.02 924.281 522.22 928.761 520.19C933.311 518.09 938.596 517.04 944.616 517.04C948.606 517.04 952.316 517.495 955.746 518.405C959.246 519.315 962.396 520.575 965.196 522.185C967.996 523.795 970.271 525.755 972.021 528.065C972.301 528.415 972.511 528.835 972.651 529.325C972.791 529.745 972.581 530.2 972.021 530.69L963.201 537.2C962.781 537.48 962.396 537.585 962.046 537.515C961.696 537.375 961.206 537.025 960.576 536.465ZM999.506 572.9C999.506 575.49 1000.1 577.8 1001.29 579.83C1002.55 581.79 1004.2 583.33 1006.23 584.45C1008.33 585.5 1010.67 586.025 1013.26 586.025C1015.78 586.025 1018.09 585.5 1020.19 584.45C1022.36 583.33 1024.53 581.51 1026.7 578.99C1026.98 578.71 1027.23 578.57 1027.44 578.57C1027.65 578.5 1028.03 578.605 1028.59 578.885L1036.15 582.035C1037.13 582.455 1037.24 583.155 1036.47 584.135C1034.23 587.355 1031.88 589.91 1029.43 591.8C1026.98 593.69 1024.25 595.055 1021.24 595.895C1018.3 596.665 1014.98 597.05 1011.27 597.05C1005.81 597.05 1000.94 595.86 996.671 593.48C992.401 591.1 989.006 587.81 986.486 583.61C984.036 579.34 982.811 574.475 982.811 569.015C982.811 562.995 984.071 557.78 986.591 553.37C989.181 548.89 992.611 545.425 996.881 542.975C1001.15 540.525 1005.84 539.3 1010.95 539.3C1016.34 539.3 1021.07 540.49 1025.13 542.87C1029.19 545.18 1032.37 548.505 1034.68 552.845C1037.06 557.185 1038.25 562.47 1038.25 568.7C1038.25 569.47 1038.18 570.065 1038.04 570.485C1037.9 570.905 1037.38 571.15 1036.47 571.22H1000.77C1000.35 571.22 1000.03 571.36 999.821 571.64C999.611 571.92 999.506 572.34 999.506 572.9ZM1020.61 562.4C1021.38 562.4 1021.87 562.33 1022.08 562.19C1022.29 561.98 1022.4 561.56 1022.4 560.93C1022.4 559.18 1021.98 557.395 1021.14 555.575C1020.37 553.755 1019.18 552.25 1017.57 551.06C1016.03 549.8 1014.03 549.17 1011.58 549.17C1009.27 549.17 1007.21 549.73 1005.39 550.85C1003.57 551.97 1002.17 553.545 1001.19 555.575C1000.21 557.535 999.716 559.775 999.716 562.295L1020.61 562.4ZM1049.06 596C1048.29 596 1047.73 595.825 1047.38 595.475C1047.03 595.125 1046.85 594.6 1046.85 593.9V542.345C1046.85 541.015 1047.41 540.35 1048.53 540.35H1060.82C1061.94 540.35 1062.5 540.945 1062.5 542.135V548.33C1062.5 548.75 1062.64 549.03 1062.92 549.17C1063.27 549.24 1063.62 549.065 1063.97 548.645C1065.37 546.755 1066.94 545.11 1068.69 543.71C1070.51 542.31 1072.37 541.225 1074.26 540.455C1076.15 539.685 1077.93 539.3 1079.61 539.3C1082.13 539.3 1083.39 539.895 1083.39 541.085V553.265C1083.39 554.385 1082.87 554.84 1081.82 554.63C1080.56 554.28 1079.26 554.07 1077.93 554C1076.6 553.86 1075.45 553.79 1074.47 553.79C1073.21 553.79 1071.88 554.035 1070.48 554.525C1069.15 555.015 1067.92 555.715 1066.8 556.625C1065.68 557.535 1064.77 558.515 1064.07 559.565C1063.37 560.615 1063.02 561.735 1063.02 562.925V593.585C1063.02 595.195 1062.11 596 1060.29 596H1049.06ZM1142.28 540.35C1142.98 540.35 1143.43 540.595 1143.64 541.085C1143.92 541.575 1143.96 542.135 1143.75 542.765L1122.96 593.795C1122.33 595.265 1121.21 596 1119.6 596H1112.14C1110.46 596 1109.34 595.265 1108.78 593.795L1088.1 542.87C1087.82 542.17 1087.82 541.575 1088.1 541.085C1088.45 540.595 1088.97 540.35 1089.67 540.35H1103.01C1103.57 540.35 1104.06 540.525 1104.48 540.875C1104.9 541.155 1105.18 541.575 1105.32 542.135L1117.39 573.11C1117.88 574.44 1118.44 574.405 1119.07 573.005L1130.94 542.03C1131.15 541.54 1131.43 541.155 1131.78 540.875C1132.2 540.525 1132.69 540.35 1133.25 540.35H1142.28ZM1167.92 593.48C1167.92 594.39 1167.71 595.055 1167.29 595.475C1166.87 595.825 1166.14 596 1165.09 596H1154.06C1153.15 596 1152.52 595.825 1152.17 595.475C1151.89 595.125 1151.75 594.565 1151.75 593.795V542.345C1151.75 541.015 1152.31 540.35 1153.43 540.35H1166.35C1167.4 540.35 1167.92 540.945 1167.92 542.135V593.48ZM1168.13 531.005C1168.13 532.755 1167.19 533.63 1165.3 533.63H1153.96C1153.05 533.63 1152.42 533.42 1152.07 533C1151.79 532.58 1151.65 531.985 1151.65 531.215V520.19C1151.65 518.79 1152.24 518.09 1153.43 518.09H1166.45C1167.57 518.09 1168.13 518.755 1168.13 520.085V531.005ZM1204.95 539.3C1209.5 539.3 1213.35 540.105 1216.5 541.715C1219.72 543.255 1222.34 545.25 1224.37 547.7C1226.4 550.15 1227.84 552.67 1228.68 555.26C1229.17 556.66 1228.75 557.395 1227.42 557.465L1216.39 558.515C1215.62 558.585 1215.1 558.2 1214.82 557.36C1214.19 556.03 1213.49 554.805 1212.72 553.685C1211.95 552.565 1211 551.655 1209.88 550.955C1208.76 550.255 1207.29 549.905 1205.47 549.905C1203.09 549.905 1200.99 550.57 1199.17 551.9C1197.35 553.23 1195.92 555.26 1194.87 557.99C1193.89 560.65 1193.4 564.045 1193.4 568.175C1193.4 572.375 1193.92 575.84 1194.97 578.57C1196.02 581.3 1197.49 583.33 1199.38 584.66C1201.34 585.99 1203.65 586.655 1206.31 586.655C1209.39 586.655 1211.81 585.85 1213.56 584.24C1215.38 582.63 1217.09 580.46 1218.7 577.73C1218.91 577.38 1219.12 577.17 1219.33 577.1C1219.54 577.03 1219.93 577.065 1220.49 577.205L1228.26 578.99C1229.03 579.2 1229.27 579.865 1228.99 580.985C1228.43 582.525 1227.56 584.24 1226.37 586.13C1225.18 588.02 1223.6 589.77 1221.64 591.38C1219.75 592.99 1217.41 594.355 1214.61 595.475C1211.88 596.525 1208.66 597.05 1204.95 597.05C1199.56 597.05 1194.76 595.86 1190.56 593.48C1186.36 591.03 1183.04 587.67 1180.59 583.4C1178.21 579.06 1177.02 574.055 1177.02 568.385C1177.02 562.645 1178.24 557.605 1180.69 553.265C1183.14 548.855 1186.47 545.425 1190.67 542.975C1194.87 540.525 1199.63 539.3 1204.95 539.3ZM1251.24 572.9C1251.24 575.49 1251.83 577.8 1253.02 579.83C1254.28 581.79 1255.93 583.33 1257.96 584.45C1260.06 585.5 1262.4 586.025 1264.99 586.025C1267.51 586.025 1269.82 585.5 1271.92 584.45C1274.09 583.33 1276.26 581.51 1278.43 578.99C1278.71 578.71 1278.96 578.57 1279.17 578.57C1279.38 578.5 1279.76 578.605 1280.32 578.885L1287.88 582.035C1288.86 582.455 1288.97 583.155 1288.2 584.135C1285.96 587.355 1283.61 589.91 1281.16 591.8C1278.71 593.69 1275.98 595.055 1272.97 595.895C1270.03 596.665 1266.71 597.05 1263 597.05C1257.54 597.05 1252.67 595.86 1248.4 593.48C1244.13 591.1 1240.74 587.81 1238.22 583.61C1235.77 579.34 1234.54 574.475 1234.54 569.015C1234.54 562.995 1235.8 557.78 1238.32 553.37C1240.91 548.89 1244.34 545.425 1248.61 542.975C1252.88 540.525 1257.57 539.3 1262.68 539.3C1268.07 539.3 1272.8 540.49 1276.86 542.87C1280.92 545.18 1284.1 548.505 1286.41 552.845C1288.79 557.185 1289.98 562.47 1289.98 568.7C1289.98 569.47 1289.91 570.065 1289.77 570.485C1289.63 570.905 1289.11 571.15 1288.2 571.22H1252.5C1252.08 571.22 1251.76 571.36 1251.55 571.64C1251.34 571.92 1251.24 572.34 1251.24 572.9ZM1272.34 562.4C1273.11 562.4 1273.6 562.33 1273.81 562.19C1274.02 561.98 1274.13 561.56 1274.13 560.93C1274.13 559.18 1273.71 557.395 1272.87 555.575C1272.1 553.755 1270.91 552.25 1269.3 551.06C1267.76 549.8 1265.76 549.17 1263.31 549.17C1261 549.17 1258.94 549.73 1257.12 550.85C1255.3 551.97 1253.9 553.545 1252.92 555.575C1251.94 557.535 1251.45 559.775 1251.45 562.295L1272.34 562.4ZM1332.92 554.84C1331.73 553.3 1330.12 551.97 1328.09 550.85C1326.06 549.73 1323.58 549.17 1320.64 549.17C1318.05 549.17 1315.84 549.695 1314.02 550.745C1312.27 551.725 1311.4 553.09 1311.4 554.84C1311.4 555.75 1311.75 556.625 1312.45 557.465C1313.15 558.235 1314.76 558.935 1317.28 559.565L1329.35 562.505C1335.16 563.835 1339.29 566.005 1341.74 569.015C1344.19 572.025 1345.42 575.385 1345.42 579.095C1345.42 582.875 1344.33 586.095 1342.16 588.755C1340.06 591.415 1337.12 593.48 1333.34 594.95C1329.56 596.35 1325.22 597.05 1320.32 597.05C1314.09 597.05 1308.81 595.965 1304.47 593.795C1300.13 591.555 1297.08 588.79 1295.33 585.5C1295.05 585.01 1294.91 584.555 1294.91 584.135C1294.91 583.645 1295.12 583.295 1295.54 583.085L1302.68 579.41C1303.38 579.06 1303.91 578.92 1304.26 578.99C1304.68 578.99 1305.03 579.165 1305.31 579.515C1306.22 580.775 1307.3 581.965 1308.56 583.085C1309.82 584.205 1311.4 585.115 1313.29 585.815C1315.18 586.445 1317.56 586.725 1320.43 586.655C1322.39 586.655 1324.14 586.445 1325.68 586.025C1327.29 585.535 1328.55 584.87 1329.46 584.03C1330.37 583.12 1330.82 582.07 1330.82 580.88C1330.82 579.69 1330.33 578.675 1329.35 577.835C1328.37 576.925 1326.55 576.155 1323.89 575.525L1313.08 573.215C1307.83 572.025 1303.84 570.17 1301.11 567.65C1298.45 565.06 1297.12 561.7 1297.12 557.57C1297.12 554 1298.03 550.85 1299.85 548.12C1301.74 545.39 1304.47 543.255 1308.04 541.715C1311.61 540.105 1315.88 539.3 1320.85 539.3C1326.17 539.3 1330.75 540.28 1334.6 542.24C1338.52 544.2 1341.32 546.545 1343 549.275C1343.28 549.695 1343.49 550.15 1343.63 550.64C1343.77 551.06 1343.53 551.445 1342.9 551.795L1335.34 555.47C1334.85 555.68 1334.39 555.75 1333.97 555.68C1333.62 555.54 1333.27 555.26 1332.92 554.84Z" fill="white"/>
<path d="M274.4 639.512C274.699 639.512 274.891 639.597 274.976 639.768C275.104 639.939 275.147 640.152 275.104 640.408L261.856 686.168C261.685 686.723 261.28 687 260.64 687H257.504C256.779 687 256.331 686.744 256.16 686.232L245.344 647.832C245.301 647.619 245.237 647.512 245.152 647.512C245.109 647.512 245.045 647.619 244.96 647.832L234.016 686.168C233.845 686.723 233.44 687 232.8 687H229.6C228.875 687 228.427 686.744 228.256 686.232L215.264 640.472C215.221 640.173 215.264 639.939 215.392 639.768C215.52 639.597 215.733 639.512 216.032 639.512H219.104C219.403 639.512 219.616 639.555 219.744 639.64C219.915 639.725 220.021 639.896 220.064 640.152L231.072 679.576C231.2 680.003 231.328 680.216 231.456 680.216C231.584 680.173 231.712 679.939 231.84 679.512L243.04 640.088C243.125 639.96 243.232 639.832 243.36 639.704C243.488 639.576 243.723 639.512 244.064 639.512H246.88C247.221 639.512 247.456 639.555 247.584 639.64C247.712 639.725 247.797 639.896 247.84 640.152L258.912 679.64C259.04 680.024 259.168 680.216 259.296 680.216C259.424 680.216 259.552 680.024 259.68 679.64L270.88 640.088C270.923 639.875 271.029 639.725 271.2 639.64C271.371 639.555 271.584 639.512 271.84 639.512H274.4ZM281.866 671.96C281.866 674.136 282.399 676.163 283.466 678.04C284.533 679.917 285.941 681.432 287.69 682.584C289.482 683.693 291.487 684.248 293.706 684.248C296.053 684.248 298.079 683.779 299.786 682.84C301.535 681.901 303.007 680.515 304.202 678.68C304.33 678.467 304.458 678.36 304.586 678.36C304.714 678.317 304.863 678.339 305.034 678.424L307.21 679.64C307.551 679.811 307.573 680.067 307.274 680.408C306.207 682.029 304.991 683.373 303.626 684.44C302.303 685.507 300.789 686.317 299.082 686.872C297.375 687.384 295.498 687.64 293.45 687.64C290.293 687.64 287.519 686.915 285.13 685.464C282.741 684.013 280.863 681.987 279.498 679.384C278.133 676.739 277.45 673.731 277.45 670.36C277.45 666.605 278.154 663.405 279.562 660.76C280.97 658.115 282.869 656.067 285.258 654.616C287.647 653.165 290.357 652.44 293.386 652.44C296.458 652.44 299.125 653.123 301.386 654.488C303.647 655.853 305.397 657.816 306.634 660.376C307.871 662.936 308.49 666.029 308.49 669.656C308.49 669.955 308.447 670.253 308.362 670.552C308.319 670.851 308.063 671 307.594 671H282.314C282.186 671 282.079 671.107 281.994 671.32C281.909 671.491 281.866 671.704 281.866 671.96ZM303.114 667.992C303.583 667.992 303.882 667.928 304.01 667.8C304.138 667.672 304.202 667.437 304.202 667.096C304.202 665.048 303.754 663.171 302.858 661.464C302.005 659.715 300.767 658.328 299.146 657.304C297.567 656.237 295.669 655.704 293.45 655.704C290.933 655.704 288.821 656.323 287.114 657.56C285.407 658.755 284.106 660.291 283.21 662.168C282.357 664.045 281.93 665.987 281.93 667.992H303.114ZM349.124 687.64C345.113 687.64 341.636 686.68 338.692 684.76C335.79 682.84 333.55 680.088 331.972 676.504C330.436 672.877 329.668 668.525 329.668 663.448C329.668 658.243 330.478 653.805 332.1 650.136C333.721 646.467 336.004 643.672 338.948 641.752C341.892 639.832 345.348 638.872 349.316 638.872C352.174 638.872 354.82 639.469 357.252 640.664C359.684 641.816 361.71 643.352 363.332 645.272C364.953 647.192 365.913 649.261 366.212 651.48C366.254 651.736 366.254 651.928 366.212 652.056C366.169 652.141 366.041 652.227 365.828 652.312L362.18 652.888C362.009 652.931 361.881 652.909 361.796 652.824C361.71 652.739 361.646 652.589 361.604 652.376C361.262 650.541 360.516 648.899 359.364 647.448C358.254 645.997 356.825 644.845 355.076 643.992C353.369 643.139 351.428 642.712 349.252 642.712C346.137 642.712 343.492 643.501 341.316 645.08C339.182 646.659 337.54 648.963 336.388 651.992C335.278 655.021 334.724 658.712 334.724 663.064C334.724 667.629 335.278 671.448 336.388 674.52C337.497 677.592 339.14 679.896 341.316 681.432C343.534 682.968 346.222 683.736 349.38 683.736C351.598 683.736 353.54 683.352 355.204 682.584C356.91 681.816 358.297 680.792 359.364 679.512C360.473 678.232 361.305 676.845 361.86 675.352C362.457 673.859 362.777 672.429 362.819 671.064V666.776C362.862 666.349 362.649 666.136 362.18 666.136H351.044C350.83 666.136 350.681 666.093 350.596 666.008C350.51 665.923 350.468 665.795 350.468 665.624V663.384C350.468 663.043 350.617 662.872 350.916 662.872H366.532C366.745 662.872 366.916 662.936 367.044 663.064C367.172 663.192 367.236 663.341 367.236 663.512V686.232C367.236 686.531 367.172 686.744 367.044 686.872C366.916 686.957 366.745 687 366.532 687H365.188C364.932 687 364.697 686.979 364.484 686.936C364.313 686.851 364.206 686.637 364.164 686.296L363.78 680.024C363.737 679.811 363.652 679.704 363.524 679.704C363.438 679.704 363.332 679.811 363.204 680.024C362.393 681.432 361.348 682.712 360.068 683.864C358.788 685.016 357.252 685.933 355.46 686.616C353.668 687.299 351.556 687.64 349.124 687.64ZM381.786 686.04C381.786 686.424 381.722 686.68 381.594 686.808C381.466 686.936 381.189 687 380.762 687H378.394C378.053 687 377.818 686.957 377.69 686.872C377.605 686.744 377.562 686.531 377.562 686.232V653.848C377.562 653.336 377.797 653.08 378.266 653.08H381.082C381.551 653.08 381.786 653.336 381.786 653.848V686.04ZM382.042 645.336C382.042 646.104 381.722 646.488 381.082 646.488H378.138C377.797 646.488 377.562 646.403 377.434 646.232C377.349 646.061 377.306 645.805 377.306 645.464V640.472C377.306 639.832 377.583 639.512 378.138 639.512H381.21C381.765 639.512 382.042 639.811 382.042 640.408V645.336ZM419.189 653.08C419.445 653.08 419.616 653.165 419.701 653.336C419.829 653.464 419.85 653.635 419.765 653.848L406.645 686.168C406.432 686.723 405.984 687 405.301 687H403.573C402.805 687 402.314 686.744 402.101 686.232L389.045 653.912C389.002 653.656 389.024 653.464 389.109 653.336C389.237 653.165 389.429 653.08 389.685 653.08H392.629C392.885 653.08 393.077 653.123 393.205 653.208C393.376 653.293 393.482 653.464 393.525 653.72L404.277 680.472C404.576 681.283 404.917 681.261 405.301 680.408L415.989 653.656C416.074 653.443 416.181 653.293 416.309 653.208C416.437 653.123 416.608 653.08 416.821 653.08H419.189ZM427.866 671.96C427.866 674.136 428.399 676.163 429.466 678.04C430.533 679.917 431.941 681.432 433.69 682.584C435.482 683.693 437.487 684.248 439.706 684.248C442.053 684.248 444.079 683.779 445.786 682.84C447.535 681.901 449.007 680.515 450.202 678.68C450.33 678.467 450.458 678.36 450.586 678.36C450.714 678.317 450.863 678.339 451.034 678.424L453.21 679.64C453.551 679.811 453.573 680.067 453.274 680.408C452.207 682.029 450.991 683.373 449.626 684.44C448.303 685.507 446.789 686.317 445.082 686.872C443.375 687.384 441.498 687.64 439.45 687.64C436.293 687.64 433.519 686.915 431.13 685.464C428.741 684.013 426.863 681.987 425.498 679.384C424.133 676.739 423.45 673.731 423.45 670.36C423.45 666.605 424.154 663.405 425.562 660.76C426.97 658.115 428.869 656.067 431.258 654.616C433.647 653.165 436.357 652.44 439.386 652.44C442.458 652.44 445.125 653.123 447.386 654.488C449.647 655.853 451.397 657.816 452.634 660.376C453.871 662.936 454.49 666.029 454.49 669.656C454.49 669.955 454.447 670.253 454.362 670.552C454.319 670.851 454.063 671 453.594 671H428.314C428.186 671 428.079 671.107 427.994 671.32C427.909 671.491 427.866 671.704 427.866 671.96ZM449.114 667.992C449.583 667.992 449.882 667.928 450.01 667.8C450.138 667.672 450.202 667.437 450.202 667.096C450.202 665.048 449.754 663.171 448.858 661.464C448.005 659.715 446.767 658.328 445.146 657.304C443.567 656.237 441.669 655.704 439.45 655.704C436.933 655.704 434.821 656.323 433.114 657.56C431.407 658.755 430.106 660.291 429.21 662.168C428.357 664.045 427.93 665.987 427.93 667.992H449.114ZM512.276 639.512C512.702 639.512 512.916 639.747 512.916 640.216V686.296C512.916 686.509 512.852 686.68 512.724 686.808C512.638 686.936 512.468 687 512.212 687H509.972C509.716 687 509.481 686.979 509.268 686.936C509.054 686.893 508.862 686.765 508.692 686.552L482.9 648.792C482.686 648.493 482.494 648.365 482.324 648.408C482.196 648.451 482.132 648.6 482.132 648.856V686.296C482.132 686.765 481.876 687 481.364 687H478.612C478.1 687 477.844 686.744 477.844 686.232V640.28C477.844 639.768 478.078 639.512 478.548 639.512H481.236C481.534 639.512 481.748 639.555 481.876 639.64C482.046 639.683 482.217 639.832 482.388 640.088L507.732 677.336C507.988 677.635 508.201 677.741 508.372 677.656C508.585 677.571 508.692 677.4 508.692 677.144V640.216C508.692 639.747 508.905 639.512 509.332 639.512H512.276ZM527.179 671.96C527.179 674.136 527.712 676.163 528.779 678.04C529.845 679.917 531.253 681.432 533.003 682.584C534.795 683.693 536.8 684.248 539.019 684.248C541.365 684.248 543.392 683.779 545.099 682.84C546.848 681.901 548.32 680.515 549.515 678.68C549.643 678.467 549.771 678.36 549.899 678.36C550.027 678.317 550.176 678.339 550.347 678.424L552.523 679.64C552.864 679.811 552.885 680.067 552.587 680.408C551.52 682.029 550.304 683.373 548.939 684.44C547.616 685.507 546.101 686.317 544.395 686.872C542.688 687.384 540.811 687.64 538.763 687.64C535.605 687.64 532.832 686.915 530.443 685.464C528.053 684.013 526.176 681.987 524.811 679.384C523.445 676.739 522.763 673.731 522.763 670.36C522.763 666.605 523.467 663.405 524.875 660.76C526.283 658.115 528.181 656.067 530.571 654.616C532.96 653.165 535.669 652.44 538.699 652.44C541.771 652.44 544.437 653.123 546.699 654.488C548.96 655.853 550.709 657.816 551.947 660.376C553.184 662.936 553.803 666.029 553.803 669.656C553.803 669.955 553.76 670.253 553.675 670.552C553.632 670.851 553.376 671 552.907 671H527.627C527.499 671 527.392 671.107 527.307 671.32C527.221 671.491 527.179 671.704 527.179 671.96ZM548.427 667.992C548.896 667.992 549.195 667.928 549.323 667.8C549.451 667.672 549.515 667.437 549.515 667.096C549.515 665.048 549.067 663.171 548.171 661.464C547.317 659.715 546.08 658.328 544.459 657.304C542.88 656.237 540.981 655.704 538.763 655.704C536.245 655.704 534.133 656.323 532.427 657.56C530.72 658.755 529.419 660.291 528.523 662.168C527.669 664.045 527.243 665.987 527.243 667.992H548.427ZM603.747 653.08C604.003 653.08 604.174 653.165 604.259 653.336C604.387 653.464 604.408 653.635 604.323 653.848L594.659 686.232C594.616 686.531 594.488 686.744 594.275 686.872C594.104 686.957 593.848 687 593.507 687H591.011C590.328 687 589.902 686.744 589.731 686.232L581.603 660.696C581.432 660.312 581.283 660.12 581.155 660.12C581.07 660.12 580.984 660.312 580.899 660.696L573.155 686.232C573.112 686.531 573.006 686.744 572.835 686.872C572.664 686.957 572.408 687 572.067 687H569.379C568.696 687 568.27 686.744 568.099 686.232L558.051 653.912C557.966 653.656 557.966 653.464 558.051 653.336C558.179 653.165 558.392 653.08 558.691 653.08H561.507C561.763 653.08 561.955 653.123 562.083 653.208C562.254 653.293 562.36 653.464 562.403 653.72L570.595 680.344C570.723 680.771 570.872 680.984 571.043 680.984C571.214 680.941 571.363 680.707 571.491 680.28L579.555 653.592C579.64 653.421 579.747 653.293 579.875 653.208C580.003 653.123 580.174 653.08 580.387 653.08H582.755C582.968 653.08 583.16 653.123 583.331 653.208C583.502 653.293 583.608 653.464 583.651 653.72L592.099 680.344C592.227 680.771 592.376 680.984 592.547 680.984C592.718 680.941 592.867 680.707 592.995 680.28L600.803 653.656C600.888 653.443 601.016 653.293 601.187 653.208C601.358 653.123 601.55 653.08 601.763 653.08H603.747ZM627.031 640.28C627.031 639.768 627.266 639.512 627.735 639.512H631.191C631.618 639.512 631.831 639.768 631.831 640.28V682.52C631.831 682.947 632.044 683.16 632.471 683.16H655.063C655.49 683.16 655.703 683.352 655.703 683.736V686.424C655.703 686.595 655.66 686.744 655.575 686.872C655.49 686.957 655.319 687 655.063 687H627.799C627.5 687 627.287 686.936 627.159 686.808C627.074 686.68 627.031 686.488 627.031 686.232V640.28ZM668.036 686.04C668.036 686.424 667.972 686.68 667.844 686.808C667.716 686.936 667.439 687 667.012 687H664.644C664.303 687 664.068 686.957 663.94 686.872C663.855 686.744 663.812 686.531 663.812 686.232V653.848C663.812 653.336 664.047 653.08 664.516 653.08H667.332C667.801 653.08 668.036 653.336 668.036 653.848V686.04ZM668.292 645.336C668.292 646.104 667.972 646.488 667.332 646.488H664.388C664.047 646.488 663.812 646.403 663.684 646.232C663.599 646.061 663.556 645.805 663.556 645.464V640.472C663.556 639.832 663.833 639.512 664.388 639.512H667.46C668.015 639.512 668.292 639.811 668.292 640.408V645.336ZM695.135 653.08C695.306 653.08 695.434 653.144 695.519 653.272C695.604 653.357 695.647 653.485 695.647 653.656V655.832C695.647 656.173 695.455 656.344 695.071 656.344H687.327C686.986 656.344 686.815 656.515 686.815 656.856V686.168C686.815 686.723 686.602 687 686.175 687H683.231C682.804 687 682.591 686.744 682.591 686.232V656.856C682.591 656.515 682.463 656.344 682.207 656.344H675.487C675.146 656.344 674.975 656.173 674.975 655.832V653.656C674.975 653.485 675.018 653.357 675.103 653.272C675.188 653.144 675.338 653.08 675.551 653.08H682.079C682.42 653.08 682.591 652.888 682.591 652.504V647.64C682.591 644.952 683.21 642.925 684.447 641.56C685.684 640.195 687.647 639.512 690.335 639.512H695.327C695.754 639.512 695.967 639.725 695.967 640.152V642.136C695.967 642.349 695.903 642.499 695.775 642.584C695.69 642.669 695.54 642.712 695.327 642.712H690.591C689.183 642.712 688.18 643.139 687.583 643.992C687.028 644.845 686.751 646.04 686.751 647.576V652.568C686.751 652.909 686.922 653.08 687.263 653.08H695.135ZM703.616 671.96C703.616 674.136 704.149 676.163 705.216 678.04C706.283 679.917 707.691 681.432 709.44 682.584C711.232 683.693 713.237 684.248 715.456 684.248C717.803 684.248 719.829 683.779 721.536 682.84C723.285 681.901 724.757 680.515 725.952 678.68C726.08 678.467 726.208 678.36 726.336 678.36C726.464 678.317 726.613 678.339 726.784 678.424L728.96 679.64C729.301 679.811 729.323 680.067 729.024 680.408C727.957 682.029 726.741 683.373 725.376 684.44C724.053 685.507 722.539 686.317 720.832 686.872C719.125 687.384 717.248 687.64 715.2 687.64C712.043 687.64 709.269 686.915 706.88 685.464C704.491 684.013 702.613 681.987 701.248 679.384C699.883 676.739 699.2 673.731 699.2 670.36C699.2 666.605 699.904 663.405 701.312 660.76C702.72 658.115 704.619 656.067 707.008 654.616C709.397 653.165 712.107 652.44 715.136 652.44C718.208 652.44 720.875 653.123 723.136 654.488C725.397 655.853 727.147 657.816 728.384 660.376C729.621 662.936 730.24 666.029 730.24 669.656C730.24 669.955 730.197 670.253 730.112 670.552C730.069 670.851 729.813 671 729.344 671H704.064C703.936 671 703.829 671.107 703.744 671.32C703.659 671.491 703.616 671.704 703.616 671.96ZM724.864 667.992C725.333 667.992 725.632 667.928 725.76 667.8C725.888 667.672 725.952 667.437 725.952 667.096C725.952 665.048 725.504 663.171 724.608 661.464C723.755 659.715 722.517 658.328 720.896 657.304C719.317 656.237 717.419 655.704 715.2 655.704C712.683 655.704 710.571 656.323 708.864 657.56C707.157 658.755 705.856 660.291 704.96 662.168C704.107 664.045 703.68 665.987 703.68 667.992H724.864ZM749.754 640.152C749.754 639.939 749.796 639.789 749.882 639.704C749.967 639.576 750.138 639.512 750.394 639.512H784.186C784.442 639.512 784.612 639.576 784.698 639.704C784.783 639.789 784.826 639.939 784.826 640.152V642.776C784.826 643.16 784.612 643.352 784.186 643.352H770.938C770.468 643.352 770.234 643.544 770.234 643.928V686.232C770.234 686.744 770.02 687 769.594 687H766.138C765.668 687 765.434 686.744 765.434 686.232V643.928C765.434 643.544 765.22 643.352 764.794 643.352H750.394C749.967 643.352 749.754 643.16 749.754 642.776V640.152ZM800.199 687.64C797.041 687.64 794.247 686.915 791.815 685.464C789.425 683.971 787.569 681.923 786.247 679.32C784.924 676.675 784.263 673.645 784.263 670.232C784.263 666.733 784.924 663.661 786.247 661.016C787.612 658.328 789.489 656.237 791.879 654.744C794.311 653.208 797.105 652.44 800.263 652.44C803.463 652.44 806.236 653.187 808.583 654.68C810.972 656.173 812.828 658.264 814.151 660.952C815.473 663.597 816.135 666.648 816.135 670.104C816.135 673.56 815.452 676.611 814.087 679.256C812.764 681.859 810.908 683.907 808.519 685.4C806.172 686.893 803.399 687.64 800.199 687.64ZM800.327 684.248C802.716 684.248 804.764 683.672 806.471 682.52C808.177 681.368 809.479 679.725 810.375 677.592C811.313 675.459 811.783 672.963 811.783 670.104C811.783 667.203 811.313 664.685 810.375 662.552C809.436 660.376 808.092 658.712 806.343 657.56C804.636 656.365 802.609 655.768 800.263 655.768C797.916 655.768 795.868 656.365 794.119 657.56C792.369 658.712 791.004 660.376 790.023 662.552C789.084 664.685 788.615 667.203 788.615 670.104C788.615 672.963 789.084 675.459 790.023 677.592C791.004 679.725 792.369 681.368 794.119 682.52C795.868 683.672 797.937 684.248 800.327 684.248ZM872.036 639.512C872.292 639.512 872.462 639.597 872.548 639.768C872.633 639.896 872.612 640.088 872.484 640.344L857.252 666.008C857.081 666.221 856.974 666.435 856.932 666.648C856.932 666.861 856.932 667.224 856.932 667.736V685.976C856.932 686.659 856.548 687 855.78 687H853.028C852.644 687 852.388 686.936 852.26 686.808C852.132 686.637 852.068 686.424 852.068 686.168V668.184C852.068 667.8 852.025 667.523 851.94 667.352C851.897 667.139 851.812 666.904 851.684 666.648L836.132 640.472C836.004 640.173 835.982 639.939 836.068 639.768C836.196 639.597 836.43 639.512 836.772 639.512H840.1C840.441 639.512 840.676 639.576 840.804 639.704C840.974 639.789 841.145 639.96 841.316 640.216L853.86 661.656C854.116 662.168 854.35 662.424 854.564 662.424C854.82 662.424 855.076 662.211 855.332 661.784L867.748 640.216C867.961 639.917 868.132 639.725 868.26 639.64C868.388 639.555 868.622 639.512 868.964 639.512H872.036ZM888.011 687.64C884.854 687.64 882.059 686.915 879.627 685.464C877.238 683.971 875.382 681.923 874.059 679.32C872.736 676.675 872.075 673.645 872.075 670.232C872.075 666.733 872.736 663.661 874.059 661.016C875.424 658.328 877.302 656.237 879.691 654.744C882.123 653.208 884.918 652.44 888.075 652.44C891.275 652.44 894.048 653.187 896.395 654.68C898.784 656.173 900.64 658.264 901.963 660.952C903.286 663.597 903.947 666.648 903.947 670.104C903.947 673.56 903.264 676.611 901.899 679.256C900.576 681.859 898.72 683.907 896.331 685.4C893.984 686.893 891.211 687.64 888.011 687.64ZM888.139 684.248C890.528 684.248 892.576 683.672 894.283 682.52C895.99 681.368 897.291 679.725 898.187 677.592C899.126 675.459 899.595 672.963 899.595 670.104C899.595 667.203 899.126 664.685 898.187 662.552C897.248 660.376 895.904 658.712 894.155 657.56C892.448 656.365 890.422 655.768 888.075 655.768C885.728 655.768 883.68 656.365 881.931 657.56C880.182 658.712 878.816 660.376 877.835 662.552C876.896 664.685 876.427 667.203 876.427 670.104C876.427 672.963 876.896 675.459 877.835 677.592C878.816 679.725 880.182 681.368 881.931 682.52C883.68 683.672 885.75 684.248 888.139 684.248ZM923.253 684.12C925.258 684.12 927.157 683.587 928.949 682.52C930.784 681.453 932.618 679.981 934.453 678.104V653.848C934.453 653.336 934.73 653.08 935.285 653.08H937.973C938.442 653.08 938.677 653.336 938.677 653.848V686.296C938.677 686.765 938.464 687 938.037 687H935.285C934.858 687 934.645 686.787 934.645 686.36V682.456C934.645 682.243 934.602 682.115 934.517 682.072C934.432 682.029 934.282 682.093 934.069 682.264C931.594 684.355 929.44 685.784 927.605 686.552C925.813 687.277 924.042 687.64 922.293 687.64C920.33 687.64 918.56 687.256 916.981 686.488C915.445 685.677 914.208 684.547 913.269 683.096C912.373 681.603 911.925 679.917 911.925 678.04V653.912C911.925 653.357 912.202 653.08 912.757 653.08H915.445C915.914 653.08 916.149 653.336 916.149 653.848V676.632C916.149 678.851 916.768 680.664 918.005 682.072C919.285 683.437 921.034 684.12 923.253 684.12ZM950.08 687C949.824 687 949.632 686.936 949.504 686.808C949.376 686.68 949.312 686.488 949.312 686.232V653.784C949.312 653.315 949.525 653.08 949.952 653.08H952.704C953.088 653.08 953.28 653.293 953.28 653.72V657.944C953.28 658.157 953.344 658.285 953.472 658.328C953.6 658.371 953.749 658.307 953.92 658.136C955.072 656.771 956.203 655.683 957.312 654.872C958.421 654.019 959.509 653.4 960.576 653.016C961.685 652.632 962.795 652.44 963.904 652.44C965.44 652.44 966.208 652.696 966.208 653.208V656.152C966.208 656.493 966.037 656.643 965.696 656.6C965.397 656.557 965.035 656.515 964.608 656.472C964.224 656.429 963.755 656.408 963.2 656.408C962.219 656.408 961.173 656.643 960.064 657.112C958.955 657.539 957.909 658.136 956.928 658.904C955.947 659.672 955.136 660.525 954.496 661.464C953.856 662.403 953.536 663.363 953.536 664.344V686.232C953.536 686.744 953.259 687 952.704 687H950.08ZM993.656 664.28C993.314 664.28 993.144 664.451 993.144 664.792V686.232C993.144 686.744 992.866 687 992.312 687H989.112C988.813 687 988.6 686.936 988.472 686.808C988.386 686.68 988.344 686.488 988.344 686.232V640.28C988.344 639.768 988.578 639.512 989.048 639.512H992.504C992.93 639.512 993.144 639.768 993.144 640.28V659.672C993.144 660.141 993.378 660.376 993.848 660.376H1016.38C1016.8 660.376 1017.02 660.163 1017.02 659.736V640.216C1017.02 639.747 1017.21 639.512 1017.59 639.512H1021.11C1021.58 639.512 1021.82 639.768 1021.82 640.28V686.232C1021.82 686.488 1021.75 686.68 1021.62 686.808C1021.54 686.936 1021.35 687 1021.05 687H1017.85C1017.29 687 1017.02 686.744 1017.02 686.232V664.856C1017.02 664.472 1016.82 664.28 1016.44 664.28H993.656ZM1047.64 687.64C1044.48 687.64 1041.68 686.915 1039.25 685.464C1036.86 683.971 1035.01 681.923 1033.68 679.32C1032.36 676.675 1031.7 673.645 1031.7 670.232C1031.7 666.733 1032.36 663.661 1033.68 661.016C1035.05 658.328 1036.93 656.237 1039.32 654.744C1041.75 653.208 1044.54 652.44 1047.7 652.44C1050.9 652.44 1053.67 653.187 1056.02 654.68C1058.41 656.173 1060.27 658.264 1061.59 660.952C1062.91 663.597 1063.57 666.648 1063.57 670.104C1063.57 673.56 1062.89 676.611 1061.52 679.256C1060.2 681.859 1058.35 683.907 1055.96 685.4C1053.61 686.893 1050.84 687.64 1047.64 687.64ZM1047.76 684.248C1050.15 684.248 1052.2 683.672 1053.91 682.52C1055.61 681.368 1056.92 679.725 1057.81 677.592C1058.75 675.459 1059.22 672.963 1059.22 670.104C1059.22 667.203 1058.75 664.685 1057.81 662.552C1056.87 660.376 1055.53 658.712 1053.78 657.56C1052.07 656.365 1050.05 655.768 1047.7 655.768C1045.35 655.768 1043.31 656.365 1041.56 657.56C1039.81 658.712 1038.44 660.376 1037.46 662.552C1036.52 664.685 1036.05 667.203 1036.05 670.104C1036.05 672.963 1036.52 675.459 1037.46 677.592C1038.44 679.725 1039.81 681.368 1041.56 682.52C1043.31 683.672 1045.37 684.248 1047.76 684.248ZM1072.83 687C1072.32 687 1072.06 686.744 1072.06 686.232V653.784C1072.06 653.315 1072.28 653.08 1072.7 653.08H1075.45C1075.88 653.08 1076.09 653.293 1076.09 653.72V657.496C1076.09 657.709 1076.14 657.859 1076.22 657.944C1076.31 657.987 1076.46 657.901 1076.67 657.688C1078.08 656.579 1079.38 655.64 1080.57 654.872C1081.77 654.061 1082.96 653.464 1084.16 653.08C1085.4 652.653 1086.74 652.44 1088.19 652.44C1090.79 652.44 1092.84 653.037 1094.33 654.232C1095.83 655.384 1096.81 656.643 1097.28 658.008C1097.36 658.179 1097.49 658.243 1097.66 658.2C1097.83 658.157 1098 658.051 1098.17 657.88C1099.62 656.728 1100.95 655.747 1102.14 654.936C1103.38 654.125 1104.62 653.507 1105.85 653.08C1107.09 652.653 1108.44 652.44 1109.89 652.44C1113 652.44 1115.39 653.336 1117.05 655.128C1118.76 656.877 1119.61 659.181 1119.61 662.04V686.168C1119.61 686.723 1119.34 687 1118.78 687H1116.09C1115.88 687 1115.71 686.936 1115.58 686.808C1115.45 686.68 1115.39 686.488 1115.39 686.232V663.128C1115.39 660.867 1114.86 659.117 1113.79 657.88C1112.77 656.6 1111.1 655.96 1108.8 655.96C1107.43 655.96 1106.13 656.216 1104.89 656.728C1103.66 657.197 1102.55 657.795 1101.57 658.52C1100.58 659.245 1099.71 659.928 1098.94 660.568C1098.56 660.867 1098.28 661.144 1098.11 661.4C1097.98 661.656 1097.92 662.019 1097.92 662.488V686.168C1097.92 686.723 1097.66 687 1097.15 687H1094.46C1094.21 687 1094.01 686.936 1093.89 686.808C1093.76 686.68 1093.69 686.488 1093.69 686.232V663.128C1093.69 660.867 1093.18 659.117 1092.16 657.88C1091.13 656.6 1089.45 655.96 1087.1 655.96C1085.18 655.96 1083.43 656.408 1081.85 657.304C1080.28 658.2 1078.42 659.565 1076.29 661.4V686.232C1076.29 686.744 1076.01 687 1075.45 687H1072.83ZM1132.12 671.96C1132.12 674.136 1132.65 676.163 1133.72 678.04C1134.78 679.917 1136.19 681.432 1137.94 682.584C1139.73 683.693 1141.74 684.248 1143.96 684.248C1146.3 684.248 1148.33 683.779 1150.04 682.84C1151.79 681.901 1153.26 680.515 1154.45 678.68C1154.58 678.467 1154.71 678.36 1154.84 678.36C1154.96 678.317 1155.11 678.339 1155.28 678.424L1157.46 679.64C1157.8 679.811 1157.82 680.067 1157.52 680.408C1156.46 682.029 1155.24 683.373 1153.88 684.44C1152.55 685.507 1151.04 686.317 1149.33 686.872C1147.63 687.384 1145.75 687.64 1143.7 687.64C1140.54 687.64 1137.77 686.915 1135.38 685.464C1132.99 684.013 1131.11 681.987 1129.75 679.384C1128.38 676.739 1127.7 673.731 1127.7 670.36C1127.7 666.605 1128.4 663.405 1129.81 660.76C1131.22 658.115 1133.12 656.067 1135.51 654.616C1137.9 653.165 1140.61 652.44 1143.64 652.44C1146.71 652.44 1149.37 653.123 1151.64 654.488C1153.9 655.853 1155.65 657.816 1156.88 660.376C1158.12 662.936 1158.74 666.029 1158.74 669.656C1158.74 669.955 1158.7 670.253 1158.61 670.552C1158.57 670.851 1158.31 671 1157.84 671H1132.56C1132.44 671 1132.33 671.107 1132.24 671.32C1132.16 671.491 1132.12 671.704 1132.12 671.96ZM1153.36 667.992C1153.83 667.992 1154.13 667.928 1154.26 667.8C1154.39 667.672 1154.45 667.437 1154.45 667.096C1154.45 665.048 1154 663.171 1153.11 661.464C1152.25 659.715 1151.02 658.328 1149.4 657.304C1147.82 656.237 1145.92 655.704 1143.7 655.704C1141.18 655.704 1139.07 656.323 1137.36 657.56C1135.66 658.755 1134.36 660.291 1133.46 662.168C1132.61 664.045 1132.18 665.987 1132.18 667.992H1153.36Z" fill="white"/>
</svg>
