<svg width="919" height="1087" viewBox="0 0 919 1087" fill="none" xmlns="http://www.w3.org/2000/svg">
<path d="M482.222 65.5923L584.168 0L685.286 65.5923L584.168 123.565L482.222 65.5923Z" fill="white"/>
<path d="M584.168 123.565L482.222 65.5923V344.194L584.168 601.016V123.565Z" fill="white"/>
<path d="M685.286 65.5923L584.168 123.565V601.016L685.286 575.122L654.622 537.644L685.286 527.195V320.357V65.5923Z" fill="white"/>
<path d="M626.684 294.83L597.155 311.257V350.252L626.684 331.676V294.83Z" fill="#1B5083"/>
<path d="M626.684 239.861L597.155 256.423V295.738L626.684 277.009V239.861Z" fill="#1B5083"/>
<path d="M626.684 183.985L597.155 200.546V239.861L626.684 221.133V183.985Z" fill="#1B5083"/>
<path d="M626.684 347.526L597.155 364.001V402.495L626.684 384.48V347.526Z" fill="#1B5083"/>
<path d="M626.684 457.917L597.155 474.479V513.794L626.684 495.065V457.917Z" fill="#1B5083"/>
<path d="M626.684 402.04L597.155 418.602V457.917L626.684 439.188V402.04Z" fill="#1B5083"/>
<path d="M324.583 221.009L464.503 131.061L603.286 221.009L464.503 300.508L324.583 221.009Z" fill="#1B5083"/>
<path d="M464.503 300.508L324.583 221.009V603.06L464.503 722.764V300.508Z" fill="#1B5083"/>
<path d="M603.286 221.009L464.503 300.508V722.764L603.286 603.06V221.009Z" fill="#1B5083"/>
<path d="M335.486 242.587L378.643 266.891V324.585L335.486 297.101V242.587Z" fill="white"/>
<path d="M409.534 283.927L452.691 308.231V365.016L409.534 338.441V283.927Z" fill="white"/>
<path d="M335.486 486.083L378.643 510.387V568.081L335.486 540.597V486.083Z" fill="white"/>
<path d="M409.534 527.423L452.691 551.727V609.421L409.534 581.937V527.423Z" fill="white"/>
<path d="M335.486 405.22L378.643 429.524V487.218L335.486 459.734V405.22Z" fill="white"/>
<path d="M409.534 446.56L452.691 470.864V528.558L409.534 501.074V446.56Z" fill="white"/>
<path d="M335.486 322.995L378.643 347.299V404.993L335.486 377.509V322.995Z" fill="white"/>
<path d="M409.534 364.335L452.691 388.639V446.333L409.534 418.849V364.335Z" fill="white"/>
<path d="M591.247 242.587L548.09 266.891V324.585L591.247 297.101V242.587Z" fill="white"/>
<path d="M517.2 283.927L474.043 308.231V365.016L517.2 338.441V283.927Z" fill="white"/>
<path d="M591.247 486.083L548.09 510.387V568.081L591.247 540.597V486.083Z" fill="white"/>
<path d="M517.2 527.423L474.043 551.727V609.421L517.2 581.937V527.423Z" fill="white"/>
<path d="M591.247 405.22L548.09 429.524V487.218L591.247 459.734V405.22Z" fill="white"/>
<path d="M517.2 446.56L474.043 470.864V528.558L517.2 501.074V446.56Z" fill="white"/>
<path d="M591.247 322.995L548.09 347.299V404.993L591.247 377.509V322.995Z" fill="white"/>
<path d="M517.2 364.335L474.043 388.639V446.333L517.2 418.849V364.335Z" fill="white"/>
<path d="M676.653 101.305L647.579 117.867V157.182L676.653 138.453V101.305Z" fill="#1B5083"/>
<path d="M626.684 129.471L597.155 145.946V184.439L626.684 166.424V129.471Z" fill="#1B5083"/>
<path d="M676.653 266.664L647.579 283.226V322.541L676.653 303.812V266.664Z" fill="#1B5083"/>
<path d="M676.653 211.696L647.579 228.258V267.573L676.653 248.844V211.696Z" fill="#1B5083"/>
<path d="M676.653 155.819L647.579 172.381V211.696L676.653 192.967V155.819Z" fill="#1B5083"/>
<path d="M676.653 319.361L647.579 335.923V375.238L676.653 356.509V319.361Z" fill="#1B5083"/>
<path d="M676.653 429.751L647.579 446.313V485.628L676.653 466.899V429.751Z" fill="#1B5083"/>
<path d="M676.653 373.875L647.579 390.436V429.751L676.653 411.023V373.875Z" fill="#1B5083"/>
<path d="M271.661 468.252L479.268 721.288L471.318 750.021L271.661 554.112L73.821 786.25H0V750.021H57.9211L271.661 468.252Z" fill="black"/>
<path d="M630.545 503.8L838.152 756.835H898.799V785.569H830.202L630.545 593.066L444.743 785.569L356.158 785.569V756.835H432.705L630.545 503.8Z" fill="black"/>
<path d="M630.317 504.027L895.164 400.904L918.559 434.521L658.255 540.369L630.317 504.027Z" fill="black"/>
<path d="M797.494 568.308H753.429V619.415C764.332 634.633 780.231 654.621 797.494 675.973V568.308Z" fill="black"/>
<path d="M736.62 546.502H814.756V572.851H736.62V546.502Z" fill="black"/>
<path d="M143.532 518.109H187.597V569.216C176.033 582.39 161.042 598.29 143.532 618.96V518.109Z" fill="black"/>
<rect x="126.518" y="517.883" width="78.1366" height="26.3484" fill="black"/>
<path d="M270.98 467.457L325.04 452.693V489.944L298.918 503.8L270.98 467.457Z" fill="black"/>
<rect x="242.814" y="662.799" width="34.5255" height="34.5255" fill="#1B5083"/>
<rect x="284.607" y="662.799" width="34.5255" height="34.5255" fill="#1B5083"/>
<rect x="284.607" y="704.593" width="34.5255" height="34.5255" fill="#1B5083"/>
<rect x="242.814" y="704.593" width="34.5255" height="34.5255" fill="#1B5083"/>
<rect x="600.335" y="683.696" width="34.5255" height="34.5255" fill="#1B5083"/>
<rect x="642.13" y="683.696" width="34.5255" height="34.5255" fill="#1B5083"/>
<rect x="642.13" y="725.49" width="34.5255" height="34.5255" fill="#1B5083"/>
<rect x="600.335" y="725.49" width="34.5255" height="34.5255" fill="#1B5083"/>
<path d="M7.9502 902.305C358.508 808.759 553.277 809.028 897.436 902.305V946.143C550.07 849.428 355.314 816.832 7.9502 916.16V902.305Z" fill="#1B5083"/>
<path d="M496.757 101.305L525.831 117.867V157.182L496.757 138.453V101.305Z" fill="#1B5083"/>
<path d="M546.729 129.471L576.258 145.946V184.439L546.729 166.424V129.471Z" fill="#1B5083"/>
<path d="M100.264 960.512C100.819 960.512 101.096 960.832 101.096 961.472V1006.98C101.096 1007.27 100.989 1007.53 100.776 1007.74C100.563 1007.91 100.264 1008 99.88 1008H93.416C93.0747 1008 92.7973 1007.96 92.584 1007.87C92.3707 1007.79 92.1147 1007.57 91.816 1007.23L71.4 978.56C71.2293 978.347 71.0587 978.261 70.888 978.304C70.76 978.347 70.696 978.475 70.696 978.688V1006.85C70.7387 1007.62 70.312 1008 69.416 1008H62.76C61.9067 1008 61.48 1007.64 61.48 1006.91V961.728C61.48 960.917 61.864 960.512 62.632 960.512H70.376C70.8453 960.512 71.1867 960.576 71.4 960.704C71.656 960.832 71.9333 961.088 72.232 961.472L91.048 988.288C91.304 988.629 91.5173 988.779 91.688 988.736C91.9013 988.693 92.008 988.48 92.008 988.096V961.664C92.008 960.896 92.392 960.512 93.16 960.512H100.264ZM110.043 961.728C110.043 960.917 110.384 960.512 111.067 960.512H143.323C143.963 960.512 144.283 960.875 144.283 961.6L144.219 967.36C144.219 968.256 143.771 968.704 142.875 968.704H122.458C121.648 968.704 121.243 969.045 121.243 969.728V979.008C121.243 979.733 121.563 980.096 122.203 980.096H135.771C136.496 980.096 136.859 980.437 136.859 981.12V987.264C136.859 987.52 136.773 987.733 136.603 987.904C136.475 988.075 136.219 988.16 135.835 988.16H122.139C121.541 988.16 121.243 988.416 121.243 988.928V998.976C121.243 999.531 121.477 999.808 121.947 999.808H143.835C144.603 999.808 144.987 1000.13 144.987 1000.77V1006.85C144.987 1007.19 144.88 1007.47 144.667 1007.68C144.496 1007.89 144.176 1008 143.707 1008H111.451C110.512 1008 110.043 1007.55 110.043 1006.66V961.728ZM213.102 960.512C213.742 960.512 214.19 960.704 214.446 961.088C214.702 961.472 214.744 961.941 214.574 962.496L201.518 1006.66C201.219 1007.55 200.579 1008 199.598 1008H192.686C191.619 1008 190.958 1007.55 190.702 1006.66L182.638 978.688C182.552 978.304 182.424 978.112 182.254 978.112C182.126 978.069 181.998 978.304 181.87 978.816L173.742 1006.66C173.486 1007.55 172.846 1008 171.822 1008H164.718C163.694 1008 163.032 1007.55 162.734 1006.66L149.678 962.496C149.55 961.941 149.614 961.472 149.87 961.088C150.126 960.704 150.574 960.512 151.214 960.512H159.214C159.768 960.512 160.152 960.619 160.366 960.832C160.622 961.003 160.792 961.259 160.878 961.6L169.134 990.72C169.262 991.189 169.39 991.424 169.518 991.424C169.646 991.424 169.774 991.253 169.902 990.912L178.158 961.6C178.243 961.259 178.392 961.003 178.606 960.832C178.862 960.619 179.267 960.512 179.822 960.512H186.67C187.224 960.512 187.608 960.619 187.822 960.832C188.078 961.003 188.27 961.259 188.398 961.6L196.782 991.168C196.867 991.467 196.995 991.637 197.166 991.68C197.336 991.68 197.443 991.531 197.486 991.232L205.614 961.6C205.699 961.259 205.87 961.003 206.126 960.832C206.382 960.619 206.787 960.512 207.342 960.512H213.102ZM234.48 961.728C234.48 960.917 234.821 960.512 235.504 960.512H244.656C245.339 960.512 245.68 960.896 245.68 961.664V998.976C245.68 999.531 245.915 999.808 246.384 999.808H266.8C267.568 999.808 267.952 1000.13 267.952 1000.77V1006.85C267.952 1007.19 267.845 1007.47 267.632 1007.68C267.461 1007.89 267.163 1008 266.736 1008H235.888C235.333 1008 234.949 1007.89 234.736 1007.68C234.565 1007.47 234.48 1007.13 234.48 1006.66V961.728ZM284.781 960.512C285.464 960.512 285.805 960.896 285.805 961.664V1006.46C285.805 1007.02 285.656 1007.42 285.357 1007.68C285.101 1007.89 284.674 1008 284.077 1008H276.013C275.458 1008 275.074 1007.89 274.861 1007.68C274.69 1007.47 274.605 1007.13 274.605 1006.66V961.728C274.605 960.917 274.946 960.512 275.629 960.512H284.781ZM294.793 961.728C294.793 960.917 295.134 960.512 295.817 960.512H327.561C328.201 960.512 328.521 960.875 328.521 961.6L328.457 967.36C328.457 968.256 328.03 968.704 327.177 968.704H307.208C306.398 968.704 305.993 969.045 305.993 969.728V979.648C305.993 980.331 306.313 980.672 306.953 980.672H320.841C321.523 980.672 321.865 981.013 321.865 981.696V987.776C321.865 988.373 321.545 988.672 320.905 988.672H306.889C306.291 988.672 305.993 988.949 305.993 989.504V1006.53C305.993 1007.51 305.438 1008 304.329 1008H296.201C295.646 1008 295.262 1007.89 295.049 1007.68C294.878 1007.47 294.793 1007.13 294.793 1006.66V961.728ZM335.168 961.728C335.168 960.917 335.509 960.512 336.192 960.512H368.448C369.088 960.512 369.408 960.875 369.408 961.6L369.344 967.36C369.344 968.256 368.896 968.704 368 968.704H347.583C346.773 968.704 346.368 969.045 346.368 969.728V979.008C346.368 979.733 346.688 980.096 347.328 980.096H360.896C361.621 980.096 361.984 980.437 361.984 981.12V987.264C361.984 987.52 361.898 987.733 361.728 987.904C361.6 988.075 361.344 988.16 360.96 988.16H347.264C346.666 988.16 346.368 988.416 346.368 988.928V998.976C346.368 999.531 346.602 999.808 347.072 999.808H368.96C369.728 999.808 370.112 1000.13 370.112 1000.77V1006.85C370.112 1007.19 370.005 1007.47 369.792 1007.68C369.621 1007.89 369.301 1008 368.832 1008H336.576C335.637 1008 335.168 1007.55 335.168 1006.66V961.728ZM429.078 975.296C429.078 978.453 428.331 981.12 426.838 983.296C425.345 985.429 423.297 987.051 420.694 988.16C418.134 989.269 415.147 989.824 411.734 989.824H402.134C401.665 989.824 401.43 990.059 401.43 990.528V1006.53C401.43 1007.51 400.875 1008 399.766 1008H391.574C391.062 1008 390.699 1007.89 390.486 1007.68C390.315 1007.47 390.23 1007.15 390.23 1006.72V961.728C390.23 960.917 390.571 960.512 391.254 960.512H410.454C413.867 960.512 416.982 961.045 419.798 962.112C422.657 963.179 424.918 964.8 426.582 966.976C428.246 969.152 429.078 971.925 429.078 975.296ZM417.558 975.104C417.558 973.611 417.238 972.395 416.598 971.456C415.958 970.475 415.041 969.749 413.846 969.28C412.651 968.811 411.286 968.576 409.75 968.576H402.646C401.835 968.576 401.43 968.939 401.43 969.664V980.608C401.43 981.419 401.729 981.824 402.326 981.824H410.198C412.459 981.824 414.251 981.227 415.574 980.032C416.897 978.837 417.558 977.195 417.558 975.104ZM427.635 1008C427.251 1008 426.973 1007.83 426.803 1007.49C426.632 1007.15 426.632 1006.7 426.803 1006.14L442.739 961.792C442.909 961.323 443.101 961.003 443.315 960.832C443.528 960.619 443.891 960.512 444.403 960.512H454.003C454.941 960.512 455.581 960.981 455.923 961.92L471.731 1006.27C471.859 1006.61 471.859 1007 471.731 1007.42C471.603 1007.81 471.347 1008 470.963 1008H461.555C460.915 1008 460.509 1007.7 460.339 1007.1L457.011 997.76C456.968 997.547 456.883 997.376 456.755 997.248C456.669 997.12 456.477 997.056 456.179 997.056H440.562C440.136 997.056 439.859 997.269 439.731 997.696L436.339 1007.17C436.253 1007.42 436.104 1007.64 435.891 1007.81C435.72 1007.94 435.421 1008 434.995 1008H427.635ZM453.555 988.544C454.152 988.544 454.344 988.181 454.131 987.456L448.755 972.48C448.627 972.224 448.477 972.096 448.307 972.096C448.179 972.096 448.051 972.245 447.923 972.544L442.483 987.456C442.184 988.181 442.376 988.544 443.059 988.544H453.555ZM488.594 960.512C489.276 960.512 489.618 960.896 489.618 961.664V1006.46C489.618 1007.02 489.468 1007.42 489.17 1007.68C488.914 1007.89 488.487 1008 487.89 1008H479.826C479.271 1008 478.887 1007.89 478.674 1007.68C478.503 1007.47 478.418 1007.13 478.418 1006.66V961.728C478.418 960.917 478.759 960.512 479.442 960.512H488.594ZM537.389 960.512C537.944 960.512 538.221 960.832 538.221 961.472V1006.98C538.221 1007.27 538.114 1007.53 537.901 1007.74C537.688 1007.91 537.389 1008 537.005 1008H530.541C530.2 1008 529.922 1007.96 529.709 1007.87C529.496 1007.79 529.24 1007.57 528.941 1007.23L508.525 978.56C508.354 978.347 508.184 978.261 508.013 978.304C507.885 978.347 507.821 978.475 507.821 978.688V1006.85C507.864 1007.62 507.437 1008 506.541 1008H499.885C499.032 1008 498.605 1007.64 498.605 1006.91V961.728C498.605 960.917 498.989 960.512 499.757 960.512H507.501C507.97 960.512 508.312 960.576 508.525 960.704C508.781 960.832 509.058 961.088 509.357 961.472L528.173 988.288C528.429 988.629 528.642 988.779 528.813 988.736C529.026 988.693 529.133 988.48 529.133 988.096V961.664C529.133 960.896 529.517 960.512 530.285 960.512H537.389ZM544.799 961.664C544.799 961.323 544.906 961.045 545.12 960.832C545.333 960.619 545.653 960.512 546.08 960.512H582.816C583.285 960.512 583.605 960.619 583.776 960.832C583.989 961.045 584.096 961.323 584.096 961.664V967.616C584.096 968.256 583.712 968.576 582.944 968.576H570.976C570.506 968.576 570.272 968.789 570.272 969.216V1006.78C570.272 1007.59 569.909 1008 569.184 1008H560.032C559.392 1008 559.072 1007.64 559.072 1006.91V969.408C559.072 968.853 558.837 968.576 558.368 968.576H546.016C545.205 968.576 544.799 968.256 544.799 967.616V961.664ZM600.906 960.512C601.589 960.512 601.93 960.896 601.93 961.664V1006.46C601.93 1007.02 601.781 1007.42 601.482 1007.68C601.226 1007.89 600.799 1008 600.202 1008H592.138C591.583 1008 591.199 1007.89 590.986 1007.68C590.815 1007.47 590.73 1007.13 590.73 1006.66V961.728C590.73 960.917 591.071 960.512 591.754 960.512H600.906ZM649.702 960.512C650.256 960.512 650.534 960.832 650.534 961.472V1006.98C650.534 1007.27 650.427 1007.53 650.214 1007.74C650 1007.91 649.702 1008 649.318 1008H642.854C642.512 1008 642.235 1007.96 642.022 1007.87C641.808 1007.79 641.552 1007.57 641.254 1007.23L620.838 978.56C620.667 978.347 620.496 978.261 620.326 978.304C620.198 978.347 620.134 978.475 620.134 978.688V1006.85C620.176 1007.62 619.75 1008 618.854 1008H612.198C611.344 1008 610.918 1007.64 610.918 1006.91V961.728C610.918 960.917 611.302 960.512 612.07 960.512H619.814C620.283 960.512 620.624 960.576 620.838 960.704C621.094 960.832 621.371 961.088 621.67 961.472L640.486 988.288C640.742 988.629 640.955 988.779 641.126 988.736C641.339 988.693 641.446 988.48 641.446 988.096V961.664C641.446 960.896 641.83 960.512 642.597 960.512H649.702ZM679.192 1008.64C674.883 1008.64 671.107 1007.64 667.864 1005.63C664.664 1003.63 662.189 1000.81 660.44 997.184C658.691 993.557 657.816 989.312 657.816 984.448C657.816 979.413 658.733 975.061 660.568 971.392C662.403 967.723 664.963 964.885 668.248 962.88C671.576 960.875 675.437 959.872 679.832 959.872C683.288 959.872 686.381 960.533 689.112 961.856C691.843 963.179 694.04 964.864 695.704 966.912C697.411 968.96 698.477 971.136 698.904 973.44C699.075 974.08 699.096 974.507 698.968 974.72C698.883 974.933 698.627 975.083 698.2 975.168L689.752 976.448C689.368 976.448 689.112 976.363 688.984 976.192C688.899 976.021 688.813 975.765 688.728 975.424C688.472 974.016 687.939 972.736 687.128 971.584C686.36 970.432 685.336 969.515 684.056 968.832C682.819 968.107 681.325 967.744 679.576 967.744C677.485 967.744 675.672 968.299 674.136 969.408C672.643 970.517 671.491 972.267 670.68 974.656C669.912 977.045 669.528 980.181 669.528 984.064C669.528 988.16 669.933 991.424 670.744 993.856C671.597 996.288 672.792 998.059 674.328 999.168C675.907 1000.23 677.784 1000.77 679.96 1000.77C681.325 1000.77 682.52 1000.58 683.544 1000.19C684.611 999.765 685.507 999.211 686.232 998.528C687 997.845 687.619 997.077 688.088 996.224C688.557 995.328 688.899 994.411 689.112 993.472L689.24 991.616C689.411 990.976 689.197 990.656 688.6 990.656H680.856C680.515 990.656 680.259 990.592 680.088 990.464C679.917 990.293 679.832 989.995 679.832 989.568V984.768C679.832 984.171 680.173 983.872 680.856 983.872L697.944 983.936C698.584 983.936 699.053 984.085 699.352 984.384C699.651 984.64 699.8 985.003 699.8 985.472V1007.04C699.8 1007.34 699.715 1007.57 699.544 1007.74C699.373 1007.91 699.139 1008 698.84 1008H696.792C696.451 1008 696.152 1007.94 695.896 1007.81C695.64 1007.64 695.384 1007.36 695.128 1006.98L693.272 1002.37C693.229 1002.24 693.144 1002.18 693.016 1002.18C692.931 1002.18 692.803 1002.28 692.632 1002.5C691.864 1003.43 690.904 1004.39 689.752 1005.38C688.6 1006.31 687.171 1007.1 685.464 1007.74C683.757 1008.34 681.667 1008.64 679.192 1008.64ZM720.793 961.728C720.793 960.917 721.134 960.512 721.817 960.512H730.969C731.651 960.512 731.993 960.896 731.993 961.664V998.976C731.993 999.531 732.227 999.808 732.697 999.808H753.113C753.881 999.808 754.265 1000.13 754.265 1000.77V1006.85C754.265 1007.19 754.158 1007.47 753.944 1007.68C753.774 1007.89 753.475 1008 753.049 1008H722.201C721.646 1008 721.262 1007.89 721.049 1007.68C720.878 1007.47 720.793 1007.13 720.793 1006.66V961.728ZM760.918 961.728C760.918 960.917 761.259 960.512 761.942 960.512H771.094C771.776 960.512 772.118 960.896 772.118 961.664V998.976C772.118 999.531 772.352 999.808 772.822 999.808H793.238C794.006 999.808 794.39 1000.13 794.39 1000.77V1006.85C794.39 1007.19 794.283 1007.47 794.069 1007.68C793.899 1007.89 793.6 1008 793.174 1008H762.326C761.771 1008 761.387 1007.89 761.174 1007.68C761.003 1007.47 760.918 1007.13 760.918 1006.66V961.728ZM816.948 959.872C819.423 959.872 821.727 960.235 823.86 960.96C826.036 961.643 827.977 962.624 829.684 963.904C831.391 965.184 832.777 966.677 833.844 968.384C834.953 970.091 835.679 971.947 836.02 973.952C836.191 974.635 836.212 975.083 836.084 975.296C835.999 975.509 835.764 975.637 835.38 975.68L826.74 976.256C826.356 976.256 826.1 976.192 825.972 976.064C825.887 975.893 825.801 975.637 825.716 975.296C825.247 973.077 824.329 971.264 822.964 969.856C821.599 968.405 819.7 967.68 817.268 967.68C814.068 967.68 811.551 968.981 809.716 971.584C807.924 974.144 807.028 978.304 807.028 984.064C807.028 989.781 807.881 993.941 809.588 996.544C811.337 999.104 813.94 1000.38 817.396 1000.38C819.871 1000.38 822.004 999.765 823.796 998.528C825.588 997.291 827.06 995.179 828.212 992.192C828.383 991.808 828.852 991.68 829.62 991.808L835.892 993.152C836.105 993.195 836.297 993.323 836.468 993.536C836.639 993.707 836.681 994.112 836.596 994.752C836.383 995.648 835.956 996.693 835.316 997.888C834.719 999.083 833.908 1000.32 832.884 1001.6C831.86 1002.84 830.58 1003.99 829.044 1005.06C827.551 1006.12 825.801 1007 823.796 1007.68C821.791 1008.32 819.508 1008.64 816.948 1008.64C812.553 1008.64 808.713 1007.59 805.428 1005.5C802.185 1003.41 799.689 1000.51 797.94 996.8C796.191 993.088 795.316 988.779 795.316 983.872C795.316 978.923 796.191 974.677 797.94 971.136C799.689 967.552 802.185 964.779 805.428 962.816C808.671 960.853 812.511 959.872 816.948 959.872Z" fill="black"/>
<path d="M185.04 1044.32C185.44 1044.32 185.72 1044.44 185.88 1044.68C186.04 1044.92 186.067 1045.21 185.96 1045.56L177.8 1073.16C177.613 1073.72 177.213 1074 176.6 1074H172.28C171.613 1074 171.2 1073.72 171.04 1073.16L166 1055.68C165.947 1055.44 165.867 1055.32 165.76 1055.32C165.68 1055.29 165.6 1055.44 165.52 1055.76L160.44 1073.16C160.28 1073.72 159.88 1074 159.24 1074H154.8C154.16 1074 153.747 1073.72 153.56 1073.16L145.4 1045.56C145.32 1045.21 145.36 1044.92 145.52 1044.68C145.68 1044.44 145.96 1044.32 146.36 1044.32H151.36C151.707 1044.32 151.947 1044.39 152.08 1044.52C152.24 1044.63 152.347 1044.79 152.4 1045L157.56 1063.2C157.64 1063.49 157.72 1063.64 157.8 1063.64C157.88 1063.64 157.96 1063.53 158.04 1063.32L163.2 1045C163.253 1044.79 163.347 1044.63 163.48 1044.52C163.64 1044.39 163.893 1044.32 164.24 1044.32H168.52C168.867 1044.32 169.107 1044.39 169.24 1044.52C169.4 1044.63 169.52 1044.79 169.6 1045L174.84 1063.48C174.893 1063.67 174.973 1063.77 175.08 1063.8C175.187 1063.8 175.253 1063.71 175.28 1063.52L180.36 1045C180.413 1044.79 180.52 1044.63 180.68 1044.52C180.84 1044.39 181.093 1044.32 181.44 1044.32H185.04ZM191.991 1065.2C191.991 1066.19 192.217 1067.07 192.671 1067.84C193.151 1068.59 193.777 1069.17 194.551 1069.6C195.351 1070 196.244 1070.2 197.231 1070.2C198.191 1070.2 199.071 1070 199.871 1069.6C200.697 1069.17 201.524 1068.48 202.351 1067.52C202.457 1067.41 202.551 1067.36 202.631 1067.36C202.711 1067.33 202.857 1067.37 203.071 1067.48L205.951 1068.68C206.324 1068.84 206.364 1069.11 206.071 1069.48C205.217 1070.71 204.324 1071.68 203.391 1072.4C202.457 1073.12 201.417 1073.64 200.271 1073.96C199.151 1074.25 197.884 1074.4 196.471 1074.4C194.391 1074.4 192.537 1073.95 190.911 1073.04C189.284 1072.13 187.991 1070.88 187.031 1069.28C186.097 1067.65 185.631 1065.8 185.631 1063.72C185.631 1061.43 186.111 1059.44 187.071 1057.76C188.057 1056.05 189.364 1054.73 190.991 1053.8C192.617 1052.87 194.404 1052.4 196.351 1052.4C198.404 1052.4 200.204 1052.85 201.751 1053.76C203.297 1054.64 204.511 1055.91 205.391 1057.56C206.297 1059.21 206.751 1061.23 206.751 1063.6C206.751 1063.89 206.724 1064.12 206.671 1064.28C206.617 1064.44 206.417 1064.53 206.071 1064.56H192.471C192.311 1064.56 192.191 1064.61 192.111 1064.72C192.031 1064.83 191.991 1064.99 191.991 1065.2ZM200.031 1061.2C200.324 1061.2 200.511 1061.17 200.591 1061.12C200.671 1061.04 200.711 1060.88 200.711 1060.64C200.711 1059.97 200.551 1059.29 200.231 1058.6C199.937 1057.91 199.484 1057.33 198.871 1056.88C198.284 1056.4 197.524 1056.16 196.591 1056.16C195.711 1056.16 194.924 1056.37 194.231 1056.8C193.537 1057.23 193.004 1057.83 192.631 1058.6C192.257 1059.35 192.071 1060.2 192.071 1061.16L200.031 1061.2ZM231.19 1074.4C228.497 1074.4 226.137 1073.77 224.11 1072.52C222.11 1071.27 220.564 1069.51 219.47 1067.24C218.377 1064.97 217.83 1062.32 217.83 1059.28C217.83 1056.13 218.404 1053.41 219.55 1051.12C220.697 1048.83 222.297 1047.05 224.35 1045.8C226.43 1044.55 228.844 1043.92 231.59 1043.92C233.75 1043.92 235.684 1044.33 237.39 1045.16C239.097 1045.99 240.47 1047.04 241.51 1048.32C242.577 1049.6 243.244 1050.96 243.51 1052.4C243.617 1052.8 243.63 1053.07 243.55 1053.2C243.497 1053.33 243.337 1053.43 243.07 1053.48L237.79 1054.28C237.55 1054.28 237.39 1054.23 237.31 1054.12C237.257 1054.01 237.204 1053.85 237.15 1053.64C236.99 1052.76 236.657 1051.96 236.15 1051.24C235.67 1050.52 235.03 1049.95 234.23 1049.52C233.457 1049.07 232.524 1048.84 231.43 1048.84C230.124 1048.84 228.99 1049.19 228.03 1049.88C227.097 1050.57 226.377 1051.67 225.87 1053.16C225.39 1054.65 225.15 1056.61 225.15 1059.04C225.15 1061.6 225.404 1063.64 225.91 1065.16C226.444 1066.68 227.19 1067.79 228.15 1068.48C229.137 1069.15 230.31 1069.48 231.67 1069.48C232.524 1069.48 233.27 1069.36 233.91 1069.12C234.577 1068.85 235.137 1068.51 235.59 1068.08C236.07 1067.65 236.457 1067.17 236.75 1066.64C237.044 1066.08 237.257 1065.51 237.39 1064.92L237.47 1063.76C237.577 1063.36 237.444 1063.16 237.07 1063.16H232.23C232.017 1063.16 231.857 1063.12 231.75 1063.04C231.644 1062.93 231.59 1062.75 231.59 1062.48V1059.48C231.59 1059.11 231.804 1058.92 232.23 1058.92L242.91 1058.96C243.31 1058.96 243.604 1059.05 243.79 1059.24C243.977 1059.4 244.07 1059.63 244.07 1059.92V1073.4C244.07 1073.59 244.017 1073.73 243.91 1073.84C243.804 1073.95 243.657 1074 243.47 1074H242.19C241.977 1074 241.79 1073.96 241.63 1073.88C241.47 1073.77 241.31 1073.6 241.15 1073.36L239.99 1070.48C239.964 1070.4 239.91 1070.36 239.83 1070.36C239.777 1070.36 239.697 1070.43 239.59 1070.56C239.11 1071.15 238.51 1071.75 237.79 1072.36C237.07 1072.95 236.177 1073.44 235.11 1073.84C234.044 1074.21 232.737 1074.4 231.19 1074.4ZM254.508 1073.04C254.508 1073.39 254.428 1073.64 254.268 1073.8C254.108 1073.93 253.828 1074 253.428 1074H249.228C248.882 1074 248.642 1073.93 248.508 1073.8C248.402 1073.67 248.348 1073.45 248.348 1073.16V1053.56C248.348 1053.05 248.562 1052.8 248.988 1052.8H253.908C254.308 1052.8 254.508 1053.03 254.508 1053.48V1073.04ZM254.588 1049.24C254.588 1049.91 254.228 1050.24 253.508 1050.24H249.188C248.842 1050.24 248.602 1050.16 248.468 1050C248.362 1049.84 248.308 1049.61 248.308 1049.32V1045.12C248.308 1044.59 248.535 1044.32 248.988 1044.32H253.948C254.375 1044.32 254.588 1044.57 254.588 1045.08V1049.24ZM278.254 1052.8C278.521 1052.8 278.694 1052.89 278.774 1053.08C278.881 1053.27 278.894 1053.48 278.814 1053.72L270.894 1073.16C270.654 1073.72 270.228 1074 269.614 1074H266.774C266.134 1074 265.708 1073.72 265.494 1073.16L257.614 1053.76C257.508 1053.49 257.508 1053.27 257.614 1053.08C257.748 1052.89 257.948 1052.8 258.214 1052.8H263.294C263.508 1052.8 263.694 1052.87 263.854 1053C264.014 1053.11 264.121 1053.27 264.174 1053.48L268.774 1065.28C268.961 1065.79 269.174 1065.77 269.414 1065.24L273.934 1053.44C274.014 1053.25 274.121 1053.11 274.254 1053C274.414 1052.87 274.601 1052.8 274.814 1052.8H278.254ZM285.897 1065.2C285.897 1066.19 286.124 1067.07 286.577 1067.84C287.057 1068.59 287.684 1069.17 288.457 1069.6C289.257 1070 290.15 1070.2 291.137 1070.2C292.097 1070.2 292.977 1070 293.777 1069.6C294.604 1069.17 295.43 1068.48 296.257 1067.52C296.364 1067.41 296.457 1067.36 296.537 1067.36C296.617 1067.33 296.764 1067.37 296.977 1067.48L299.857 1068.68C300.23 1068.84 300.27 1069.11 299.977 1069.48C299.124 1070.71 298.23 1071.68 297.297 1072.4C296.364 1073.12 295.324 1073.64 294.177 1073.96C293.057 1074.25 291.79 1074.4 290.377 1074.4C288.297 1074.4 286.444 1073.95 284.817 1073.04C283.19 1072.13 281.897 1070.88 280.937 1069.28C280.004 1067.65 279.537 1065.8 279.537 1063.72C279.537 1061.43 280.017 1059.44 280.977 1057.76C281.964 1056.05 283.27 1054.73 284.897 1053.8C286.524 1052.87 288.31 1052.4 290.257 1052.4C292.31 1052.4 294.11 1052.85 295.657 1053.76C297.204 1054.64 298.417 1055.91 299.297 1057.56C300.204 1059.21 300.657 1061.23 300.657 1063.6C300.657 1063.89 300.63 1064.12 300.577 1064.28C300.524 1064.44 300.324 1064.53 299.977 1064.56H286.377C286.217 1064.56 286.097 1064.61 286.017 1064.72C285.937 1064.83 285.897 1064.99 285.897 1065.2ZM293.937 1061.2C294.23 1061.2 294.417 1061.17 294.497 1061.12C294.577 1061.04 294.617 1060.88 294.617 1060.64C294.617 1059.97 294.457 1059.29 294.137 1058.6C293.844 1057.91 293.39 1057.33 292.777 1056.88C292.19 1056.4 291.43 1056.16 290.497 1056.16C289.617 1056.16 288.83 1056.37 288.137 1056.8C287.444 1057.23 286.91 1057.83 286.537 1058.6C286.164 1059.35 285.977 1060.2 285.977 1061.16L293.937 1061.2ZM337.017 1044.32C337.363 1044.32 337.537 1044.52 337.537 1044.92V1073.36C337.537 1073.55 337.47 1073.71 337.337 1073.84C337.203 1073.95 337.017 1074 336.777 1074H332.737C332.523 1074 332.35 1073.97 332.217 1073.92C332.083 1073.87 331.923 1073.73 331.737 1073.52L318.977 1055.6C318.87 1055.47 318.763 1055.41 318.657 1055.44C318.577 1055.47 318.537 1055.55 318.537 1055.68V1073.28C318.563 1073.76 318.297 1074 317.737 1074H313.577C313.043 1074 312.777 1073.77 312.777 1073.32V1045.08C312.777 1044.57 313.017 1044.32 313.497 1044.32H318.337C318.63 1044.32 318.843 1044.36 318.977 1044.44C319.137 1044.52 319.31 1044.68 319.497 1044.92L331.257 1061.68C331.417 1061.89 331.55 1061.99 331.657 1061.96C331.79 1061.93 331.857 1061.8 331.857 1061.56V1045.04C331.857 1044.56 332.097 1044.32 332.577 1044.32H337.017ZM347.928 1065.2C347.928 1066.19 348.155 1067.07 348.608 1067.84C349.088 1068.59 349.715 1069.17 350.488 1069.6C351.288 1070 352.181 1070.2 353.168 1070.2C354.128 1070.2 355.008 1070 355.808 1069.6C356.635 1069.17 357.461 1068.48 358.288 1067.52C358.395 1067.41 358.488 1067.36 358.568 1067.36C358.648 1067.33 358.795 1067.37 359.008 1067.48L361.888 1068.68C362.261 1068.84 362.301 1069.11 362.008 1069.48C361.155 1070.71 360.261 1071.68 359.328 1072.4C358.395 1073.12 357.355 1073.64 356.208 1073.96C355.088 1074.25 353.821 1074.4 352.408 1074.4C350.328 1074.4 348.475 1073.95 346.848 1073.04C345.221 1072.13 343.928 1070.88 342.968 1069.28C342.035 1067.65 341.568 1065.8 341.568 1063.72C341.568 1061.43 342.048 1059.44 343.008 1057.76C343.995 1056.05 345.301 1054.73 346.928 1053.8C348.555 1052.87 350.341 1052.4 352.288 1052.4C354.341 1052.4 356.141 1052.85 357.688 1053.76C359.235 1054.64 360.448 1055.91 361.328 1057.56C362.235 1059.21 362.688 1061.23 362.688 1063.6C362.688 1063.89 362.661 1064.12 362.608 1064.28C362.555 1064.44 362.355 1064.53 362.008 1064.56H348.408C348.248 1064.56 348.128 1064.61 348.048 1064.72C347.968 1064.83 347.928 1064.99 347.928 1065.2ZM355.968 1061.2C356.261 1061.2 356.448 1061.17 356.528 1061.12C356.608 1061.04 356.648 1060.88 356.648 1060.64C356.648 1059.97 356.488 1059.29 356.168 1058.6C355.875 1057.91 355.421 1057.33 354.808 1056.88C354.221 1056.4 353.461 1056.16 352.528 1056.16C351.648 1056.16 350.861 1056.37 350.168 1056.8C349.475 1057.23 348.941 1057.83 348.568 1058.6C348.195 1059.35 348.008 1060.2 348.008 1061.16L355.968 1061.2ZM394.342 1052.8C394.608 1052.8 394.795 1052.89 394.902 1053.08C395.008 1053.27 395.008 1053.48 394.902 1053.72L388.382 1073.36C388.302 1073.6 388.195 1073.77 388.062 1073.88C387.955 1073.96 387.782 1074 387.542 1074H384.262C383.728 1074 383.382 1073.75 383.222 1073.24L379.782 1062.24C379.675 1061.97 379.568 1061.84 379.462 1061.84C379.355 1061.84 379.275 1061.97 379.222 1062.24L375.702 1073.36C375.648 1073.6 375.555 1073.77 375.422 1073.88C375.315 1073.96 375.128 1074 374.862 1074H371.462C370.955 1074 370.622 1073.75 370.462 1073.24L364.022 1053.76C363.942 1053.49 363.955 1053.27 364.062 1053.08C364.195 1052.89 364.395 1052.8 364.662 1052.8H369.342C369.528 1052.8 369.702 1052.87 369.862 1053C370.048 1053.11 370.168 1053.27 370.222 1053.48L373.782 1064.8C373.835 1065.04 373.915 1065.16 374.022 1065.16C374.155 1065.16 374.262 1065.03 374.342 1064.76L377.782 1053.44C377.835 1053.25 377.942 1053.11 378.102 1053C378.262 1052.87 378.448 1052.8 378.662 1052.8H382.022C382.208 1052.8 382.382 1052.87 382.542 1053C382.728 1053.11 382.835 1053.27 382.862 1053.48L386.342 1064.8C386.422 1065.04 386.515 1065.16 386.622 1065.16C386.728 1065.16 386.835 1065.03 386.942 1064.76L390.382 1053.44C390.488 1053.25 390.608 1053.11 390.742 1053C390.902 1052.87 391.088 1052.8 391.302 1052.8H394.342ZM406.878 1045.08C406.878 1044.57 407.091 1044.32 407.518 1044.32H413.238C413.665 1044.32 413.878 1044.56 413.878 1045.04V1068.36C413.878 1068.71 414.025 1068.88 414.318 1068.88H427.078C427.558 1068.88 427.798 1069.08 427.798 1069.48V1073.28C427.798 1073.49 427.731 1073.67 427.598 1073.8C427.491 1073.93 427.305 1074 427.038 1074H407.758C407.411 1074 407.171 1073.93 407.038 1073.8C406.931 1073.67 406.878 1073.45 406.878 1073.16V1045.08ZM437.516 1073.04C437.516 1073.39 437.436 1073.64 437.276 1073.8C437.116 1073.93 436.836 1074 436.436 1074H432.236C431.89 1074 431.65 1073.93 431.516 1073.8C431.41 1073.67 431.356 1073.45 431.356 1073.16V1053.56C431.356 1053.05 431.57 1052.8 431.996 1052.8H436.916C437.316 1052.8 437.516 1053.03 437.516 1053.48V1073.04ZM437.596 1049.24C437.596 1049.91 437.236 1050.24 436.516 1050.24H432.196C431.85 1050.24 431.61 1050.16 431.476 1050C431.37 1049.84 431.316 1049.61 431.316 1049.32V1045.12C431.316 1044.59 431.543 1044.32 431.996 1044.32H436.956C437.383 1044.32 437.596 1044.57 437.596 1045.08V1049.24ZM454.262 1052.8C454.529 1052.8 454.716 1052.87 454.822 1053C454.956 1053.13 455.022 1053.29 455.022 1053.48V1056.44C455.022 1056.84 454.796 1057.04 454.342 1057.04H451.022C450.756 1057.04 450.622 1057.19 450.622 1057.48V1073.24C450.622 1073.75 450.409 1074 449.982 1074H445.062C444.662 1074 444.462 1073.77 444.462 1073.32V1057.4C444.462 1057.16 444.356 1057.04 444.142 1057.04H441.262C440.782 1057.04 440.542 1056.84 440.542 1056.44V1053.48C440.542 1053.29 440.596 1053.13 440.702 1053C440.836 1052.87 441.036 1052.8 441.302 1052.8H443.982C444.302 1052.8 444.462 1052.6 444.462 1052.2V1049.76C444.462 1048.05 444.969 1046.72 445.982 1045.76C446.996 1044.8 448.422 1044.32 450.262 1044.32H454.302C454.889 1044.32 455.182 1044.6 455.182 1045.16L455.222 1047.76C455.222 1047.95 455.169 1048.11 455.062 1048.24C454.982 1048.37 454.836 1048.44 454.622 1048.44H452.462C451.876 1048.44 451.396 1048.67 451.022 1049.12C450.649 1049.55 450.462 1050.11 450.462 1050.8V1052.36C450.462 1052.65 450.622 1052.8 450.942 1052.8H454.262ZM462.655 1065.2C462.655 1066.19 462.881 1067.07 463.335 1067.84C463.815 1068.59 464.441 1069.17 465.215 1069.6C466.015 1070 466.908 1070.2 467.895 1070.2C468.855 1070.2 469.735 1070 470.535 1069.6C471.361 1069.17 472.188 1068.48 473.015 1067.52C473.121 1067.41 473.215 1067.36 473.295 1067.36C473.375 1067.33 473.521 1067.37 473.735 1067.48L476.615 1068.68C476.988 1068.84 477.028 1069.11 476.735 1069.48C475.881 1070.71 474.988 1071.68 474.055 1072.4C473.121 1073.12 472.081 1073.64 470.935 1073.96C469.815 1074.25 468.548 1074.4 467.135 1074.4C465.055 1074.4 463.201 1073.95 461.575 1073.04C459.948 1072.13 458.655 1070.88 457.695 1069.28C456.761 1067.65 456.295 1065.8 456.295 1063.72C456.295 1061.43 456.775 1059.44 457.735 1057.76C458.721 1056.05 460.028 1054.73 461.655 1053.8C463.281 1052.87 465.068 1052.4 467.015 1052.4C469.068 1052.4 470.868 1052.85 472.415 1053.76C473.961 1054.64 475.175 1055.91 476.055 1057.56C476.961 1059.21 477.415 1061.23 477.415 1063.6C477.415 1063.89 477.388 1064.12 477.335 1064.28C477.281 1064.44 477.081 1064.53 476.735 1064.56H463.135C462.975 1064.56 462.855 1064.61 462.775 1064.72C462.695 1064.83 462.655 1064.99 462.655 1065.2ZM470.695 1061.2C470.988 1061.2 471.175 1061.17 471.255 1061.12C471.335 1061.04 471.375 1060.88 471.375 1060.64C471.375 1059.97 471.215 1059.29 470.895 1058.6C470.601 1057.91 470.148 1057.33 469.535 1056.88C468.948 1056.4 468.188 1056.16 467.255 1056.16C466.375 1056.16 465.588 1056.37 464.895 1056.8C464.201 1057.23 463.668 1057.83 463.295 1058.6C462.921 1059.35 462.735 1060.2 462.735 1061.16L470.695 1061.2ZM488.054 1045.04C488.054 1044.83 488.121 1044.65 488.254 1044.52C488.388 1044.39 488.588 1044.32 488.854 1044.32H511.814C512.108 1044.32 512.308 1044.39 512.414 1044.52C512.548 1044.65 512.614 1044.83 512.614 1045.04V1048.76C512.614 1049.16 512.374 1049.36 511.894 1049.36H504.414C504.121 1049.36 503.974 1049.49 503.974 1049.76V1073.24C503.974 1073.75 503.748 1074 503.294 1074H497.574C497.174 1074 496.974 1073.77 496.974 1073.32V1049.88C496.974 1049.53 496.828 1049.36 496.534 1049.36H488.814C488.308 1049.36 488.054 1049.16 488.054 1048.76V1045.04ZM521.351 1074.4C519.244 1074.4 517.377 1073.93 515.751 1073C514.151 1072.07 512.897 1070.79 511.991 1069.16C511.084 1067.51 510.631 1065.63 510.631 1063.52C510.631 1061.31 511.097 1059.37 512.031 1057.72C512.964 1056.04 514.244 1054.73 515.871 1053.8C517.497 1052.87 519.337 1052.4 521.391 1052.4C523.551 1052.4 525.431 1052.88 527.031 1053.84C528.631 1054.77 529.871 1056.08 530.751 1057.76C531.657 1059.41 532.111 1061.32 532.111 1063.48C532.111 1065.61 531.657 1067.51 530.751 1069.16C529.844 1070.79 528.577 1072.07 526.951 1073C525.351 1073.93 523.484 1074.4 521.351 1074.4ZM521.391 1070.32C522.377 1070.32 523.204 1070.07 523.871 1069.56C524.537 1069.03 525.031 1068.24 525.351 1067.2C525.697 1066.16 525.871 1064.89 525.871 1063.4C525.871 1061.83 525.697 1060.53 525.351 1059.52C525.031 1058.48 524.537 1057.69 523.871 1057.16C523.204 1056.63 522.377 1056.36 521.391 1056.36C520.431 1056.36 519.604 1056.63 518.911 1057.16C518.244 1057.69 517.737 1058.48 517.391 1059.52C517.044 1060.53 516.871 1061.83 516.871 1063.4C516.871 1064.92 517.044 1066.2 517.391 1067.24C517.737 1068.25 518.244 1069.03 518.911 1069.56C519.604 1070.07 520.431 1070.32 521.391 1070.32ZM569.178 1044.32C569.445 1044.32 569.618 1044.4 569.698 1044.56C569.778 1044.69 569.751 1044.88 569.618 1045.12L560.218 1060.52C560.058 1060.76 559.965 1061.01 559.938 1061.28C559.911 1061.52 559.898 1061.97 559.898 1062.64V1073.04C559.898 1073.68 559.525 1074 558.778 1074H553.778C553.431 1074 553.191 1073.93 553.058 1073.8C552.951 1073.67 552.898 1073.45 552.898 1073.16V1062.4C552.898 1062.03 552.858 1061.75 552.778 1061.56C552.698 1061.37 552.578 1061.16 552.418 1060.92L542.938 1045.24C542.778 1044.97 542.751 1044.76 542.858 1044.6C542.965 1044.41 543.191 1044.32 543.538 1044.32H549.538C549.885 1044.32 550.125 1044.37 550.258 1044.48C550.391 1044.59 550.538 1044.77 550.698 1045.04L556.618 1055.44C556.778 1055.71 556.911 1055.85 557.018 1055.88C557.125 1055.88 557.245 1055.76 557.378 1055.52L563.218 1045.04C563.378 1044.75 563.525 1044.56 563.658 1044.48C563.818 1044.37 564.058 1044.32 564.378 1044.32H569.178ZM578.382 1074.4C576.275 1074.4 574.409 1073.93 572.782 1073C571.182 1072.07 569.929 1070.79 569.022 1069.16C568.115 1067.51 567.662 1065.63 567.662 1063.52C567.662 1061.31 568.129 1059.37 569.062 1057.72C569.995 1056.04 571.275 1054.73 572.902 1053.8C574.529 1052.87 576.369 1052.4 578.422 1052.4C580.582 1052.4 582.462 1052.88 584.062 1053.84C585.662 1054.77 586.902 1056.08 587.782 1057.76C588.689 1059.41 589.142 1061.32 589.142 1063.48C589.142 1065.61 588.689 1067.51 587.782 1069.16C586.875 1070.79 585.609 1072.07 583.982 1073C582.382 1073.93 580.515 1074.4 578.382 1074.4ZM578.422 1070.32C579.409 1070.32 580.235 1070.07 580.902 1069.56C581.569 1069.03 582.062 1068.24 582.382 1067.2C582.729 1066.16 582.902 1064.89 582.902 1063.4C582.902 1061.83 582.729 1060.53 582.382 1059.52C582.062 1058.48 581.569 1057.69 580.902 1057.16C580.235 1056.63 579.409 1056.36 578.422 1056.36C577.462 1056.36 576.635 1056.63 575.942 1057.16C575.275 1057.69 574.769 1058.48 574.422 1059.52C574.075 1060.53 573.902 1061.83 573.902 1063.4C573.902 1064.92 574.075 1066.2 574.422 1067.24C574.769 1068.25 575.275 1069.03 575.942 1069.56C576.635 1070.07 577.462 1070.32 578.422 1070.32ZM601.327 1069.96C602.154 1069.96 602.927 1069.75 603.647 1069.32C604.394 1068.87 605.074 1068.29 605.687 1067.6V1053.72C605.687 1053.11 606.034 1052.8 606.727 1052.8H611.047C611.607 1052.8 611.887 1053.08 611.887 1053.64L611.807 1073.28C611.807 1073.76 611.594 1074 611.167 1074H606.407C606.007 1074 605.807 1073.77 605.807 1073.32V1071.36C605.807 1071.2 605.767 1071.11 605.687 1071.08C605.607 1071.03 605.501 1071.07 605.367 1071.2C604.247 1072.35 603.127 1073.17 602.007 1073.68C600.914 1074.16 599.741 1074.4 598.487 1074.4C597.314 1074.4 596.261 1074.15 595.327 1073.64C594.421 1073.13 593.701 1072.4 593.167 1071.44C592.634 1070.45 592.367 1069.29 592.367 1067.96V1053.76C592.367 1053.12 592.687 1052.8 593.327 1052.8H597.767C598.274 1052.8 598.527 1053.08 598.527 1053.64V1067.08C598.527 1067.96 598.767 1068.67 599.247 1069.2C599.754 1069.71 600.447 1069.96 601.327 1069.96ZM617.079 1074C616.786 1074 616.572 1073.93 616.439 1073.8C616.306 1073.67 616.239 1073.47 616.239 1073.2V1053.56C616.239 1053.05 616.452 1052.8 616.879 1052.8H621.559C621.986 1052.8 622.199 1053.03 622.199 1053.48V1055.84C622.199 1056 622.252 1056.11 622.359 1056.16C622.492 1056.19 622.626 1056.12 622.759 1055.96C623.292 1055.24 623.892 1054.61 624.559 1054.08C625.252 1053.55 625.959 1053.13 626.679 1052.84C627.399 1052.55 628.079 1052.4 628.719 1052.4C629.679 1052.4 630.159 1052.63 630.159 1053.08V1057.72C630.159 1058.15 629.959 1058.32 629.559 1058.24C629.079 1058.11 628.586 1058.03 628.079 1058C627.572 1057.95 627.132 1057.92 626.759 1057.92C626.279 1057.92 625.772 1058.01 625.239 1058.2C624.732 1058.39 624.266 1058.65 623.839 1059C623.412 1059.35 623.066 1059.72 622.799 1060.12C622.532 1060.52 622.399 1060.95 622.399 1061.4V1073.08C622.399 1073.69 622.052 1074 621.359 1074H617.079ZM649.633 1061.32C649.286 1061.32 649.113 1061.49 649.113 1061.84V1073.08C649.113 1073.69 648.753 1074 648.033 1074H642.993C642.646 1074 642.406 1073.93 642.273 1073.8C642.166 1073.67 642.113 1073.45 642.113 1073.16V1045.08C642.113 1044.57 642.326 1044.32 642.753 1044.32H648.473C648.899 1044.32 649.113 1044.56 649.113 1045.04V1055.28C649.113 1055.73 649.313 1055.96 649.713 1055.96H658.953C659.379 1055.96 659.593 1055.75 659.593 1055.32V1045.04C659.593 1044.56 659.793 1044.32 660.193 1044.32H665.913C666.366 1044.32 666.593 1044.57 666.593 1045.08V1073.16C666.593 1073.45 666.526 1073.67 666.393 1073.8C666.286 1073.93 666.059 1074 665.713 1074H660.633C659.939 1074 659.593 1073.69 659.593 1073.08V1061.84C659.593 1061.49 659.406 1061.32 659.033 1061.32H649.633ZM681.312 1074.4C679.205 1074.4 677.338 1073.93 675.712 1073C674.112 1072.07 672.858 1070.79 671.952 1069.16C671.045 1067.51 670.592 1065.63 670.592 1063.52C670.592 1061.31 671.058 1059.37 671.992 1057.72C672.925 1056.04 674.205 1054.73 675.832 1053.8C677.458 1052.87 679.298 1052.4 681.352 1052.4C683.512 1052.4 685.392 1052.88 686.992 1053.84C688.592 1054.77 689.832 1056.08 690.712 1057.76C691.618 1059.41 692.072 1061.32 692.072 1063.48C692.072 1065.61 691.618 1067.51 690.712 1069.16C689.805 1070.79 688.538 1072.07 686.912 1073C685.312 1073.93 683.445 1074.4 681.312 1074.4ZM681.352 1070.32C682.338 1070.32 683.165 1070.07 683.832 1069.56C684.498 1069.03 684.992 1068.24 685.312 1067.2C685.658 1066.16 685.832 1064.89 685.832 1063.4C685.832 1061.83 685.658 1060.53 685.312 1059.52C684.992 1058.48 684.498 1057.69 683.832 1057.16C683.165 1056.63 682.338 1056.36 681.352 1056.36C680.392 1056.36 679.565 1056.63 678.872 1057.16C678.205 1057.69 677.698 1058.48 677.352 1059.52C677.005 1060.53 676.832 1061.83 676.832 1063.4C676.832 1064.92 677.005 1066.2 677.352 1067.24C677.698 1068.25 678.205 1069.03 678.872 1069.56C679.565 1070.07 680.392 1070.32 681.352 1070.32ZM696.337 1074C695.777 1074 695.497 1073.73 695.497 1073.2V1053.56C695.497 1053.05 695.71 1052.8 696.137 1052.8H700.937C701.337 1052.8 701.537 1053.03 701.537 1053.48V1055.44C701.537 1055.6 701.577 1055.71 701.657 1055.76C701.764 1055.81 701.884 1055.76 702.017 1055.6C702.71 1054.96 703.404 1054.4 704.097 1053.92C704.79 1053.44 705.524 1053.07 706.297 1052.8C707.07 1052.51 707.87 1052.36 708.697 1052.36C710.137 1052.36 711.337 1052.71 712.297 1053.4C713.284 1054.07 713.977 1054.96 714.377 1056.08C714.43 1056.19 714.497 1056.24 714.577 1056.24C714.684 1056.21 714.79 1056.15 714.897 1056.04C715.537 1055.35 716.23 1054.73 716.977 1054.2C717.75 1053.64 718.564 1053.2 719.417 1052.88C720.27 1052.56 721.11 1052.4 721.937 1052.4C723.804 1052.4 725.284 1052.97 726.377 1054.12C727.497 1055.27 728.057 1056.84 728.057 1058.84V1073.04C728.057 1073.68 727.737 1074 727.097 1074H722.657C722.39 1074 722.19 1073.95 722.057 1073.84C721.95 1073.71 721.897 1073.49 721.897 1073.2V1059.68C721.897 1058.77 721.657 1058.08 721.177 1057.6C720.697 1057.09 720.017 1056.84 719.137 1056.84C718.63 1056.84 718.137 1056.95 717.657 1057.16C717.177 1057.37 716.737 1057.63 716.337 1057.92C715.937 1058.21 715.59 1058.53 715.297 1058.88C715.11 1059.07 714.99 1059.25 714.937 1059.44C714.884 1059.6 714.857 1059.79 714.857 1060V1073.04C714.857 1073.68 714.537 1074 713.897 1074H709.497C709.23 1074 709.03 1073.95 708.897 1073.84C708.79 1073.71 708.737 1073.49 708.737 1073.2V1059.68C708.737 1058.77 708.497 1058.08 708.017 1057.6C707.537 1057.09 706.844 1056.84 705.937 1056.84C705.137 1056.84 704.404 1057.05 703.737 1057.48C703.07 1057.88 702.377 1058.49 701.657 1059.32V1073.08C701.657 1073.69 701.31 1074 700.617 1074H696.337ZM737.655 1065.2C737.655 1066.19 737.881 1067.07 738.335 1067.84C738.815 1068.59 739.441 1069.17 740.215 1069.6C741.015 1070 741.908 1070.2 742.895 1070.2C743.855 1070.2 744.735 1070 745.535 1069.6C746.361 1069.17 747.188 1068.48 748.015 1067.52C748.121 1067.41 748.215 1067.36 748.295 1067.36C748.375 1067.33 748.521 1067.37 748.735 1067.48L751.615 1068.68C751.988 1068.84 752.028 1069.11 751.735 1069.48C750.881 1070.71 749.988 1071.68 749.055 1072.4C748.121 1073.12 747.081 1073.64 745.935 1073.96C744.815 1074.25 743.548 1074.4 742.135 1074.4C740.055 1074.4 738.201 1073.95 736.575 1073.04C734.948 1072.13 733.655 1070.88 732.695 1069.28C731.761 1067.65 731.295 1065.8 731.295 1063.72C731.295 1061.43 731.775 1059.44 732.735 1057.76C733.721 1056.05 735.028 1054.73 736.655 1053.8C738.281 1052.87 740.068 1052.4 742.015 1052.4C744.068 1052.4 745.868 1052.85 747.415 1053.76C748.961 1054.64 750.175 1055.91 751.055 1057.56C751.961 1059.21 752.415 1061.23 752.415 1063.6C752.415 1063.89 752.388 1064.12 752.335 1064.28C752.281 1064.44 752.081 1064.53 751.735 1064.56H738.135C737.975 1064.56 737.855 1064.61 737.775 1064.72C737.695 1064.83 737.655 1064.99 737.655 1065.2ZM745.695 1061.2C745.988 1061.2 746.175 1061.17 746.255 1061.12C746.335 1061.04 746.375 1060.88 746.375 1060.64C746.375 1059.97 746.215 1059.29 745.895 1058.6C745.601 1057.91 745.148 1057.33 744.535 1056.88C743.948 1056.4 743.188 1056.16 742.255 1056.16C741.375 1056.16 740.588 1056.37 739.895 1056.8C739.201 1057.23 738.668 1057.83 738.295 1058.6C737.921 1059.35 737.735 1060.2 737.735 1061.16L745.695 1061.2Z" fill="black"/>
</svg>
