<svg width="1259" height="1529" viewBox="0 0 1259 1529" fill="none" xmlns="http://www.w3.org/2000/svg">
<g filter="url(#filter0_di_49_478)">
<path d="M627.516 106.355L760.178 21L891.764 106.355L760.178 181.796L627.516 106.355Z" fill="white"/>
<path d="M760.178 181.796L627.516 106.355V468.901L760.178 803.104V181.796Z" fill="white"/>
<path d="M891.764 106.355L760.178 181.796V803.104L891.764 769.408L851.861 720.637L891.764 707.041V437.882V106.355Z" fill="white"/>
</g>
<g filter="url(#filter1_i_49_478)">
<path d="M815.504 404.663L777.079 426.039V476.784L815.504 452.61V404.663Z" fill="#1B5083"/>
</g>
<g filter="url(#filter2_i_49_478)">
<path d="M815.504 333.132L777.079 354.684V405.845L815.504 381.473V333.132Z" fill="#1B5083"/>
</g>
<g filter="url(#filter3_i_49_478)">
<path d="M815.504 260.42L777.079 281.972V333.133L815.504 308.761V260.42Z" fill="#1B5083"/>
</g>
<g filter="url(#filter4_i_49_478)">
<path d="M815.504 473.237L777.079 494.676V544.767L815.504 521.325V473.237Z" fill="#1B5083"/>
</g>
<g filter="url(#filter5_i_49_478)">
<path d="M815.504 616.889L777.079 638.441V689.601L815.504 665.229V616.889Z" fill="#1B5083"/>
</g>
<g filter="url(#filter6_i_49_478)">
<path d="M815.504 544.176L777.079 565.728V616.889L815.504 592.517V544.176Z" fill="#1B5083"/>
</g>
<g filter="url(#filter7_di_49_478)">
<path d="M422.383 308.599L604.46 191.55L785.059 308.599L604.46 412.052L422.383 308.599Z" fill="#1B5083"/>
<path d="M604.46 412.052L422.383 308.599V805.764L604.46 961.535V412.052Z" fill="#1B5083"/>
<path d="M785.059 308.599L604.46 412.052V961.535L785.059 805.764V308.599Z" fill="#1B5083"/>
</g>
<g filter="url(#filter8_i_49_478)">
<path d="M436.571 336.679L492.731 368.306V443.384L436.571 407.618V336.679Z" fill="white"/>
</g>
<g filter="url(#filter9_i_49_478)">
<path d="M532.931 390.475L589.091 422.102V495.997L532.931 461.414V390.475Z" fill="white"/>
</g>
<g filter="url(#filter10_i_49_478)">
<path d="M436.571 653.541L492.731 685.168V760.245L436.571 724.48V653.541Z" fill="white"/>
</g>
<g filter="url(#filter11_i_49_478)">
<path d="M532.931 707.336L589.091 738.963V814.041L532.931 778.276V707.336Z" fill="white"/>
</g>
<g filter="url(#filter12_i_49_478)">
<path d="M436.571 548.314L492.731 579.941V655.019L436.571 619.253V548.314Z" fill="white"/>
</g>
<g filter="url(#filter13_i_49_478)">
<path d="M532.931 602.11L589.091 633.737V708.814L532.931 673.049V602.11Z" fill="white"/>
</g>
<g filter="url(#filter14_i_49_478)">
<path d="M436.571 441.314L492.731 472.941V548.019L436.571 512.254V441.314Z" fill="white"/>
</g>
<g filter="url(#filter15_i_49_478)">
<path d="M532.931 495.11L589.091 526.737V601.814L532.931 566.049V495.11Z" fill="white"/>
</g>
<g filter="url(#filter16_i_49_478)">
<path d="M769.394 336.679L713.233 368.306V443.384L769.394 407.618V336.679Z" fill="white"/>
</g>
<g filter="url(#filter17_i_49_478)">
<path d="M673.035 390.475L616.875 422.102V495.997L673.035 461.414V390.475Z" fill="white"/>
</g>
<g filter="url(#filter18_i_49_478)">
<path d="M769.394 653.541L713.233 685.168V760.245L769.394 724.48V653.541Z" fill="white"/>
</g>
<g filter="url(#filter19_i_49_478)">
<path d="M673.035 707.336L616.875 738.963V814.041L673.035 778.276V707.336Z" fill="white"/>
</g>
<g filter="url(#filter20_i_49_478)">
<path d="M769.394 548.314L713.233 579.941V655.019L769.394 619.253V548.314Z" fill="white"/>
</g>
<g filter="url(#filter21_i_49_478)">
<path d="M673.035 602.11L616.875 633.737V708.814L673.035 673.049V602.11Z" fill="white"/>
</g>
<g filter="url(#filter22_i_49_478)">
<path d="M769.394 441.314L713.233 472.941V548.019L769.394 512.254V441.314Z" fill="white"/>
</g>
<g filter="url(#filter23_i_49_478)">
<path d="M673.035 495.11L616.875 526.737V601.814L673.035 566.049V495.11Z" fill="white"/>
</g>
<g filter="url(#filter24_i_49_478)">
<path d="M880.532 152.828L842.698 174.38V225.541L880.532 201.169V152.828Z" fill="#1B5083"/>
</g>
<g filter="url(#filter25_i_49_478)">
<path d="M815.504 189.481L777.079 210.92V261.011L815.504 237.568V189.481Z" fill="#1B5083"/>
</g>
<g filter="url(#filter26_i_49_478)">
<path d="M880.532 368.011L842.698 389.563V440.723L880.532 416.352V368.011Z" fill="#1B5083"/>
</g>
<g filter="url(#filter27_i_49_478)">
<path d="M880.532 296.48L842.698 318.032V369.193L880.532 344.821V296.48Z" fill="#1B5083"/>
</g>
<g filter="url(#filter28_i_49_478)">
<path d="M880.532 223.768L842.698 245.32V296.48L880.532 272.108V223.768Z" fill="#1B5083"/>
</g>
<g filter="url(#filter29_i_49_478)">
<path d="M880.532 436.585L842.698 458.137V509.298L880.532 484.926V436.585Z" fill="#1B5083"/>
</g>
<g filter="url(#filter30_i_49_478)">
<path d="M880.532 580.237L842.698 601.789V652.95L880.532 628.578V580.237Z" fill="#1B5083"/>
</g>
<g filter="url(#filter31_i_49_478)">
<path d="M880.532 507.524L842.698 529.076V580.237L880.532 555.865V507.524Z" fill="#1B5083"/>
</g>
<g filter="url(#filter32_d_49_478)">
<path d="M353.514 630.338L623.673 959.614L613.328 997.005L353.514 742.067L96.0634 1044.15H0V997.005H75.3729L353.514 630.338Z" fill="black"/>
</g>
<g filter="url(#filter33_d_49_478)">
<path d="M820.53 676.596L1090.69 1005.87H1169.61V1043.26H1080.34L820.53 792.759L578.746 1043.26L463.47 1043.26V1005.87H563.08L820.53 676.596Z" fill="black"/>
</g>
<path d="M820.233 676.891L1164.88 542.698L1195.32 586.444L856.59 724.184L820.233 676.891Z" fill="black"/>
<g filter="url(#filter34_d_49_478)">
<path d="M1037.78 760.541H980.438V827.046C994.626 846.85 1015.32 872.861 1037.78 900.646V760.541Z" fill="black"/>
</g>
<path d="M958.564 732.165H1060.24V766.452H958.564V732.165Z" fill="black"/>
<path d="M186.779 695.218H244.122V761.723C229.074 778.867 209.565 799.557 186.779 826.455V695.218Z" fill="black"/>
<rect x="164.638" y="694.922" width="101.679" height="34.2873" fill="black"/>
<path d="M352.627 629.303L422.975 610.09V658.565L388.983 676.596L352.627 629.303Z" fill="black"/>
<g filter="url(#filter35_d_49_478)">
<rect x="315.975" y="883.502" width="44.9281" height="44.9281" fill="#1B5083"/>
</g>
<g filter="url(#filter36_d_49_478)">
<rect x="370.361" y="883.502" width="44.9281" height="44.9281" fill="#1B5083"/>
</g>
<g filter="url(#filter37_d_49_478)">
<rect x="370.361" y="937.889" width="44.9281" height="44.9281" fill="#1B5083"/>
</g>
<g filter="url(#filter38_d_49_478)">
<rect x="315.975" y="937.889" width="44.9281" height="44.9281" fill="#1B5083"/>
</g>
<g filter="url(#filter39_d_49_478)">
<rect x="781.218" y="910.695" width="44.9281" height="44.9281" fill="#1B5083"/>
</g>
<g filter="url(#filter40_d_49_478)">
<rect x="835.604" y="910.695" width="44.9281" height="44.9281" fill="#1B5083"/>
</g>
<g filter="url(#filter41_d_49_478)">
<rect x="835.604" y="965.082" width="44.9281" height="44.9281" fill="#1B5083"/>
</g>
<g filter="url(#filter42_d_49_478)">
<rect x="781.218" y="965.082" width="44.9281" height="44.9281" fill="#1B5083"/>
</g>
<g filter="url(#filter43_d_49_478)">
<path d="M10.3457 1195.17C466.528 1073.44 719.982 1073.79 1167.84 1195.17V1252.22C715.809 1126.36 462.371 1083.95 10.3457 1213.2V1195.17Z" fill="#1B5083"/>
</g>
<g filter="url(#filter44_i_49_478)">
<path d="M646.433 152.828L684.267 174.38V225.541L646.433 201.169V152.828Z" fill="#1B5083"/>
</g>
<g filter="url(#filter45_i_49_478)">
<path d="M711.46 189.481L749.885 210.92V261.011L711.46 237.568V189.481Z" fill="#1B5083"/>
</g>
<g filter="url(#filter46_d_49_478)">
<path d="M75.1851 1324.1C76.0171 1324.1 76.4331 1324.58 76.4331 1325.54V1393.8C76.4331 1394.25 76.2731 1394.63 75.9531 1394.95C75.6331 1395.21 75.1851 1395.33 74.6091 1395.33H64.9131C64.4011 1395.33 63.9851 1395.27 63.6651 1395.14C63.3451 1395.01 62.9611 1394.69 62.5131 1394.18L31.8891 1351.17C31.6331 1350.85 31.3771 1350.73 31.1211 1350.79C30.9291 1350.85 30.8331 1351.05 30.8331 1351.37V1393.61C30.8971 1394.76 30.2571 1395.33 28.9131 1395.33H18.9291C17.6491 1395.33 17.0091 1394.79 17.0091 1393.7V1325.93C17.0091 1324.71 17.5851 1324.1 18.7371 1324.1H30.3531C31.0571 1324.1 31.5691 1324.2 31.8891 1324.39C32.2731 1324.58 32.6891 1324.97 33.1371 1325.54L61.3611 1365.77C61.7451 1366.28 62.0651 1366.5 62.3211 1366.44C62.6411 1366.37 62.8011 1366.05 62.8011 1365.48V1325.83C62.8011 1324.68 63.3771 1324.1 64.5291 1324.1H75.1851ZM89.8528 1325.93C89.8528 1324.71 90.3648 1324.1 91.3888 1324.1H139.773C140.733 1324.1 141.213 1324.65 141.213 1325.73L141.117 1334.37C141.117 1335.72 140.445 1336.39 139.101 1336.39H108.477C107.261 1336.39 106.653 1336.9 106.653 1337.93V1351.85C106.653 1352.93 107.133 1353.48 108.093 1353.48H128.445C129.533 1353.48 130.077 1353.99 130.077 1355.01V1364.23C130.077 1364.61 129.949 1364.93 129.693 1365.19C129.501 1365.45 129.117 1365.57 128.541 1365.57H107.997C107.101 1365.57 106.653 1365.96 106.653 1366.73V1381.8C106.653 1382.63 107.005 1383.05 107.709 1383.05H140.541C141.693 1383.05 142.269 1383.53 142.269 1384.49V1393.61C142.269 1394.12 142.109 1394.53 141.789 1394.85C141.533 1395.17 141.053 1395.33 140.349 1395.33H91.9648C90.5568 1395.33 89.8528 1394.66 89.8528 1393.32V1325.93ZM244.441 1324.1C245.401 1324.1 246.073 1324.39 246.457 1324.97C246.841 1325.54 246.905 1326.25 246.649 1327.08L227.065 1393.32C226.617 1394.66 225.657 1395.33 224.185 1395.33H213.817C212.217 1395.33 211.225 1394.66 210.841 1393.32L198.745 1351.37C198.617 1350.79 198.425 1350.5 198.169 1350.5C197.977 1350.44 197.785 1350.79 197.593 1351.56L185.401 1393.32C185.017 1394.66 184.057 1395.33 182.521 1395.33H171.865C170.329 1395.33 169.337 1394.66 168.889 1393.32L149.305 1327.08C149.113 1326.25 149.209 1325.54 149.593 1324.97C149.977 1324.39 150.649 1324.1 151.609 1324.1H163.609C164.441 1324.1 165.017 1324.26 165.337 1324.58C165.721 1324.84 165.977 1325.22 166.105 1325.73L178.489 1369.41C178.681 1370.12 178.873 1370.47 179.065 1370.47C179.257 1370.47 179.449 1370.21 179.641 1369.7L192.025 1325.73C192.153 1325.22 192.377 1324.84 192.697 1324.58C193.081 1324.26 193.689 1324.1 194.521 1324.1H204.793C205.625 1324.1 206.201 1324.26 206.521 1324.58C206.905 1324.84 207.193 1325.22 207.385 1325.73L219.961 1370.09C220.089 1370.53 220.281 1370.79 220.537 1370.85C220.793 1370.85 220.953 1370.63 221.017 1370.18L233.209 1325.73C233.337 1325.22 233.593 1324.84 233.977 1324.58C234.361 1324.26 234.969 1324.1 235.801 1324.1H244.441ZM276.509 1325.93C276.509 1324.71 277.021 1324.1 278.045 1324.1H291.773C292.797 1324.1 293.309 1324.68 293.309 1325.83V1381.8C293.309 1382.63 293.661 1383.05 294.365 1383.05H324.989C326.141 1383.05 326.717 1383.53 326.717 1384.49V1393.61C326.717 1394.12 326.557 1394.53 326.237 1394.85C325.981 1395.17 325.533 1395.33 324.893 1395.33H278.621C277.789 1395.33 277.213 1395.17 276.893 1394.85C276.637 1394.53 276.509 1394.02 276.509 1393.32V1325.93ZM351.961 1324.1C352.985 1324.1 353.497 1324.68 353.497 1325.83V1393.03C353.497 1393.86 353.273 1394.47 352.825 1394.85C352.441 1395.17 351.801 1395.33 350.905 1395.33H338.809C337.977 1395.33 337.401 1395.17 337.081 1394.85C336.825 1394.53 336.697 1394.02 336.697 1393.32V1325.93C336.697 1324.71 337.209 1324.1 338.233 1324.1H351.961ZM366.978 1325.93C366.978 1324.71 367.49 1324.1 368.514 1324.1H416.13C417.09 1324.1 417.57 1324.65 417.57 1325.73L417.474 1334.37C417.474 1335.72 416.834 1336.39 415.554 1336.39H385.602C384.386 1336.39 383.778 1336.9 383.778 1337.93V1352.81C383.778 1353.83 384.258 1354.34 385.218 1354.34H406.05C407.074 1354.34 407.586 1354.85 407.586 1355.88V1365C407.586 1365.89 407.106 1366.34 406.146 1366.34H385.122C384.226 1366.34 383.778 1366.76 383.778 1367.59V1393.13C383.778 1394.6 382.946 1395.33 381.282 1395.33H369.09C368.258 1395.33 367.682 1395.17 367.362 1394.85C367.106 1394.53 366.978 1394.02 366.978 1393.32V1325.93ZM427.54 1325.93C427.54 1324.71 428.052 1324.1 429.076 1324.1H477.46C478.42 1324.1 478.9 1324.65 478.9 1325.73L478.804 1334.37C478.804 1335.72 478.132 1336.39 476.788 1336.39H446.164C444.948 1336.39 444.34 1336.9 444.34 1337.93V1351.85C444.34 1352.93 444.82 1353.48 445.78 1353.48H466.132C467.22 1353.48 467.764 1353.99 467.764 1355.01V1364.23C467.764 1364.61 467.636 1364.93 467.38 1365.19C467.188 1365.45 466.804 1365.57 466.228 1365.57H445.684C444.788 1365.57 444.34 1365.96 444.34 1366.73V1381.8C444.34 1382.63 444.692 1383.05 445.396 1383.05H478.228C479.38 1383.05 479.956 1383.53 479.956 1384.49V1393.61C479.956 1394.12 479.796 1394.53 479.476 1394.85C479.22 1395.17 478.74 1395.33 478.036 1395.33H429.652C428.244 1395.33 427.54 1394.66 427.54 1393.32V1325.93ZM568.406 1346.28C568.406 1351.01 567.286 1355.01 565.046 1358.28C562.806 1361.48 559.734 1363.91 555.83 1365.57C551.99 1367.24 547.51 1368.07 542.39 1368.07H527.99C527.286 1368.07 526.934 1368.42 526.934 1369.13V1393.13C526.934 1394.6 526.102 1395.33 524.438 1395.33H512.15C511.382 1395.33 510.838 1395.17 510.518 1394.85C510.262 1394.53 510.134 1394.05 510.134 1393.41V1325.93C510.134 1324.71 510.646 1324.1 511.67 1324.1H540.47C545.59 1324.1 550.262 1324.9 554.486 1326.5C558.774 1328.1 562.166 1330.53 564.662 1333.8C567.158 1337.06 568.406 1341.22 568.406 1346.28ZM551.126 1345.99C551.126 1343.75 550.646 1341.93 549.686 1340.52C548.726 1339.05 547.35 1337.96 545.558 1337.25C543.766 1336.55 541.718 1336.2 539.414 1336.2H528.758C527.542 1336.2 526.934 1336.74 526.934 1337.83V1354.25C526.934 1355.46 527.382 1356.07 528.278 1356.07H540.086C543.478 1356.07 546.166 1355.17 548.15 1353.38C550.134 1351.59 551.126 1349.13 551.126 1345.99ZM566.241 1395.33C565.665 1395.33 565.249 1395.08 564.993 1394.57C564.737 1394.05 564.737 1393.38 564.993 1392.55L588.897 1326.02C589.153 1325.32 589.441 1324.84 589.761 1324.58C590.081 1324.26 590.625 1324.1 591.393 1324.1H605.793C607.201 1324.1 608.161 1324.81 608.673 1326.21L632.385 1392.74C632.577 1393.25 632.577 1393.83 632.385 1394.47C632.193 1395.05 631.809 1395.33 631.233 1395.33H617.121C616.161 1395.33 615.553 1394.89 615.297 1393.99L610.305 1379.97C610.241 1379.65 610.113 1379.4 609.921 1379.21C609.793 1379.01 609.505 1378.92 609.057 1378.92H585.633C584.993 1378.92 584.577 1379.24 584.385 1379.88L579.297 1394.09C579.169 1394.47 578.945 1394.79 578.625 1395.05C578.369 1395.24 577.921 1395.33 577.281 1395.33H566.241ZM605.121 1366.15C606.017 1366.15 606.305 1365.61 605.985 1364.52L597.921 1342.05C597.729 1341.67 597.505 1341.48 597.249 1341.48C597.057 1341.48 596.865 1341.7 596.673 1342.15L588.513 1364.52C588.065 1365.61 588.353 1366.15 589.377 1366.15H605.121ZM657.679 1324.1C658.703 1324.1 659.215 1324.68 659.215 1325.83V1393.03C659.215 1393.86 658.991 1394.47 658.543 1394.85C658.159 1395.17 657.519 1395.33 656.623 1395.33H644.527C643.695 1395.33 643.119 1395.17 642.799 1394.85C642.543 1394.53 642.415 1394.02 642.415 1393.32V1325.93C642.415 1324.71 642.927 1324.1 643.951 1324.1H657.679ZM730.873 1324.1C731.705 1324.1 732.121 1324.58 732.121 1325.54V1393.8C732.121 1394.25 731.961 1394.63 731.641 1394.95C731.321 1395.21 730.873 1395.33 730.297 1395.33H720.601C720.089 1395.33 719.673 1395.27 719.353 1395.14C719.033 1395.01 718.649 1394.69 718.201 1394.18L687.577 1351.17C687.321 1350.85 687.065 1350.73 686.809 1350.79C686.617 1350.85 686.521 1351.05 686.521 1351.37V1393.61C686.585 1394.76 685.945 1395.33 684.601 1395.33H674.617C673.337 1395.33 672.697 1394.79 672.697 1393.7V1325.93C672.697 1324.71 673.273 1324.1 674.425 1324.1H686.041C686.745 1324.1 687.257 1324.2 687.577 1324.39C687.961 1324.58 688.377 1324.97 688.825 1325.54L717.049 1365.77C717.433 1366.28 717.753 1366.5 718.009 1366.44C718.329 1366.37 718.489 1366.05 718.489 1365.48V1325.83C718.489 1324.68 719.065 1324.1 720.217 1324.1H730.873ZM741.988 1325.83C741.988 1325.32 742.148 1324.9 742.468 1324.58C742.788 1324.26 743.268 1324.1 743.908 1324.1H799.012C799.716 1324.1 800.196 1324.26 800.452 1324.58C800.772 1324.9 800.932 1325.32 800.932 1325.83V1334.76C800.932 1335.72 800.356 1336.2 799.204 1336.2H781.252C780.548 1336.2 780.196 1336.52 780.196 1337.16V1393.51C780.196 1394.73 779.652 1395.33 778.564 1395.33H764.836C763.876 1395.33 763.396 1394.79 763.396 1393.7V1337.45C763.396 1336.61 763.044 1336.2 762.34 1336.2H743.812C742.596 1336.2 741.988 1335.72 741.988 1334.76V1325.83ZM826.148 1324.1C827.172 1324.1 827.684 1324.68 827.684 1325.83V1393.03C827.684 1393.86 827.46 1394.47 827.012 1394.85C826.628 1395.17 825.988 1395.33 825.092 1395.33H812.996C812.164 1395.33 811.588 1395.17 811.268 1394.85C811.012 1394.53 810.884 1394.02 810.884 1393.32V1325.93C810.884 1324.71 811.396 1324.1 812.42 1324.1H826.148ZM899.341 1324.1C900.173 1324.1 900.589 1324.58 900.589 1325.54V1393.8C900.589 1394.25 900.429 1394.63 900.109 1394.95C899.789 1395.21 899.341 1395.33 898.765 1395.33H889.069C888.557 1395.33 888.141 1395.27 887.821 1395.14C887.501 1395.01 887.117 1394.69 886.669 1394.18L856.045 1351.17C855.789 1350.85 855.533 1350.73 855.277 1350.79C855.085 1350.85 854.989 1351.05 854.989 1351.37V1393.61C855.053 1394.76 854.413 1395.33 853.069 1395.33H843.085C841.805 1395.33 841.165 1394.79 841.165 1393.7V1325.93C841.165 1324.71 841.741 1324.1 842.893 1324.1H854.509C855.213 1324.1 855.725 1324.2 856.045 1324.39C856.429 1324.58 856.845 1324.97 857.293 1325.54L885.517 1365.77C885.901 1366.28 886.221 1366.5 886.477 1366.44C886.797 1366.37 886.957 1366.05 886.957 1365.48V1325.83C886.957 1324.68 887.533 1324.1 888.685 1324.1H899.341ZM943.577 1396.29C937.113 1396.29 931.449 1394.79 926.585 1391.78C921.785 1388.77 918.073 1384.55 915.449 1379.11C912.825 1373.67 911.513 1367.3 911.513 1360.01C911.513 1352.45 912.889 1345.93 915.641 1340.42C918.393 1334.92 922.233 1330.66 927.161 1327.65C932.153 1324.65 937.945 1323.14 944.537 1323.14C949.721 1323.14 954.361 1324.13 958.457 1326.12C962.553 1328.1 965.849 1330.63 968.345 1333.7C970.905 1336.77 972.505 1340.04 973.145 1343.49C973.401 1344.45 973.433 1345.09 973.241 1345.41C973.113 1345.73 972.729 1345.96 972.089 1346.09L959.417 1348.01C958.841 1348.01 958.457 1347.88 958.265 1347.62C958.137 1347.37 958.009 1346.98 957.881 1346.47C957.497 1344.36 956.697 1342.44 955.481 1340.71C954.329 1338.98 952.793 1337.61 950.873 1336.58C949.017 1335.49 946.777 1334.95 944.153 1334.95C941.017 1334.95 938.297 1335.78 935.993 1337.45C933.753 1339.11 932.025 1341.73 930.809 1345.32C929.657 1348.9 929.081 1353.61 929.081 1359.43C929.081 1365.57 929.689 1370.47 930.905 1374.12C932.185 1377.77 933.977 1380.42 936.281 1382.09C938.649 1383.69 941.465 1384.49 944.729 1384.49C946.777 1384.49 948.569 1384.2 950.105 1383.62C951.705 1382.98 953.049 1382.15 954.137 1381.13C955.289 1380.1 956.217 1378.95 956.921 1377.67C957.625 1376.33 958.137 1374.95 958.457 1373.54L958.649 1370.76C958.905 1369.8 958.585 1369.32 957.689 1369.32H946.073C945.561 1369.32 945.177 1369.22 944.921 1369.03C944.665 1368.77 944.537 1368.33 944.537 1367.69V1360.49C944.537 1359.59 945.049 1359.14 946.073 1359.14L971.705 1359.24C972.665 1359.24 973.369 1359.46 973.817 1359.91C974.265 1360.29 974.489 1360.84 974.489 1361.54V1393.89C974.489 1394.34 974.361 1394.69 974.105 1394.95C973.849 1395.21 973.497 1395.33 973.049 1395.33H969.977C969.465 1395.33 969.017 1395.24 968.633 1395.05C968.249 1394.79 967.865 1394.37 967.481 1393.8L964.697 1386.89C964.633 1386.69 964.505 1386.6 964.313 1386.6C964.185 1386.6 963.993 1386.76 963.737 1387.08C962.585 1388.49 961.145 1389.93 959.417 1391.4C957.689 1392.81 955.545 1393.99 952.985 1394.95C950.425 1395.85 947.289 1396.29 943.577 1396.29ZM1005.98 1325.93C1005.98 1324.71 1006.49 1324.1 1007.51 1324.1H1021.24C1022.27 1324.1 1022.78 1324.68 1022.78 1325.83V1381.8C1022.78 1382.63 1023.13 1383.05 1023.83 1383.05H1054.46C1055.61 1383.05 1056.19 1383.53 1056.19 1384.49V1393.61C1056.19 1394.12 1056.03 1394.53 1055.71 1394.85C1055.45 1395.17 1055 1395.33 1054.36 1395.33H1008.09C1007.26 1395.33 1006.68 1395.17 1006.36 1394.85C1006.11 1394.53 1005.98 1394.02 1005.98 1393.32V1325.93ZM1066.17 1325.93C1066.17 1324.71 1066.68 1324.1 1067.7 1324.1H1081.43C1082.45 1324.1 1082.97 1324.68 1082.97 1325.83V1381.8C1082.97 1382.63 1083.32 1383.05 1084.02 1383.05H1114.65C1115.8 1383.05 1116.37 1383.53 1116.37 1384.49V1393.61C1116.37 1394.12 1116.21 1394.53 1115.89 1394.85C1115.64 1395.17 1115.19 1395.33 1114.55 1395.33H1068.28C1067.45 1395.33 1066.87 1395.17 1066.55 1394.85C1066.29 1394.53 1066.17 1394.02 1066.17 1393.32V1325.93ZM1150.21 1323.14C1153.92 1323.14 1157.38 1323.69 1160.58 1324.77C1163.84 1325.8 1166.76 1327.27 1169.32 1329.19C1171.88 1331.11 1173.96 1333.35 1175.56 1335.91C1177.22 1338.47 1178.31 1341.25 1178.82 1344.26C1179.08 1345.29 1179.11 1345.96 1178.92 1346.28C1178.79 1346.6 1178.44 1346.79 1177.86 1346.85L1164.9 1347.72C1164.32 1347.72 1163.94 1347.62 1163.75 1347.43C1163.62 1347.17 1163.49 1346.79 1163.36 1346.28C1162.66 1342.95 1161.28 1340.23 1159.24 1338.12C1157.19 1335.94 1154.34 1334.85 1150.69 1334.85C1145.89 1334.85 1142.12 1336.81 1139.36 1340.71C1136.68 1344.55 1135.33 1350.79 1135.33 1359.43C1135.33 1368.01 1136.61 1374.25 1139.17 1378.15C1141.8 1381.99 1145.7 1383.91 1150.88 1383.91C1154.6 1383.91 1157.8 1382.98 1160.48 1381.13C1163.17 1379.27 1165.38 1376.1 1167.11 1371.62C1167.36 1371.05 1168.07 1370.85 1169.22 1371.05L1178.63 1373.06C1178.95 1373.13 1179.24 1373.32 1179.49 1373.64C1179.75 1373.89 1179.81 1374.5 1179.68 1375.46C1179.36 1376.81 1178.72 1378.37 1177.76 1380.17C1176.87 1381.96 1175.65 1383.81 1174.12 1385.73C1172.58 1387.59 1170.66 1389.32 1168.36 1390.92C1166.12 1392.52 1163.49 1393.83 1160.48 1394.85C1157.48 1395.81 1154.05 1396.29 1150.21 1396.29C1143.62 1396.29 1137.86 1394.73 1132.93 1391.59C1128.07 1388.45 1124.32 1384.1 1121.7 1378.53C1119.08 1372.97 1117.76 1366.5 1117.76 1359.14C1117.76 1351.72 1119.08 1345.35 1121.7 1340.04C1124.32 1334.66 1128.07 1330.5 1132.93 1327.56C1137.8 1324.61 1143.56 1323.14 1150.21 1323.14Z" fill="white"/>
</g>
<g filter="url(#filter47_d_49_478)">
<path d="M162.664 1447.51C163.304 1447.51 163.752 1447.7 164.008 1448.09C164.264 1448.47 164.307 1448.94 164.136 1449.5L151.08 1493.66C150.781 1494.55 150.141 1495 149.16 1495H142.248C141.181 1495 140.52 1494.55 140.264 1493.66L132.2 1465.69C132.115 1465.3 131.987 1465.11 131.816 1465.11C131.688 1465.07 131.56 1465.3 131.432 1465.82L123.304 1493.66C123.048 1494.55 122.408 1495 121.384 1495H114.28C113.256 1495 112.595 1494.55 112.296 1493.66L99.24 1449.5C99.112 1448.94 99.176 1448.47 99.432 1448.09C99.688 1447.7 100.136 1447.51 100.776 1447.51H108.776C109.331 1447.51 109.715 1447.62 109.928 1447.83C110.184 1448 110.355 1448.26 110.44 1448.6L118.696 1477.72C118.824 1478.19 118.952 1478.42 119.08 1478.42C119.208 1478.42 119.336 1478.25 119.464 1477.91L127.72 1448.6C127.805 1448.26 127.955 1448 128.168 1447.83C128.424 1447.62 128.829 1447.51 129.384 1447.51H136.232C136.787 1447.51 137.171 1447.62 137.384 1447.83C137.64 1448 137.832 1448.26 137.96 1448.6L146.344 1478.17C146.429 1478.47 146.557 1478.64 146.728 1478.68C146.899 1478.68 147.005 1478.53 147.048 1478.23L155.176 1448.6C155.261 1448.26 155.432 1448 155.688 1447.83C155.944 1447.62 156.349 1447.51 156.904 1447.51H162.664ZM173.785 1480.92C173.785 1482.5 174.148 1483.91 174.873 1485.14C175.641 1486.34 176.644 1487.28 177.881 1487.96C179.161 1488.6 180.59 1488.92 182.169 1488.92C183.705 1488.92 185.113 1488.6 186.393 1487.96C187.716 1487.28 189.038 1486.17 190.361 1484.63C190.532 1484.46 190.681 1484.38 190.809 1484.38C190.937 1484.33 191.172 1484.4 191.513 1484.57L196.121 1486.49C196.718 1486.74 196.782 1487.17 196.313 1487.77C194.948 1489.73 193.518 1491.29 192.025 1492.44C190.532 1493.59 188.868 1494.42 187.033 1494.94C185.241 1495.41 183.214 1495.64 180.953 1495.64C177.625 1495.64 174.66 1494.91 172.057 1493.46C169.454 1492.01 167.385 1490.01 165.849 1487.45C164.356 1484.85 163.609 1481.88 163.609 1478.55C163.609 1474.88 164.377 1471.7 165.913 1469.02C167.492 1466.29 169.582 1464.17 172.185 1462.68C174.788 1461.19 177.646 1460.44 180.761 1460.44C184.046 1460.44 186.926 1461.17 189.401 1462.62C191.876 1464.02 193.817 1466.05 195.225 1468.7C196.676 1471.34 197.401 1474.56 197.401 1478.36C197.401 1478.83 197.358 1479.19 197.273 1479.45C197.188 1479.7 196.868 1479.85 196.313 1479.9H174.553C174.297 1479.9 174.105 1479.98 173.977 1480.15C173.849 1480.32 173.785 1480.58 173.785 1480.92ZM186.649 1474.52C187.118 1474.52 187.417 1474.48 187.545 1474.39C187.673 1474.26 187.737 1474.01 187.737 1473.62C187.737 1472.56 187.481 1471.47 186.969 1470.36C186.5 1469.25 185.774 1468.33 184.793 1467.61C183.854 1466.84 182.638 1466.46 181.145 1466.46C179.737 1466.46 178.478 1466.8 177.369 1467.48C176.26 1468.16 175.406 1469.12 174.809 1470.36C174.212 1471.55 173.913 1472.92 173.913 1474.46L186.649 1474.52ZM236.505 1495.64C232.195 1495.64 228.419 1494.64 225.177 1492.63C221.977 1490.63 219.502 1487.81 217.753 1484.18C216.003 1480.56 215.129 1476.31 215.129 1471.45C215.129 1466.41 216.046 1462.06 217.881 1458.39C219.715 1454.72 222.275 1451.89 225.561 1449.88C228.889 1447.87 232.75 1446.87 237.145 1446.87C240.601 1446.87 243.694 1447.53 246.425 1448.86C249.155 1450.18 251.353 1451.86 253.017 1453.91C254.723 1455.96 255.79 1458.14 256.217 1460.44C256.387 1461.08 256.409 1461.51 256.281 1461.72C256.195 1461.93 255.939 1462.08 255.513 1462.17L247.065 1463.45C246.681 1463.45 246.425 1463.36 246.297 1463.19C246.211 1463.02 246.126 1462.77 246.041 1462.42C245.785 1461.02 245.251 1459.74 244.441 1458.58C243.673 1457.43 242.649 1456.51 241.369 1455.83C240.131 1455.11 238.638 1454.74 236.889 1454.74C234.798 1454.74 232.985 1455.3 231.449 1456.41C229.955 1457.52 228.803 1459.27 227.993 1461.66C227.225 1464.05 226.841 1467.18 226.841 1471.06C226.841 1475.16 227.246 1478.42 228.057 1480.86C228.91 1483.29 230.105 1485.06 231.641 1486.17C233.219 1487.23 235.097 1487.77 237.273 1487.77C238.638 1487.77 239.833 1487.58 240.857 1487.19C241.923 1486.77 242.819 1486.21 243.545 1485.53C244.313 1484.85 244.931 1484.08 245.401 1483.22C245.87 1482.33 246.211 1481.41 246.425 1480.47L246.553 1478.62C246.723 1477.98 246.51 1477.66 245.913 1477.66H238.169C237.827 1477.66 237.571 1477.59 237.401 1477.46C237.23 1477.29 237.145 1476.99 237.145 1476.57V1471.77C237.145 1471.17 237.486 1470.87 238.169 1470.87L255.257 1470.94C255.897 1470.94 256.366 1471.09 256.665 1471.38C256.963 1471.64 257.113 1472 257.113 1472.47V1494.04C257.113 1494.34 257.027 1494.57 256.857 1494.74C256.686 1494.91 256.451 1495 256.153 1495H254.105C253.763 1495 253.465 1494.94 253.209 1494.81C252.953 1494.64 252.697 1494.36 252.441 1493.98L250.585 1489.37C250.542 1489.24 250.457 1489.18 250.329 1489.18C250.243 1489.18 250.115 1489.28 249.944 1489.5C249.177 1490.43 248.217 1491.39 247.065 1492.38C245.913 1493.31 244.483 1494.1 242.777 1494.74C241.07 1495.34 238.979 1495.64 236.505 1495.64ZM273.814 1493.46C273.814 1494.02 273.686 1494.42 273.43 1494.68C273.174 1494.89 272.726 1495 272.086 1495H265.366C264.811 1495 264.427 1494.89 264.214 1494.68C264.043 1494.47 263.958 1494.13 263.958 1493.66V1462.3C263.958 1461.49 264.299 1461.08 264.982 1461.08H272.854C273.494 1461.08 273.814 1461.44 273.814 1462.17V1493.46ZM273.942 1455.38C273.942 1456.45 273.366 1456.98 272.214 1456.98H265.302C264.747 1456.98 264.363 1456.86 264.15 1456.6C263.979 1456.34 263.894 1455.98 263.894 1455.51V1448.79C263.894 1447.94 264.256 1447.51 264.982 1447.51H272.918C273.6 1447.51 273.942 1447.92 273.942 1448.73V1455.38ZM311.807 1461.08C312.234 1461.08 312.511 1461.23 312.639 1461.53C312.81 1461.83 312.831 1462.17 312.703 1462.55L300.031 1493.66C299.647 1494.55 298.964 1495 297.983 1495H293.439C292.415 1495 291.732 1494.55 291.391 1493.66L278.783 1462.62C278.612 1462.19 278.612 1461.83 278.783 1461.53C278.996 1461.23 279.316 1461.08 279.743 1461.08H287.871C288.212 1461.08 288.511 1461.19 288.767 1461.4C289.023 1461.57 289.194 1461.83 289.279 1462.17L296.639 1481.05C296.938 1481.86 297.279 1481.84 297.663 1480.98L304.895 1462.1C305.023 1461.81 305.194 1461.57 305.407 1461.4C305.663 1461.19 305.962 1461.08 306.303 1461.08H311.807ZM324.035 1480.92C324.035 1482.5 324.398 1483.91 325.123 1485.14C325.891 1486.34 326.894 1487.28 328.131 1487.96C329.411 1488.6 330.84 1488.92 332.419 1488.92C333.955 1488.92 335.363 1488.6 336.643 1487.96C337.966 1487.28 339.288 1486.17 340.611 1484.63C340.782 1484.46 340.931 1484.38 341.059 1484.38C341.187 1484.33 341.422 1484.4 341.763 1484.57L346.371 1486.49C346.968 1486.74 347.032 1487.17 346.563 1487.77C345.198 1489.73 343.768 1491.29 342.275 1492.44C340.782 1493.59 339.118 1494.42 337.283 1494.94C335.491 1495.41 333.464 1495.64 331.203 1495.64C327.875 1495.64 324.91 1494.91 322.307 1493.46C319.704 1492.01 317.635 1490.01 316.099 1487.45C314.606 1484.85 313.859 1481.88 313.859 1478.55C313.859 1474.88 314.627 1471.7 316.163 1469.02C317.742 1466.29 319.832 1464.17 322.435 1462.68C325.038 1461.19 327.896 1460.44 331.011 1460.44C334.296 1460.44 337.176 1461.17 339.651 1462.62C342.126 1464.02 344.067 1466.05 345.475 1468.7C346.926 1471.34 347.651 1474.56 347.651 1478.36C347.651 1478.83 347.608 1479.19 347.523 1479.45C347.438 1479.7 347.118 1479.85 346.563 1479.9H324.803C324.547 1479.9 324.355 1479.98 324.227 1480.15C324.099 1480.32 324.035 1480.58 324.035 1480.92ZM336.899 1474.52C337.368 1474.52 337.667 1474.48 337.795 1474.39C337.923 1474.26 337.987 1474.01 337.987 1473.62C337.987 1472.56 337.731 1471.47 337.219 1470.36C336.75 1469.25 336.024 1468.33 335.043 1467.61C334.104 1466.84 332.888 1466.46 331.395 1466.46C329.987 1466.46 328.728 1466.8 327.619 1467.48C326.51 1468.16 325.656 1469.12 325.059 1470.36C324.462 1471.55 324.163 1472.92 324.163 1474.46L336.899 1474.52ZM405.827 1447.51C406.381 1447.51 406.659 1447.83 406.659 1448.47V1493.98C406.659 1494.27 406.552 1494.53 406.339 1494.74C406.125 1494.91 405.827 1495 405.443 1495H398.979C398.637 1495 398.36 1494.96 398.147 1494.87C397.933 1494.79 397.677 1494.57 397.379 1494.23L376.963 1465.56C376.792 1465.35 376.621 1465.26 376.451 1465.3C376.323 1465.35 376.259 1465.47 376.259 1465.69V1493.85C376.301 1494.62 375.875 1495 374.979 1495H368.323C367.469 1495 367.043 1494.64 367.043 1493.91V1448.73C367.043 1447.92 367.427 1447.51 368.195 1447.51H375.939C376.408 1447.51 376.749 1447.58 376.963 1447.7C377.219 1447.83 377.496 1448.09 377.795 1448.47L396.611 1475.29C396.867 1475.63 397.08 1475.78 397.251 1475.74C397.464 1475.69 397.571 1475.48 397.571 1475.1V1448.66C397.571 1447.9 397.955 1447.51 398.722 1447.51H405.827ZM423.285 1480.92C423.285 1482.5 423.648 1483.91 424.373 1485.14C425.141 1486.34 426.144 1487.28 427.381 1487.96C428.661 1488.6 430.09 1488.92 431.669 1488.92C433.205 1488.92 434.613 1488.6 435.893 1487.96C437.216 1487.28 438.538 1486.17 439.861 1484.63C440.032 1484.46 440.181 1484.38 440.309 1484.38C440.437 1484.33 440.672 1484.4 441.013 1484.57L445.621 1486.49C446.218 1486.74 446.282 1487.17 445.813 1487.77C444.448 1489.73 443.018 1491.29 441.525 1492.44C440.032 1493.59 438.368 1494.42 436.533 1494.94C434.741 1495.41 432.714 1495.64 430.453 1495.64C427.125 1495.64 424.16 1494.91 421.557 1493.46C418.954 1492.01 416.885 1490.01 415.349 1487.45C413.856 1484.85 413.109 1481.88 413.109 1478.55C413.109 1474.88 413.877 1471.7 415.413 1469.02C416.992 1466.29 419.082 1464.17 421.685 1462.68C424.288 1461.19 427.146 1460.44 430.261 1460.44C433.546 1460.44 436.426 1461.17 438.901 1462.62C441.376 1464.02 443.317 1466.05 444.725 1468.7C446.176 1471.34 446.901 1474.56 446.901 1478.36C446.901 1478.83 446.858 1479.19 446.773 1479.45C446.688 1479.7 446.368 1479.85 445.813 1479.9H424.053C423.797 1479.9 423.605 1479.98 423.477 1480.15C423.349 1480.32 423.285 1480.58 423.285 1480.92ZM436.149 1474.52C436.618 1474.52 436.917 1474.48 437.045 1474.39C437.173 1474.26 437.237 1474.01 437.237 1473.62C437.237 1472.56 436.981 1471.47 436.469 1470.36C436 1469.25 435.274 1468.33 434.293 1467.61C433.354 1466.84 432.138 1466.46 430.645 1466.46C429.237 1466.46 427.978 1466.8 426.869 1467.48C425.76 1468.16 424.906 1469.12 424.309 1470.36C423.712 1471.55 423.413 1472.92 423.413 1474.46L436.149 1474.52ZM497.547 1461.08C497.973 1461.08 498.272 1461.23 498.443 1461.53C498.613 1461.83 498.613 1462.17 498.443 1462.55L488.011 1493.98C487.883 1494.36 487.712 1494.64 487.499 1494.81C487.328 1494.94 487.051 1495 486.667 1495H481.419C480.565 1495 480.011 1494.59 479.755 1493.78L474.251 1476.18C474.08 1475.76 473.909 1475.54 473.739 1475.54C473.568 1475.54 473.44 1475.76 473.355 1476.18L467.723 1493.98C467.637 1494.36 467.488 1494.64 467.275 1494.81C467.104 1494.94 466.805 1495 466.378 1495H460.939C460.128 1495 459.595 1494.59 459.339 1493.78L449.035 1462.62C448.907 1462.19 448.928 1461.83 449.099 1461.53C449.312 1461.23 449.632 1461.08 450.059 1461.08H457.547C457.845 1461.08 458.123 1461.19 458.379 1461.4C458.677 1461.57 458.869 1461.83 458.955 1462.17L464.651 1480.28C464.736 1480.66 464.864 1480.86 465.035 1480.86C465.248 1480.86 465.419 1480.64 465.547 1480.22L471.051 1462.1C471.136 1461.81 471.307 1461.57 471.563 1461.4C471.819 1461.19 472.117 1461.08 472.459 1461.08H477.835C478.133 1461.08 478.411 1461.19 478.667 1461.4C478.965 1461.57 479.136 1461.83 479.179 1462.17L484.747 1480.28C484.875 1480.66 485.024 1480.86 485.194 1480.86C485.365 1480.86 485.536 1480.64 485.707 1480.22L491.211 1462.1C491.381 1461.81 491.573 1461.57 491.787 1461.4C492.043 1461.19 492.341 1461.08 492.683 1461.08H497.547ZM517.605 1448.73C517.605 1447.92 517.946 1447.51 518.629 1447.51H527.781C528.464 1447.51 528.805 1447.9 528.805 1448.66V1485.98C528.805 1486.53 529.04 1486.81 529.509 1486.81H549.925C550.693 1486.81 551.077 1487.13 551.077 1487.77V1493.85C551.077 1494.19 550.97 1494.47 550.757 1494.68C550.586 1494.89 550.288 1495 549.861 1495H519.013C518.458 1495 518.074 1494.89 517.861 1494.68C517.69 1494.47 517.605 1494.13 517.605 1493.66V1448.73ZM566.626 1493.46C566.626 1494.02 566.498 1494.42 566.242 1494.68C565.986 1494.89 565.538 1495 564.898 1495H558.178C557.623 1495 557.239 1494.89 557.026 1494.68C556.855 1494.47 556.77 1494.13 556.77 1493.66V1462.3C556.77 1461.49 557.111 1461.08 557.794 1461.08H565.666C566.306 1461.08 566.626 1461.44 566.626 1462.17V1493.46ZM566.754 1455.38C566.754 1456.45 566.178 1456.98 565.026 1456.98H558.114C557.559 1456.98 557.175 1456.86 556.962 1456.6C556.791 1456.34 556.706 1455.98 556.706 1455.51V1448.79C556.706 1447.94 557.069 1447.51 557.794 1447.51H565.73C566.413 1447.51 566.754 1447.92 566.754 1448.73V1455.38ZM593.42 1461.08C593.846 1461.08 594.145 1461.19 594.316 1461.4C594.529 1461.61 594.636 1461.87 594.636 1462.17V1466.9C594.636 1467.54 594.273 1467.86 593.548 1467.86H588.236C587.809 1467.86 587.596 1468.1 587.596 1468.57V1493.78C587.596 1494.59 587.254 1495 586.572 1495H578.7C578.06 1495 577.74 1494.64 577.74 1493.91V1468.44C577.74 1468.06 577.569 1467.86 577.228 1467.86H572.62C571.852 1467.86 571.468 1467.54 571.468 1466.9V1462.17C571.468 1461.87 571.553 1461.61 571.724 1461.4C571.937 1461.19 572.257 1461.08 572.684 1461.08H576.972C577.484 1461.08 577.74 1460.76 577.74 1460.12V1456.22C577.74 1453.49 578.55 1451.35 580.172 1449.82C581.793 1448.28 584.076 1447.51 587.02 1447.51H593.484C594.422 1447.51 594.892 1447.96 594.892 1448.86L594.956 1453.02C594.956 1453.31 594.87 1453.57 594.7 1453.78C594.572 1454 594.337 1454.1 593.996 1454.1H590.54C589.601 1454.1 588.833 1454.47 588.236 1455.19C587.638 1455.87 587.34 1456.77 587.34 1457.88V1460.38C587.34 1460.85 587.596 1461.08 588.108 1461.08H593.42ZM606.848 1480.92C606.848 1482.5 607.21 1483.91 607.936 1485.14C608.704 1486.34 609.706 1487.28 610.944 1487.96C612.224 1488.6 613.653 1488.92 615.232 1488.92C616.768 1488.92 618.176 1488.6 619.456 1487.96C620.778 1487.28 622.101 1486.17 623.424 1484.63C623.594 1484.46 623.744 1484.38 623.872 1484.38C624 1484.33 624.234 1484.4 624.576 1484.57L629.184 1486.49C629.781 1486.74 629.845 1487.17 629.376 1487.77C628.01 1489.73 626.581 1491.29 625.088 1492.44C623.594 1493.59 621.93 1494.42 620.096 1494.94C618.304 1495.41 616.277 1495.64 614.016 1495.64C610.688 1495.64 607.722 1494.91 605.12 1493.46C602.517 1492.01 600.448 1490.01 598.911 1487.45C597.418 1484.85 596.672 1481.88 596.672 1478.55C596.672 1474.88 597.44 1471.7 598.976 1469.02C600.554 1466.29 602.645 1464.17 605.248 1462.68C607.85 1461.19 610.709 1460.44 613.824 1460.44C617.109 1460.44 619.989 1461.17 622.464 1462.62C624.938 1464.02 626.88 1466.05 628.288 1468.7C629.738 1471.34 630.464 1474.56 630.464 1478.36C630.464 1478.83 630.421 1479.19 630.336 1479.45C630.25 1479.7 629.93 1479.85 629.376 1479.9H607.616C607.36 1479.9 607.168 1479.98 607.04 1480.15C606.912 1480.32 606.848 1480.58 606.848 1480.92ZM619.712 1474.52C620.181 1474.52 620.48 1474.48 620.608 1474.39C620.736 1474.26 620.8 1474.01 620.8 1473.62C620.8 1472.56 620.544 1471.47 620.032 1470.36C619.562 1469.25 618.837 1468.33 617.856 1467.61C616.917 1466.84 615.701 1466.46 614.208 1466.46C612.8 1466.46 611.541 1466.8 610.432 1467.48C609.322 1468.16 608.469 1469.12 607.872 1470.36C607.274 1471.55 606.976 1472.92 606.976 1474.46L619.712 1474.52ZM647.487 1448.66C647.487 1448.32 647.594 1448.05 647.807 1447.83C648.02 1447.62 648.34 1447.51 648.767 1447.51H685.503C685.972 1447.51 686.292 1447.62 686.463 1447.83C686.676 1448.05 686.783 1448.32 686.783 1448.66V1454.62C686.783 1455.26 686.399 1455.58 685.631 1455.58H673.663C673.194 1455.58 672.959 1455.79 672.959 1456.22V1493.78C672.959 1494.59 672.596 1495 671.871 1495H662.719C662.079 1495 661.759 1494.64 661.759 1493.91V1456.41C661.759 1455.85 661.524 1455.58 661.055 1455.58H648.703C647.892 1455.58 647.487 1455.26 647.487 1454.62V1448.66ZM700.761 1495.64C697.39 1495.64 694.404 1494.89 691.801 1493.4C689.241 1491.91 687.236 1489.86 685.785 1487.26C684.334 1484.61 683.609 1481.6 683.609 1478.23C683.609 1474.69 684.356 1471.6 685.849 1468.95C687.342 1466.26 689.39 1464.17 691.993 1462.68C694.596 1461.19 697.54 1460.44 700.825 1460.44C704.281 1460.44 707.289 1461.21 709.849 1462.74C712.409 1464.24 714.393 1466.33 715.801 1469.02C717.252 1471.66 717.977 1474.71 717.977 1478.17C717.977 1481.58 717.252 1484.61 715.801 1487.26C714.35 1489.86 712.324 1491.91 709.721 1493.4C707.161 1494.89 704.174 1495.64 700.761 1495.64ZM700.825 1489.11C702.404 1489.11 703.726 1488.71 704.793 1487.9C705.86 1487.04 706.649 1485.78 707.161 1484.12C707.716 1482.46 707.993 1480.43 707.993 1478.04C707.993 1475.52 707.716 1473.45 707.161 1471.83C706.649 1470.17 705.86 1468.91 704.793 1468.06C703.726 1467.2 702.404 1466.78 700.825 1466.78C699.289 1466.78 697.966 1467.2 696.857 1468.06C695.79 1468.91 694.98 1470.17 694.425 1471.83C693.87 1473.45 693.593 1475.52 693.593 1478.04C693.593 1480.47 693.87 1482.52 694.425 1484.18C694.98 1485.81 695.79 1487.04 696.857 1487.9C697.966 1488.71 699.289 1489.11 700.825 1489.11ZM777.285 1447.51C777.712 1447.51 777.989 1447.64 778.117 1447.9C778.245 1448.11 778.202 1448.41 777.989 1448.79L762.949 1473.43C762.693 1473.82 762.544 1474.22 762.501 1474.65C762.458 1475.03 762.437 1475.76 762.437 1476.82V1493.46C762.437 1494.49 761.84 1495 760.645 1495H752.645C752.09 1495 751.706 1494.89 751.493 1494.68C751.322 1494.47 751.237 1494.13 751.237 1493.66V1476.44C751.237 1475.84 751.173 1475.39 751.045 1475.1C750.917 1474.8 750.725 1474.46 750.469 1474.07L735.301 1448.98C735.045 1448.56 735.002 1448.22 735.173 1447.96C735.344 1447.66 735.706 1447.51 736.261 1447.51H745.861C746.416 1447.51 746.8 1447.6 747.013 1447.77C747.226 1447.94 747.461 1448.24 747.717 1448.66L757.189 1465.3C757.445 1465.73 757.658 1465.97 757.829 1466.01C758 1466.01 758.192 1465.82 758.405 1465.43L767.749 1448.66C768.005 1448.19 768.24 1447.9 768.453 1447.77C768.709 1447.6 769.093 1447.51 769.605 1447.51H777.285ZM792.011 1495.64C788.64 1495.64 785.654 1494.89 783.051 1493.4C780.491 1491.91 778.486 1489.86 777.035 1487.26C775.584 1484.61 774.859 1481.6 774.859 1478.23C774.859 1474.69 775.606 1471.6 777.099 1468.95C778.592 1466.26 780.64 1464.17 783.243 1462.68C785.846 1461.19 788.79 1460.44 792.075 1460.44C795.531 1460.44 798.539 1461.21 801.099 1462.74C803.659 1464.24 805.643 1466.33 807.051 1469.02C808.502 1471.66 809.227 1474.71 809.227 1478.17C809.227 1481.58 808.502 1484.61 807.051 1487.26C805.6 1489.86 803.574 1491.91 800.971 1493.4C798.411 1494.89 795.424 1495.64 792.011 1495.64ZM792.075 1489.11C793.654 1489.11 794.976 1488.71 796.043 1487.9C797.11 1487.04 797.899 1485.78 798.411 1484.12C798.966 1482.46 799.243 1480.43 799.243 1478.04C799.243 1475.52 798.966 1473.45 798.411 1471.83C797.899 1470.17 797.11 1468.91 796.043 1468.06C794.976 1467.2 793.654 1466.78 792.075 1466.78C790.539 1466.78 789.216 1467.2 788.107 1468.06C787.04 1468.91 786.23 1470.17 785.675 1471.83C785.12 1473.45 784.843 1475.52 784.843 1478.04C784.843 1480.47 785.12 1482.52 785.675 1484.18C786.23 1485.81 787.04 1487.04 788.107 1487.9C789.216 1488.71 790.539 1489.11 792.075 1489.11ZM828.724 1488.54C830.046 1488.54 831.284 1488.19 832.436 1487.51C833.63 1486.79 834.718 1485.87 835.7 1484.76V1462.55C835.7 1461.57 836.254 1461.08 837.364 1461.08H844.276C845.172 1461.08 845.62 1461.53 845.62 1462.42L845.492 1493.85C845.492 1494.62 845.15 1495 844.468 1495H836.852C836.212 1495 835.892 1494.64 835.892 1493.91V1490.78C835.892 1490.52 835.828 1490.37 835.7 1490.33C835.572 1490.24 835.401 1490.31 835.188 1490.52C833.396 1492.35 831.604 1493.68 829.812 1494.49C828.062 1495.26 826.185 1495.64 824.18 1495.64C822.302 1495.64 820.617 1495.23 819.124 1494.42C817.673 1493.61 816.521 1492.44 815.668 1490.9C814.814 1489.33 814.388 1487.47 814.388 1485.34V1462.62C814.388 1461.59 814.9 1461.08 815.924 1461.08H823.028C823.838 1461.08 824.244 1461.53 824.244 1462.42V1483.93C824.244 1485.34 824.628 1486.47 825.396 1487.32C826.206 1488.13 827.316 1488.54 828.724 1488.54ZM853.927 1495C853.457 1495 853.116 1494.89 852.903 1494.68C852.689 1494.47 852.583 1494.15 852.583 1493.72V1462.3C852.583 1461.49 852.924 1461.08 853.607 1461.08H861.095C861.777 1461.08 862.119 1461.44 862.119 1462.17V1465.94C862.119 1466.2 862.204 1466.37 862.375 1466.46C862.588 1466.5 862.801 1466.39 863.015 1466.14C863.868 1464.98 864.828 1463.98 865.895 1463.13C867.004 1462.27 868.135 1461.61 869.287 1461.14C870.439 1460.67 871.527 1460.44 872.551 1460.44C874.087 1460.44 874.855 1460.8 874.855 1461.53V1468.95C874.855 1469.63 874.535 1469.91 873.895 1469.78C873.127 1469.57 872.337 1469.44 871.527 1469.4C870.716 1469.31 870.012 1469.27 869.415 1469.27C868.647 1469.27 867.836 1469.42 866.983 1469.72C866.172 1470.02 865.425 1470.45 864.743 1471C864.06 1471.55 863.505 1472.15 863.079 1472.79C862.652 1473.43 862.439 1474.11 862.439 1474.84V1493.53C862.439 1494.51 861.884 1495 860.775 1495H853.927ZM906.012 1474.71C905.457 1474.71 905.18 1474.99 905.18 1475.54V1493.53C905.18 1494.51 904.604 1495 903.452 1495H895.388C894.833 1495 894.449 1494.89 894.236 1494.68C894.065 1494.47 893.98 1494.13 893.98 1493.66V1448.73C893.98 1447.92 894.321 1447.51 895.004 1447.51H904.156C904.839 1447.51 905.18 1447.9 905.18 1448.66V1465.05C905.18 1465.77 905.5 1466.14 906.14 1466.14H920.924C921.607 1466.14 921.948 1465.79 921.948 1465.11V1448.66C921.948 1447.9 922.268 1447.51 922.908 1447.51H932.06C932.785 1447.51 933.148 1447.92 933.148 1448.73V1493.66C933.148 1494.13 933.041 1494.47 932.828 1494.68C932.657 1494.89 932.295 1495 931.74 1495H923.612C922.503 1495 921.948 1494.51 921.948 1493.53V1475.54C921.948 1474.99 921.649 1474.71 921.052 1474.71H906.012ZM956.699 1495.64C953.328 1495.64 950.341 1494.89 947.739 1493.4C945.179 1491.91 943.173 1489.86 941.723 1487.26C940.272 1484.61 939.547 1481.6 939.547 1478.23C939.547 1474.69 940.293 1471.6 941.786 1468.95C943.28 1466.26 945.328 1464.17 947.931 1462.68C950.533 1461.19 953.477 1460.44 956.763 1460.44C960.219 1460.44 963.227 1461.21 965.787 1462.74C968.347 1464.24 970.331 1466.33 971.739 1469.02C973.189 1471.66 973.915 1474.71 973.915 1478.17C973.915 1481.58 973.189 1484.61 971.739 1487.26C970.288 1489.86 968.261 1491.91 965.659 1493.4C963.099 1494.89 960.112 1495.64 956.699 1495.64ZM956.763 1489.11C958.341 1489.11 959.664 1488.71 960.731 1487.9C961.797 1487.04 962.587 1485.78 963.099 1484.12C963.653 1482.46 963.931 1480.43 963.931 1478.04C963.931 1475.52 963.653 1473.45 963.099 1471.83C962.587 1470.17 961.797 1468.91 960.731 1468.06C959.664 1467.2 958.341 1466.78 956.763 1466.78C955.227 1466.78 953.904 1467.2 952.795 1468.06C951.728 1468.91 950.917 1470.17 950.363 1471.83C949.808 1473.45 949.531 1475.52 949.531 1478.04C949.531 1480.47 949.808 1482.52 950.363 1484.18C950.917 1485.81 951.728 1487.04 952.795 1487.9C953.904 1488.71 955.227 1489.11 956.763 1489.11ZM980.739 1495C979.843 1495 979.395 1494.57 979.395 1493.72V1462.3C979.395 1461.49 979.736 1461.08 980.419 1461.08H988.099C988.739 1461.08 989.059 1461.44 989.059 1462.17V1465.3C989.059 1465.56 989.123 1465.73 989.251 1465.82C989.422 1465.9 989.614 1465.82 989.827 1465.56C990.936 1464.54 992.046 1463.64 993.155 1462.87C994.264 1462.1 995.438 1461.51 996.675 1461.08C997.912 1460.61 999.192 1460.38 1000.52 1460.38C1002.82 1460.38 1004.74 1460.93 1006.28 1462.04C1007.85 1463.11 1008.96 1464.54 1009.6 1466.33C1009.69 1466.5 1009.8 1466.58 1009.92 1466.58C1010.09 1466.54 1010.26 1466.43 1010.44 1466.26C1011.46 1465.15 1012.57 1464.17 1013.76 1463.32C1015 1462.42 1016.3 1461.72 1017.67 1461.21C1019.03 1460.7 1020.38 1460.44 1021.7 1460.44C1024.69 1460.44 1027.05 1461.36 1028.8 1463.19C1030.6 1465.03 1031.49 1467.54 1031.49 1470.74V1493.46C1031.49 1494.49 1030.98 1495 1029.96 1495H1022.85C1022.42 1495 1022.1 1494.91 1021.89 1494.74C1021.72 1494.53 1021.64 1494.19 1021.64 1493.72V1472.09C1021.64 1470.64 1021.25 1469.53 1020.48 1468.76C1019.72 1467.95 1018.63 1467.54 1017.22 1467.54C1016.41 1467.54 1015.62 1467.71 1014.85 1468.06C1014.08 1468.4 1013.38 1468.8 1012.74 1469.27C1012.1 1469.74 1011.54 1470.25 1011.08 1470.81C1010.78 1471.11 1010.58 1471.41 1010.5 1471.7C1010.41 1471.96 1010.37 1472.26 1010.37 1472.6V1493.46C1010.37 1494.49 1009.86 1495 1008.84 1495H1001.8C1001.37 1495 1001.05 1494.91 1000.84 1494.74C1000.66 1494.53 1000.58 1494.19 1000.58 1493.72V1472.09C1000.58 1470.64 1000.2 1469.53 999.427 1468.76C998.659 1467.95 997.55 1467.54 996.099 1467.54C994.819 1467.54 993.646 1467.89 992.579 1468.57C991.512 1469.21 990.403 1470.19 989.251 1471.51V1493.53C989.251 1494.51 988.696 1495 987.587 1495H980.739ZM1046.85 1480.92C1046.85 1482.5 1047.21 1483.91 1047.94 1485.14C1048.7 1486.34 1049.71 1487.28 1050.94 1487.96C1052.22 1488.6 1053.65 1488.92 1055.23 1488.92C1056.77 1488.92 1058.18 1488.6 1059.46 1487.96C1060.78 1487.28 1062.1 1486.17 1063.42 1484.63C1063.59 1484.46 1063.74 1484.38 1063.87 1484.38C1064 1484.33 1064.23 1484.4 1064.58 1484.57L1069.18 1486.49C1069.78 1486.74 1069.84 1487.17 1069.38 1487.77C1068.01 1489.73 1066.58 1491.29 1065.09 1492.44C1063.59 1493.59 1061.93 1494.42 1060.1 1494.94C1058.3 1495.41 1056.28 1495.64 1054.02 1495.64C1050.69 1495.64 1047.72 1494.91 1045.12 1493.46C1042.52 1492.01 1040.45 1490.01 1038.91 1487.45C1037.42 1484.85 1036.67 1481.88 1036.67 1478.55C1036.67 1474.88 1037.44 1471.7 1038.98 1469.02C1040.55 1466.29 1042.64 1464.17 1045.25 1462.68C1047.85 1461.19 1050.71 1460.44 1053.82 1460.44C1057.11 1460.44 1059.99 1461.17 1062.46 1462.62C1064.94 1464.02 1066.88 1466.05 1068.29 1468.7C1069.74 1471.34 1070.46 1474.56 1070.46 1478.36C1070.46 1478.83 1070.42 1479.19 1070.34 1479.45C1070.25 1479.7 1069.93 1479.85 1069.38 1479.9H1047.62C1047.36 1479.9 1047.17 1479.98 1047.04 1480.15C1046.91 1480.32 1046.85 1480.58 1046.85 1480.92ZM1059.71 1474.52C1060.18 1474.52 1060.48 1474.48 1060.61 1474.39C1060.74 1474.26 1060.8 1474.01 1060.8 1473.62C1060.8 1472.56 1060.54 1471.47 1060.03 1470.36C1059.56 1469.25 1058.84 1468.33 1057.86 1467.61C1056.92 1466.84 1055.7 1466.46 1054.21 1466.46C1052.8 1466.46 1051.54 1466.8 1050.43 1467.48C1049.32 1468.16 1048.47 1469.12 1047.87 1470.36C1047.27 1471.55 1046.98 1472.92 1046.98 1474.46L1059.71 1474.52Z" fill="white"/>
</g>
<defs>
<filter id="filter0_di_49_478" x="616.216" y="0.7" width="286.848" height="804.704" filterUnits="userSpaceOnUse" color-interpolation-filters="sRGB">
<feFlood flood-opacity="0" result="BackgroundImageFix"/>
<feColorMatrix in="SourceAlpha" type="matrix" values="0 0 0 0 0 0 0 0 0 0 0 0 0 0 0 0 0 0 127 0" result="hardAlpha"/>
<feOffset dy="-9"/>
<feGaussianBlur stdDeviation="5.65"/>
<feComposite in2="hardAlpha" operator="out"/>
<feColorMatrix type="matrix" values="0 0 0 0 0 0 0 0 0 0 0 0 0 0 0 0 0 0 0.25 0"/>
<feBlend mode="normal" in2="BackgroundImageFix" result="effect1_dropShadow_49_478"/>
<feBlend mode="normal" in="SourceGraphic" in2="effect1_dropShadow_49_478" result="shape"/>
<feColorMatrix in="SourceAlpha" type="matrix" values="0 0 0 0 0 0 0 0 0 0 0 0 0 0 0 0 0 0 127 0" result="hardAlpha"/>
<feOffset dx="-4" dy="-7"/>
<feGaussianBlur stdDeviation="18.3"/>
<feComposite in2="hardAlpha" operator="arithmetic" k2="-1" k3="1"/>
<feColorMatrix type="matrix" values="0 0 0 0 0 0 0 0 0 0 0 0 0 0 0 0 0 0 0.13 0"/>
<feBlend mode="normal" in2="shape" result="effect2_innerShadow_49_478"/>
</filter>
<filter id="filter1_i_49_478" x="773.078" y="402.663" width="42.4258" height="74.1216" filterUnits="userSpaceOnUse" color-interpolation-filters="sRGB">
<feFlood flood-opacity="0" result="BackgroundImageFix"/>
<feBlend mode="normal" in="SourceGraphic" in2="BackgroundImageFix" result="shape"/>
<feColorMatrix in="SourceAlpha" type="matrix" values="0 0 0 0 0 0 0 0 0 0 0 0 0 0 0 0 0 0 127 0" result="hardAlpha"/>
<feOffset dx="-13" dy="-2"/>
<feGaussianBlur stdDeviation="2"/>
<feComposite in2="hardAlpha" operator="arithmetic" k2="-1" k3="1"/>
<feColorMatrix type="matrix" values="0 0 0 0 0 0 0 0 0 0 0 0 0 0 0 0 0 0 0.25 0"/>
<feBlend mode="normal" in2="shape" result="effect1_innerShadow_49_478"/>
</filter>
<filter id="filter2_i_49_478" x="773.078" y="331.132" width="42.4258" height="74.7126" filterUnits="userSpaceOnUse" color-interpolation-filters="sRGB">
<feFlood flood-opacity="0" result="BackgroundImageFix"/>
<feBlend mode="normal" in="SourceGraphic" in2="BackgroundImageFix" result="shape"/>
<feColorMatrix in="SourceAlpha" type="matrix" values="0 0 0 0 0 0 0 0 0 0 0 0 0 0 0 0 0 0 127 0" result="hardAlpha"/>
<feOffset dx="-13" dy="-2"/>
<feGaussianBlur stdDeviation="2"/>
<feComposite in2="hardAlpha" operator="arithmetic" k2="-1" k3="1"/>
<feColorMatrix type="matrix" values="0 0 0 0 0 0 0 0 0 0 0 0 0 0 0 0 0 0 0.25 0"/>
<feBlend mode="normal" in2="shape" result="effect1_innerShadow_49_478"/>
</filter>
<filter id="filter3_i_49_478" x="773.078" y="258.42" width="42.4258" height="74.7126" filterUnits="userSpaceOnUse" color-interpolation-filters="sRGB">
<feFlood flood-opacity="0" result="BackgroundImageFix"/>
<feBlend mode="normal" in="SourceGraphic" in2="BackgroundImageFix" result="shape"/>
<feColorMatrix in="SourceAlpha" type="matrix" values="0 0 0 0 0 0 0 0 0 0 0 0 0 0 0 0 0 0 127 0" result="hardAlpha"/>
<feOffset dx="-13" dy="-2"/>
<feGaussianBlur stdDeviation="2"/>
<feComposite in2="hardAlpha" operator="arithmetic" k2="-1" k3="1"/>
<feColorMatrix type="matrix" values="0 0 0 0 0 0 0 0 0 0 0 0 0 0 0 0 0 0 0.25 0"/>
<feBlend mode="normal" in2="shape" result="effect1_innerShadow_49_478"/>
</filter>
<filter id="filter4_i_49_478" x="773.078" y="471.237" width="42.4258" height="73.5303" filterUnits="userSpaceOnUse" color-interpolation-filters="sRGB">
<feFlood flood-opacity="0" result="BackgroundImageFix"/>
<feBlend mode="normal" in="SourceGraphic" in2="BackgroundImageFix" result="shape"/>
<feColorMatrix in="SourceAlpha" type="matrix" values="0 0 0 0 0 0 0 0 0 0 0 0 0 0 0 0 0 0 127 0" result="hardAlpha"/>
<feOffset dx="-13" dy="-2"/>
<feGaussianBlur stdDeviation="2"/>
<feComposite in2="hardAlpha" operator="arithmetic" k2="-1" k3="1"/>
<feColorMatrix type="matrix" values="0 0 0 0 0 0 0 0 0 0 0 0 0 0 0 0 0 0 0.25 0"/>
<feBlend mode="normal" in2="shape" result="effect1_innerShadow_49_478"/>
</filter>
<filter id="filter5_i_49_478" x="773.078" y="614.889" width="42.4258" height="74.7126" filterUnits="userSpaceOnUse" color-interpolation-filters="sRGB">
<feFlood flood-opacity="0" result="BackgroundImageFix"/>
<feBlend mode="normal" in="SourceGraphic" in2="BackgroundImageFix" result="shape"/>
<feColorMatrix in="SourceAlpha" type="matrix" values="0 0 0 0 0 0 0 0 0 0 0 0 0 0 0 0 0 0 127 0" result="hardAlpha"/>
<feOffset dx="-13" dy="-2"/>
<feGaussianBlur stdDeviation="2"/>
<feComposite in2="hardAlpha" operator="arithmetic" k2="-1" k3="1"/>
<feColorMatrix type="matrix" values="0 0 0 0 0 0 0 0 0 0 0 0 0 0 0 0 0 0 0.25 0"/>
<feBlend mode="normal" in2="shape" result="effect1_innerShadow_49_478"/>
</filter>
<filter id="filter6_i_49_478" x="773.078" y="542.176" width="42.4258" height="74.7126" filterUnits="userSpaceOnUse" color-interpolation-filters="sRGB">
<feFlood flood-opacity="0" result="BackgroundImageFix"/>
<feBlend mode="normal" in="SourceGraphic" in2="BackgroundImageFix" result="shape"/>
<feColorMatrix in="SourceAlpha" type="matrix" values="0 0 0 0 0 0 0 0 0 0 0 0 0 0 0 0 0 0 127 0" result="hardAlpha"/>
<feOffset dx="-13" dy="-2"/>
<feGaussianBlur stdDeviation="2"/>
<feComposite in2="hardAlpha" operator="arithmetic" k2="-1" k3="1"/>
<feColorMatrix type="matrix" values="0 0 0 0 0 0 0 0 0 0 0 0 0 0 0 0 0 0 0.25 0"/>
<feBlend mode="normal" in2="shape" result="effect1_innerShadow_49_478"/>
</filter>
<filter id="filter7_di_49_478" x="410.283" y="180.25" width="465.077" height="792.586" filterUnits="userSpaceOnUse" color-interpolation-filters="sRGB">
<feFlood flood-opacity="0" result="BackgroundImageFix"/>
<feColorMatrix in="SourceAlpha" type="matrix" values="0 0 0 0 0 0 0 0 0 0 0 0 0 0 0 0 0 0 127 0" result="hardAlpha"/>
<feOffset dx="79"/>
<feGaussianBlur stdDeviation="5.65"/>
<feComposite in2="hardAlpha" operator="out"/>
<feColorMatrix type="matrix" values="0 0 0 0 0 0 0 0 0 0 0 0 0 0 0 0 0 0 0.09 0"/>
<feBlend mode="normal" in2="BackgroundImageFix" result="effect1_dropShadow_49_478"/>
<feBlend mode="normal" in="SourceGraphic" in2="effect1_dropShadow_49_478" result="shape"/>
<feColorMatrix in="SourceAlpha" type="matrix" values="0 0 0 0 0 0 0 0 0 0 0 0 0 0 0 0 0 0 127 0" result="hardAlpha"/>
<feOffset dx="-34" dy="8"/>
<feGaussianBlur stdDeviation="6.05"/>
<feComposite in2="hardAlpha" operator="arithmetic" k2="-1" k3="1"/>
<feColorMatrix type="matrix" values="0 0 0 0 0 0 0 0 0 0 0 0 0 0 0 0 0 0 0.13 0"/>
<feBlend mode="normal" in2="shape" result="effect2_innerShadow_49_478"/>
</filter>
<filter id="filter8_i_49_478" x="436.571" y="334.679" width="60.1602" height="108.704" filterUnits="userSpaceOnUse" color-interpolation-filters="sRGB">
<feFlood flood-opacity="0" result="BackgroundImageFix"/>
<feBlend mode="normal" in="SourceGraphic" in2="BackgroundImageFix" result="shape"/>
<feColorMatrix in="SourceAlpha" type="matrix" values="0 0 0 0 0 0 0 0 0 0 0 0 0 0 0 0 0 0 127 0" result="hardAlpha"/>
<feOffset dx="5" dy="-2"/>
<feGaussianBlur stdDeviation="2"/>
<feComposite in2="hardAlpha" operator="arithmetic" k2="-1" k3="1"/>
<feColorMatrix type="matrix" values="0 0 0 0 0 0 0 0 0 0 0 0 0 0 0 0 0 0 0.25 0"/>
<feBlend mode="normal" in2="shape" result="effect1_innerShadow_49_478"/>
</filter>
<filter id="filter9_i_49_478" x="532.931" y="388.475" width="60.1602" height="107.522" filterUnits="userSpaceOnUse" color-interpolation-filters="sRGB">
<feFlood flood-opacity="0" result="BackgroundImageFix"/>
<feBlend mode="normal" in="SourceGraphic" in2="BackgroundImageFix" result="shape"/>
<feColorMatrix in="SourceAlpha" type="matrix" values="0 0 0 0 0 0 0 0 0 0 0 0 0 0 0 0 0 0 127 0" result="hardAlpha"/>
<feOffset dx="5" dy="-2"/>
<feGaussianBlur stdDeviation="2"/>
<feComposite in2="hardAlpha" operator="arithmetic" k2="-1" k3="1"/>
<feColorMatrix type="matrix" values="0 0 0 0 0 0 0 0 0 0 0 0 0 0 0 0 0 0 0.25 0"/>
<feBlend mode="normal" in2="shape" result="effect1_innerShadow_49_478"/>
</filter>
<filter id="filter10_i_49_478" x="436.571" y="651.541" width="60.1602" height="108.704" filterUnits="userSpaceOnUse" color-interpolation-filters="sRGB">
<feFlood flood-opacity="0" result="BackgroundImageFix"/>
<feBlend mode="normal" in="SourceGraphic" in2="BackgroundImageFix" result="shape"/>
<feColorMatrix in="SourceAlpha" type="matrix" values="0 0 0 0 0 0 0 0 0 0 0 0 0 0 0 0 0 0 127 0" result="hardAlpha"/>
<feOffset dx="5" dy="-2"/>
<feGaussianBlur stdDeviation="2"/>
<feComposite in2="hardAlpha" operator="arithmetic" k2="-1" k3="1"/>
<feColorMatrix type="matrix" values="0 0 0 0 0 0 0 0 0 0 0 0 0 0 0 0 0 0 0.25 0"/>
<feBlend mode="normal" in2="shape" result="effect1_innerShadow_49_478"/>
</filter>
<filter id="filter11_i_49_478" x="532.931" y="705.336" width="60.1602" height="108.704" filterUnits="userSpaceOnUse" color-interpolation-filters="sRGB">
<feFlood flood-opacity="0" result="BackgroundImageFix"/>
<feBlend mode="normal" in="SourceGraphic" in2="BackgroundImageFix" result="shape"/>
<feColorMatrix in="SourceAlpha" type="matrix" values="0 0 0 0 0 0 0 0 0 0 0 0 0 0 0 0 0 0 127 0" result="hardAlpha"/>
<feOffset dx="5" dy="-2"/>
<feGaussianBlur stdDeviation="2"/>
<feComposite in2="hardAlpha" operator="arithmetic" k2="-1" k3="1"/>
<feColorMatrix type="matrix" values="0 0 0 0 0 0 0 0 0 0 0 0 0 0 0 0 0 0 0.25 0"/>
<feBlend mode="normal" in2="shape" result="effect1_innerShadow_49_478"/>
</filter>
<filter id="filter12_i_49_478" x="436.571" y="546.314" width="60.1602" height="108.704" filterUnits="userSpaceOnUse" color-interpolation-filters="sRGB">
<feFlood flood-opacity="0" result="BackgroundImageFix"/>
<feBlend mode="normal" in="SourceGraphic" in2="BackgroundImageFix" result="shape"/>
<feColorMatrix in="SourceAlpha" type="matrix" values="0 0 0 0 0 0 0 0 0 0 0 0 0 0 0 0 0 0 127 0" result="hardAlpha"/>
<feOffset dx="5" dy="-2"/>
<feGaussianBlur stdDeviation="2"/>
<feComposite in2="hardAlpha" operator="arithmetic" k2="-1" k3="1"/>
<feColorMatrix type="matrix" values="0 0 0 0 0 0 0 0 0 0 0 0 0 0 0 0 0 0 0.25 0"/>
<feBlend mode="normal" in2="shape" result="effect1_innerShadow_49_478"/>
</filter>
<filter id="filter13_i_49_478" x="532.931" y="600.11" width="60.1602" height="108.704" filterUnits="userSpaceOnUse" color-interpolation-filters="sRGB">
<feFlood flood-opacity="0" result="BackgroundImageFix"/>
<feBlend mode="normal" in="SourceGraphic" in2="BackgroundImageFix" result="shape"/>
<feColorMatrix in="SourceAlpha" type="matrix" values="0 0 0 0 0 0 0 0 0 0 0 0 0 0 0 0 0 0 127 0" result="hardAlpha"/>
<feOffset dx="5" dy="-2"/>
<feGaussianBlur stdDeviation="2"/>
<feComposite in2="hardAlpha" operator="arithmetic" k2="-1" k3="1"/>
<feColorMatrix type="matrix" values="0 0 0 0 0 0 0 0 0 0 0 0 0 0 0 0 0 0 0.25 0"/>
<feBlend mode="normal" in2="shape" result="effect1_innerShadow_49_478"/>
</filter>
<filter id="filter14_i_49_478" x="436.571" y="439.314" width="60.1602" height="108.704" filterUnits="userSpaceOnUse" color-interpolation-filters="sRGB">
<feFlood flood-opacity="0" result="BackgroundImageFix"/>
<feBlend mode="normal" in="SourceGraphic" in2="BackgroundImageFix" result="shape"/>
<feColorMatrix in="SourceAlpha" type="matrix" values="0 0 0 0 0 0 0 0 0 0 0 0 0 0 0 0 0 0 127 0" result="hardAlpha"/>
<feOffset dx="5" dy="-2"/>
<feGaussianBlur stdDeviation="2"/>
<feComposite in2="hardAlpha" operator="arithmetic" k2="-1" k3="1"/>
<feColorMatrix type="matrix" values="0 0 0 0 0 0 0 0 0 0 0 0 0 0 0 0 0 0 0.25 0"/>
<feBlend mode="normal" in2="shape" result="effect1_innerShadow_49_478"/>
</filter>
<filter id="filter15_i_49_478" x="532.931" y="493.11" width="60.1602" height="108.704" filterUnits="userSpaceOnUse" color-interpolation-filters="sRGB">
<feFlood flood-opacity="0" result="BackgroundImageFix"/>
<feBlend mode="normal" in="SourceGraphic" in2="BackgroundImageFix" result="shape"/>
<feColorMatrix in="SourceAlpha" type="matrix" values="0 0 0 0 0 0 0 0 0 0 0 0 0 0 0 0 0 0 127 0" result="hardAlpha"/>
<feOffset dx="5" dy="-2"/>
<feGaussianBlur stdDeviation="2"/>
<feComposite in2="hardAlpha" operator="arithmetic" k2="-1" k3="1"/>
<feColorMatrix type="matrix" values="0 0 0 0 0 0 0 0 0 0 0 0 0 0 0 0 0 0 0.25 0"/>
<feBlend mode="normal" in2="shape" result="effect1_innerShadow_49_478"/>
</filter>
<filter id="filter16_i_49_478" x="709.233" y="334.679" width="60.1602" height="108.704" filterUnits="userSpaceOnUse" color-interpolation-filters="sRGB">
<feFlood flood-opacity="0" result="BackgroundImageFix"/>
<feBlend mode="normal" in="SourceGraphic" in2="BackgroundImageFix" result="shape"/>
<feColorMatrix in="SourceAlpha" type="matrix" values="0 0 0 0 0 0 0 0 0 0 0 0 0 0 0 0 0 0 127 0" result="hardAlpha"/>
<feOffset dx="-13" dy="-2"/>
<feGaussianBlur stdDeviation="2"/>
<feComposite in2="hardAlpha" operator="arithmetic" k2="-1" k3="1"/>
<feColorMatrix type="matrix" values="0 0 0 0 0 0 0 0 0 0 0 0 0 0 0 0 0 0 0.25 0"/>
<feBlend mode="normal" in2="shape" result="effect1_innerShadow_49_478"/>
</filter>
<filter id="filter17_i_49_478" x="612.875" y="388.475" width="60.1602" height="107.522" filterUnits="userSpaceOnUse" color-interpolation-filters="sRGB">
<feFlood flood-opacity="0" result="BackgroundImageFix"/>
<feBlend mode="normal" in="SourceGraphic" in2="BackgroundImageFix" result="shape"/>
<feColorMatrix in="SourceAlpha" type="matrix" values="0 0 0 0 0 0 0 0 0 0 0 0 0 0 0 0 0 0 127 0" result="hardAlpha"/>
<feOffset dx="-13" dy="-2"/>
<feGaussianBlur stdDeviation="2"/>
<feComposite in2="hardAlpha" operator="arithmetic" k2="-1" k3="1"/>
<feColorMatrix type="matrix" values="0 0 0 0 0 0 0 0 0 0 0 0 0 0 0 0 0 0 0.25 0"/>
<feBlend mode="normal" in2="shape" result="effect1_innerShadow_49_478"/>
</filter>
<filter id="filter18_i_49_478" x="709.233" y="651.541" width="60.1602" height="108.704" filterUnits="userSpaceOnUse" color-interpolation-filters="sRGB">
<feFlood flood-opacity="0" result="BackgroundImageFix"/>
<feBlend mode="normal" in="SourceGraphic" in2="BackgroundImageFix" result="shape"/>
<feColorMatrix in="SourceAlpha" type="matrix" values="0 0 0 0 0 0 0 0 0 0 0 0 0 0 0 0 0 0 127 0" result="hardAlpha"/>
<feOffset dx="-13" dy="-2"/>
<feGaussianBlur stdDeviation="2"/>
<feComposite in2="hardAlpha" operator="arithmetic" k2="-1" k3="1"/>
<feColorMatrix type="matrix" values="0 0 0 0 0 0 0 0 0 0 0 0 0 0 0 0 0 0 0.25 0"/>
<feBlend mode="normal" in2="shape" result="effect1_innerShadow_49_478"/>
</filter>
<filter id="filter19_i_49_478" x="612.875" y="705.336" width="60.1602" height="108.704" filterUnits="userSpaceOnUse" color-interpolation-filters="sRGB">
<feFlood flood-opacity="0" result="BackgroundImageFix"/>
<feBlend mode="normal" in="SourceGraphic" in2="BackgroundImageFix" result="shape"/>
<feColorMatrix in="SourceAlpha" type="matrix" values="0 0 0 0 0 0 0 0 0 0 0 0 0 0 0 0 0 0 127 0" result="hardAlpha"/>
<feOffset dx="-13" dy="-2"/>
<feGaussianBlur stdDeviation="2"/>
<feComposite in2="hardAlpha" operator="arithmetic" k2="-1" k3="1"/>
<feColorMatrix type="matrix" values="0 0 0 0 0 0 0 0 0 0 0 0 0 0 0 0 0 0 0.25 0"/>
<feBlend mode="normal" in2="shape" result="effect1_innerShadow_49_478"/>
</filter>
<filter id="filter20_i_49_478" x="709.233" y="546.314" width="60.1602" height="108.704" filterUnits="userSpaceOnUse" color-interpolation-filters="sRGB">
<feFlood flood-opacity="0" result="BackgroundImageFix"/>
<feBlend mode="normal" in="SourceGraphic" in2="BackgroundImageFix" result="shape"/>
<feColorMatrix in="SourceAlpha" type="matrix" values="0 0 0 0 0 0 0 0 0 0 0 0 0 0 0 0 0 0 127 0" result="hardAlpha"/>
<feOffset dx="-13" dy="-2"/>
<feGaussianBlur stdDeviation="2"/>
<feComposite in2="hardAlpha" operator="arithmetic" k2="-1" k3="1"/>
<feColorMatrix type="matrix" values="0 0 0 0 0 0 0 0 0 0 0 0 0 0 0 0 0 0 0.25 0"/>
<feBlend mode="normal" in2="shape" result="effect1_innerShadow_49_478"/>
</filter>
<filter id="filter21_i_49_478" x="612.875" y="600.11" width="60.1602" height="108.704" filterUnits="userSpaceOnUse" color-interpolation-filters="sRGB">
<feFlood flood-opacity="0" result="BackgroundImageFix"/>
<feBlend mode="normal" in="SourceGraphic" in2="BackgroundImageFix" result="shape"/>
<feColorMatrix in="SourceAlpha" type="matrix" values="0 0 0 0 0 0 0 0 0 0 0 0 0 0 0 0 0 0 127 0" result="hardAlpha"/>
<feOffset dx="-13" dy="-2"/>
<feGaussianBlur stdDeviation="2"/>
<feComposite in2="hardAlpha" operator="arithmetic" k2="-1" k3="1"/>
<feColorMatrix type="matrix" values="0 0 0 0 0 0 0 0 0 0 0 0 0 0 0 0 0 0 0.25 0"/>
<feBlend mode="normal" in2="shape" result="effect1_innerShadow_49_478"/>
</filter>
<filter id="filter22_i_49_478" x="709.233" y="439.314" width="60.1602" height="108.704" filterUnits="userSpaceOnUse" color-interpolation-filters="sRGB">
<feFlood flood-opacity="0" result="BackgroundImageFix"/>
<feBlend mode="normal" in="SourceGraphic" in2="BackgroundImageFix" result="shape"/>
<feColorMatrix in="SourceAlpha" type="matrix" values="0 0 0 0 0 0 0 0 0 0 0 0 0 0 0 0 0 0 127 0" result="hardAlpha"/>
<feOffset dx="-13" dy="-2"/>
<feGaussianBlur stdDeviation="2"/>
<feComposite in2="hardAlpha" operator="arithmetic" k2="-1" k3="1"/>
<feColorMatrix type="matrix" values="0 0 0 0 0 0 0 0 0 0 0 0 0 0 0 0 0 0 0.25 0"/>
<feBlend mode="normal" in2="shape" result="effect1_innerShadow_49_478"/>
</filter>
<filter id="filter23_i_49_478" x="612.875" y="493.11" width="60.1602" height="108.704" filterUnits="userSpaceOnUse" color-interpolation-filters="sRGB">
<feFlood flood-opacity="0" result="BackgroundImageFix"/>
<feBlend mode="normal" in="SourceGraphic" in2="BackgroundImageFix" result="shape"/>
<feColorMatrix in="SourceAlpha" type="matrix" values="0 0 0 0 0 0 0 0 0 0 0 0 0 0 0 0 0 0 127 0" result="hardAlpha"/>
<feOffset dx="-13" dy="-2"/>
<feGaussianBlur stdDeviation="2"/>
<feComposite in2="hardAlpha" operator="arithmetic" k2="-1" k3="1"/>
<feColorMatrix type="matrix" values="0 0 0 0 0 0 0 0 0 0 0 0 0 0 0 0 0 0 0.25 0"/>
<feBlend mode="normal" in2="shape" result="effect1_innerShadow_49_478"/>
</filter>
<filter id="filter24_i_49_478" x="838.698" y="150.828" width="41.834" height="74.7126" filterUnits="userSpaceOnUse" color-interpolation-filters="sRGB">
<feFlood flood-opacity="0" result="BackgroundImageFix"/>
<feBlend mode="normal" in="SourceGraphic" in2="BackgroundImageFix" result="shape"/>
<feColorMatrix in="SourceAlpha" type="matrix" values="0 0 0 0 0 0 0 0 0 0 0 0 0 0 0 0 0 0 127 0" result="hardAlpha"/>
<feOffset dx="-13" dy="-2"/>
<feGaussianBlur stdDeviation="2"/>
<feComposite in2="hardAlpha" operator="arithmetic" k2="-1" k3="1"/>
<feColorMatrix type="matrix" values="0 0 0 0 0 0 0 0 0 0 0 0 0 0 0 0 0 0 0.25 0"/>
<feBlend mode="normal" in2="shape" result="effect1_innerShadow_49_478"/>
</filter>
<filter id="filter25_i_49_478" x="773.078" y="187.481" width="42.4258" height="73.5303" filterUnits="userSpaceOnUse" color-interpolation-filters="sRGB">
<feFlood flood-opacity="0" result="BackgroundImageFix"/>
<feBlend mode="normal" in="SourceGraphic" in2="BackgroundImageFix" result="shape"/>
<feColorMatrix in="SourceAlpha" type="matrix" values="0 0 0 0 0 0 0 0 0 0 0 0 0 0 0 0 0 0 127 0" result="hardAlpha"/>
<feOffset dx="-13" dy="-2"/>
<feGaussianBlur stdDeviation="2"/>
<feComposite in2="hardAlpha" operator="arithmetic" k2="-1" k3="1"/>
<feColorMatrix type="matrix" values="0 0 0 0 0 0 0 0 0 0 0 0 0 0 0 0 0 0 0.25 0"/>
<feBlend mode="normal" in2="shape" result="effect1_innerShadow_49_478"/>
</filter>
<filter id="filter26_i_49_478" x="838.698" y="366.011" width="41.834" height="74.7126" filterUnits="userSpaceOnUse" color-interpolation-filters="sRGB">
<feFlood flood-opacity="0" result="BackgroundImageFix"/>
<feBlend mode="normal" in="SourceGraphic" in2="BackgroundImageFix" result="shape"/>
<feColorMatrix in="SourceAlpha" type="matrix" values="0 0 0 0 0 0 0 0 0 0 0 0 0 0 0 0 0 0 127 0" result="hardAlpha"/>
<feOffset dx="-13" dy="-2"/>
<feGaussianBlur stdDeviation="2"/>
<feComposite in2="hardAlpha" operator="arithmetic" k2="-1" k3="1"/>
<feColorMatrix type="matrix" values="0 0 0 0 0 0 0 0 0 0 0 0 0 0 0 0 0 0 0.25 0"/>
<feBlend mode="normal" in2="shape" result="effect1_innerShadow_49_478"/>
</filter>
<filter id="filter27_i_49_478" x="838.698" y="294.48" width="41.834" height="74.7126" filterUnits="userSpaceOnUse" color-interpolation-filters="sRGB">
<feFlood flood-opacity="0" result="BackgroundImageFix"/>
<feBlend mode="normal" in="SourceGraphic" in2="BackgroundImageFix" result="shape"/>
<feColorMatrix in="SourceAlpha" type="matrix" values="0 0 0 0 0 0 0 0 0 0 0 0 0 0 0 0 0 0 127 0" result="hardAlpha"/>
<feOffset dx="-13" dy="-2"/>
<feGaussianBlur stdDeviation="2"/>
<feComposite in2="hardAlpha" operator="arithmetic" k2="-1" k3="1"/>
<feColorMatrix type="matrix" values="0 0 0 0 0 0 0 0 0 0 0 0 0 0 0 0 0 0 0.25 0"/>
<feBlend mode="normal" in2="shape" result="effect1_innerShadow_49_478"/>
</filter>
<filter id="filter28_i_49_478" x="838.698" y="221.768" width="41.834" height="74.7126" filterUnits="userSpaceOnUse" color-interpolation-filters="sRGB">
<feFlood flood-opacity="0" result="BackgroundImageFix"/>
<feBlend mode="normal" in="SourceGraphic" in2="BackgroundImageFix" result="shape"/>
<feColorMatrix in="SourceAlpha" type="matrix" values="0 0 0 0 0 0 0 0 0 0 0 0 0 0 0 0 0 0 127 0" result="hardAlpha"/>
<feOffset dx="-13" dy="-2"/>
<feGaussianBlur stdDeviation="2"/>
<feComposite in2="hardAlpha" operator="arithmetic" k2="-1" k3="1"/>
<feColorMatrix type="matrix" values="0 0 0 0 0 0 0 0 0 0 0 0 0 0 0 0 0 0 0.25 0"/>
<feBlend mode="normal" in2="shape" result="effect1_innerShadow_49_478"/>
</filter>
<filter id="filter29_i_49_478" x="838.698" y="434.585" width="41.834" height="74.7126" filterUnits="userSpaceOnUse" color-interpolation-filters="sRGB">
<feFlood flood-opacity="0" result="BackgroundImageFix"/>
<feBlend mode="normal" in="SourceGraphic" in2="BackgroundImageFix" result="shape"/>
<feColorMatrix in="SourceAlpha" type="matrix" values="0 0 0 0 0 0 0 0 0 0 0 0 0 0 0 0 0 0 127 0" result="hardAlpha"/>
<feOffset dx="-13" dy="-2"/>
<feGaussianBlur stdDeviation="2"/>
<feComposite in2="hardAlpha" operator="arithmetic" k2="-1" k3="1"/>
<feColorMatrix type="matrix" values="0 0 0 0 0 0 0 0 0 0 0 0 0 0 0 0 0 0 0.25 0"/>
<feBlend mode="normal" in2="shape" result="effect1_innerShadow_49_478"/>
</filter>
<filter id="filter30_i_49_478" x="838.698" y="578.237" width="41.834" height="74.7126" filterUnits="userSpaceOnUse" color-interpolation-filters="sRGB">
<feFlood flood-opacity="0" result="BackgroundImageFix"/>
<feBlend mode="normal" in="SourceGraphic" in2="BackgroundImageFix" result="shape"/>
<feColorMatrix in="SourceAlpha" type="matrix" values="0 0 0 0 0 0 0 0 0 0 0 0 0 0 0 0 0 0 127 0" result="hardAlpha"/>
<feOffset dx="-13" dy="-2"/>
<feGaussianBlur stdDeviation="2"/>
<feComposite in2="hardAlpha" operator="arithmetic" k2="-1" k3="1"/>
<feColorMatrix type="matrix" values="0 0 0 0 0 0 0 0 0 0 0 0 0 0 0 0 0 0 0.25 0"/>
<feBlend mode="normal" in2="shape" result="effect1_innerShadow_49_478"/>
</filter>
<filter id="filter31_i_49_478" x="838.698" y="505.524" width="41.834" height="74.7126" filterUnits="userSpaceOnUse" color-interpolation-filters="sRGB">
<feFlood flood-opacity="0" result="BackgroundImageFix"/>
<feBlend mode="normal" in="SourceGraphic" in2="BackgroundImageFix" result="shape"/>
<feColorMatrix in="SourceAlpha" type="matrix" values="0 0 0 0 0 0 0 0 0 0 0 0 0 0 0 0 0 0 127 0" result="hardAlpha"/>
<feOffset dx="-13" dy="-2"/>
<feGaussianBlur stdDeviation="2"/>
<feComposite in2="hardAlpha" operator="arithmetic" k2="-1" k3="1"/>
<feColorMatrix type="matrix" values="0 0 0 0 0 0 0 0 0 0 0 0 0 0 0 0 0 0 0.25 0"/>
<feBlend mode="normal" in2="shape" result="effect1_innerShadow_49_478"/>
</filter>
<filter id="filter32_d_49_478" x="0" y="569.638" width="744.374" height="521.212" filterUnits="userSpaceOnUse" color-interpolation-filters="sRGB">
<feFlood flood-opacity="0" result="BackgroundImageFix"/>
<feColorMatrix in="SourceAlpha" type="matrix" values="0 0 0 0 0 0 0 0 0 0 0 0 0 0 0 0 0 0 127 0" result="hardAlpha"/>
<feOffset dx="67" dy="-7"/>
<feGaussianBlur stdDeviation="26.85"/>
<feComposite in2="hardAlpha" operator="out"/>
<feColorMatrix type="matrix" values="0 0 0 0 0 0 0 0 0 0 0 0 0 0 0 0 0 0 0.25 0"/>
<feBlend mode="normal" in2="BackgroundImageFix" result="effect1_dropShadow_49_478"/>
<feBlend mode="normal" in="SourceGraphic" in2="effect1_dropShadow_49_478" result="shape"/>
</filter>
<filter id="filter33_d_49_478" x="446.87" y="605.996" width="811.341" height="471.867" filterUnits="userSpaceOnUse" color-interpolation-filters="sRGB">
<feFlood flood-opacity="0" result="BackgroundImageFix"/>
<feColorMatrix in="SourceAlpha" type="matrix" values="0 0 0 0 0 0 0 0 0 0 0 0 0 0 0 0 0 0 127 0" result="hardAlpha"/>
<feOffset dx="36" dy="-18"/>
<feGaussianBlur stdDeviation="26.3"/>
<feComposite in2="hardAlpha" operator="out"/>
<feColorMatrix type="matrix" values="0 0 0 0 0 0 0 0 0 0 0 0 0 0 0 0 0 0 0.25 0"/>
<feBlend mode="normal" in2="BackgroundImageFix" result="effect1_dropShadow_49_478"/>
<feBlend mode="normal" in="SourceGraphic" in2="effect1_dropShadow_49_478" result="shape"/>
</filter>
<filter id="filter34_d_49_478" x="973.038" y="730.141" width="98.1428" height="180.905" filterUnits="userSpaceOnUse" color-interpolation-filters="sRGB">
<feFlood flood-opacity="0" result="BackgroundImageFix"/>
<feColorMatrix in="SourceAlpha" type="matrix" values="0 0 0 0 0 0 0 0 0 0 0 0 0 0 0 0 0 0 127 0" result="hardAlpha"/>
<feOffset dx="13" dy="-10"/>
<feGaussianBlur stdDeviation="10.2"/>
<feComposite in2="hardAlpha" operator="out"/>
<feColorMatrix type="matrix" values="0 0 0 0 0 0 0 0 0 0 0 0 0 0 0 0 0 0 0.25 0"/>
<feBlend mode="normal" in2="BackgroundImageFix" result="effect1_dropShadow_49_478"/>
<feBlend mode="normal" in="SourceGraphic" in2="effect1_dropShadow_49_478" result="shape"/>
</filter>
<filter id="filter35_d_49_478" x="314.975" y="873.502" width="52.9277" height="54.9282" filterUnits="userSpaceOnUse" color-interpolation-filters="sRGB">
<feFlood flood-opacity="0" result="BackgroundImageFix"/>
<feColorMatrix in="SourceAlpha" type="matrix" values="0 0 0 0 0 0 0 0 0 0 0 0 0 0 0 0 0 0 127 0" result="hardAlpha"/>
<feOffset dx="3" dy="-6"/>
<feGaussianBlur stdDeviation="2"/>
<feComposite in2="hardAlpha" operator="out"/>
<feColorMatrix type="matrix" values="0 0 0 0 0 0 0 0 0 0 0 0 0 0 0 0 0 0 0.31 0"/>
<feBlend mode="normal" in2="BackgroundImageFix" result="effect1_dropShadow_49_478"/>
<feBlend mode="normal" in="SourceGraphic" in2="effect1_dropShadow_49_478" result="shape"/>
</filter>
<filter id="filter36_d_49_478" x="369.361" y="873.502" width="52.9277" height="54.9282" filterUnits="userSpaceOnUse" color-interpolation-filters="sRGB">
<feFlood flood-opacity="0" result="BackgroundImageFix"/>
<feColorMatrix in="SourceAlpha" type="matrix" values="0 0 0 0 0 0 0 0 0 0 0 0 0 0 0 0 0 0 127 0" result="hardAlpha"/>
<feOffset dx="3" dy="-6"/>
<feGaussianBlur stdDeviation="2"/>
<feComposite in2="hardAlpha" operator="out"/>
<feColorMatrix type="matrix" values="0 0 0 0 0 0 0 0 0 0 0 0 0 0 0 0 0 0 0.31 0"/>
<feBlend mode="normal" in2="BackgroundImageFix" result="effect1_dropShadow_49_478"/>
<feBlend mode="normal" in="SourceGraphic" in2="effect1_dropShadow_49_478" result="shape"/>
</filter>
<filter id="filter37_d_49_478" x="369.361" y="927.889" width="52.9277" height="54.9282" filterUnits="userSpaceOnUse" color-interpolation-filters="sRGB">
<feFlood flood-opacity="0" result="BackgroundImageFix"/>
<feColorMatrix in="SourceAlpha" type="matrix" values="0 0 0 0 0 0 0 0 0 0 0 0 0 0 0 0 0 0 127 0" result="hardAlpha"/>
<feOffset dx="3" dy="-6"/>
<feGaussianBlur stdDeviation="2"/>
<feComposite in2="hardAlpha" operator="out"/>
<feColorMatrix type="matrix" values="0 0 0 0 0 0 0 0 0 0 0 0 0 0 0 0 0 0 0.31 0"/>
<feBlend mode="normal" in2="BackgroundImageFix" result="effect1_dropShadow_49_478"/>
<feBlend mode="normal" in="SourceGraphic" in2="effect1_dropShadow_49_478" result="shape"/>
</filter>
<filter id="filter38_d_49_478" x="314.975" y="927.889" width="52.9277" height="54.9282" filterUnits="userSpaceOnUse" color-interpolation-filters="sRGB">
<feFlood flood-opacity="0" result="BackgroundImageFix"/>
<feColorMatrix in="SourceAlpha" type="matrix" values="0 0 0 0 0 0 0 0 0 0 0 0 0 0 0 0 0 0 127 0" result="hardAlpha"/>
<feOffset dx="3" dy="-6"/>
<feGaussianBlur stdDeviation="2"/>
<feComposite in2="hardAlpha" operator="out"/>
<feColorMatrix type="matrix" values="0 0 0 0 0 0 0 0 0 0 0 0 0 0 0 0 0 0 0.31 0"/>
<feBlend mode="normal" in2="BackgroundImageFix" result="effect1_dropShadow_49_478"/>
<feBlend mode="normal" in="SourceGraphic" in2="effect1_dropShadow_49_478" result="shape"/>
</filter>
<filter id="filter39_d_49_478" x="780.218" y="900.695" width="52.9277" height="54.9282" filterUnits="userSpaceOnUse" color-interpolation-filters="sRGB">
<feFlood flood-opacity="0" result="BackgroundImageFix"/>
<feColorMatrix in="SourceAlpha" type="matrix" values="0 0 0 0 0 0 0 0 0 0 0 0 0 0 0 0 0 0 127 0" result="hardAlpha"/>
<feOffset dx="3" dy="-6"/>
<feGaussianBlur stdDeviation="2"/>
<feComposite in2="hardAlpha" operator="out"/>
<feColorMatrix type="matrix" values="0 0 0 0 0 0 0 0 0 0 0 0 0 0 0 0 0 0 0.31 0"/>
<feBlend mode="normal" in2="BackgroundImageFix" result="effect1_dropShadow_49_478"/>
<feBlend mode="normal" in="SourceGraphic" in2="effect1_dropShadow_49_478" result="shape"/>
</filter>
<filter id="filter40_d_49_478" x="834.604" y="900.695" width="52.9277" height="54.9282" filterUnits="userSpaceOnUse" color-interpolation-filters="sRGB">
<feFlood flood-opacity="0" result="BackgroundImageFix"/>
<feColorMatrix in="SourceAlpha" type="matrix" values="0 0 0 0 0 0 0 0 0 0 0 0 0 0 0 0 0 0 127 0" result="hardAlpha"/>
<feOffset dx="3" dy="-6"/>
<feGaussianBlur stdDeviation="2"/>
<feComposite in2="hardAlpha" operator="out"/>
<feColorMatrix type="matrix" values="0 0 0 0 0 0 0 0 0 0 0 0 0 0 0 0 0 0 0.31 0"/>
<feBlend mode="normal" in2="BackgroundImageFix" result="effect1_dropShadow_49_478"/>
<feBlend mode="normal" in="SourceGraphic" in2="effect1_dropShadow_49_478" result="shape"/>
</filter>
<filter id="filter41_d_49_478" x="834.604" y="955.082" width="52.9277" height="54.9282" filterUnits="userSpaceOnUse" color-interpolation-filters="sRGB">
<feFlood flood-opacity="0" result="BackgroundImageFix"/>
<feColorMatrix in="SourceAlpha" type="matrix" values="0 0 0 0 0 0 0 0 0 0 0 0 0 0 0 0 0 0 127 0" result="hardAlpha"/>
<feOffset dx="3" dy="-6"/>
<feGaussianBlur stdDeviation="2"/>
<feComposite in2="hardAlpha" operator="out"/>
<feColorMatrix type="matrix" values="0 0 0 0 0 0 0 0 0 0 0 0 0 0 0 0 0 0 0.31 0"/>
<feBlend mode="normal" in2="BackgroundImageFix" result="effect1_dropShadow_49_478"/>
<feBlend mode="normal" in="SourceGraphic" in2="effect1_dropShadow_49_478" result="shape"/>
</filter>
<filter id="filter42_d_49_478" x="780.218" y="955.082" width="52.9277" height="54.9282" filterUnits="userSpaceOnUse" color-interpolation-filters="sRGB">
<feFlood flood-opacity="0" result="BackgroundImageFix"/>
<feColorMatrix in="SourceAlpha" type="matrix" values="0 0 0 0 0 0 0 0 0 0 0 0 0 0 0 0 0 0 127 0" result="hardAlpha"/>
<feOffset dx="3" dy="-6"/>
<feGaussianBlur stdDeviation="2"/>
<feComposite in2="hardAlpha" operator="out"/>
<feColorMatrix type="matrix" values="0 0 0 0 0 0 0 0 0 0 0 0 0 0 0 0 0 0 0.31 0"/>
<feBlend mode="normal" in2="BackgroundImageFix" result="effect1_dropShadow_49_478"/>
<feBlend mode="normal" in="SourceGraphic" in2="effect1_dropShadow_49_478" result="shape"/>
</filter>
<filter id="filter43_d_49_478" x="6.4457" y="1076.1" width="1187.29" height="178.015" filterUnits="userSpaceOnUse" color-interpolation-filters="sRGB">
<feFlood flood-opacity="0" result="BackgroundImageFix"/>
<feColorMatrix in="SourceAlpha" type="matrix" values="0 0 0 0 0 0 0 0 0 0 0 0 0 0 0 0 0 0 127 0" result="hardAlpha"/>
<feOffset dx="11" dy="-13"/>
<feGaussianBlur stdDeviation="7.45"/>
<feComposite in2="hardAlpha" operator="out"/>
<feColorMatrix type="matrix" values="0 0 0 0 0 0 0 0 0 0 0 0 0 0 0 0 0 0 0.25 0"/>
<feBlend mode="normal" in2="BackgroundImageFix" result="effect1_dropShadow_49_478"/>
<feBlend mode="normal" in="SourceGraphic" in2="effect1_dropShadow_49_478" result="shape"/>
</filter>
<filter id="filter44_i_49_478" x="642.433" y="150.828" width="41.834" height="74.7126" filterUnits="userSpaceOnUse" color-interpolation-filters="sRGB">
<feFlood flood-opacity="0" result="BackgroundImageFix"/>
<feBlend mode="normal" in="SourceGraphic" in2="BackgroundImageFix" result="shape"/>
<feColorMatrix in="SourceAlpha" type="matrix" values="0 0 0 0 0 0 0 0 0 0 0 0 0 0 0 0 0 0 127 0" result="hardAlpha"/>
<feOffset dx="-13" dy="-2"/>
<feGaussianBlur stdDeviation="2"/>
<feComposite in2="hardAlpha" operator="arithmetic" k2="-1" k3="1"/>
<feColorMatrix type="matrix" values="0 0 0 0 0 0 0 0 0 0 0 0 0 0 0 0 0 0 0.25 0"/>
<feBlend mode="normal" in2="shape" result="effect1_innerShadow_49_478"/>
</filter>
<filter id="filter45_i_49_478" x="707.46" y="187.481" width="42.4258" height="73.5303" filterUnits="userSpaceOnUse" color-interpolation-filters="sRGB">
<feFlood flood-opacity="0" result="BackgroundImageFix"/>
<feBlend mode="normal" in="SourceGraphic" in2="BackgroundImageFix" result="shape"/>
<feColorMatrix in="SourceAlpha" type="matrix" values="0 0 0 0 0 0 0 0 0 0 0 0 0 0 0 0 0 0 127 0" result="hardAlpha"/>
<feOffset dx="-13" dy="-2"/>
<feGaussianBlur stdDeviation="2"/>
<feComposite in2="hardAlpha" operator="arithmetic" k2="-1" k3="1"/>
<feColorMatrix type="matrix" values="0 0 0 0 0 0 0 0 0 0 0 0 0 0 0 0 0 0 0.25 0"/>
<feBlend mode="normal" in2="shape" result="effect1_innerShadow_49_478"/>
</filter>
<filter id="filter46_d_49_478" x="12.2088" y="1293.34" width="1200.47" height="110.752" filterUnits="userSpaceOnUse" color-interpolation-filters="sRGB">
<feFlood flood-opacity="0" result="BackgroundImageFix"/>
<feColorMatrix in="SourceAlpha" type="matrix" values="0 0 0 0 0 0 0 0 0 0 0 0 0 0 0 0 0 0 127 0" result="hardAlpha"/>
<feOffset dx="14" dy="-11"/>
<feGaussianBlur stdDeviation="9.4"/>
<feComposite in2="hardAlpha" operator="out"/>
<feColorMatrix type="matrix" values="0 0 0 0 0 0 0 0 0 0 0 0 0 0 0 0 0 0 0.25 0"/>
<feBlend mode="normal" in2="BackgroundImageFix" result="effect1_dropShadow_49_478"/>
<feBlend mode="normal" in="SourceGraphic" in2="effect1_dropShadow_49_478" result="shape"/>
</filter>
<filter id="filter47_d_49_478" x="94.2479" y="1417.07" width="1009.02" height="86.3678" filterUnits="userSpaceOnUse" color-interpolation-filters="sRGB">
<feFlood flood-opacity="0" result="BackgroundImageFix"/>
<feColorMatrix in="SourceAlpha" type="matrix" values="0 0 0 0 0 0 0 0 0 0 0 0 0 0 0 0 0 0 127 0" result="hardAlpha"/>
<feOffset dx="14" dy="-11"/>
<feGaussianBlur stdDeviation="9.4"/>
<feComposite in2="hardAlpha" operator="out"/>
<feColorMatrix type="matrix" values="0 0 0 0 0 0 0 0 0 0 0 0 0 0 0 0 0 0 0.25 0"/>
<feBlend mode="normal" in2="BackgroundImageFix" result="effect1_dropShadow_49_478"/>
<feBlend mode="normal" in="SourceGraphic" in2="effect1_dropShadow_49_478" result="shape"/>
</filter>
</defs>
</svg>
