<svg width="876" height="1100" viewBox="0 0 876 1100" fill="none" xmlns="http://www.w3.org/2000/svg">
<g filter="url(#filter0_di_49_478)">
<path d="M422.23 78.4217L511.477 21L600 78.4217L511.477 129.173L422.23 78.4217Z" fill="white"/>
<path d="M511.477 129.173L422.23 78.4217V322.319L511.477 547.15V129.173Z" fill="white"/>
<path d="M600 78.4217L511.477 129.173V547.15L600 524.481L573.156 491.671L600 482.525V301.451V78.4217Z" fill="white"/>
</g>
<g filter="url(#filter1_i_49_478)">
<path d="M548.697 279.104L522.847 293.485V327.622L548.697 311.36V279.104Z" fill="#1B5083"/>
</g>
<g filter="url(#filter2_i_49_478)">
<path d="M548.697 230.983L522.847 245.481V279.899L548.697 263.503V230.983Z" fill="#1B5083"/>
</g>
<g filter="url(#filter3_i_49_478)">
<path d="M548.697 182.066L522.847 196.565V230.983L548.697 214.587V182.066Z" fill="#1B5083"/>
</g>
<g filter="url(#filter4_i_49_478)">
<path d="M548.697 325.236L522.847 339.659V373.357L548.697 357.587V325.236Z" fill="#1B5083"/>
</g>
<g filter="url(#filter5_i_49_478)">
<path d="M548.697 421.876L522.847 436.375V470.792L548.697 454.397V421.876Z" fill="#1B5083"/>
</g>
<g filter="url(#filter6_i_49_478)">
<path d="M548.697 372.96L522.847 387.458V421.876L548.697 405.48V372.96Z" fill="#1B5083"/>
</g>
<g filter="url(#filter7_di_49_478)">
<path d="M284.23 214.478L406.72 135.735L528.216 214.478L406.72 284.075L284.23 214.478Z" fill="#1B5083"/>
<path d="M406.72 284.075L284.23 214.478V548.939L406.72 653.732V284.075Z" fill="#1B5083"/>
<path d="M528.216 214.478L406.72 284.075V653.732L528.216 548.939V214.478Z" fill="#1B5083"/>
</g>
<g filter="url(#filter8_i_49_478)">
<path d="M293.775 233.369L331.556 254.646V305.153L293.775 281.092V233.369Z" fill="white"/>
</g>
<g filter="url(#filter9_i_49_478)">
<path d="M358.6 269.559L396.381 290.836V340.548L358.6 317.282V269.559Z" fill="white"/>
</g>
<g filter="url(#filter10_i_49_478)">
<path d="M293.775 446.533L331.556 467.81V518.317L293.775 494.257V446.533Z" fill="white"/>
</g>
<g filter="url(#filter11_i_49_478)">
<path d="M358.6 482.723L396.381 504V554.507L358.6 530.447V482.723Z" fill="white"/>
</g>
<g filter="url(#filter12_i_49_478)">
<path d="M293.775 375.743L331.556 397.02V447.527L293.775 423.467V375.743Z" fill="white"/>
</g>
<g filter="url(#filter13_i_49_478)">
<path d="M358.6 411.934L396.381 433.21V483.717L358.6 459.657V411.934Z" fill="white"/>
</g>
<g filter="url(#filter14_i_49_478)">
<path d="M293.775 303.761L331.556 325.037V375.545L293.775 351.484V303.761Z" fill="white"/>
</g>
<g filter="url(#filter15_i_49_478)">
<path d="M358.6 339.951L396.381 361.228V411.735L358.6 387.674V339.951Z" fill="white"/>
</g>
<g filter="url(#filter16_i_49_478)">
<path d="M517.677 233.369L479.896 254.646V305.153L517.677 281.092V233.369Z" fill="white"/>
</g>
<g filter="url(#filter17_i_49_478)">
<path d="M452.854 269.559L415.073 290.836V340.548L452.854 317.282V269.559Z" fill="white"/>
</g>
<g filter="url(#filter18_i_49_478)">
<path d="M517.677 446.533L479.896 467.81V518.317L517.677 494.257V446.533Z" fill="white"/>
</g>
<g filter="url(#filter19_i_49_478)">
<path d="M452.854 482.723L415.073 504V554.507L452.854 530.447V482.723Z" fill="white"/>
</g>
<g filter="url(#filter20_i_49_478)">
<path d="M517.677 375.743L479.896 397.02V447.527L517.677 423.467V375.743Z" fill="white"/>
</g>
<g filter="url(#filter21_i_49_478)">
<path d="M452.854 411.934L415.073 433.21V483.717L452.854 459.657V411.934Z" fill="white"/>
</g>
<g filter="url(#filter22_i_49_478)">
<path d="M517.677 303.761L479.896 325.037V375.545L517.677 351.484V303.761Z" fill="white"/>
</g>
<g filter="url(#filter23_i_49_478)">
<path d="M452.854 339.951L415.073 361.228V411.735L452.854 387.674V339.951Z" fill="white"/>
</g>
<g filter="url(#filter24_i_49_478)">
<path d="M592.444 109.686L566.992 124.185V158.602L592.444 142.206V109.686Z" fill="#1B5083"/>
</g>
<g filter="url(#filter25_i_49_478)">
<path d="M548.697 134.343L522.847 148.766V182.464L548.697 166.693V134.343Z" fill="#1B5083"/>
</g>
<g filter="url(#filter26_i_49_478)">
<path d="M592.444 254.447L566.992 268.946V303.363L592.444 286.967V254.447Z" fill="#1B5083"/>
</g>
<g filter="url(#filter27_i_49_478)">
<path d="M592.444 206.326L566.992 220.824V255.242L592.444 238.846V206.326Z" fill="#1B5083"/>
</g>
<g filter="url(#filter28_i_49_478)">
<path d="M592.444 157.409L566.992 171.908V206.326L592.444 189.93V157.409Z" fill="#1B5083"/>
</g>
<g filter="url(#filter29_i_49_478)">
<path d="M592.444 300.579L566.992 315.078V349.496L592.444 333.1V300.579Z" fill="#1B5083"/>
</g>
<g filter="url(#filter30_i_49_478)">
<path d="M592.444 397.219L566.992 411.718V446.135L592.444 429.74V397.219Z" fill="#1B5083"/>
</g>
<g filter="url(#filter31_i_49_478)">
<path d="M592.444 348.302L566.992 362.801V397.219L592.444 380.823V348.302Z" fill="#1B5083"/>
</g>
<g filter="url(#filter32_d_49_478)">
<path d="M237.9 430.924L419.646 652.439L412.686 677.594L237.9 506.088L64.7035 709.31H0.078125V677.594H50.7842L237.9 430.924Z" fill="black"/>
</g>
<g filter="url(#filter33_d_49_478)">
<path d="M552.079 462.043L733.825 683.559H786.917V708.713H726.865L552.079 540.19L389.422 708.713L311.871 708.713V683.559H378.883L552.079 462.043Z" fill="black"/>
</g>
<path d="M551.879 462.242L783.735 371.965L804.216 401.395L576.337 494.058L551.879 462.242Z" fill="black"/>
<g filter="url(#filter34_d_49_478)">
<path d="M698.23 518.516H659.654V563.257C669.199 576.579 683.118 594.078 698.23 612.769V518.516Z" fill="black"/>
</g>
<path d="M644.939 499.427H713.343V522.493H644.939V499.427Z" fill="black"/>
<path d="M125.731 474.571H164.308V519.311C154.184 530.844 141.061 544.764 125.731 562.859V474.571Z" fill="black"/>
<rect x="110.836" y="474.372" width="68.4035" height="23.0663" fill="black"/>
<path d="M237.303 430.228L284.628 417.302V449.913L261.761 462.043L237.303 430.228Z" fill="black"/>
<g filter="url(#filter35_d_49_478)">
<rect x="212.646" y="601.236" width="30.2248" height="30.2248" fill="#1B5083"/>
</g>
<g filter="url(#filter36_d_49_478)">
<rect x="249.233" y="601.236" width="30.2248" height="30.2248" fill="#1B5083"/>
</g>
<g filter="url(#filter37_d_49_478)">
<rect x="249.233" y="637.824" width="30.2248" height="30.2248" fill="#1B5083"/>
</g>
<g filter="url(#filter38_d_49_478)">
<rect x="212.646" y="637.824" width="30.2248" height="30.2248" fill="#1B5083"/>
</g>
<g filter="url(#filter39_d_49_478)">
<rect x="525.632" y="619.53" width="30.2248" height="30.2248" fill="#1B5083"/>
</g>
<g filter="url(#filter40_d_49_478)">
<rect x="562.22" y="619.53" width="30.2248" height="30.2248" fill="#1B5083"/>
</g>
<g filter="url(#filter41_d_49_478)">
<rect x="562.22" y="656.118" width="30.2248" height="30.2248" fill="#1B5083"/>
</g>
<g filter="url(#filter42_d_49_478)">
<rect x="525.632" y="656.118" width="30.2248" height="30.2248" fill="#1B5083"/>
</g>
<g filter="url(#filter43_d_49_478)">
<path d="M7.03809 810.908C313.928 729.015 484.436 729.25 785.724 810.908V849.286C481.629 764.618 311.132 736.082 7.03809 823.038V810.908Z" fill="#1B5083"/>
</g>
<g filter="url(#filter44_i_49_478)">
<path d="M434.957 109.686L460.409 124.185V158.602L434.957 142.206V109.686Z" fill="#1B5083"/>
</g>
<g filter="url(#filter45_i_49_478)">
<path d="M478.703 134.343L504.553 148.766V182.464L478.703 166.693V134.343Z" fill="#1B5083"/>
</g>
<g filter="url(#filter46_d_49_478)">
<path d="M50.264 897.512C50.8187 897.512 51.096 897.832 51.096 898.472V943.976C51.096 944.275 50.9893 944.531 50.776 944.744C50.5627 944.915 50.264 945 49.88 945H43.416C43.0747 945 42.7973 944.957 42.584 944.872C42.3707 944.787 42.1147 944.573 41.816 944.232L21.4 915.56C21.2293 915.347 21.0587 915.261 20.888 915.304C20.76 915.347 20.696 915.475 20.696 915.688V943.848C20.7387 944.616 20.312 945 19.416 945H12.76C11.9067 945 11.48 944.637 11.48 943.912V898.728C11.48 897.917 11.864 897.512 12.632 897.512H20.376C20.8453 897.512 21.1867 897.576 21.4 897.704C21.656 897.832 21.9333 898.088 22.232 898.472L41.048 925.288C41.304 925.629 41.5173 925.779 41.688 925.736C41.9013 925.693 42.008 925.48 42.008 925.096V898.664C42.008 897.896 42.392 897.512 43.16 897.512H50.264ZM60.0425 898.728C60.0425 897.917 60.3838 897.512 61.0665 897.512H93.3225C93.9625 897.512 94.2825 897.875 94.2825 898.6L94.2185 904.36C94.2185 905.256 93.7705 905.704 92.8745 905.704H72.4585C71.6478 905.704 71.2425 906.045 71.2425 906.728V916.008C71.2425 916.733 71.5625 917.096 72.2025 917.096H85.7705C86.4958 917.096 86.8585 917.437 86.8585 918.12V924.264C86.8585 924.52 86.7732 924.733 86.6025 924.904C86.4745 925.075 86.2185 925.16 85.8345 925.16H72.1385C71.5412 925.16 71.2425 925.416 71.2425 925.928V935.976C71.2425 936.531 71.4772 936.808 71.9465 936.808H93.8345C94.6025 936.808 94.9865 937.128 94.9865 937.768V943.848C94.9865 944.189 94.8798 944.467 94.6665 944.68C94.4958 944.893 94.1758 945 93.7065 945H61.4505C60.5118 945 60.0425 944.552 60.0425 943.656V898.728ZM163.102 897.512C163.742 897.512 164.19 897.704 164.446 898.088C164.702 898.472 164.744 898.941 164.574 899.496L151.518 943.656C151.219 944.552 150.579 945 149.598 945H142.686C141.619 945 140.958 944.552 140.702 943.656L132.638 915.688C132.552 915.304 132.424 915.112 132.254 915.112C132.126 915.069 131.998 915.304 131.87 915.816L123.742 943.656C123.486 944.552 122.846 945 121.822 945H114.718C113.694 945 113.032 944.552 112.734 943.656L99.6775 899.496C99.5495 898.941 99.6135 898.472 99.8695 898.088C100.126 897.704 100.574 897.512 101.214 897.512H109.214C109.768 897.512 110.152 897.619 110.366 897.832C110.622 898.003 110.792 898.259 110.878 898.6L119.134 927.72C119.262 928.189 119.39 928.424 119.518 928.424C119.646 928.424 119.774 928.253 119.902 927.912L128.158 898.6C128.243 898.259 128.392 898.003 128.606 897.832C128.862 897.619 129.267 897.512 129.822 897.512H136.67C137.224 897.512 137.608 897.619 137.822 897.832C138.078 898.003 138.27 898.259 138.398 898.6L146.782 928.168C146.867 928.467 146.995 928.637 147.166 928.68C147.336 928.68 147.443 928.531 147.486 928.232L155.614 898.6C155.699 898.259 155.87 898.003 156.126 897.832C156.382 897.619 156.787 897.512 157.342 897.512H163.102ZM184.48 898.728C184.48 897.917 184.821 897.512 185.504 897.512H194.656C195.339 897.512 195.68 897.896 195.68 898.664V935.976C195.68 936.531 195.915 936.808 196.384 936.808H216.8C217.568 936.808 217.952 937.128 217.952 937.768V943.848C217.952 944.189 217.845 944.467 217.632 944.68C217.461 944.893 217.163 945 216.736 945H185.888C185.333 945 184.949 944.893 184.736 944.68C184.565 944.467 184.48 944.125 184.48 943.656V898.728ZM234.781 897.512C235.464 897.512 235.805 897.896 235.805 898.664V943.464C235.805 944.019 235.656 944.424 235.357 944.68C235.101 944.893 234.674 945 234.077 945H226.013C225.458 945 225.074 944.893 224.861 944.68C224.69 944.467 224.605 944.125 224.605 943.656V898.728C224.605 897.917 224.946 897.512 225.629 897.512H234.781ZM244.793 898.728C244.793 897.917 245.134 897.512 245.817 897.512H277.561C278.201 897.512 278.521 897.875 278.521 898.6L278.457 904.36C278.457 905.256 278.03 905.704 277.177 905.704H257.208C256.398 905.704 255.993 906.045 255.993 906.728V916.648C255.993 917.331 256.313 917.672 256.953 917.672H270.841C271.523 917.672 271.865 918.013 271.865 918.696V924.776C271.865 925.373 271.545 925.672 270.905 925.672H256.889C256.291 925.672 255.993 925.949 255.993 926.504V943.528C255.993 944.509 255.438 945 254.329 945H246.201C245.646 945 245.262 944.893 245.049 944.68C244.878 944.467 244.793 944.125 244.793 943.656V898.728ZM285.168 898.728C285.168 897.917 285.509 897.512 286.192 897.512H318.448C319.088 897.512 319.408 897.875 319.408 898.6L319.344 904.36C319.344 905.256 318.896 905.704 318 905.704H297.583C296.773 905.704 296.368 906.045 296.368 906.728V916.008C296.368 916.733 296.688 917.096 297.328 917.096H310.896C311.621 917.096 311.984 917.437 311.984 918.12V924.264C311.984 924.52 311.898 924.733 311.728 924.904C311.6 925.075 311.344 925.16 310.96 925.16H297.264C296.666 925.16 296.368 925.416 296.368 925.928V935.976C296.368 936.531 296.602 936.808 297.072 936.808H318.96C319.728 936.808 320.112 937.128 320.112 937.768V943.848C320.112 944.189 320.005 944.467 319.792 944.68C319.621 944.893 319.301 945 318.832 945H286.576C285.637 945 285.168 944.552 285.168 943.656V898.728ZM379.078 912.296C379.078 915.453 378.331 918.12 376.838 920.296C375.345 922.429 373.297 924.051 370.694 925.16C368.134 926.269 365.147 926.824 361.734 926.824H352.134C351.665 926.824 351.43 927.059 351.43 927.528V943.528C351.43 944.509 350.875 945 349.766 945H341.574C341.062 945 340.699 944.893 340.486 944.68C340.315 944.467 340.23 944.147 340.23 943.72V898.728C340.23 897.917 340.571 897.512 341.254 897.512H360.454C363.867 897.512 366.982 898.045 369.798 899.112C372.657 900.179 374.918 901.8 376.582 903.976C378.246 906.152 379.078 908.925 379.078 912.296ZM367.558 912.104C367.558 910.611 367.238 909.395 366.598 908.456C365.958 907.475 365.041 906.749 363.846 906.28C362.651 905.811 361.286 905.576 359.75 905.576H352.646C351.835 905.576 351.43 905.939 351.43 906.664V917.608C351.43 918.419 351.729 918.824 352.326 918.824H360.198C362.459 918.824 364.251 918.227 365.574 917.032C366.897 915.837 367.558 914.195 367.558 912.104ZM377.635 945C377.251 945 376.973 944.829 376.803 944.488C376.632 944.147 376.632 943.699 376.803 943.144L392.739 898.792C392.909 898.323 393.101 898.003 393.315 897.832C393.528 897.619 393.891 897.512 394.403 897.512H404.003C404.941 897.512 405.581 897.981 405.923 898.92L421.731 943.272C421.859 943.613 421.859 943.997 421.731 944.424C421.603 944.808 421.347 945 420.963 945H411.555C410.915 945 410.509 944.701 410.339 944.104L407.011 934.76C406.968 934.547 406.883 934.376 406.755 934.248C406.669 934.12 406.477 934.056 406.179 934.056H390.562C390.136 934.056 389.859 934.269 389.731 934.696L386.339 944.168C386.253 944.424 386.104 944.637 385.891 944.808C385.72 944.936 385.421 945 384.995 945H377.635ZM403.555 925.544C404.152 925.544 404.344 925.181 404.131 924.456L398.755 909.48C398.627 909.224 398.477 909.096 398.307 909.096C398.179 909.096 398.051 909.245 397.923 909.544L392.483 924.456C392.184 925.181 392.376 925.544 393.059 925.544H403.555ZM438.594 897.512C439.276 897.512 439.618 897.896 439.618 898.664V943.464C439.618 944.019 439.468 944.424 439.17 944.68C438.914 944.893 438.487 945 437.89 945H429.826C429.271 945 428.887 944.893 428.674 944.68C428.503 944.467 428.418 944.125 428.418 943.656V898.728C428.418 897.917 428.759 897.512 429.442 897.512H438.594ZM487.389 897.512C487.944 897.512 488.221 897.832 488.221 898.472V943.976C488.221 944.275 488.114 944.531 487.901 944.744C487.688 944.915 487.389 945 487.005 945H480.541C480.2 945 479.922 944.957 479.709 944.872C479.496 944.787 479.24 944.573 478.941 944.232L458.525 915.56C458.354 915.347 458.184 915.261 458.013 915.304C457.885 915.347 457.821 915.475 457.821 915.688V943.848C457.864 944.616 457.437 945 456.541 945H449.885C449.032 945 448.605 944.637 448.605 943.912V898.728C448.605 897.917 448.989 897.512 449.757 897.512H457.501C457.97 897.512 458.312 897.576 458.525 897.704C458.781 897.832 459.058 898.088 459.357 898.472L478.173 925.288C478.429 925.629 478.642 925.779 478.813 925.736C479.026 925.693 479.133 925.48 479.133 925.096V898.664C479.133 897.896 479.517 897.512 480.285 897.512H487.389ZM494.799 898.664C494.799 898.323 494.906 898.045 495.12 897.832C495.333 897.619 495.653 897.512 496.08 897.512H532.816C533.285 897.512 533.605 897.619 533.776 897.832C533.989 898.045 534.096 898.323 534.096 898.664V904.616C534.096 905.256 533.712 905.576 532.944 905.576H520.976C520.506 905.576 520.272 905.789 520.272 906.216V943.784C520.272 944.595 519.909 945 519.184 945H510.032C509.392 945 509.072 944.637 509.072 943.912V906.408C509.072 905.853 508.837 905.576 508.368 905.576H496.016C495.205 905.576 494.799 905.256 494.799 904.616V898.664ZM550.906 897.512C551.589 897.512 551.93 897.896 551.93 898.664V943.464C551.93 944.019 551.781 944.424 551.482 944.68C551.226 944.893 550.799 945 550.202 945H542.138C541.583 945 541.199 944.893 540.986 944.68C540.815 944.467 540.73 944.125 540.73 943.656V898.728C540.73 897.917 541.071 897.512 541.754 897.512H550.906ZM599.702 897.512C600.256 897.512 600.534 897.832 600.534 898.472V943.976C600.534 944.275 600.427 944.531 600.214 944.744C600 944.915 599.702 945 599.318 945H592.854C592.512 945 592.235 944.957 592.022 944.872C591.808 944.787 591.552 944.573 591.254 944.232L570.838 915.56C570.667 915.347 570.496 915.261 570.326 915.304C570.198 915.347 570.134 915.475 570.134 915.688V943.848C570.176 944.616 569.75 945 568.854 945H562.198C561.344 945 560.918 944.637 560.918 943.912V898.728C560.918 897.917 561.302 897.512 562.07 897.512H569.814C570.283 897.512 570.624 897.576 570.838 897.704C571.094 897.832 571.371 898.088 571.67 898.472L590.486 925.288C590.742 925.629 590.955 925.779 591.126 925.736C591.339 925.693 591.446 925.48 591.446 925.096V898.664C591.446 897.896 591.83 897.512 592.597 897.512H599.702ZM629.192 945.64C624.883 945.64 621.107 944.637 617.864 942.632C614.664 940.627 612.189 937.811 610.44 934.184C608.691 930.557 607.816 926.312 607.816 921.448C607.816 916.413 608.733 912.061 610.568 908.392C612.403 904.723 614.963 901.885 618.248 899.88C621.576 897.875 625.437 896.872 629.832 896.872C633.288 896.872 636.381 897.533 639.112 898.856C641.843 900.179 644.04 901.864 645.704 903.912C647.411 905.96 648.477 908.136 648.904 910.44C649.075 911.08 649.096 911.507 648.968 911.72C648.883 911.933 648.627 912.083 648.2 912.168L639.752 913.448C639.368 913.448 639.112 913.363 638.984 913.192C638.899 913.021 638.813 912.765 638.728 912.424C638.472 911.016 637.939 909.736 637.128 908.584C636.36 907.432 635.336 906.515 634.056 905.832C632.819 905.107 631.325 904.744 629.576 904.744C627.485 904.744 625.672 905.299 624.136 906.408C622.643 907.517 621.491 909.267 620.68 911.656C619.912 914.045 619.528 917.181 619.528 921.064C619.528 925.16 619.933 928.424 620.744 930.856C621.597 933.288 622.792 935.059 624.328 936.168C625.907 937.235 627.784 937.768 629.96 937.768C631.325 937.768 632.52 937.576 633.544 937.192C634.611 936.765 635.507 936.211 636.232 935.528C637 934.845 637.619 934.077 638.088 933.224C638.557 932.328 638.899 931.411 639.112 930.472L639.24 928.616C639.411 927.976 639.197 927.656 638.6 927.656H630.856C630.515 927.656 630.259 927.592 630.088 927.464C629.917 927.293 629.832 926.995 629.832 926.568V921.768C629.832 921.171 630.173 920.872 630.856 920.872L647.944 920.936C648.584 920.936 649.053 921.085 649.352 921.384C649.651 921.64 649.8 922.003 649.8 922.472V944.04C649.8 944.339 649.715 944.573 649.544 944.744C649.373 944.915 649.139 945 648.84 945H646.792C646.451 945 646.152 944.936 645.896 944.808C645.64 944.637 645.384 944.36 645.128 943.976L643.272 939.368C643.229 939.24 643.144 939.176 643.016 939.176C642.931 939.176 642.803 939.283 642.632 939.496C641.864 940.435 640.904 941.395 639.752 942.376C638.6 943.315 637.171 944.104 635.464 944.744C633.757 945.341 631.667 945.64 629.192 945.64ZM670.793 898.728C670.793 897.917 671.134 897.512 671.817 897.512H680.969C681.651 897.512 681.993 897.896 681.993 898.664V935.976C681.993 936.531 682.227 936.808 682.697 936.808H703.113C703.881 936.808 704.265 937.128 704.265 937.768V943.848C704.265 944.189 704.158 944.467 703.944 944.68C703.774 944.893 703.475 945 703.049 945H672.201C671.646 945 671.262 944.893 671.049 944.68C670.878 944.467 670.793 944.125 670.793 943.656V898.728ZM710.918 898.728C710.918 897.917 711.259 897.512 711.942 897.512H721.094C721.776 897.512 722.118 897.896 722.118 898.664V935.976C722.118 936.531 722.352 936.808 722.822 936.808H743.238C744.006 936.808 744.39 937.128 744.39 937.768V943.848C744.39 944.189 744.283 944.467 744.069 944.68C743.899 944.893 743.6 945 743.174 945H712.326C711.771 945 711.387 944.893 711.174 944.68C711.003 944.467 710.918 944.125 710.918 943.656V898.728ZM766.948 896.872C769.423 896.872 771.727 897.235 773.86 897.96C776.036 898.643 777.977 899.624 779.684 900.904C781.391 902.184 782.777 903.677 783.844 905.384C784.953 907.091 785.679 908.947 786.02 910.952C786.191 911.635 786.212 912.083 786.084 912.296C785.999 912.509 785.764 912.637 785.38 912.68L776.74 913.256C776.356 913.256 776.1 913.192 775.972 913.064C775.887 912.893 775.801 912.637 775.716 912.296C775.247 910.077 774.329 908.264 772.964 906.856C771.599 905.405 769.7 904.68 767.268 904.68C764.068 904.68 761.551 905.981 759.716 908.584C757.924 911.144 757.028 915.304 757.028 921.064C757.028 926.781 757.881 930.941 759.588 933.544C761.337 936.104 763.94 937.384 767.396 937.384C769.871 937.384 772.004 936.765 773.796 935.528C775.588 934.291 777.06 932.179 778.212 929.192C778.383 928.808 778.852 928.68 779.62 928.808L785.892 930.152C786.105 930.195 786.297 930.323 786.468 930.536C786.639 930.707 786.681 931.112 786.596 931.752C786.383 932.648 785.956 933.693 785.316 934.888C784.719 936.083 783.908 937.32 782.884 938.6C781.86 939.837 780.58 940.989 779.044 942.056C777.551 943.123 775.801 943.997 773.796 944.68C771.791 945.32 769.508 945.64 766.948 945.64C762.553 945.64 758.713 944.595 755.428 942.504C752.185 940.413 749.689 937.512 747.94 933.8C746.191 930.088 745.316 925.779 745.316 920.872C745.316 915.923 746.191 911.677 747.94 908.136C749.689 904.552 752.185 901.779 755.428 899.816C758.671 897.853 762.511 896.872 766.948 896.872Z" fill="white"/>
</g>
<g filter="url(#filter47_d_49_478)">
<path d="M75.248 981.384C75.728 981.384 76.064 981.528 76.256 981.816C76.448 982.104 76.48 982.456 76.352 982.872L66.56 1015.99C66.336 1016.66 65.856 1017 65.12 1017H59.936C59.136 1017 58.64 1016.66 58.448 1015.99L52.4 995.016C52.336 994.728 52.24 994.584 52.112 994.584C52.016 994.552 51.92 994.728 51.824 995.112L45.728 1015.99C45.536 1016.66 45.056 1017 44.288 1017H38.96C38.192 1017 37.696 1016.66 37.472 1015.99L27.68 982.872C27.584 982.456 27.632 982.104 27.824 981.816C28.016 981.528 28.352 981.384 28.832 981.384H34.832C35.248 981.384 35.536 981.464 35.696 981.624C35.888 981.752 36.016 981.944 36.08 982.2L42.272 1004.04C42.368 1004.39 42.464 1004.57 42.56 1004.57C42.656 1004.57 42.752 1004.44 42.848 1004.18L49.04 982.2C49.104 981.944 49.216 981.752 49.376 981.624C49.568 981.464 49.872 981.384 50.288 981.384H55.424C55.84 981.384 56.128 981.464 56.288 981.624C56.48 981.752 56.624 981.944 56.72 982.2L63.008 1004.38C63.072 1004.6 63.168 1004.73 63.296 1004.76C63.424 1004.76 63.504 1004.65 63.536 1004.42L69.632 982.2C69.696 981.944 69.824 981.752 70.016 981.624C70.208 981.464 70.512 981.384 70.928 981.384H75.248ZM83.5888 1006.44C83.5888 1007.62 83.8608 1008.68 84.4048 1009.61C84.9808 1010.5 85.7328 1011.21 86.6608 1011.72C87.6208 1012.2 88.6928 1012.44 89.8768 1012.44C91.0288 1012.44 92.0848 1012.2 93.0448 1011.72C94.0368 1011.21 95.0288 1010.38 96.0208 1009.22C96.1488 1009.1 96.2608 1009.03 96.3568 1009.03C96.4528 1009 96.6288 1009.05 96.8848 1009.18L100.341 1010.62C100.789 1010.81 100.837 1011.13 100.485 1011.58C99.4608 1013.05 98.3888 1014.22 97.2688 1015.08C96.1488 1015.94 94.9008 1016.57 93.5248 1016.95C92.1808 1017.3 90.6608 1017.48 88.9648 1017.48C86.4688 1017.48 84.2448 1016.94 82.2928 1015.85C80.3408 1014.76 78.7888 1013.26 77.6367 1011.34C76.5168 1009.38 75.9568 1007.16 75.9568 1004.66C75.9568 1001.91 76.5328 999.528 77.6848 997.512C78.8688 995.464 80.4368 993.88 82.3888 992.76C84.3408 991.64 86.4848 991.08 88.8208 991.08C91.2848 991.08 93.4448 991.624 95.3008 992.712C97.1568 993.768 98.6128 995.288 99.6688 997.272C100.757 999.256 101.301 1001.67 101.301 1004.52C101.301 1004.87 101.269 1005.14 101.205 1005.34C101.141 1005.53 100.901 1005.64 100.485 1005.67H84.1648C83.9728 1005.67 83.8288 1005.74 83.7328 1005.86C83.6368 1005.99 83.5888 1006.18 83.5888 1006.44ZM93.2368 1001.64C93.5888 1001.64 93.8128 1001.61 93.9088 1001.54C94.0048 1001.45 94.0528 1001.26 94.0528 1000.97C94.0528 1000.17 93.8608 999.352 93.4768 998.52C93.1248 997.688 92.5808 997 91.8448 996.456C91.1408 995.88 90.2288 995.592 89.1088 995.592C88.0528 995.592 87.1088 995.848 86.2768 996.36C85.4448 996.872 84.8048 997.592 84.3568 998.52C83.9088 999.416 83.6848 1000.44 83.6848 1001.59L93.2368 1001.64ZM130.628 1017.48C127.396 1017.48 124.564 1016.73 122.132 1015.22C119.732 1013.72 117.876 1011.61 116.564 1008.89C115.252 1006.17 114.596 1002.98 114.596 999.336C114.596 995.56 115.284 992.296 116.66 989.544C118.036 986.792 119.956 984.664 122.42 983.16C124.916 981.656 127.812 980.904 131.108 980.904C133.7 980.904 136.02 981.4 138.068 982.392C140.116 983.384 141.764 984.648 143.012 986.184C144.292 987.72 145.092 989.352 145.412 991.08C145.54 991.56 145.556 991.88 145.46 992.04C145.396 992.2 145.204 992.312 144.884 992.376L138.548 993.336C138.26 993.336 138.068 993.272 137.972 993.144C137.908 993.016 137.844 992.824 137.78 992.568C137.588 991.512 137.188 990.552 136.58 989.688C136.004 988.824 135.236 988.136 134.276 987.624C133.348 987.08 132.228 986.808 130.916 986.808C129.348 986.808 127.988 987.224 126.836 988.056C125.716 988.888 124.852 990.2 124.244 991.992C123.668 993.784 123.38 996.136 123.38 999.048C123.38 1002.12 123.684 1004.57 124.292 1006.39C124.932 1008.22 125.828 1009.54 126.98 1010.38C128.164 1011.18 129.572 1011.58 131.204 1011.58C132.228 1011.58 133.124 1011.43 133.892 1011.14C134.692 1010.82 135.364 1010.41 135.908 1009.9C136.484 1009.38 136.948 1008.81 137.3 1008.17C137.652 1007.5 137.908 1006.81 138.068 1006.1L138.164 1004.71C138.292 1004.23 138.132 1003.99 137.684 1003.99H131.876C131.62 1003.99 131.428 1003.94 131.3 1003.85C131.172 1003.72 131.108 1003.5 131.108 1003.18V999.576C131.108 999.128 131.364 998.904 131.876 998.904L144.692 998.952C145.172 998.952 145.524 999.064 145.748 999.288C145.972 999.48 146.084 999.752 146.084 1000.1V1016.28C146.084 1016.5 146.02 1016.68 145.892 1016.81C145.764 1016.94 145.588 1017 145.364 1017H143.828C143.572 1017 143.348 1016.95 143.156 1016.86C142.964 1016.73 142.772 1016.52 142.58 1016.23L141.188 1012.78C141.156 1012.68 141.092 1012.63 140.996 1012.63C140.932 1012.63 140.836 1012.71 140.708 1012.87C140.132 1013.58 139.412 1014.3 138.548 1015.03C137.684 1015.74 136.612 1016.33 135.332 1016.81C134.052 1017.26 132.484 1017.48 130.628 1017.48ZM158.61 1015.85C158.61 1016.26 158.514 1016.57 158.322 1016.76C158.13 1016.92 157.794 1017 157.314 1017H152.274C151.858 1017 151.57 1016.92 151.41 1016.76C151.282 1016.6 151.218 1016.34 151.218 1015.99V992.472C151.218 991.864 151.474 991.56 151.986 991.56H157.89C158.37 991.56 158.61 991.832 158.61 992.376V1015.85ZM158.706 987.288C158.706 988.088 158.274 988.488 157.41 988.488H152.226C151.81 988.488 151.522 988.392 151.362 988.2C151.234 988.008 151.17 987.736 151.17 987.384V982.344C151.17 981.704 151.442 981.384 151.986 981.384H157.938C158.45 981.384 158.706 981.688 158.706 982.296V987.288ZM187.105 991.56C187.425 991.56 187.633 991.672 187.729 991.896C187.857 992.12 187.873 992.376 187.777 992.664L178.273 1015.99C177.985 1016.66 177.473 1017 176.737 1017H173.329C172.561 1017 172.049 1016.66 171.793 1015.99L162.337 992.712C162.209 992.392 162.209 992.12 162.337 991.896C162.497 991.672 162.737 991.56 163.057 991.56H169.153C169.409 991.56 169.633 991.64 169.825 991.8C170.017 991.928 170.145 992.12 170.209 992.376L175.729 1006.54C175.953 1007.14 176.209 1007.13 176.497 1006.49L181.921 992.328C182.017 992.104 182.145 991.928 182.305 991.8C182.497 991.64 182.721 991.56 182.977 991.56H187.105ZM196.276 1006.44C196.276 1007.62 196.548 1008.68 197.092 1009.61C197.668 1010.5 198.42 1011.21 199.348 1011.72C200.308 1012.2 201.38 1012.44 202.564 1012.44C203.716 1012.44 204.772 1012.2 205.732 1011.72C206.724 1011.21 207.716 1010.38 208.708 1009.22C208.836 1009.1 208.948 1009.03 209.044 1009.03C209.14 1009 209.316 1009.05 209.572 1009.18L213.028 1010.62C213.476 1010.81 213.524 1011.13 213.172 1011.58C212.148 1013.05 211.076 1014.22 209.956 1015.08C208.836 1015.94 207.588 1016.57 206.212 1016.95C204.868 1017.3 203.348 1017.48 201.652 1017.48C199.156 1017.48 196.932 1016.94 194.98 1015.85C193.028 1014.76 191.476 1013.26 190.324 1011.34C189.204 1009.38 188.644 1007.16 188.644 1004.66C188.644 1001.91 189.22 999.528 190.372 997.512C191.556 995.464 193.124 993.88 195.076 992.76C197.028 991.64 199.172 991.08 201.508 991.08C203.972 991.08 206.132 991.624 207.988 992.712C209.844 993.768 211.3 995.288 212.356 997.272C213.444 999.256 213.988 1001.67 213.988 1004.52C213.988 1004.87 213.956 1005.14 213.892 1005.34C213.828 1005.53 213.588 1005.64 213.172 1005.67H196.852C196.66 1005.67 196.516 1005.74 196.42 1005.86C196.324 1005.99 196.276 1006.18 196.276 1006.44ZM205.924 1001.64C206.276 1001.64 206.5 1001.61 206.596 1001.54C206.692 1001.45 206.74 1001.26 206.74 1000.97C206.74 1000.17 206.548 999.352 206.164 998.52C205.812 997.688 205.268 997 204.532 996.456C203.828 995.88 202.916 995.592 201.796 995.592C200.74 995.592 199.796 995.848 198.964 996.36C198.132 996.872 197.492 997.592 197.044 998.52C196.596 999.416 196.372 1000.44 196.372 1001.59L205.924 1001.64ZM257.62 981.384C258.036 981.384 258.244 981.624 258.244 982.104V1016.23C258.244 1016.46 258.164 1016.65 258.004 1016.81C257.844 1016.94 257.62 1017 257.332 1017H252.484C252.228 1017 252.02 1016.97 251.86 1016.9C251.7 1016.84 251.508 1016.68 251.284 1016.42L235.972 994.92C235.844 994.76 235.716 994.696 235.588 994.728C235.492 994.76 235.444 994.856 235.444 995.016V1016.14C235.476 1016.71 235.156 1017 234.484 1017H229.492C228.852 1017 228.532 1016.73 228.532 1016.18V982.296C228.532 981.688 228.82 981.384 229.396 981.384H235.204C235.556 981.384 235.812 981.432 235.972 981.528C236.164 981.624 236.372 981.816 236.596 982.104L250.708 1002.22C250.9 1002.47 251.06 1002.58 251.188 1002.55C251.348 1002.52 251.428 1002.36 251.428 1002.07V982.248C251.428 981.672 251.716 981.384 252.292 981.384H257.62ZM270.714 1006.44C270.714 1007.62 270.986 1008.68 271.53 1009.61C272.106 1010.5 272.858 1011.21 273.786 1011.72C274.746 1012.2 275.818 1012.44 277.002 1012.44C278.154 1012.44 279.21 1012.2 280.17 1011.72C281.162 1011.21 282.154 1010.38 283.146 1009.22C283.274 1009.1 283.386 1009.03 283.482 1009.03C283.578 1009 283.754 1009.05 284.01 1009.18L287.466 1010.62C287.914 1010.81 287.962 1011.13 287.61 1011.58C286.586 1013.05 285.514 1014.22 284.394 1015.08C283.274 1015.94 282.026 1016.57 280.65 1016.95C279.306 1017.3 277.786 1017.48 276.09 1017.48C273.594 1017.48 271.37 1016.94 269.418 1015.85C267.466 1014.76 265.914 1013.26 264.762 1011.34C263.642 1009.38 263.082 1007.16 263.082 1004.66C263.082 1001.91 263.658 999.528 264.81 997.512C265.994 995.464 267.562 993.88 269.514 992.76C271.466 991.64 273.61 991.08 275.946 991.08C278.41 991.08 280.57 991.624 282.426 992.712C284.282 993.768 285.738 995.288 286.794 997.272C287.882 999.256 288.426 1001.67 288.426 1004.52C288.426 1004.87 288.394 1005.14 288.33 1005.34C288.266 1005.53 288.026 1005.64 287.61 1005.67H271.29C271.098 1005.67 270.954 1005.74 270.858 1005.86C270.762 1005.99 270.714 1006.18 270.714 1006.44ZM280.362 1001.64C280.714 1001.64 280.938 1001.61 281.034 1001.54C281.13 1001.45 281.178 1001.26 281.178 1000.97C281.178 1000.17 280.986 999.352 280.602 998.52C280.25 997.688 279.706 997 278.97 996.456C278.266 995.88 277.354 995.592 276.234 995.592C275.178 995.592 274.234 995.848 273.402 996.36C272.57 996.872 271.93 997.592 271.482 998.52C271.034 999.416 270.81 1000.44 270.81 1001.59L280.362 1001.64ZM326.41 991.56C326.73 991.56 326.954 991.672 327.082 991.896C327.21 992.12 327.21 992.376 327.082 992.664L319.258 1016.23C319.162 1016.52 319.034 1016.73 318.874 1016.86C318.746 1016.95 318.538 1017 318.25 1017H314.314C313.674 1017 313.258 1016.7 313.066 1016.09L308.938 1002.89C308.81 1002.57 308.682 1002.41 308.554 1002.41C308.426 1002.41 308.33 1002.57 308.266 1002.89L304.042 1016.23C303.978 1016.52 303.866 1016.73 303.706 1016.86C303.578 1016.95 303.354 1017 303.034 1017H298.954C298.346 1017 297.946 1016.7 297.754 1016.09L290.026 992.712C289.93 992.392 289.946 992.12 290.074 991.896C290.234 991.672 290.474 991.56 290.794 991.56H296.41C296.634 991.56 296.842 991.64 297.034 991.8C297.258 991.928 297.402 992.12 297.466 992.376L301.738 1005.96C301.802 1006.25 301.898 1006.39 302.026 1006.39C302.186 1006.39 302.314 1006.23 302.41 1005.91L306.538 992.328C306.602 992.104 306.73 991.928 306.922 991.8C307.114 991.64 307.338 991.56 307.594 991.56H311.626C311.85 991.56 312.058 991.64 312.25 991.8C312.474 991.928 312.602 992.12 312.634 992.376L316.81 1005.96C316.906 1006.25 317.018 1006.39 317.146 1006.39C317.274 1006.39 317.402 1006.23 317.53 1005.91L321.658 992.328C321.786 992.104 321.93 991.928 322.09 991.8C322.282 991.64 322.506 991.56 322.762 991.56H326.41ZM341.454 982.296C341.454 981.688 341.71 981.384 342.222 981.384H349.086C349.598 981.384 349.854 981.672 349.854 982.248V1010.23C349.854 1010.65 350.03 1010.86 350.382 1010.86H365.694C366.27 1010.86 366.558 1011.1 366.558 1011.58V1016.14C366.558 1016.39 366.478 1016.6 366.318 1016.76C366.19 1016.92 365.966 1017 365.646 1017H342.51C342.094 1017 341.806 1016.92 341.646 1016.76C341.518 1016.6 341.454 1016.34 341.454 1015.99V982.296ZM378.22 1015.85C378.22 1016.26 378.124 1016.57 377.932 1016.76C377.74 1016.92 377.404 1017 376.924 1017H371.884C371.468 1017 371.18 1016.92 371.02 1016.76C370.892 1016.6 370.828 1016.34 370.828 1015.99V992.472C370.828 991.864 371.084 991.56 371.596 991.56H377.5C377.98 991.56 378.22 991.832 378.22 992.376V1015.85ZM378.316 987.288C378.316 988.088 377.884 988.488 377.02 988.488H371.836C371.42 988.488 371.132 988.392 370.972 988.2C370.844 988.008 370.78 987.736 370.78 987.384V982.344C370.78 981.704 371.052 981.384 371.596 981.384H377.548C378.06 981.384 378.316 981.688 378.316 982.296V987.288ZM398.315 991.56C398.635 991.56 398.859 991.64 398.987 991.8C399.147 991.96 399.227 992.152 399.227 992.376V995.928C399.227 996.408 398.955 996.648 398.411 996.648H394.427C394.107 996.648 393.947 996.824 393.947 997.176V1016.09C393.947 1016.7 393.691 1017 393.179 1017H387.275C386.795 1017 386.555 1016.73 386.555 1016.18V997.08C386.555 996.792 386.427 996.648 386.171 996.648H382.715C382.139 996.648 381.851 996.408 381.851 995.928V992.376C381.851 992.152 381.915 991.96 382.043 991.8C382.203 991.64 382.443 991.56 382.763 991.56H385.979C386.363 991.56 386.555 991.32 386.555 990.84V987.912C386.555 985.864 387.163 984.264 388.379 983.112C389.595 981.96 391.307 981.384 393.515 981.384H398.363C399.067 981.384 399.419 981.72 399.419 982.392L399.467 985.512C399.467 985.736 399.403 985.928 399.275 986.088C399.179 986.248 399.003 986.328 398.747 986.328H396.155C395.451 986.328 394.875 986.6 394.427 987.144C393.979 987.656 393.755 988.328 393.755 989.16V991.032C393.755 991.384 393.947 991.56 394.331 991.56H398.315ZM408.386 1006.44C408.386 1007.62 408.658 1008.68 409.202 1009.61C409.778 1010.5 410.53 1011.21 411.458 1011.72C412.418 1012.2 413.49 1012.44 414.674 1012.44C415.826 1012.44 416.882 1012.2 417.842 1011.72C418.834 1011.21 419.826 1010.38 420.818 1009.22C420.946 1009.1 421.058 1009.03 421.154 1009.03C421.25 1009 421.426 1009.05 421.682 1009.18L425.138 1010.62C425.586 1010.81 425.634 1011.13 425.282 1011.58C424.258 1013.05 423.186 1014.22 422.066 1015.08C420.946 1015.94 419.698 1016.57 418.322 1016.95C416.978 1017.3 415.458 1017.48 413.762 1017.48C411.266 1017.48 409.042 1016.94 407.09 1015.85C405.138 1014.76 403.586 1013.26 402.434 1011.34C401.314 1009.38 400.754 1007.16 400.754 1004.66C400.754 1001.91 401.33 999.528 402.482 997.512C403.666 995.464 405.234 993.88 407.186 992.76C409.138 991.64 411.282 991.08 413.618 991.08C416.082 991.08 418.242 991.624 420.098 992.712C421.954 993.768 423.41 995.288 424.466 997.272C425.554 999.256 426.098 1001.67 426.098 1004.52C426.098 1004.87 426.066 1005.14 426.002 1005.34C425.938 1005.53 425.698 1005.64 425.282 1005.67H408.962C408.77 1005.67 408.626 1005.74 408.53 1005.86C408.434 1005.99 408.386 1006.18 408.386 1006.44ZM418.034 1001.64C418.386 1001.64 418.61 1001.61 418.706 1001.54C418.802 1001.45 418.85 1001.26 418.85 1000.97C418.85 1000.17 418.658 999.352 418.274 998.52C417.922 997.688 417.378 997 416.642 996.456C415.938 995.88 415.026 995.592 413.906 995.592C412.85 995.592 411.906 995.848 411.074 996.36C410.242 996.872 409.602 997.592 409.154 998.52C408.706 999.416 408.482 1000.44 408.482 1001.59L418.034 1001.64ZM438.865 982.248C438.865 981.992 438.945 981.784 439.105 981.624C439.265 981.464 439.505 981.384 439.825 981.384H467.377C467.729 981.384 467.969 981.464 468.097 981.624C468.257 981.784 468.337 981.992 468.337 982.248V986.712C468.337 987.192 468.049 987.432 467.473 987.432H458.497C458.145 987.432 457.969 987.592 457.969 987.912V1016.09C457.969 1016.7 457.697 1017 457.153 1017H450.289C449.809 1017 449.569 1016.73 449.569 1016.18V988.056C449.569 987.64 449.393 987.432 449.041 987.432H439.777C439.169 987.432 438.865 987.192 438.865 986.712V982.248ZM478.821 1017.48C476.293 1017.48 474.053 1016.92 472.101 1015.8C470.181 1014.68 468.677 1013.14 467.589 1011.19C466.501 1009.21 465.957 1006.95 465.957 1004.42C465.957 1001.77 466.517 999.448 467.637 997.464C468.757 995.448 470.293 993.88 472.245 992.76C474.197 991.64 476.405 991.08 478.869 991.08C481.461 991.08 483.717 991.656 485.637 992.808C487.557 993.928 489.045 995.496 490.101 997.512C491.189 999.496 491.733 1001.78 491.733 1004.38C491.733 1006.94 491.189 1009.21 490.101 1011.19C489.013 1013.14 487.493 1014.68 485.541 1015.8C483.621 1016.92 481.381 1017.48 478.821 1017.48ZM478.869 1012.58C480.053 1012.58 481.045 1012.28 481.845 1011.67C482.645 1011.03 483.237 1010.09 483.621 1008.84C484.037 1007.59 484.245 1006.07 484.245 1004.28C484.245 1002.39 484.037 1000.84 483.621 999.624C483.237 998.376 482.645 997.432 481.845 996.792C481.045 996.152 480.053 995.832 478.869 995.832C477.717 995.832 476.725 996.152 475.893 996.792C475.093 997.432 474.485 998.376 474.069 999.624C473.653 1000.84 473.445 1002.39 473.445 1004.28C473.445 1006.1 473.653 1007.64 474.069 1008.89C474.485 1010.1 475.093 1011.03 475.893 1011.67C476.725 1012.28 477.717 1012.58 478.869 1012.58ZM536.214 981.384C536.534 981.384 536.742 981.48 536.838 981.672C536.934 981.832 536.902 982.056 536.742 982.344L525.462 1000.82C525.27 1001.11 525.158 1001.42 525.126 1001.74C525.094 1002.02 525.078 1002.57 525.078 1003.37V1015.85C525.078 1016.62 524.63 1017 523.734 1017H517.734C517.318 1017 517.03 1016.92 516.87 1016.76C516.742 1016.6 516.678 1016.34 516.678 1015.99V1003.08C516.678 1002.63 516.63 1002.3 516.534 1002.07C516.438 1001.85 516.294 1001.59 516.102 1001.3L504.726 982.488C504.534 982.168 504.502 981.912 504.63 981.72C504.758 981.496 505.03 981.384 505.446 981.384H512.646C513.062 981.384 513.35 981.448 513.51 981.576C513.67 981.704 513.846 981.928 514.038 982.248L521.142 994.728C521.334 995.048 521.494 995.224 521.622 995.256C521.75 995.256 521.894 995.112 522.054 994.824L529.062 982.248C529.254 981.896 529.43 981.672 529.59 981.576C529.782 981.448 530.07 981.384 530.454 981.384H536.214ZM547.258 1017.48C544.73 1017.48 542.49 1016.92 540.538 1015.8C538.618 1014.68 537.114 1013.14 536.026 1011.19C534.938 1009.21 534.394 1006.95 534.394 1004.42C534.394 1001.77 534.954 999.448 536.074 997.464C537.194 995.448 538.73 993.88 540.682 992.76C542.634 991.64 544.842 991.08 547.306 991.08C549.898 991.08 552.154 991.656 554.074 992.808C555.994 993.928 557.482 995.496 558.538 997.512C559.626 999.496 560.17 1001.78 560.17 1004.38C560.17 1006.94 559.626 1009.21 558.538 1011.19C557.45 1013.14 555.93 1014.68 553.978 1015.8C552.058 1016.92 549.818 1017.48 547.258 1017.48ZM547.306 1012.58C548.49 1012.58 549.482 1012.28 550.282 1011.67C551.082 1011.03 551.674 1010.09 552.058 1008.84C552.474 1007.59 552.682 1006.07 552.682 1004.28C552.682 1002.39 552.474 1000.84 552.058 999.624C551.674 998.376 551.082 997.432 550.282 996.792C549.482 996.152 548.49 995.832 547.306 995.832C546.154 995.832 545.162 996.152 544.33 996.792C543.53 997.432 542.922 998.376 542.506 999.624C542.09 1000.84 541.882 1002.39 541.882 1004.28C541.882 1006.1 542.09 1007.64 542.506 1008.89C542.922 1010.1 543.53 1011.03 544.33 1011.67C545.162 1012.28 546.154 1012.58 547.306 1012.58ZM574.793 1012.15C575.785 1012.15 576.713 1011.9 577.577 1011.38C578.473 1010.84 579.289 1010.15 580.025 1009.32V992.664C580.025 991.928 580.441 991.56 581.273 991.56H586.457C587.129 991.56 587.465 991.896 587.465 992.568L587.369 1016.14C587.369 1016.71 587.113 1017 586.601 1017H580.889C580.409 1017 580.169 1016.73 580.169 1016.18V1013.83C580.169 1013.64 580.121 1013.53 580.025 1013.5C579.929 1013.43 579.801 1013.48 579.641 1013.64C578.297 1015.02 576.953 1016.01 575.609 1016.62C574.297 1017.19 572.889 1017.48 571.385 1017.48C569.977 1017.48 568.713 1017.18 567.593 1016.57C566.505 1015.96 565.641 1015.08 565.001 1013.93C564.361 1012.74 564.041 1011.35 564.041 1009.75V992.712C564.041 991.944 564.425 991.56 565.193 991.56H570.521C571.129 991.56 571.433 991.896 571.433 992.568V1008.7C571.433 1009.75 571.721 1010.6 572.297 1011.24C572.905 1011.85 573.737 1012.15 574.793 1012.15ZM593.695 1017C593.343 1017 593.087 1016.92 592.927 1016.76C592.767 1016.6 592.687 1016.36 592.687 1016.04V992.472C592.687 991.864 592.943 991.56 593.455 991.56H599.071C599.583 991.56 599.839 991.832 599.839 992.376V995.208C599.839 995.4 599.903 995.528 600.031 995.592C600.191 995.624 600.351 995.544 600.511 995.352C601.151 994.488 601.871 993.736 602.671 993.096C603.503 992.456 604.351 991.96 605.215 991.608C606.079 991.256 606.895 991.08 607.663 991.08C608.815 991.08 609.391 991.352 609.391 991.896V997.464C609.391 997.976 609.151 998.184 608.671 998.088C608.095 997.928 607.503 997.832 606.895 997.8C606.287 997.736 605.759 997.704 605.311 997.704C604.735 997.704 604.127 997.816 603.487 998.04C602.879 998.264 602.319 998.584 601.807 999C601.295 999.416 600.879 999.864 600.559 1000.34C600.239 1000.82 600.079 1001.34 600.079 1001.88V1015.9C600.079 1016.63 599.663 1017 598.831 1017H593.695ZM632.759 1001.78C632.343 1001.78 632.135 1001.99 632.135 1002.41V1015.9C632.135 1016.63 631.703 1017 630.839 1017H624.791C624.375 1017 624.087 1016.92 623.927 1016.76C623.799 1016.6 623.735 1016.34 623.735 1015.99V982.296C623.735 981.688 623.991 981.384 624.503 981.384H631.367C631.879 981.384 632.135 981.672 632.135 982.248V994.536C632.135 995.08 632.375 995.352 632.855 995.352H643.943C644.455 995.352 644.711 995.096 644.711 994.584V982.248C644.711 981.672 644.951 981.384 645.431 981.384H652.295C652.839 981.384 653.111 981.688 653.111 982.296V1015.99C653.111 1016.34 653.031 1016.6 652.871 1016.76C652.743 1016.92 652.471 1017 652.055 1017H645.959C645.127 1017 644.711 1016.63 644.711 1015.9V1002.41C644.711 1001.99 644.487 1001.78 644.039 1001.78H632.759ZM670.774 1017.48C668.246 1017.48 666.006 1016.92 664.054 1015.8C662.134 1014.68 660.63 1013.14 659.542 1011.19C658.454 1009.21 657.91 1006.95 657.91 1004.42C657.91 1001.77 658.47 999.448 659.59 997.464C660.71 995.448 662.246 993.88 664.198 992.76C666.15 991.64 668.358 991.08 670.822 991.08C673.414 991.08 675.67 991.656 677.59 992.808C679.51 993.928 680.998 995.496 682.054 997.512C683.142 999.496 683.686 1001.78 683.686 1004.38C683.686 1006.94 683.142 1009.21 682.054 1011.19C680.966 1013.14 679.446 1014.68 677.494 1015.8C675.574 1016.92 673.334 1017.48 670.774 1017.48ZM670.822 1012.58C672.006 1012.58 672.998 1012.28 673.798 1011.67C674.598 1011.03 675.19 1010.09 675.574 1008.84C675.99 1007.59 676.198 1006.07 676.198 1004.28C676.198 1002.39 675.99 1000.84 675.574 999.624C675.19 998.376 674.598 997.432 673.798 996.792C672.998 996.152 672.006 995.832 670.822 995.832C669.67 995.832 668.678 996.152 667.846 996.792C667.046 997.432 666.438 998.376 666.022 999.624C665.606 1000.84 665.398 1002.39 665.398 1004.28C665.398 1006.1 665.606 1007.64 666.022 1008.89C666.438 1010.1 667.046 1011.03 667.846 1011.67C668.678 1012.28 669.67 1012.58 670.822 1012.58ZM688.804 1017C688.132 1017 687.796 1016.68 687.796 1016.04V992.472C687.796 991.864 688.052 991.56 688.564 991.56H694.324C694.804 991.56 695.044 991.832 695.044 992.376V994.728C695.044 994.92 695.092 995.048 695.188 995.112C695.316 995.176 695.46 995.112 695.62 994.92C696.452 994.152 697.284 993.48 698.116 992.904C698.948 992.328 699.828 991.88 700.756 991.56C701.684 991.208 702.644 991.032 703.636 991.032C705.364 991.032 706.804 991.448 707.956 992.28C709.14 993.08 709.972 994.152 710.452 995.496C710.516 995.624 710.596 995.688 710.692 995.688C710.82 995.656 710.948 995.576 711.076 995.448C711.844 994.616 712.676 993.88 713.572 993.24C714.5 992.568 715.476 992.04 716.5 991.656C717.524 991.272 718.532 991.08 719.524 991.08C721.764 991.08 723.54 991.768 724.852 993.144C726.196 994.52 726.868 996.408 726.868 998.808V1015.85C726.868 1016.62 726.484 1017 725.716 1017H720.388C720.068 1017 719.828 1016.94 719.668 1016.81C719.54 1016.65 719.476 1016.39 719.476 1016.04V999.816C719.476 998.728 719.188 997.896 718.612 997.32C718.036 996.712 717.22 996.408 716.164 996.408C715.556 996.408 714.964 996.536 714.388 996.792C713.812 997.048 713.284 997.352 712.804 997.704C712.324 998.056 711.908 998.44 711.556 998.856C711.332 999.08 711.188 999.304 711.124 999.528C711.06 999.72 711.028 999.944 711.028 1000.2V1015.85C711.028 1016.62 710.644 1017 709.876 1017H704.596C704.276 1017 704.036 1016.94 703.876 1016.81C703.748 1016.65 703.684 1016.39 703.684 1016.04V999.816C703.684 998.728 703.396 997.896 702.82 997.32C702.244 996.712 701.412 996.408 700.324 996.408C699.364 996.408 698.484 996.664 697.684 997.176C696.884 997.656 696.052 998.392 695.188 999.384V1015.9C695.188 1016.63 694.772 1017 693.94 1017H688.804ZM738.386 1006.44C738.386 1007.62 738.658 1008.68 739.202 1009.61C739.778 1010.5 740.53 1011.21 741.458 1011.72C742.418 1012.2 743.49 1012.44 744.674 1012.44C745.826 1012.44 746.882 1012.2 747.842 1011.72C748.834 1011.21 749.826 1010.38 750.818 1009.22C750.946 1009.1 751.058 1009.03 751.154 1009.03C751.25 1009 751.426 1009.05 751.682 1009.18L755.138 1010.62C755.586 1010.81 755.634 1011.13 755.282 1011.58C754.258 1013.05 753.186 1014.22 752.066 1015.08C750.946 1015.94 749.698 1016.57 748.322 1016.95C746.978 1017.3 745.458 1017.48 743.762 1017.48C741.266 1017.48 739.042 1016.94 737.09 1015.85C735.138 1014.76 733.586 1013.26 732.434 1011.34C731.314 1009.38 730.754 1007.16 730.754 1004.66C730.754 1001.91 731.33 999.528 732.482 997.512C733.666 995.464 735.234 993.88 737.186 992.76C739.138 991.64 741.282 991.08 743.618 991.08C746.082 991.08 748.242 991.624 750.098 992.712C751.954 993.768 753.41 995.288 754.466 997.272C755.554 999.256 756.098 1001.67 756.098 1004.52C756.098 1004.87 756.066 1005.14 756.002 1005.34C755.938 1005.53 755.698 1005.64 755.282 1005.67H738.962C738.77 1005.67 738.626 1005.74 738.53 1005.86C738.434 1005.99 738.386 1006.18 738.386 1006.44ZM748.034 1001.64C748.386 1001.64 748.61 1001.61 748.706 1001.54C748.802 1001.45 748.85 1001.26 748.85 1000.97C748.85 1000.17 748.658 999.352 748.274 998.52C747.922 997.688 747.378 997 746.642 996.456C745.938 995.88 745.026 995.592 743.906 995.592C742.85 995.592 741.906 995.848 741.074 996.36C740.242 996.872 739.602 997.592 739.154 998.52C738.706 999.416 738.482 1000.44 738.482 1001.59L748.034 1001.64Z" fill="white"/>
</g>
<defs>
<filter id="filter0_di_49_478" x="410.93" y="0.7" width="200.37" height="548.75" filterUnits="userSpaceOnUse" color-interpolation-filters="sRGB">
<feFlood flood-opacity="0" result="BackgroundImageFix"/>
<feColorMatrix in="SourceAlpha" type="matrix" values="0 0 0 0 0 0 0 0 0 0 0 0 0 0 0 0 0 0 127 0" result="hardAlpha"/>
<feOffset dy="-9"/>
<feGaussianBlur stdDeviation="5.65"/>
<feComposite in2="hardAlpha" operator="out"/>
<feColorMatrix type="matrix" values="0 0 0 0 0 0 0 0 0 0 0 0 0 0 0 0 0 0 0.25 0"/>
<feBlend mode="normal" in2="BackgroundImageFix" result="effect1_dropShadow_49_478"/>
<feBlend mode="normal" in="SourceGraphic" in2="effect1_dropShadow_49_478" result="shape"/>
<feColorMatrix in="SourceAlpha" type="matrix" values="0 0 0 0 0 0 0 0 0 0 0 0 0 0 0 0 0 0 127 0" result="hardAlpha"/>
<feOffset dx="-4" dy="-7"/>
<feGaussianBlur stdDeviation="18.3"/>
<feComposite in2="hardAlpha" operator="arithmetic" k2="-1" k3="1"/>
<feColorMatrix type="matrix" values="0 0 0 0 0 0 0 0 0 0 0 0 0 0 0 0 0 0 0.13 0"/>
<feBlend mode="normal" in2="shape" result="effect2_innerShadow_49_478"/>
</filter>
<filter id="filter1_i_49_478" x="518.847" y="277.104" width="29.8506" height="50.5188" filterUnits="userSpaceOnUse" color-interpolation-filters="sRGB">
<feFlood flood-opacity="0" result="BackgroundImageFix"/>
<feBlend mode="normal" in="SourceGraphic" in2="BackgroundImageFix" result="shape"/>
<feColorMatrix in="SourceAlpha" type="matrix" values="0 0 0 0 0 0 0 0 0 0 0 0 0 0 0 0 0 0 127 0" result="hardAlpha"/>
<feOffset dx="-13" dy="-2"/>
<feGaussianBlur stdDeviation="2"/>
<feComposite in2="hardAlpha" operator="arithmetic" k2="-1" k3="1"/>
<feColorMatrix type="matrix" values="0 0 0 0 0 0 0 0 0 0 0 0 0 0 0 0 0 0 0.25 0"/>
<feBlend mode="normal" in2="shape" result="effect1_innerShadow_49_478"/>
</filter>
<filter id="filter2_i_49_478" x="518.847" y="228.983" width="29.8506" height="50.9165" filterUnits="userSpaceOnUse" color-interpolation-filters="sRGB">
<feFlood flood-opacity="0" result="BackgroundImageFix"/>
<feBlend mode="normal" in="SourceGraphic" in2="BackgroundImageFix" result="shape"/>
<feColorMatrix in="SourceAlpha" type="matrix" values="0 0 0 0 0 0 0 0 0 0 0 0 0 0 0 0 0 0 127 0" result="hardAlpha"/>
<feOffset dx="-13" dy="-2"/>
<feGaussianBlur stdDeviation="2"/>
<feComposite in2="hardAlpha" operator="arithmetic" k2="-1" k3="1"/>
<feColorMatrix type="matrix" values="0 0 0 0 0 0 0 0 0 0 0 0 0 0 0 0 0 0 0.25 0"/>
<feBlend mode="normal" in2="shape" result="effect1_innerShadow_49_478"/>
</filter>
<filter id="filter3_i_49_478" x="518.847" y="180.066" width="29.8506" height="50.9165" filterUnits="userSpaceOnUse" color-interpolation-filters="sRGB">
<feFlood flood-opacity="0" result="BackgroundImageFix"/>
<feBlend mode="normal" in="SourceGraphic" in2="BackgroundImageFix" result="shape"/>
<feColorMatrix in="SourceAlpha" type="matrix" values="0 0 0 0 0 0 0 0 0 0 0 0 0 0 0 0 0 0 127 0" result="hardAlpha"/>
<feOffset dx="-13" dy="-2"/>
<feGaussianBlur stdDeviation="2"/>
<feComposite in2="hardAlpha" operator="arithmetic" k2="-1" k3="1"/>
<feColorMatrix type="matrix" values="0 0 0 0 0 0 0 0 0 0 0 0 0 0 0 0 0 0 0.25 0"/>
<feBlend mode="normal" in2="shape" result="effect1_innerShadow_49_478"/>
</filter>
<filter id="filter4_i_49_478" x="518.847" y="323.236" width="29.8506" height="50.1211" filterUnits="userSpaceOnUse" color-interpolation-filters="sRGB">
<feFlood flood-opacity="0" result="BackgroundImageFix"/>
<feBlend mode="normal" in="SourceGraphic" in2="BackgroundImageFix" result="shape"/>
<feColorMatrix in="SourceAlpha" type="matrix" values="0 0 0 0 0 0 0 0 0 0 0 0 0 0 0 0 0 0 127 0" result="hardAlpha"/>
<feOffset dx="-13" dy="-2"/>
<feGaussianBlur stdDeviation="2"/>
<feComposite in2="hardAlpha" operator="arithmetic" k2="-1" k3="1"/>
<feColorMatrix type="matrix" values="0 0 0 0 0 0 0 0 0 0 0 0 0 0 0 0 0 0 0.25 0"/>
<feBlend mode="normal" in2="shape" result="effect1_innerShadow_49_478"/>
</filter>
<filter id="filter5_i_49_478" x="518.847" y="419.876" width="29.8506" height="50.9165" filterUnits="userSpaceOnUse" color-interpolation-filters="sRGB">
<feFlood flood-opacity="0" result="BackgroundImageFix"/>
<feBlend mode="normal" in="SourceGraphic" in2="BackgroundImageFix" result="shape"/>
<feColorMatrix in="SourceAlpha" type="matrix" values="0 0 0 0 0 0 0 0 0 0 0 0 0 0 0 0 0 0 127 0" result="hardAlpha"/>
<feOffset dx="-13" dy="-2"/>
<feGaussianBlur stdDeviation="2"/>
<feComposite in2="hardAlpha" operator="arithmetic" k2="-1" k3="1"/>
<feColorMatrix type="matrix" values="0 0 0 0 0 0 0 0 0 0 0 0 0 0 0 0 0 0 0.25 0"/>
<feBlend mode="normal" in2="shape" result="effect1_innerShadow_49_478"/>
</filter>
<filter id="filter6_i_49_478" x="518.847" y="370.96" width="29.8506" height="50.9165" filterUnits="userSpaceOnUse" color-interpolation-filters="sRGB">
<feFlood flood-opacity="0" result="BackgroundImageFix"/>
<feBlend mode="normal" in="SourceGraphic" in2="BackgroundImageFix" result="shape"/>
<feColorMatrix in="SourceAlpha" type="matrix" values="0 0 0 0 0 0 0 0 0 0 0 0 0 0 0 0 0 0 127 0" result="hardAlpha"/>
<feOffset dx="-13" dy="-2"/>
<feGaussianBlur stdDeviation="2"/>
<feComposite in2="hardAlpha" operator="arithmetic" k2="-1" k3="1"/>
<feColorMatrix type="matrix" values="0 0 0 0 0 0 0 0 0 0 0 0 0 0 0 0 0 0 0.25 0"/>
<feBlend mode="normal" in2="shape" result="effect1_innerShadow_49_478"/>
</filter>
<filter id="filter7_di_49_478" x="272.13" y="124.435" width="346.385" height="540.597" filterUnits="userSpaceOnUse" color-interpolation-filters="sRGB">
<feFlood flood-opacity="0" result="BackgroundImageFix"/>
<feColorMatrix in="SourceAlpha" type="matrix" values="0 0 0 0 0 0 0 0 0 0 0 0 0 0 0 0 0 0 127 0" result="hardAlpha"/>
<feOffset dx="79"/>
<feGaussianBlur stdDeviation="5.65"/>
<feComposite in2="hardAlpha" operator="out"/>
<feColorMatrix type="matrix" values="0 0 0 0 0 0 0 0 0 0 0 0 0 0 0 0 0 0 0.09 0"/>
<feBlend mode="normal" in2="BackgroundImageFix" result="effect1_dropShadow_49_478"/>
<feBlend mode="normal" in="SourceGraphic" in2="effect1_dropShadow_49_478" result="shape"/>
<feColorMatrix in="SourceAlpha" type="matrix" values="0 0 0 0 0 0 0 0 0 0 0 0 0 0 0 0 0 0 127 0" result="hardAlpha"/>
<feOffset dx="-34" dy="8"/>
<feGaussianBlur stdDeviation="6.05"/>
<feComposite in2="hardAlpha" operator="arithmetic" k2="-1" k3="1"/>
<feColorMatrix type="matrix" values="0 0 0 0 0 0 0 0 0 0 0 0 0 0 0 0 0 0 0.13 0"/>
<feBlend mode="normal" in2="shape" result="effect2_innerShadow_49_478"/>
</filter>
<filter id="filter8_i_49_478" x="293.775" y="231.369" width="41.7812" height="73.7839" filterUnits="userSpaceOnUse" color-interpolation-filters="sRGB">
<feFlood flood-opacity="0" result="BackgroundImageFix"/>
<feBlend mode="normal" in="SourceGraphic" in2="BackgroundImageFix" result="shape"/>
<feColorMatrix in="SourceAlpha" type="matrix" values="0 0 0 0 0 0 0 0 0 0 0 0 0 0 0 0 0 0 127 0" result="hardAlpha"/>
<feOffset dx="5" dy="-2"/>
<feGaussianBlur stdDeviation="2"/>
<feComposite in2="hardAlpha" operator="arithmetic" k2="-1" k3="1"/>
<feColorMatrix type="matrix" values="0 0 0 0 0 0 0 0 0 0 0 0 0 0 0 0 0 0 0.25 0"/>
<feBlend mode="normal" in2="shape" result="effect1_innerShadow_49_478"/>
</filter>
<filter id="filter9_i_49_478" x="358.6" y="267.559" width="41.7812" height="72.9885" filterUnits="userSpaceOnUse" color-interpolation-filters="sRGB">
<feFlood flood-opacity="0" result="BackgroundImageFix"/>
<feBlend mode="normal" in="SourceGraphic" in2="BackgroundImageFix" result="shape"/>
<feColorMatrix in="SourceAlpha" type="matrix" values="0 0 0 0 0 0 0 0 0 0 0 0 0 0 0 0 0 0 127 0" result="hardAlpha"/>
<feOffset dx="5" dy="-2"/>
<feGaussianBlur stdDeviation="2"/>
<feComposite in2="hardAlpha" operator="arithmetic" k2="-1" k3="1"/>
<feColorMatrix type="matrix" values="0 0 0 0 0 0 0 0 0 0 0 0 0 0 0 0 0 0 0.25 0"/>
<feBlend mode="normal" in2="shape" result="effect1_innerShadow_49_478"/>
</filter>
<filter id="filter10_i_49_478" x="293.775" y="444.533" width="41.7812" height="73.7839" filterUnits="userSpaceOnUse" color-interpolation-filters="sRGB">
<feFlood flood-opacity="0" result="BackgroundImageFix"/>
<feBlend mode="normal" in="SourceGraphic" in2="BackgroundImageFix" result="shape"/>
<feColorMatrix in="SourceAlpha" type="matrix" values="0 0 0 0 0 0 0 0 0 0 0 0 0 0 0 0 0 0 127 0" result="hardAlpha"/>
<feOffset dx="5" dy="-2"/>
<feGaussianBlur stdDeviation="2"/>
<feComposite in2="hardAlpha" operator="arithmetic" k2="-1" k3="1"/>
<feColorMatrix type="matrix" values="0 0 0 0 0 0 0 0 0 0 0 0 0 0 0 0 0 0 0.25 0"/>
<feBlend mode="normal" in2="shape" result="effect1_innerShadow_49_478"/>
</filter>
<filter id="filter11_i_49_478" x="358.6" y="480.723" width="41.7812" height="73.7839" filterUnits="userSpaceOnUse" color-interpolation-filters="sRGB">
<feFlood flood-opacity="0" result="BackgroundImageFix"/>
<feBlend mode="normal" in="SourceGraphic" in2="BackgroundImageFix" result="shape"/>
<feColorMatrix in="SourceAlpha" type="matrix" values="0 0 0 0 0 0 0 0 0 0 0 0 0 0 0 0 0 0 127 0" result="hardAlpha"/>
<feOffset dx="5" dy="-2"/>
<feGaussianBlur stdDeviation="2"/>
<feComposite in2="hardAlpha" operator="arithmetic" k2="-1" k3="1"/>
<feColorMatrix type="matrix" values="0 0 0 0 0 0 0 0 0 0 0 0 0 0 0 0 0 0 0.25 0"/>
<feBlend mode="normal" in2="shape" result="effect1_innerShadow_49_478"/>
</filter>
<filter id="filter12_i_49_478" x="293.775" y="373.743" width="41.7812" height="73.7839" filterUnits="userSpaceOnUse" color-interpolation-filters="sRGB">
<feFlood flood-opacity="0" result="BackgroundImageFix"/>
<feBlend mode="normal" in="SourceGraphic" in2="BackgroundImageFix" result="shape"/>
<feColorMatrix in="SourceAlpha" type="matrix" values="0 0 0 0 0 0 0 0 0 0 0 0 0 0 0 0 0 0 127 0" result="hardAlpha"/>
<feOffset dx="5" dy="-2"/>
<feGaussianBlur stdDeviation="2"/>
<feComposite in2="hardAlpha" operator="arithmetic" k2="-1" k3="1"/>
<feColorMatrix type="matrix" values="0 0 0 0 0 0 0 0 0 0 0 0 0 0 0 0 0 0 0.25 0"/>
<feBlend mode="normal" in2="shape" result="effect1_innerShadow_49_478"/>
</filter>
<filter id="filter13_i_49_478" x="358.6" y="409.934" width="41.7812" height="73.7839" filterUnits="userSpaceOnUse" color-interpolation-filters="sRGB">
<feFlood flood-opacity="0" result="BackgroundImageFix"/>
<feBlend mode="normal" in="SourceGraphic" in2="BackgroundImageFix" result="shape"/>
<feColorMatrix in="SourceAlpha" type="matrix" values="0 0 0 0 0 0 0 0 0 0 0 0 0 0 0 0 0 0 127 0" result="hardAlpha"/>
<feOffset dx="5" dy="-2"/>
<feGaussianBlur stdDeviation="2"/>
<feComposite in2="hardAlpha" operator="arithmetic" k2="-1" k3="1"/>
<feColorMatrix type="matrix" values="0 0 0 0 0 0 0 0 0 0 0 0 0 0 0 0 0 0 0.25 0"/>
<feBlend mode="normal" in2="shape" result="effect1_innerShadow_49_478"/>
</filter>
<filter id="filter14_i_49_478" x="293.775" y="301.761" width="41.7812" height="73.7839" filterUnits="userSpaceOnUse" color-interpolation-filters="sRGB">
<feFlood flood-opacity="0" result="BackgroundImageFix"/>
<feBlend mode="normal" in="SourceGraphic" in2="BackgroundImageFix" result="shape"/>
<feColorMatrix in="SourceAlpha" type="matrix" values="0 0 0 0 0 0 0 0 0 0 0 0 0 0 0 0 0 0 127 0" result="hardAlpha"/>
<feOffset dx="5" dy="-2"/>
<feGaussianBlur stdDeviation="2"/>
<feComposite in2="hardAlpha" operator="arithmetic" k2="-1" k3="1"/>
<feColorMatrix type="matrix" values="0 0 0 0 0 0 0 0 0 0 0 0 0 0 0 0 0 0 0.25 0"/>
<feBlend mode="normal" in2="shape" result="effect1_innerShadow_49_478"/>
</filter>
<filter id="filter15_i_49_478" x="358.6" y="337.951" width="41.7812" height="73.7839" filterUnits="userSpaceOnUse" color-interpolation-filters="sRGB">
<feFlood flood-opacity="0" result="BackgroundImageFix"/>
<feBlend mode="normal" in="SourceGraphic" in2="BackgroundImageFix" result="shape"/>
<feColorMatrix in="SourceAlpha" type="matrix" values="0 0 0 0 0 0 0 0 0 0 0 0 0 0 0 0 0 0 127 0" result="hardAlpha"/>
<feOffset dx="5" dy="-2"/>
<feGaussianBlur stdDeviation="2"/>
<feComposite in2="hardAlpha" operator="arithmetic" k2="-1" k3="1"/>
<feColorMatrix type="matrix" values="0 0 0 0 0 0 0 0 0 0 0 0 0 0 0 0 0 0 0.25 0"/>
<feBlend mode="normal" in2="shape" result="effect1_innerShadow_49_478"/>
</filter>
<filter id="filter16_i_49_478" x="475.896" y="231.369" width="41.7812" height="73.7839" filterUnits="userSpaceOnUse" color-interpolation-filters="sRGB">
<feFlood flood-opacity="0" result="BackgroundImageFix"/>
<feBlend mode="normal" in="SourceGraphic" in2="BackgroundImageFix" result="shape"/>
<feColorMatrix in="SourceAlpha" type="matrix" values="0 0 0 0 0 0 0 0 0 0 0 0 0 0 0 0 0 0 127 0" result="hardAlpha"/>
<feOffset dx="-13" dy="-2"/>
<feGaussianBlur stdDeviation="2"/>
<feComposite in2="hardAlpha" operator="arithmetic" k2="-1" k3="1"/>
<feColorMatrix type="matrix" values="0 0 0 0 0 0 0 0 0 0 0 0 0 0 0 0 0 0 0.25 0"/>
<feBlend mode="normal" in2="shape" result="effect1_innerShadow_49_478"/>
</filter>
<filter id="filter17_i_49_478" x="411.072" y="267.559" width="41.7812" height="72.9885" filterUnits="userSpaceOnUse" color-interpolation-filters="sRGB">
<feFlood flood-opacity="0" result="BackgroundImageFix"/>
<feBlend mode="normal" in="SourceGraphic" in2="BackgroundImageFix" result="shape"/>
<feColorMatrix in="SourceAlpha" type="matrix" values="0 0 0 0 0 0 0 0 0 0 0 0 0 0 0 0 0 0 127 0" result="hardAlpha"/>
<feOffset dx="-13" dy="-2"/>
<feGaussianBlur stdDeviation="2"/>
<feComposite in2="hardAlpha" operator="arithmetic" k2="-1" k3="1"/>
<feColorMatrix type="matrix" values="0 0 0 0 0 0 0 0 0 0 0 0 0 0 0 0 0 0 0.25 0"/>
<feBlend mode="normal" in2="shape" result="effect1_innerShadow_49_478"/>
</filter>
<filter id="filter18_i_49_478" x="475.896" y="444.533" width="41.7812" height="73.7839" filterUnits="userSpaceOnUse" color-interpolation-filters="sRGB">
<feFlood flood-opacity="0" result="BackgroundImageFix"/>
<feBlend mode="normal" in="SourceGraphic" in2="BackgroundImageFix" result="shape"/>
<feColorMatrix in="SourceAlpha" type="matrix" values="0 0 0 0 0 0 0 0 0 0 0 0 0 0 0 0 0 0 127 0" result="hardAlpha"/>
<feOffset dx="-13" dy="-2"/>
<feGaussianBlur stdDeviation="2"/>
<feComposite in2="hardAlpha" operator="arithmetic" k2="-1" k3="1"/>
<feColorMatrix type="matrix" values="0 0 0 0 0 0 0 0 0 0 0 0 0 0 0 0 0 0 0.25 0"/>
<feBlend mode="normal" in2="shape" result="effect1_innerShadow_49_478"/>
</filter>
<filter id="filter19_i_49_478" x="411.072" y="480.723" width="41.7812" height="73.7839" filterUnits="userSpaceOnUse" color-interpolation-filters="sRGB">
<feFlood flood-opacity="0" result="BackgroundImageFix"/>
<feBlend mode="normal" in="SourceGraphic" in2="BackgroundImageFix" result="shape"/>
<feColorMatrix in="SourceAlpha" type="matrix" values="0 0 0 0 0 0 0 0 0 0 0 0 0 0 0 0 0 0 127 0" result="hardAlpha"/>
<feOffset dx="-13" dy="-2"/>
<feGaussianBlur stdDeviation="2"/>
<feComposite in2="hardAlpha" operator="arithmetic" k2="-1" k3="1"/>
<feColorMatrix type="matrix" values="0 0 0 0 0 0 0 0 0 0 0 0 0 0 0 0 0 0 0.25 0"/>
<feBlend mode="normal" in2="shape" result="effect1_innerShadow_49_478"/>
</filter>
<filter id="filter20_i_49_478" x="475.896" y="373.743" width="41.7812" height="73.7839" filterUnits="userSpaceOnUse" color-interpolation-filters="sRGB">
<feFlood flood-opacity="0" result="BackgroundImageFix"/>
<feBlend mode="normal" in="SourceGraphic" in2="BackgroundImageFix" result="shape"/>
<feColorMatrix in="SourceAlpha" type="matrix" values="0 0 0 0 0 0 0 0 0 0 0 0 0 0 0 0 0 0 127 0" result="hardAlpha"/>
<feOffset dx="-13" dy="-2"/>
<feGaussianBlur stdDeviation="2"/>
<feComposite in2="hardAlpha" operator="arithmetic" k2="-1" k3="1"/>
<feColorMatrix type="matrix" values="0 0 0 0 0 0 0 0 0 0 0 0 0 0 0 0 0 0 0.25 0"/>
<feBlend mode="normal" in2="shape" result="effect1_innerShadow_49_478"/>
</filter>
<filter id="filter21_i_49_478" x="411.072" y="409.934" width="41.7812" height="73.7839" filterUnits="userSpaceOnUse" color-interpolation-filters="sRGB">
<feFlood flood-opacity="0" result="BackgroundImageFix"/>
<feBlend mode="normal" in="SourceGraphic" in2="BackgroundImageFix" result="shape"/>
<feColorMatrix in="SourceAlpha" type="matrix" values="0 0 0 0 0 0 0 0 0 0 0 0 0 0 0 0 0 0 127 0" result="hardAlpha"/>
<feOffset dx="-13" dy="-2"/>
<feGaussianBlur stdDeviation="2"/>
<feComposite in2="hardAlpha" operator="arithmetic" k2="-1" k3="1"/>
<feColorMatrix type="matrix" values="0 0 0 0 0 0 0 0 0 0 0 0 0 0 0 0 0 0 0.25 0"/>
<feBlend mode="normal" in2="shape" result="effect1_innerShadow_49_478"/>
</filter>
<filter id="filter22_i_49_478" x="475.896" y="301.761" width="41.7812" height="73.7839" filterUnits="userSpaceOnUse" color-interpolation-filters="sRGB">
<feFlood flood-opacity="0" result="BackgroundImageFix"/>
<feBlend mode="normal" in="SourceGraphic" in2="BackgroundImageFix" result="shape"/>
<feColorMatrix in="SourceAlpha" type="matrix" values="0 0 0 0 0 0 0 0 0 0 0 0 0 0 0 0 0 0 127 0" result="hardAlpha"/>
<feOffset dx="-13" dy="-2"/>
<feGaussianBlur stdDeviation="2"/>
<feComposite in2="hardAlpha" operator="arithmetic" k2="-1" k3="1"/>
<feColorMatrix type="matrix" values="0 0 0 0 0 0 0 0 0 0 0 0 0 0 0 0 0 0 0.25 0"/>
<feBlend mode="normal" in2="shape" result="effect1_innerShadow_49_478"/>
</filter>
<filter id="filter23_i_49_478" x="411.072" y="337.951" width="41.7812" height="73.7839" filterUnits="userSpaceOnUse" color-interpolation-filters="sRGB">
<feFlood flood-opacity="0" result="BackgroundImageFix"/>
<feBlend mode="normal" in="SourceGraphic" in2="BackgroundImageFix" result="shape"/>
<feColorMatrix in="SourceAlpha" type="matrix" values="0 0 0 0 0 0 0 0 0 0 0 0 0 0 0 0 0 0 127 0" result="hardAlpha"/>
<feOffset dx="-13" dy="-2"/>
<feGaussianBlur stdDeviation="2"/>
<feComposite in2="hardAlpha" operator="arithmetic" k2="-1" k3="1"/>
<feColorMatrix type="matrix" values="0 0 0 0 0 0 0 0 0 0 0 0 0 0 0 0 0 0 0.25 0"/>
<feBlend mode="normal" in2="shape" result="effect1_innerShadow_49_478"/>
</filter>
<filter id="filter24_i_49_478" x="562.992" y="107.686" width="29.4521" height="50.9165" filterUnits="userSpaceOnUse" color-interpolation-filters="sRGB">
<feFlood flood-opacity="0" result="BackgroundImageFix"/>
<feBlend mode="normal" in="SourceGraphic" in2="BackgroundImageFix" result="shape"/>
<feColorMatrix in="SourceAlpha" type="matrix" values="0 0 0 0 0 0 0 0 0 0 0 0 0 0 0 0 0 0 127 0" result="hardAlpha"/>
<feOffset dx="-13" dy="-2"/>
<feGaussianBlur stdDeviation="2"/>
<feComposite in2="hardAlpha" operator="arithmetic" k2="-1" k3="1"/>
<feColorMatrix type="matrix" values="0 0 0 0 0 0 0 0 0 0 0 0 0 0 0 0 0 0 0.25 0"/>
<feBlend mode="normal" in2="shape" result="effect1_innerShadow_49_478"/>
</filter>
<filter id="filter25_i_49_478" x="518.847" y="132.343" width="29.8506" height="50.1211" filterUnits="userSpaceOnUse" color-interpolation-filters="sRGB">
<feFlood flood-opacity="0" result="BackgroundImageFix"/>
<feBlend mode="normal" in="SourceGraphic" in2="BackgroundImageFix" result="shape"/>
<feColorMatrix in="SourceAlpha" type="matrix" values="0 0 0 0 0 0 0 0 0 0 0 0 0 0 0 0 0 0 127 0" result="hardAlpha"/>
<feOffset dx="-13" dy="-2"/>
<feGaussianBlur stdDeviation="2"/>
<feComposite in2="hardAlpha" operator="arithmetic" k2="-1" k3="1"/>
<feColorMatrix type="matrix" values="0 0 0 0 0 0 0 0 0 0 0 0 0 0 0 0 0 0 0.25 0"/>
<feBlend mode="normal" in2="shape" result="effect1_innerShadow_49_478"/>
</filter>
<filter id="filter26_i_49_478" x="562.992" y="252.447" width="29.4521" height="50.9165" filterUnits="userSpaceOnUse" color-interpolation-filters="sRGB">
<feFlood flood-opacity="0" result="BackgroundImageFix"/>
<feBlend mode="normal" in="SourceGraphic" in2="BackgroundImageFix" result="shape"/>
<feColorMatrix in="SourceAlpha" type="matrix" values="0 0 0 0 0 0 0 0 0 0 0 0 0 0 0 0 0 0 127 0" result="hardAlpha"/>
<feOffset dx="-13" dy="-2"/>
<feGaussianBlur stdDeviation="2"/>
<feComposite in2="hardAlpha" operator="arithmetic" k2="-1" k3="1"/>
<feColorMatrix type="matrix" values="0 0 0 0 0 0 0 0 0 0 0 0 0 0 0 0 0 0 0.25 0"/>
<feBlend mode="normal" in2="shape" result="effect1_innerShadow_49_478"/>
</filter>
<filter id="filter27_i_49_478" x="562.992" y="204.326" width="29.4521" height="50.9165" filterUnits="userSpaceOnUse" color-interpolation-filters="sRGB">
<feFlood flood-opacity="0" result="BackgroundImageFix"/>
<feBlend mode="normal" in="SourceGraphic" in2="BackgroundImageFix" result="shape"/>
<feColorMatrix in="SourceAlpha" type="matrix" values="0 0 0 0 0 0 0 0 0 0 0 0 0 0 0 0 0 0 127 0" result="hardAlpha"/>
<feOffset dx="-13" dy="-2"/>
<feGaussianBlur stdDeviation="2"/>
<feComposite in2="hardAlpha" operator="arithmetic" k2="-1" k3="1"/>
<feColorMatrix type="matrix" values="0 0 0 0 0 0 0 0 0 0 0 0 0 0 0 0 0 0 0.25 0"/>
<feBlend mode="normal" in2="shape" result="effect1_innerShadow_49_478"/>
</filter>
<filter id="filter28_i_49_478" x="562.992" y="155.409" width="29.4521" height="50.9165" filterUnits="userSpaceOnUse" color-interpolation-filters="sRGB">
<feFlood flood-opacity="0" result="BackgroundImageFix"/>
<feBlend mode="normal" in="SourceGraphic" in2="BackgroundImageFix" result="shape"/>
<feColorMatrix in="SourceAlpha" type="matrix" values="0 0 0 0 0 0 0 0 0 0 0 0 0 0 0 0 0 0 127 0" result="hardAlpha"/>
<feOffset dx="-13" dy="-2"/>
<feGaussianBlur stdDeviation="2"/>
<feComposite in2="hardAlpha" operator="arithmetic" k2="-1" k3="1"/>
<feColorMatrix type="matrix" values="0 0 0 0 0 0 0 0 0 0 0 0 0 0 0 0 0 0 0.25 0"/>
<feBlend mode="normal" in2="shape" result="effect1_innerShadow_49_478"/>
</filter>
<filter id="filter29_i_49_478" x="562.992" y="298.579" width="29.4521" height="50.9165" filterUnits="userSpaceOnUse" color-interpolation-filters="sRGB">
<feFlood flood-opacity="0" result="BackgroundImageFix"/>
<feBlend mode="normal" in="SourceGraphic" in2="BackgroundImageFix" result="shape"/>
<feColorMatrix in="SourceAlpha" type="matrix" values="0 0 0 0 0 0 0 0 0 0 0 0 0 0 0 0 0 0 127 0" result="hardAlpha"/>
<feOffset dx="-13" dy="-2"/>
<feGaussianBlur stdDeviation="2"/>
<feComposite in2="hardAlpha" operator="arithmetic" k2="-1" k3="1"/>
<feColorMatrix type="matrix" values="0 0 0 0 0 0 0 0 0 0 0 0 0 0 0 0 0 0 0.25 0"/>
<feBlend mode="normal" in2="shape" result="effect1_innerShadow_49_478"/>
</filter>
<filter id="filter30_i_49_478" x="562.992" y="395.219" width="29.4521" height="50.9165" filterUnits="userSpaceOnUse" color-interpolation-filters="sRGB">
<feFlood flood-opacity="0" result="BackgroundImageFix"/>
<feBlend mode="normal" in="SourceGraphic" in2="BackgroundImageFix" result="shape"/>
<feColorMatrix in="SourceAlpha" type="matrix" values="0 0 0 0 0 0 0 0 0 0 0 0 0 0 0 0 0 0 127 0" result="hardAlpha"/>
<feOffset dx="-13" dy="-2"/>
<feGaussianBlur stdDeviation="2"/>
<feComposite in2="hardAlpha" operator="arithmetic" k2="-1" k3="1"/>
<feColorMatrix type="matrix" values="0 0 0 0 0 0 0 0 0 0 0 0 0 0 0 0 0 0 0.25 0"/>
<feBlend mode="normal" in2="shape" result="effect1_innerShadow_49_478"/>
</filter>
<filter id="filter31_i_49_478" x="562.992" y="346.302" width="29.4521" height="50.9165" filterUnits="userSpaceOnUse" color-interpolation-filters="sRGB">
<feFlood flood-opacity="0" result="BackgroundImageFix"/>
<feBlend mode="normal" in="SourceGraphic" in2="BackgroundImageFix" result="shape"/>
<feColorMatrix in="SourceAlpha" type="matrix" values="0 0 0 0 0 0 0 0 0 0 0 0 0 0 0 0 0 0 127 0" result="hardAlpha"/>
<feOffset dx="-13" dy="-2"/>
<feGaussianBlur stdDeviation="2"/>
<feComposite in2="hardAlpha" operator="arithmetic" k2="-1" k3="1"/>
<feColorMatrix type="matrix" values="0 0 0 0 0 0 0 0 0 0 0 0 0 0 0 0 0 0 0.25 0"/>
<feBlend mode="normal" in2="shape" result="effect1_innerShadow_49_478"/>
</filter>
<filter id="filter32_d_49_478" x="0.078125" y="370.224" width="540.267" height="385.786" filterUnits="userSpaceOnUse" color-interpolation-filters="sRGB">
<feFlood flood-opacity="0" result="BackgroundImageFix"/>
<feColorMatrix in="SourceAlpha" type="matrix" values="0 0 0 0 0 0 0 0 0 0 0 0 0 0 0 0 0 0 127 0" result="hardAlpha"/>
<feOffset dx="67" dy="-7"/>
<feGaussianBlur stdDeviation="26.85"/>
<feComposite in2="hardAlpha" operator="out"/>
<feColorMatrix type="matrix" values="0 0 0 0 0 0 0 0 0 0 0 0 0 0 0 0 0 0 0.25 0"/>
<feBlend mode="normal" in2="BackgroundImageFix" result="effect1_dropShadow_49_478"/>
<feBlend mode="normal" in="SourceGraphic" in2="effect1_dropShadow_49_478" result="shape"/>
</filter>
<filter id="filter33_d_49_478" x="295.271" y="391.443" width="580.246" height="351.87" filterUnits="userSpaceOnUse" color-interpolation-filters="sRGB">
<feFlood flood-opacity="0" result="BackgroundImageFix"/>
<feColorMatrix in="SourceAlpha" type="matrix" values="0 0 0 0 0 0 0 0 0 0 0 0 0 0 0 0 0 0 127 0" result="hardAlpha"/>
<feOffset dx="36" dy="-18"/>
<feGaussianBlur stdDeviation="26.3"/>
<feComposite in2="hardAlpha" operator="out"/>
<feColorMatrix type="matrix" values="0 0 0 0 0 0 0 0 0 0 0 0 0 0 0 0 0 0 0.25 0"/>
<feBlend mode="normal" in2="BackgroundImageFix" result="effect1_dropShadow_49_478"/>
<feBlend mode="normal" in="SourceGraphic" in2="effect1_dropShadow_49_478" result="shape"/>
</filter>
<filter id="filter34_d_49_478" x="652.254" y="488.116" width="79.3762" height="135.054" filterUnits="userSpaceOnUse" color-interpolation-filters="sRGB">
<feFlood flood-opacity="0" result="BackgroundImageFix"/>
<feColorMatrix in="SourceAlpha" type="matrix" values="0 0 0 0 0 0 0 0 0 0 0 0 0 0 0 0 0 0 127 0" result="hardAlpha"/>
<feOffset dx="13" dy="-10"/>
<feGaussianBlur stdDeviation="10.2"/>
<feComposite in2="hardAlpha" operator="out"/>
<feColorMatrix type="matrix" values="0 0 0 0 0 0 0 0 0 0 0 0 0 0 0 0 0 0 0.25 0"/>
<feBlend mode="normal" in2="BackgroundImageFix" result="effect1_dropShadow_49_478"/>
<feBlend mode="normal" in="SourceGraphic" in2="effect1_dropShadow_49_478" result="shape"/>
</filter>
<filter id="filter35_d_49_478" x="211.646" y="591.236" width="38.2246" height="40.2249" filterUnits="userSpaceOnUse" color-interpolation-filters="sRGB">
<feFlood flood-opacity="0" result="BackgroundImageFix"/>
<feColorMatrix in="SourceAlpha" type="matrix" values="0 0 0 0 0 0 0 0 0 0 0 0 0 0 0 0 0 0 127 0" result="hardAlpha"/>
<feOffset dx="3" dy="-6"/>
<feGaussianBlur stdDeviation="2"/>
<feComposite in2="hardAlpha" operator="out"/>
<feColorMatrix type="matrix" values="0 0 0 0 0 0 0 0 0 0 0 0 0 0 0 0 0 0 0.31 0"/>
<feBlend mode="normal" in2="BackgroundImageFix" result="effect1_dropShadow_49_478"/>
<feBlend mode="normal" in="SourceGraphic" in2="effect1_dropShadow_49_478" result="shape"/>
</filter>
<filter id="filter36_d_49_478" x="248.233" y="591.236" width="38.2246" height="40.2249" filterUnits="userSpaceOnUse" color-interpolation-filters="sRGB">
<feFlood flood-opacity="0" result="BackgroundImageFix"/>
<feColorMatrix in="SourceAlpha" type="matrix" values="0 0 0 0 0 0 0 0 0 0 0 0 0 0 0 0 0 0 127 0" result="hardAlpha"/>
<feOffset dx="3" dy="-6"/>
<feGaussianBlur stdDeviation="2"/>
<feComposite in2="hardAlpha" operator="out"/>
<feColorMatrix type="matrix" values="0 0 0 0 0 0 0 0 0 0 0 0 0 0 0 0 0 0 0.31 0"/>
<feBlend mode="normal" in2="BackgroundImageFix" result="effect1_dropShadow_49_478"/>
<feBlend mode="normal" in="SourceGraphic" in2="effect1_dropShadow_49_478" result="shape"/>
</filter>
<filter id="filter37_d_49_478" x="248.233" y="627.824" width="38.2246" height="40.2249" filterUnits="userSpaceOnUse" color-interpolation-filters="sRGB">
<feFlood flood-opacity="0" result="BackgroundImageFix"/>
<feColorMatrix in="SourceAlpha" type="matrix" values="0 0 0 0 0 0 0 0 0 0 0 0 0 0 0 0 0 0 127 0" result="hardAlpha"/>
<feOffset dx="3" dy="-6"/>
<feGaussianBlur stdDeviation="2"/>
<feComposite in2="hardAlpha" operator="out"/>
<feColorMatrix type="matrix" values="0 0 0 0 0 0 0 0 0 0 0 0 0 0 0 0 0 0 0.31 0"/>
<feBlend mode="normal" in2="BackgroundImageFix" result="effect1_dropShadow_49_478"/>
<feBlend mode="normal" in="SourceGraphic" in2="effect1_dropShadow_49_478" result="shape"/>
</filter>
<filter id="filter38_d_49_478" x="211.646" y="627.824" width="38.2246" height="40.2249" filterUnits="userSpaceOnUse" color-interpolation-filters="sRGB">
<feFlood flood-opacity="0" result="BackgroundImageFix"/>
<feColorMatrix in="SourceAlpha" type="matrix" values="0 0 0 0 0 0 0 0 0 0 0 0 0 0 0 0 0 0 127 0" result="hardAlpha"/>
<feOffset dx="3" dy="-6"/>
<feGaussianBlur stdDeviation="2"/>
<feComposite in2="hardAlpha" operator="out"/>
<feColorMatrix type="matrix" values="0 0 0 0 0 0 0 0 0 0 0 0 0 0 0 0 0 0 0.31 0"/>
<feBlend mode="normal" in2="BackgroundImageFix" result="effect1_dropShadow_49_478"/>
<feBlend mode="normal" in="SourceGraphic" in2="effect1_dropShadow_49_478" result="shape"/>
</filter>
<filter id="filter39_d_49_478" x="524.632" y="609.53" width="38.2246" height="40.2249" filterUnits="userSpaceOnUse" color-interpolation-filters="sRGB">
<feFlood flood-opacity="0" result="BackgroundImageFix"/>
<feColorMatrix in="SourceAlpha" type="matrix" values="0 0 0 0 0 0 0 0 0 0 0 0 0 0 0 0 0 0 127 0" result="hardAlpha"/>
<feOffset dx="3" dy="-6"/>
<feGaussianBlur stdDeviation="2"/>
<feComposite in2="hardAlpha" operator="out"/>
<feColorMatrix type="matrix" values="0 0 0 0 0 0 0 0 0 0 0 0 0 0 0 0 0 0 0.31 0"/>
<feBlend mode="normal" in2="BackgroundImageFix" result="effect1_dropShadow_49_478"/>
<feBlend mode="normal" in="SourceGraphic" in2="effect1_dropShadow_49_478" result="shape"/>
</filter>
<filter id="filter40_d_49_478" x="561.22" y="609.53" width="38.2246" height="40.2249" filterUnits="userSpaceOnUse" color-interpolation-filters="sRGB">
<feFlood flood-opacity="0" result="BackgroundImageFix"/>
<feColorMatrix in="SourceAlpha" type="matrix" values="0 0 0 0 0 0 0 0 0 0 0 0 0 0 0 0 0 0 127 0" result="hardAlpha"/>
<feOffset dx="3" dy="-6"/>
<feGaussianBlur stdDeviation="2"/>
<feComposite in2="hardAlpha" operator="out"/>
<feColorMatrix type="matrix" values="0 0 0 0 0 0 0 0 0 0 0 0 0 0 0 0 0 0 0.31 0"/>
<feBlend mode="normal" in2="BackgroundImageFix" result="effect1_dropShadow_49_478"/>
<feBlend mode="normal" in="SourceGraphic" in2="effect1_dropShadow_49_478" result="shape"/>
</filter>
<filter id="filter41_d_49_478" x="561.22" y="646.118" width="38.2246" height="40.2249" filterUnits="userSpaceOnUse" color-interpolation-filters="sRGB">
<feFlood flood-opacity="0" result="BackgroundImageFix"/>
<feColorMatrix in="SourceAlpha" type="matrix" values="0 0 0 0 0 0 0 0 0 0 0 0 0 0 0 0 0 0 127 0" result="hardAlpha"/>
<feOffset dx="3" dy="-6"/>
<feGaussianBlur stdDeviation="2"/>
<feComposite in2="hardAlpha" operator="out"/>
<feColorMatrix type="matrix" values="0 0 0 0 0 0 0 0 0 0 0 0 0 0 0 0 0 0 0.31 0"/>
<feBlend mode="normal" in2="BackgroundImageFix" result="effect1_dropShadow_49_478"/>
<feBlend mode="normal" in="SourceGraphic" in2="effect1_dropShadow_49_478" result="shape"/>
</filter>
<filter id="filter42_d_49_478" x="524.632" y="646.118" width="38.2246" height="40.2249" filterUnits="userSpaceOnUse" color-interpolation-filters="sRGB">
<feFlood flood-opacity="0" result="BackgroundImageFix"/>
<feColorMatrix in="SourceAlpha" type="matrix" values="0 0 0 0 0 0 0 0 0 0 0 0 0 0 0 0 0 0 127 0" result="hardAlpha"/>
<feOffset dx="3" dy="-6"/>
<feGaussianBlur stdDeviation="2"/>
<feComposite in2="hardAlpha" operator="out"/>
<feColorMatrix type="matrix" values="0 0 0 0 0 0 0 0 0 0 0 0 0 0 0 0 0 0 0.31 0"/>
<feBlend mode="normal" in2="BackgroundImageFix" result="effect1_dropShadow_49_478"/>
<feBlend mode="normal" in="SourceGraphic" in2="effect1_dropShadow_49_478" result="shape"/>
</filter>
<filter id="filter43_d_49_478" x="3.13809" y="721.676" width="808.486" height="129.509" filterUnits="userSpaceOnUse" color-interpolation-filters="sRGB">
<feFlood flood-opacity="0" result="BackgroundImageFix"/>
<feColorMatrix in="SourceAlpha" type="matrix" values="0 0 0 0 0 0 0 0 0 0 0 0 0 0 0 0 0 0 127 0" result="hardAlpha"/>
<feOffset dx="11" dy="-13"/>
<feGaussianBlur stdDeviation="7.45"/>
<feComposite in2="hardAlpha" operator="out"/>
<feColorMatrix type="matrix" values="0 0 0 0 0 0 0 0 0 0 0 0 0 0 0 0 0 0 0.25 0"/>
<feBlend mode="normal" in2="BackgroundImageFix" result="effect1_dropShadow_49_478"/>
<feBlend mode="normal" in="SourceGraphic" in2="effect1_dropShadow_49_478" result="shape"/>
</filter>
<filter id="filter44_i_49_478" x="430.957" y="107.686" width="29.4521" height="50.9165" filterUnits="userSpaceOnUse" color-interpolation-filters="sRGB">
<feFlood flood-opacity="0" result="BackgroundImageFix"/>
<feBlend mode="normal" in="SourceGraphic" in2="BackgroundImageFix" result="shape"/>
<feColorMatrix in="SourceAlpha" type="matrix" values="0 0 0 0 0 0 0 0 0 0 0 0 0 0 0 0 0 0 127 0" result="hardAlpha"/>
<feOffset dx="-13" dy="-2"/>
<feGaussianBlur stdDeviation="2"/>
<feComposite in2="hardAlpha" operator="arithmetic" k2="-1" k3="1"/>
<feColorMatrix type="matrix" values="0 0 0 0 0 0 0 0 0 0 0 0 0 0 0 0 0 0 0.25 0"/>
<feBlend mode="normal" in2="shape" result="effect1_innerShadow_49_478"/>
</filter>
<filter id="filter45_i_49_478" x="474.703" y="132.343" width="29.8506" height="50.1211" filterUnits="userSpaceOnUse" color-interpolation-filters="sRGB">
<feFlood flood-opacity="0" result="BackgroundImageFix"/>
<feBlend mode="normal" in="SourceGraphic" in2="BackgroundImageFix" result="shape"/>
<feColorMatrix in="SourceAlpha" type="matrix" values="0 0 0 0 0 0 0 0 0 0 0 0 0 0 0 0 0 0 127 0" result="hardAlpha"/>
<feOffset dx="-13" dy="-2"/>
<feGaussianBlur stdDeviation="2"/>
<feComposite in2="hardAlpha" operator="arithmetic" k2="-1" k3="1"/>
<feColorMatrix type="matrix" values="0 0 0 0 0 0 0 0 0 0 0 0 0 0 0 0 0 0 0.25 0"/>
<feBlend mode="normal" in2="shape" result="effect1_innerShadow_49_478"/>
</filter>
<filter id="filter46_d_49_478" x="6.68047" y="867.072" width="812.843" height="86.3678" filterUnits="userSpaceOnUse" color-interpolation-filters="sRGB">
<feFlood flood-opacity="0" result="BackgroundImageFix"/>
<feColorMatrix in="SourceAlpha" type="matrix" values="0 0 0 0 0 0 0 0 0 0 0 0 0 0 0 0 0 0 127 0" result="hardAlpha"/>
<feOffset dx="14" dy="-11"/>
<feGaussianBlur stdDeviation="9.4"/>
<feComposite in2="hardAlpha" operator="out"/>
<feColorMatrix type="matrix" values="0 0 0 0 0 0 0 0 0 0 0 0 0 0 0 0 0 0 0.25 0"/>
<feBlend mode="normal" in2="BackgroundImageFix" result="effect1_dropShadow_49_478"/>
<feBlend mode="normal" in="SourceGraphic" in2="effect1_dropShadow_49_478" result="shape"/>
</filter>
<filter id="filter47_d_49_478" x="22.7361" y="951.104" width="766.162" height="74.1759" filterUnits="userSpaceOnUse" color-interpolation-filters="sRGB">
<feFlood flood-opacity="0" result="BackgroundImageFix"/>
<feColorMatrix in="SourceAlpha" type="matrix" values="0 0 0 0 0 0 0 0 0 0 0 0 0 0 0 0 0 0 127 0" result="hardAlpha"/>
<feOffset dx="14" dy="-11"/>
<feGaussianBlur stdDeviation="9.4"/>
<feComposite in2="hardAlpha" operator="out"/>
<feColorMatrix type="matrix" values="0 0 0 0 0 0 0 0 0 0 0 0 0 0 0 0 0 0 0.25 0"/>
<feBlend mode="normal" in2="BackgroundImageFix" result="effect1_dropShadow_49_478"/>
<feBlend mode="normal" in="SourceGraphic" in2="effect1_dropShadow_49_478" result="shape"/>
</filter>
</defs>
</svg>
