<svg width="420" height="433" viewBox="0 0 420 433" fill="none" xmlns="http://www.w3.org/2000/svg">
<path d="M220.49 29.9913L267.104 0L313.339 29.9913L267.104 56.4987L220.49 29.9913Z" fill="white"/>
<path d="M267.104 56.4987L220.49 29.9913V157.378L267.104 274.807V56.4987Z" fill="white"/>
<path d="M313.339 29.9913L267.104 56.4987V274.807L313.339 262.967L299.318 245.831L313.339 241.054V146.479V29.9913Z" fill="white"/>
<path d="M286.543 134.807L273.042 142.318V160.148L286.543 151.655V134.807Z" fill="#1B5083"/>
<path d="M286.543 109.674L273.042 117.246V135.223L286.543 126.659V109.674Z" fill="#1B5083"/>
<path d="M286.543 84.1248L273.042 91.6974V109.674L286.543 101.11V84.1248Z" fill="#1B5083"/>
<path d="M286.543 158.902L273.042 166.435V184.036L286.543 175.799V158.902Z" fill="#1B5083"/>
<path d="M286.543 209.377L273.042 216.95V234.926L286.543 226.362V209.377Z" fill="#1B5083"/>
<path d="M286.543 183.828L273.042 191.401V209.377L286.543 200.813V183.828Z" fill="#1B5083"/>
<path d="M148.412 101.054L212.388 59.9259L275.845 101.054L212.388 137.404L148.412 101.054Z" fill="#1B5083"/>
<path d="M212.388 137.404L148.412 101.054V275.742L212.388 330.475V137.404Z" fill="#1B5083"/>
<path d="M275.845 101.054L212.388 137.404V330.475L275.845 275.742V101.054Z" fill="#1B5083"/>
<path d="M153.396 110.92L173.129 122.033V148.413L153.396 135.846V110.92Z" fill="white"/>
<path d="M187.254 129.822L206.987 140.935V166.899L187.254 154.748V129.822Z" fill="white"/>
<path d="M153.396 222.255L173.129 233.368V259.748L153.396 247.181V222.255Z" fill="white"/>
<path d="M187.254 241.158L206.987 252.27V278.65L187.254 266.083V241.158Z" fill="white"/>
<path d="M153.396 185.282L173.129 196.395V222.775L153.396 210.208V185.282Z" fill="white"/>
<path d="M187.254 204.184L206.987 215.297V241.677L187.254 229.11V204.184Z" fill="white"/>
<path d="M153.396 147.685L173.129 158.798V185.178L153.396 172.611V147.685Z" fill="white"/>
<path d="M187.254 166.588L206.987 177.7V204.08L187.254 191.513V166.588Z" fill="white"/>
<path d="M270.34 110.92L250.607 122.033V148.413L270.34 135.846V110.92Z" fill="white"/>
<path d="M236.483 129.822L216.75 140.935V166.899L236.483 154.748V129.822Z" fill="white"/>
<path d="M270.34 222.255L250.607 233.368V259.748L270.34 247.181V222.255Z" fill="white"/>
<path d="M236.483 241.158L216.75 252.27V278.65L236.483 266.083V241.158Z" fill="white"/>
<path d="M270.34 185.282L250.607 196.395V222.775L270.34 210.208V185.282Z" fill="white"/>
<path d="M236.483 204.184L216.75 215.297V241.677L236.483 229.11V204.184Z" fill="white"/>
<path d="M270.34 147.685L250.607 158.798V185.178L270.34 172.611V147.685Z" fill="white"/>
<path d="M236.483 166.588L216.75 177.7V204.08L236.483 191.513V166.588Z" fill="white"/>
<path d="M309.392 46.3205L296.098 53.8932V71.8695L309.392 63.306V46.3205Z" fill="#1B5083"/>
<path d="M286.543 59.1989L273.042 66.7319V84.3324L286.543 76.0954V59.1989Z" fill="#1B5083"/>
<path d="M309.392 121.929L296.098 129.502V147.478L309.392 138.914V121.929Z" fill="#1B5083"/>
<path d="M309.392 96.7953L296.098 104.368V122.344L309.392 113.781V96.7953Z" fill="#1B5083"/>
<path d="M309.392 71.2462L296.098 78.8189V96.7952L309.392 88.2317V71.2462Z" fill="#1B5083"/>
<path d="M309.392 146.024L296.098 153.596V171.573L309.392 163.009V146.024Z" fill="#1B5083"/>
<path d="M309.392 196.499L296.098 204.071V222.048L309.392 213.484V196.499Z" fill="#1B5083"/>
<path d="M309.392 170.95L296.098 178.522V196.499L309.392 187.935V170.95Z" fill="#1B5083"/>
<path d="M124.214 214.103L219.14 329.8L215.505 342.938L124.214 253.361L33.7537 359.503H0V342.938H26.4837L124.214 214.103Z" fill="black"/>
<path d="M288.309 230.356L383.235 346.054H410.965V359.192H379.6L288.309 271.172L203.354 359.192L162.849 359.192V346.054H197.849L288.309 230.356Z" fill="black"/>
<path d="M288.205 230.46L409.303 183.309L420 198.68L300.979 247.077L288.205 230.46Z" fill="black"/>
<path d="M364.645 259.852H344.496V283.22C349.481 290.178 356.751 299.318 364.645 309.08V259.852Z" fill="black"/>
<path d="M336.811 249.881H372.538V261.929H336.811V249.881Z" fill="black"/>
<path d="M65.6279 236.899H85.7763V260.267C80.4889 266.291 73.6343 273.561 65.6279 283.012V236.899Z" fill="black"/>
<rect x="57.8486" y="236.795" width="35.727" height="12.0475" fill="black"/>
<path d="M123.902 213.739L148.62 206.988V224.021L136.677 230.356L123.902 213.739Z" fill="black"/>
<rect x="111.024" y="303.057" width="15.7864" height="15.7864" fill="#1B5083"/>
<rect x="130.133" y="303.057" width="15.7864" height="15.7864" fill="#1B5083"/>
<rect x="130.133" y="322.166" width="15.7864" height="15.7864" fill="#1B5083"/>
<rect x="111.024" y="322.166" width="15.7864" height="15.7864" fill="#1B5083"/>
<rect x="274.496" y="312.612" width="15.7864" height="15.7864" fill="#1B5083"/>
<rect x="293.606" y="312.612" width="15.7864" height="15.7864" fill="#1B5083"/>
<rect x="293.606" y="331.721" width="15.7864" height="15.7864" fill="#1B5083"/>
<rect x="274.496" y="331.721" width="15.7864" height="15.7864" fill="#1B5083"/>
<path d="M3.63525 412.568C163.924 369.795 252.979 369.918 410.342 412.568V432.612C251.513 388.391 162.463 373.486 3.63525 418.903V412.568Z" fill="#1B5083"/>
<path d="M227.136 46.3205L240.43 53.8932V71.8695L227.136 63.306V46.3205Z" fill="#1B5083"/>
<path d="M249.985 59.1989L263.487 66.7319V84.3324L249.985 76.0954V59.1989Z" fill="#1B5083"/>
</svg>
