<svg width="119" height="100" viewBox="0 0 119 100" fill="#1B5083" xmlns="http://www.w3.org/2000/svg">
<g id="paint_bucket">
<path id="Rectangle 121" d="M94.3649 37.9227L63.8488 83.1086L4.38757 47.656C2.72729 46.6661 2.25836 44.565 3.3402 42.9631L29.9386 3.57817C31.0204 1.97627 33.2434 1.48014 34.9037 2.47006L94.3649 37.9227Z" stroke="white"/>
<path id="Rectangle 122" d="M14.7092 53.4042L45.1484 8.65788L81.2756 30.2177L49.3648 74.501L14.7092 53.4042Z" stroke="white"/>
<path id="Ellipse 13" d="M75.5 57.3163C75.5 59.087 73.9628 60.5747 72 60.5747C70.0372 60.5747 68.5 59.087 68.5 57.3163C68.5 55.5456 70.0372 54.0579 72 54.0579C73.9628 54.0579 75.5 55.5456 75.5 57.3163Z" stroke="white"/>
<path id="Rectangle 123" d="M116.99 59.1336L116.99 59.6294L71.25 58.1908L71.3431 57.4872L116.99 59.1336Z" stroke="white"/>
<path id="Vector 3" d="M66.5019 79.5405C68.449 76.0548 72.0816 71.8952 72.0816 71.8952C72.0816 71.8952 79.5024 77.518 84.6631 79.5405C89.7635 81.5394 94.5 93.0212 78.3277 91.4298C73.2785 90.933 56.654 97.1708 66.5019 79.5405Z" stroke="white"/>
</g>
</svg>
