<svg width="40" height="70" viewBox="0 0 40 70" fill="none" xmlns="http://www.w3.org/2000/svg">
<path id="paint_drop" d="M20 68.1933C15.0386 68.1933 10.224 65.7522 6.6361 61.3058C3.04353 56.8535 1 50.7772 1 44.4076C1 40.4543 2.20196 35.7457 4.05987 30.853C5.9122 25.9749 8.38843 20.9855 10.875 16.4915C13.3601 12.0002 15.8466 8.01975 17.7124 5.16166C18.6449 3.7331 19.4216 2.58613 19.9644 1.79729C19.9764 1.77989 19.9883 1.76267 20 1.74562C20.0117 1.76267 20.0236 1.77989 20.0356 1.79729C20.5784 2.58613 21.3551 3.7331 22.2876 5.16166C24.1534 8.01975 26.6399 12.0002 29.125 16.4915C31.6116 20.9855 34.0878 25.9749 35.9401 30.853C37.798 35.7457 39 40.4543 39 44.4076C39 50.7772 36.9565 56.8535 33.3639 61.3058C29.776 65.7522 24.9614 68.1933 20 68.1933Z" stroke="white" stroke-width="2"/>
</svg>
