<svg width="68" height="77" viewBox="0 0 68 77" fill="none" xmlns="http://www.w3.org/2000/svg">
<path d="M1 9.31585C1 7.11035 1.80774 4.99518 3.24551 3.43566C4.68329 1.87613 6.63334 1 8.66667 1H47C49.0333 1 50.9834 1.87613 52.4212 3.43566C53.8589 4.99518 54.6667 7.11035 54.6667 9.31585V17.6317C54.6667 19.8372 53.8589 21.9524 52.4212 23.5119C50.9834 25.0714 49.0333 25.9476 47 25.9476H8.66667C6.63334 25.9476 4.68329 25.0714 3.24551 23.5119C1.80774 21.9524 1 19.8372 1 17.6317V9.31585Z" stroke="white" stroke-width="2" stroke-linecap="round" stroke-linejoin="round"/>
<path d="M54.6667 13.4739H58.5C60.5333 13.4739 62.4834 14.35 63.9212 15.9095C65.3589 17.4691 66.1667 19.5842 66.1667 21.7897C66.1667 27.3035 64.1473 32.5914 60.5529 36.4902C56.9585 40.389 52.0833 42.5794 47 42.5794H27.8334V50.8952M20.1667 55.0531C20.1667 53.9504 20.5706 52.8928 21.2894 52.113C22.0083 51.3333 22.9834 50.8952 24 50.8952H31.6667C32.6834 50.8952 33.6584 51.3333 34.3773 52.113C35.0962 52.8928 35.5 53.9504 35.5 55.0531V71.6848C35.5 72.7876 35.0962 73.8452 34.3773 74.6249C33.6584 75.4047 32.6834 75.8428 31.6667 75.8428H24C22.9834 75.8428 22.0083 75.4047 21.2894 74.6249C20.5706 73.8452 20.1667 72.7876 20.1667 71.6848V55.0531Z" stroke="white" stroke-width="2" stroke-linecap="round" stroke-linejoin="round"/>
</svg>
