<svg width="20" height="22" viewBox="0 0 42 44" fill="none" xmlns="http://www.w3.org/2000/svg">
<path d="M39.978 29.0121L30.0848 24.4572L30.0575 24.4442C29.5439 24.2185 28.9837 24.1279 28.4274 24.1807C27.8712 24.2334 27.3365 24.4278 26.8718 24.7463C26.8171 24.7834 26.7645 24.8237 26.7143 24.8671L21.6029 29.3444C18.3646 27.7283 15.0214 24.3191 13.4485 21.035L17.8123 15.7034C17.8543 15.6494 17.8942 15.5955 17.932 15.5372C18.2353 15.061 18.4194 14.5152 18.4677 13.9482C18.5161 13.3813 18.4273 12.8109 18.2092 12.2877V12.2618L13.7635 2.07959C13.4753 1.39617 12.9796 0.826861 12.3506 0.456649C11.7216 0.0864368 10.9929 -0.0648206 10.2733 0.0254559C7.42771 0.41019 4.81573 1.84606 2.9252 4.06489C1.03467 6.28372 -0.00512599 9.13376 1.90023e-05 12.0827C1.90023e-05 29.2149 13.5661 43.1537 30.2402 43.1537C33.1103 43.159 35.8842 42.0906 38.0437 40.1482C40.2032 38.2057 41.6007 35.522 41.9751 32.5982C42.0631 31.8591 41.9162 31.1106 41.5563 30.4643C41.1964 29.818 40.6428 29.3086 39.978 29.0121ZM30.2402 39.7014C23.1136 39.6934 16.281 36.781 11.2417 31.6032C6.20234 26.4255 3.36782 19.4052 3.36004 12.0827C3.35214 9.9757 4.09095 7.93776 5.4385 6.34949C6.78605 4.76123 8.6502 3.73124 10.6828 3.45189C10.682 3.4605 10.682 3.46918 10.6828 3.47779L15.0928 13.619L10.7521 18.9572C10.7079 19.0092 10.6679 19.0647 10.6324 19.1233C10.3164 19.6216 10.131 20.1953 10.0942 20.7888C10.0574 21.3823 10.1705 21.9755 10.4224 22.5109C12.325 26.5092 16.2457 30.5074 20.1791 32.4601C20.704 32.7165 21.2847 32.8287 21.8644 32.7856C22.4441 32.7425 23.0031 32.5456 23.4866 32.2141C23.5406 32.177 23.5925 32.1366 23.642 32.0933L28.7471 27.6182L38.6172 32.1602H38.6403C38.3717 34.2516 37.3708 36.1708 35.8247 37.5588C34.2786 38.9468 32.2933 39.7085 30.2402 39.7014Z" fill="white"/>
</svg>
