<svg width="67" height="100" viewBox="0 0 67 100" fill="none" xmlns="http://www.w3.org/2000/svg">
<rect x="0.5" y="0.5" width="66" height="99" rx="4.5" stroke="white"/>
<rect x="5.5" y="4.5" width="56" height="82" stroke="white"/>
<path d="M20.8323 21.5H33.5488C38.7029 21.5 42.8811 25.6782 42.8811 30.8323C42.8811 35.9864 38.7032 40.1646 33.5491 40.1646H33.5227H33.4963H33.4698H33.4434H33.417H33.3905H33.3641H33.3376H33.3112H33.2847H33.2583H33.2318H33.2054H33.1789H33.1525H33.126H33.0996H33.0731H33.0466H33.0202H32.9937H32.9673H32.9408H32.9144H32.8879H32.8614H32.835H32.8085H32.7821H32.7556H32.7292H32.7027H32.6763H32.6498H32.6234H32.5969H32.5705H32.544H32.5176H32.4912H32.4647H32.4383H32.4119H32.3854H32.359H32.3326H32.3062H32.2798H32.2534H32.227H32.2006H32.1742H32.1478H32.1214H32.095H32.0687H32.0423H32.0159H31.9896H31.9632H31.9369H31.9106H31.8842H31.8579H31.8316H31.8053H31.779H31.7527H31.7264H31.7001H31.6738H31.6475H31.6213H31.595H31.5688H31.5425H31.5163H31.4901H31.4639H31.4377H31.4115H31.3853H31.3591H31.3329H31.3068H31.2806H31.2545H31.2284H31.2023H31.1761H31.15H31.124H31.0979H31.0718H31.0458H31.0197H30.9937H30.9677H30.9417H30.9157H30.8897H30.8637H30.8377H30.8118H30.7859H30.7599H30.734H30.7081H30.6822H30.6564H30.6305H30.6047H30.5788H30.553H30.5272H30.5014H30.4757H30.4499H30.4242H30.3984H30.3727H30.347H30.3213H30.2957H30.27H30.2444H30.2188H30.1932H30.1676H30.142H30.1164H30.0909H30.0654H30.0399H30.0144H29.9889H29.9635H29.938H29.9126H29.8872H29.8618H29.8365H29.8111H29.7858H29.7605H29.7352H29.7099H29.6847H29.6594H29.6342H29.609H29.5838H29.5587H29.5336H29.5084H29.4834H29.4583H29.4332H29.4082H29.3832H29.3582H29.3332H29.3083H29.2834H29.2584H29.2336H29.2087H29.1839H29.1591H29.1343H29.1095H29.0847H29.06H29.0353H29.0106H28.986H28.9613H28.9367H28.9122H28.8876H28.8631H28.8385H28.8141H28.7896H28.7652H28.7407H28.7164H28.692H28.6677H28.6433H28.6191H28.5948H28.5706H28.5464H28.5222H28.498H28.4739H28.4498H28.4257H28.4017H28.3776H28.3536H28.3297H28.3057H28.2818H28.2579H28.2341H28.2103H28.1865H28.1627H28.1389H28.1152H28.0915H28.0679H28.0443H28.0207H27.9971H27.9736H27.9501H27.9266H27.9031H27.8797H27.8563H27.833H27.8097H27.7864H27.7631H27.7399H27.7167H27.6935H27.6704H27.6473H27.6242H27.6012H27.5781H27.5552H27.5322H27.5093H27.4864H27.4636H27.4408H27.418H27.3953H27.3726H27.3499H27.3272H27.3046H27.2821H27.2595H27.237H27.2146H27.1921H27.1697H27.1474H27.125H27.1027H27.0805H27.0583H27.0361H27.0139H26.9918H26.9697H26.9477H26.9257H26.9037H26.8818H26.8599H26.838H26.8162H26.7944H26.7727H26.751H26.7293H26.7077H26.6861H26.6646H26.6431H26.6216H26.6001H26.5788H26.5574H26.5361H26.5148H26.4936H26.4724H26.4512H26.4301H26.409H26.388H26.367H26.346H26.3251H26.3043H26.2834H26.2626H26.2419H26.2212H26.2005H26.1799H26.1593H26.1388H26.1183H26.0978H26.0774H26.0571H26.0368H26.0165H25.9962H25.976H25.9559H25.9358H25.9157H25.8957H25.8757H25.8558H25.8359H25.8161H25.7963H25.7766H25.7569H25.7372H25.7176H25.698H25.6785H25.659H25.6396H25.6202H25.6009H25.5816H25.5624H25.5432H25.524H25.5049H25.4859H25.4669H25.4479H25.429H25.4101H25.3913H25.3726H25.3538H25.3352H25.3166H25.298H25.2795H25.261H25.2426H25.2242H25.2059H25.1876H25.1694H25.1512H25.1331H25.115H25.097H25.079H25.0611H25.0432H25.0254H25.0077H24.9899H24.9723H24.9547H24.9371H24.9196H24.9022H24.8847H24.8674H24.8501H24.8329H24.8157H24.7985H24.7814H24.7644H24.7474H24.7305H24.7136H24.6968H24.6801H24.6634H24.6467H24.6301H24.6136H24.5971H24.5807H24.5643H24.548H24.5317H24.5155H24.4993H24.4832H24.4672H24.4512H24.4353H24.4194H24.4036H24.3878H24.3721H24.3565H24.3409H24.3254H24.3099H24.2945H24.2791H24.2638H24.2486H24.2334H24.2183H24.2032H24.1882H24.1733H24.1584H24.1436H24.1288H24.1141H24.0995H24.0849H24.0703H24.0559H24.0415H24.0271H24.0128H23.9986H23.9845H23.9284H23.9146H23.9008H23.887H23.8734H23.8598H23.8462H23.8328H23.8193H23.806H23.7927H23.7795H23.7663H23.7532H23.7402H23.7272H23.7143H23.7014H23.6887H23.676H23.6633H23.6507H23.6382H23.6257H23.6134H23.601H23.5888H23.5766H23.5645H23.5524H23.5404H23.5285H23.5166H23.5048H23.4931H23.4814H23.4699H23.4583H23.4469H23.4355H23.4242H23.4129H23.4017H23.3906H23.3795H23.3686H23.3577H23.3468H23.336H23.3253H23.3147H23.3041H23.2936H23.2832H23.2729H23.2626H23.2524H23.2422H23.2321H23.2221H23.2122H23.2023H23.1925H23.1828H23.1732H23.1636H23.1541H23.1447H23.1353H23.126H23.1168H23.1076H23.0986H23.0896H23.0806H23.0718H23.063H23.0543H23.0457H23.0371H23.0286H23.0202H23.0119H23.0036H22.9954C22.5188 40.1646 22.008 40.333 21.5052 40.5788C20.9953 40.828 20.4532 41.1771 19.9033 41.5839C18.8033 42.3976 17.6299 43.4739 16.5606 44.5381C15.4891 45.6045 14.5115 46.6695 13.8025 47.467C13.7834 47.4884 13.7645 47.5097 13.7458 47.5308C13.8355 46.7815 13.9344 45.8565 14.0035 44.9297C14.0827 43.8673 14.1246 42.78 14.0626 41.9487C14.0321 41.5389 13.9739 41.1519 13.8626 40.8533C13.7657 40.5936 13.533 40.1646 13.032 40.1646C12.1859 40.1646 11.5 39.4787 11.5 38.6326V30.8323C11.5 25.6782 15.6782 21.5 20.8323 21.5Z" stroke="white"/>
<rect x="15.9814" y="25.5884" width="21.7622" height="1.44207" fill="white"/>
<rect x="15.9814" y="29.259" width="21.7622" height="1.44207" fill="white"/>
<rect x="16.2441" y="33.061" width="13.2409" height="1.44207" fill="white"/>
<path d="M55.0472 72.815C55.013 72.4914 54.9802 72.1432 54.9542 71.7944C54.9051 71.1362 54.8783 70.453 54.9177 69.9248C54.937 69.6665 54.9744 69.4058 55.0528 69.1956C55.1167 69.0244 55.3043 68.6459 55.7449 68.6459C56.1619 68.6459 56.5 68.3078 56.5 67.8908V63.0729C56.5 59.9951 54.0049 57.5 50.9271 57.5H43.0727C39.9949 57.5 37.4998 59.9951 37.4998 63.0729C37.4998 66.1508 39.9947 68.6459 43.0725 68.6459H43.0888H43.1051H43.1215H43.1378H43.1541H43.1704H43.1868H43.2031H43.2195H43.2358H43.2521H43.2685H43.2848H43.3011H43.3175H43.3338H43.3502H43.3665H43.3828H43.3992H43.4155H43.4319H43.4482H43.4646H43.4809H43.4972H43.5136H43.5299H43.5463H43.5626H43.579H43.5953H43.6116H43.628H43.6443H43.6606H43.677H43.6933H43.7096H43.726H43.7423H43.7586H43.7749H43.7912H43.8076H43.8239H43.8402H43.8565H43.8728H43.8891H43.9054H43.9217H43.938H43.9543H43.9706H43.9869H44.0032H44.0195H44.0357H44.052H44.0683H44.0846H44.1008H44.1171H44.1333H44.1496H44.1658H44.1821H44.1983H44.2146H44.2308H44.247H44.2632H44.2794H44.2957H44.3119H44.3281H44.3443H44.3605H44.3766H44.3928H44.409H44.4252H44.4413H44.4575H44.4736H44.4898H44.5059H44.522H44.5382H44.5543H44.5704H44.5865H44.6026H44.6187H44.6348H44.6509H44.6669H44.683H44.6991H44.7151H44.7311H44.7472H44.7632H44.7792H44.7952H44.8112H44.8272H44.8432H44.8592H44.8752H44.8911H44.9071H44.923H44.939H44.9549H44.9708H44.9867H45.0026H45.0185H45.0344H45.0503H45.0661H45.082H45.0978H45.1137H45.1295H45.1453H45.1611H45.1769H45.1927H45.2085H45.2242H45.24H45.2557H45.2715H45.2872H45.3029H45.3186H45.3343H45.35H45.3656H45.3813H45.3969H45.4126H45.4282H45.4438H45.4594H45.475H45.4905H45.5061H45.5217H45.5372H45.5527H45.5682H45.5837H45.5992H45.6147H45.6301H45.6456H45.661H45.6765H45.6919H45.7073H45.7226H45.738H45.7534H45.7687H45.784H45.7993H45.8146H45.8299H45.8452H45.8605H45.8757H45.8909H45.9061H45.9213H45.9365H45.9517H45.9669H45.982H45.9971H46.0122H46.0273H46.0424H46.0575H46.0725H46.0875H46.1026H46.1176H46.1325H46.1475H46.1625H46.1774H46.1923H46.2072H46.2221H46.237H46.2518H46.2667H46.2815H46.2963H46.3111H46.3259H46.3406H46.3553H46.3701H46.3848H46.3994H46.4141H46.4287H46.4434H46.458H46.4726H46.4872H46.5017H46.5162H46.5308H46.5453H46.5597H46.5742H46.5887H46.6031H46.6175H46.6319H46.6462H46.6606H46.6749H46.6892H46.7035H46.7178H46.732H46.7463H46.7605H46.7747H46.7888H46.803H46.8171H46.8312H46.8453H46.8594H46.8734H46.8875H46.9015H46.9155H46.9294H46.9434H46.9573H46.9712H46.9851H46.9989H47.0127H47.0266H47.0404H47.0541H47.0679H47.0816H47.0953H47.109H47.1226H47.1363H47.1499H47.1635H47.177H47.1906H47.2041H47.2176H47.2311H47.2445H47.258H47.2714H47.2848H47.2981H47.3114H47.3248H47.338H47.3513H47.3645H47.3778H47.3909H47.4041H47.4173H47.4304H47.4435H47.4565H47.4696H47.4826H47.4956H47.5085H47.5215H47.5344H47.5473H47.5602H47.573H47.5858H47.5986H47.6114H47.6241H47.6368H47.6495H47.6622H47.6748H47.6874H47.7H47.7125H47.725H47.7375H47.75H47.7625H47.7749H47.7873H47.7996H47.812H47.8243H47.8366H47.8488H47.861H47.8732H47.8854H47.8975H47.9097H47.9217H47.9338H47.9458H47.9578H47.9698H47.9817H47.9936H48.0055H48.0174H48.0292H48.041H48.0528H48.0645H48.0762H48.0879H48.0996H48.1112H48.1228H48.1343H48.1459H48.1574H48.1688H48.1803H48.1917H48.203H48.2144H48.2257H48.237H48.2483H48.2595H48.2707H48.2818H48.293H48.3041H48.3151H48.3262H48.3372H48.3481H48.3591H48.37H48.3809H48.3917H48.4025H48.4133H48.4241H48.4348H48.4455H48.4561H48.4667H48.4773H48.4879H48.4984H48.5089H48.5193H48.5297H48.5401H48.5505H48.5608H48.5711H48.5813H48.5916H48.6017H48.6119H48.622H48.6321H48.6421H48.6521H48.6621H48.6721H48.682H48.6918H48.7017H48.7115H48.7213H48.731H48.7407H48.7503H48.76H48.7696H48.7791H48.7886H48.7981H48.8076H48.817H48.8264H48.8357H48.845H48.8543H48.8635H48.8727H48.8819H48.891H48.9001H48.9091H48.9181H48.9271H48.936H48.9449H48.9538H48.9626H48.9714H48.9801H49.0147H49.0233H49.0318H49.0403H49.0487H49.0571H49.0655H49.0738H49.0821H49.0904H49.0986H49.1067H49.1149H49.123H49.131H49.139H49.147H49.1549H49.1628H49.1707H49.1785H49.1863H49.194H49.2017H49.2093H49.2169H49.2245H49.232H49.2395H49.247H49.2544H49.2618H49.2691H49.2764H49.2836H49.2908H49.298H49.3051H49.3122H49.3192H49.3262H49.3331H49.3401H49.3469H49.3538H49.3605H49.3673H49.374H49.3806H49.3872H49.3938H49.4003H49.4068H49.4133H49.4197H49.426H49.4323H49.4386H49.4448H49.451H49.4571H49.4632H49.4693H49.4753H49.4812H49.4871H49.493H49.4988H49.5046H49.5104H49.516H49.5217H49.5273H49.5329H49.5384H49.5438H49.5493H49.5546H49.56H49.5653H49.5705H49.5757H49.5808H49.5859H49.591C49.9273 68.6459 50.2734 68.7637 50.5954 68.9211C50.9244 69.0819 51.2695 69.3048 51.6145 69.56C52.3048 70.0706 53.0371 70.7428 53.7003 71.4029C54.1971 71.8972 54.661 72.3908 55.0472 72.815Z" stroke="white"/>
<rect width="13.4415" height="0.890699" transform="matrix(-1 0 0 1 53.9229 59.834)" fill="white"/>
<rect width="13.4415" height="0.890699" transform="matrix(-1 0 0 1 53.9229 62.1013)" fill="white"/>
<rect width="8.17824" height="0.890699" transform="matrix(-1 0 0 1 53.7607 64.4495)" fill="white"/>
</svg>
