<svg width="58" height="63" viewBox="0 0 58 63" fill="none" xmlns="http://www.w3.org/2000/svg">
<path d="M1 16.1855H8M1 31.3709H11.5M1 46.5564H8M15 1V8.59273M29 1V12.3891M43 1V8.59273M4.5 1H53.5C54.4283 1 55.3185 1.39997 55.9749 2.11193C56.6313 2.82389 57 3.78951 57 4.79637V23.7782C57 24.7851 56.6313 25.7507 55.9749 26.4626C55.3185 27.1746 54.4283 27.5746 53.5 27.5746H29C28.0717 27.5746 27.1815 27.9745 26.5251 28.6865C25.8687 29.3985 25.5 30.3641 25.5 31.3709V57.9455C25.5 58.9524 25.1313 59.918 24.4749 60.6299C23.8185 61.3419 22.9283 61.7419 22 61.7419H4.5C3.57174 61.7419 2.6815 61.3419 2.02513 60.6299C1.36875 59.918 1 58.9524 1 57.9455V4.79637C1 3.78951 1.36875 2.82389 2.02513 2.11193C2.6815 1.39997 3.57174 1 4.5 1Z" stroke="white" stroke-width="2" stroke-linecap="round" stroke-linejoin="round"/>
</svg>
