<svg width="252" height="250" viewBox="0 0 252 250" fill="none" xmlns="http://www.w3.org/2000/svg">
<circle cx="46" cy="236" r="14" fill="#1B5083"/>
<circle cx="46" cy="109" r="14" fill="#1B5083"/>
<circle cx="174" cy="109" r="14" fill="#1B5083"/>
<circle cx="174" cy="236" r="14" fill="#1B5083"/>
<circle cx="46" cy="173" r="14" fill="#1B5083"/>
<circle cx="46" cy="46" r="14" fill="#1B5083"/>
<circle cx="174" cy="46" r="14" fill="#1B5083"/>
<circle cx="174" cy="173" r="14" fill="#1B5083"/>
<circle cx="14" cy="236" r="14" fill="#1B5083"/>
<circle cx="14" cy="109" r="14" fill="#1B5083"/>
<circle cx="142" cy="109" r="14" fill="#1B5083"/>
<circle cx="142" cy="236" r="14" fill="#1B5083"/>
<circle cx="14" cy="173" r="14" fill="#1B5083"/>
<circle cx="14" cy="46" r="14" fill="#1B5083"/>
<circle cx="142" cy="46" r="14" fill="#1B5083"/>
<circle cx="142" cy="173" r="14" fill="#1B5083"/>
<circle cx="46" cy="204" r="14" fill="#1B5083"/>
<circle cx="46" cy="77" r="14" fill="#1B5083"/>
<circle cx="174" cy="77" r="14" fill="#1B5083"/>
<circle cx="174" cy="204" r="14" fill="#1B5083"/>
<circle cx="46" cy="141" r="14" fill="#1B5083"/>
<circle cx="46" cy="14" r="14" fill="#1B5083"/>
<circle cx="174" cy="14" r="14" fill="#1B5083"/>
<circle cx="174" cy="141" r="14" fill="#1B5083"/>
<circle cx="14" cy="204" r="14" fill="#1B5083"/>
<circle cx="14" cy="77" r="14" fill="#1B5083"/>
<circle cx="142" cy="77" r="14" fill="#1B5083"/>
<circle cx="142" cy="204" r="14" fill="#1B5083"/>
<circle cx="14" cy="141" r="14" fill="#1B5083"/>
<circle cx="14" cy="14" r="14" fill="#1B5083"/>
<circle cx="142" cy="14" r="14" fill="#1B5083"/>
<circle cx="142" cy="141" r="14" fill="#1B5083"/>
<circle cx="110" cy="173" r="14" fill="#1B5083"/>
<circle cx="110" cy="46" r="14" fill="#1B5083"/>
<circle cx="238" cy="46" r="14" fill="#1B5083"/>
<circle cx="238" cy="173" r="14" fill="#1B5083"/>
<circle cx="110" cy="236" r="14" fill="#1B5083"/>
<circle cx="110" cy="109" r="14" fill="#1B5083"/>
<circle cx="238" cy="109" r="14" fill="#1B5083"/>
<circle cx="238" cy="236" r="14" fill="#1B5083"/>
<circle cx="78" cy="173" r="14" fill="#1B5083"/>
<circle cx="78" cy="46" r="14" fill="#1B5083"/>
<circle cx="206" cy="46" r="14" fill="#1B5083"/>
<circle cx="206" cy="173" r="14" fill="#1B5083"/>
<circle cx="78" cy="236" r="14" fill="#1B5083"/>
<circle cx="78" cy="109" r="14" fill="#1B5083"/>
<circle cx="206" cy="109" r="14" fill="#1B5083"/>
<circle cx="206" cy="236" r="14" fill="#1B5083"/>
<circle cx="110" cy="141" r="14" fill="#1B5083"/>
<circle cx="110" cy="14" r="14" fill="#1B5083"/>
<circle cx="238" cy="14" r="14" fill="#1B5083"/>
<circle cx="238" cy="141" r="14" fill="#1B5083"/>
<circle cx="110" cy="204" r="14" fill="#1B5083"/>
<circle cx="110" cy="77" r="14" fill="#1B5083"/>
<circle cx="238" cy="77" r="14" fill="#1B5083"/>
<circle cx="238" cy="204" r="14" fill="#1B5083"/>
<circle cx="78" cy="141" r="14" fill="#1B5083"/>
<circle cx="78" cy="14" r="14" fill="#1B5083"/>
<circle cx="206" cy="14" r="14" fill="#1B5083"/>
<circle cx="206" cy="141" r="14" fill="#1B5083"/>
<circle cx="78" cy="204" r="14" fill="#1B5083"/>
<circle cx="78" cy="77" r="14" fill="#1B5083"/>
<circle cx="206" cy="77" r="14" fill="#1B5083"/>
<circle cx="206" cy="204" r="14" fill="#1B5083"/>
</svg>
