<svg width="89" height="89" viewBox="0 0 89 89" fill="none" xmlns="http://www.w3.org/2000/svg">
<path d="M62.7969 63.8287L63.4357 64.2218L63.8287 63.5831L67.3887 57.7981L67.7863 57.1521L67.1359 56.7619L47.475 44.9654V22.25V21.5H46.725H40.05H39.3V22.25V48.95V49.3691L39.6569 49.5887L62.7969 63.8287ZM27.7576 4.08027C33.0656 1.88163 38.7547 0.75 44.5 0.75C50.2453 0.75 55.9344 1.88163 61.2424 4.08027C66.5504 6.27891 71.3734 9.50151 75.4359 13.5641C79.4985 17.6266 82.7211 22.4496 84.9197 27.7576C87.1184 33.0656 88.25 38.7547 88.25 44.5C88.25 56.1032 83.6406 67.2312 75.4359 75.4359C67.2312 83.6406 56.1032 88.25 44.5 88.25C38.7547 88.25 33.0656 87.1184 27.7576 84.9197C22.4496 82.7211 17.6266 79.4985 13.5641 75.4359C5.35936 67.2312 0.75 56.1032 0.75 44.5C0.75 32.8968 5.35936 21.7688 13.5641 13.5641C17.6266 9.50151 22.4496 6.27891 27.7576 4.08027Z" stroke="white" stroke-width="1.5"/>
</svg>
