<svg width="58" height="63" viewBox="0 0 58 63" fill="none" xmlns="http://www.w3.org/2000/svg">
<path d="M13.5668 24.6393H22.7939V14.6309L12.0289 2.9543C15.4726 1.17036 19.3414 0.58831 23.1027 1.28829C26.864 1.98827 30.3327 3.93585 33.0312 6.86285C35.7297 9.78985 37.5253 13.5523 38.1706 17.6321C38.8159 21.7119 38.2793 25.9083 36.6347 29.6436L55.089 49.6606C56.3126 50.9878 57 52.7878 57 54.6648C57 56.5418 56.3126 58.3418 55.089 59.669C53.8654 60.9962 52.2058 61.7419 50.4754 61.7419C48.745 61.7419 47.0854 60.9962 45.8618 59.669L27.4075 39.6521C23.9638 41.436 20.095 42.0181 16.3337 41.3181C12.5724 40.6181 9.10366 38.6705 6.40516 35.7435C3.70666 32.8165 1.91112 29.0541 1.26578 24.9743C0.620449 20.8945 1.15706 16.698 2.80173 12.9628L13.5668 24.6393Z" stroke="white" stroke-width="2" stroke-linecap="round" stroke-linejoin="round"/>
</svg>
