<svg width="74" height="64" viewBox="0 0 74 64" fill="none" xmlns="http://www.w3.org/2000/svg">
<path d="M54.5 15.999V16.999H55.5H66.6C70.0458 16.999 73 20.0763 73 23.9985V38.9974H60.2V35.9977C60.2 33.3203 58.1592 30.9979 55.5 30.9979C52.8408 30.9979 50.8 33.3203 50.8 35.9977V38.9974H23.2V35.9977C23.2 33.3203 21.1592 30.9979 18.5 30.9979C15.8408 30.9979 13.8 33.3203 13.8 35.9977V38.9974H1V23.9985C1 20.0763 3.95421 16.999 7.4 16.999H18.5H19.5V15.999V7.99949C19.5 4.07728 22.4542 1 25.9 1H48.1C51.5458 1 54.5 4.07728 54.5 7.99949V15.999ZM48.1 16.999H49.1V15.999V7.99949V6.99949H48.1H25.9H24.9V7.99949V15.999V16.999H25.9H48.1ZM18.5 48.9969C20.8211 48.9969 22.671 47.2276 23.1039 44.9972H50.8961C51.329 47.2276 53.1789 48.9969 55.5 48.9969C57.8211 48.9969 59.671 47.2276 60.1039 44.9972H73V55.9964C73 59.9186 70.0458 62.9959 66.6 62.9959H7.4C3.95421 62.9959 1 59.9186 1 55.9964V44.9972H13.8961C14.329 47.2276 16.1789 48.9969 18.5 48.9969Z" stroke="white" stroke-width="2"/>
</svg>
